<svg width="833" height="958" viewBox="0 0 833 958" fill="none" xmlns="http://www.w3.org/2000/svg">
<path d="M386 957.711C599.182 957.711 772 857.935 772 734.856C772 611.776 599.182 512 386 512C172.818 512 0 611.776 0 734.856C0 857.935 172.818 957.711 386 957.711Z" fill="#FAFAFA"/>
<mask id="path-2-outside-1_237_980" maskUnits="userSpaceOnUse" x="184" y="12" width="411" height="662" fill="black">
<rect fill="white" x="184" y="12" width="411" height="662"/>
<path d="M321.891 671V208.553C302.337 224.848 281.154 237.232 258.341 245.705C236.18 254.178 214.671 260.696 193.814 265.259V133.271C226.403 123.494 258.015 108.177 288.649 87.3194C319.935 66.4621 346.007 42.6716 366.865 15.9481H456.812V671H321.891ZM187.947 671V550.744H591.733V671H187.947Z"/>
</mask>
<path d="M321.891 671V208.553C302.337 224.848 281.154 237.232 258.341 245.705C236.18 254.178 214.671 260.696 193.814 265.259V133.271C226.403 123.494 258.015 108.177 288.649 87.3194C319.935 66.4621 346.007 42.6716 366.865 15.9481H456.812V671H321.891ZM187.947 671V550.744H591.733V671H187.947Z" fill="#283649"/>
<path d="M321.891 671H318.905V673.986H321.891V671ZM321.891 208.553H324.877V202.178L319.979 206.259L321.891 208.553ZM258.341 245.705L257.301 242.906L257.288 242.911L257.275 242.916L258.341 245.705ZM193.814 265.259H190.828V268.969L194.452 268.176L193.814 265.259ZM193.814 133.271L192.956 130.411L190.828 131.049V133.271H193.814ZM288.649 87.3194L286.993 84.8349L286.981 84.843L286.969 84.8512L288.649 87.3194ZM366.865 15.9481V12.9621H365.407L364.511 14.1109L366.865 15.9481ZM456.812 15.9481H459.798V12.9621H456.812V15.9481ZM456.812 671V673.986H459.798V671H456.812ZM187.947 671H184.961V673.986H187.947V671ZM187.947 550.744V547.758H184.961V550.744H187.947ZM591.733 550.744H594.719V547.758H591.733V550.744ZM591.733 671V673.986H594.719V671H591.733ZM324.877 671V208.553H318.905V671H324.877ZM319.979 206.259C300.673 222.347 279.783 234.556 257.301 242.906L259.381 248.504C282.525 239.908 304.001 227.348 323.802 210.847L319.979 206.259ZM257.275 242.916C235.238 251.342 213.872 257.814 193.175 262.342L194.452 268.176C215.47 263.578 237.122 257.015 259.407 248.494L257.275 242.916ZM196.8 265.259V133.271H190.828V265.259H196.8ZM194.672 136.131C227.579 126.259 259.466 110.802 290.33 89.7877L286.969 84.8512C256.565 105.552 225.228 120.729 192.956 130.411L194.672 136.131ZM290.306 89.8039C321.829 68.7887 348.144 44.7864 369.218 17.7853L364.511 14.1109C343.87 40.5569 318.042 64.1355 286.993 84.8349L290.306 89.8039ZM366.865 18.9341H456.812V12.9621H366.865V18.9341ZM453.826 15.9481V671H459.798V15.9481H453.826ZM456.812 668.014H321.891V673.986H456.812V668.014ZM190.933 671V550.744H184.961V671H190.933ZM187.947 553.73H591.733V547.758H187.947V553.73ZM588.747 550.744V671H594.719V550.744H588.747ZM591.733 668.014H187.947V673.986H591.733V668.014Z" fill="white" mask="url(#path-2-outside-1_237_980)"/>
<mask id="path-4-outside-2_237_980" maskUnits="userSpaceOnUse" x="223.098" y="11.8281" width="411" height="662" fill="black">
<rect fill="white" x="223.098" y="11.8281" width="411" height="662"/>
<path d="M360.989 670.828V208.381C341.435 224.676 320.251 237.06 297.439 245.533C275.278 254.007 253.769 260.524 232.911 265.087V133.099C265.501 123.322 297.113 108.005 327.747 87.1476C359.033 66.2902 385.105 42.4997 405.962 15.7762H495.91V670.828H360.989ZM227.045 670.828V550.572H630.831V670.828H227.045Z"/>
</mask>
<path d="M360.989 670.828V208.381C341.435 224.676 320.251 237.06 297.439 245.533C275.278 254.007 253.769 260.524 232.911 265.087V133.099C265.501 123.322 297.113 108.005 327.747 87.1476C359.033 66.2902 385.105 42.4997 405.962 15.7762H495.91V670.828H360.989ZM227.045 670.828V550.572H630.831V670.828H227.045Z" fill="url(#paint0_linear_237_980)"/>
<path d="M360.989 670.828H358.003V673.814H360.989V670.828ZM360.989 208.381H363.975V202.006L359.077 206.087L360.989 208.381ZM297.439 245.533L296.399 242.734L296.386 242.739L296.372 242.744L297.439 245.533ZM232.911 265.087H229.925V268.797L233.549 268.004L232.911 265.087ZM232.911 133.099L232.053 130.239L229.925 130.877V133.099H232.911ZM327.747 87.1476L326.091 84.6631L326.079 84.6711L326.067 84.6793L327.747 87.1476ZM405.962 15.7762V12.7902H404.505L403.608 13.939L405.962 15.7762ZM495.91 15.7762H498.896V12.7902H495.91V15.7762ZM495.91 670.828V673.814H498.896V670.828H495.91ZM227.045 670.828H224.059V673.814H227.045V670.828ZM227.045 550.572V547.586H224.059V550.572H227.045ZM630.831 550.572H633.817V547.586H630.831V550.572ZM630.831 670.828V673.814H633.817V670.828H630.831ZM363.975 670.828V208.381H358.003V670.828H363.975ZM359.077 206.087C339.771 222.175 318.88 234.384 296.399 242.734L298.478 248.332C321.623 239.736 343.098 227.176 362.9 210.675L359.077 206.087ZM296.372 242.744C274.336 251.17 252.97 257.643 232.273 262.17L233.549 268.004C254.567 263.406 276.22 256.843 298.505 248.322L296.372 242.744ZM235.897 265.087V133.099H229.925V265.087H235.897ZM233.769 135.959C266.676 126.087 298.563 110.63 329.428 89.6158L326.067 84.6793C295.662 105.38 264.325 120.557 232.053 130.239L233.769 135.959ZM329.403 89.6321C360.926 68.6168 387.242 44.6145 408.316 17.6134L403.608 13.939C382.968 40.385 357.14 63.9636 326.091 84.6631L329.403 89.6321ZM405.962 18.7622H495.91V12.7902H405.962V18.7622ZM492.924 15.7762V670.828H498.896V15.7762H492.924ZM495.91 667.842H360.989V673.814H495.91V667.842ZM230.031 670.828V550.572H224.059V670.828H230.031ZM227.045 553.558H630.831V547.586H227.045V553.558ZM627.845 550.572V670.828H633.817V550.572H627.845ZM630.831 667.842H227.045V673.814H630.831V667.842Z" fill="white" mask="url(#path-4-outside-2_237_980)"/>
<path fill-rule="evenodd" clip-rule="evenodd" d="M650.316 410.911C642.75 415.472 635.317 417.675 631.827 416.776C623.077 414.52 622.272 382.51 629.043 369.89C635.813 357.271 670.618 351.771 672.373 376.774C672.982 385.452 669.338 393.196 663.954 399.515L673.607 444.508H645.567L650.316 410.911Z" fill="#B28B67"/>
<path fill-rule="evenodd" clip-rule="evenodd" d="M685.291 744.292C635.606 744.292 595.328 705.846 595.328 658.419C595.328 610.992 635.606 572.545 685.291 572.545C734.976 572.545 775.254 610.992 775.254 658.419C775.254 705.846 734.976 744.292 685.291 744.292Z" fill="#C5CFD6"/>
<path fill-rule="evenodd" clip-rule="evenodd" d="M545.429 653.839C541.083 669.061 530.257 697.911 515.287 731.043L501.062 726.893C513.507 650.652 523.864 600.178 529.797 584.815C533.717 574.665 563.372 575.854 559.96 596.278C558.529 604.842 552.869 627.776 545.429 653.839ZM603.896 599.839C627.094 604.646 675.193 621.636 688.927 627.065C697.559 630.477 691.995 642.048 684.631 641.036C683.383 640.864 678.972 640.371 672.389 639.634C651.244 637.269 607.7 632.397 574.674 627.644C557.285 625.141 566.639 592.569 584.695 596.015C590.769 597.175 597.23 598.458 603.896 599.839Z" fill="#B28B67"/>
<path fill-rule="evenodd" clip-rule="evenodd" d="M528.888 576.211C531.26 568.472 639.071 541 639.071 541H647.906V549.233L573.614 587.052C573.713 588.272 573.652 589.562 573.413 590.922C573.949 618.959 561.95 639.904 550.07 660.641C542.301 674.202 534.583 687.673 530.455 702.981L503.16 698.909C503.955 696.876 505.212 687.707 506.931 675.171C511.266 643.564 518.536 590.548 528.735 576.522C528.77 576.472 528.807 576.424 528.844 576.375C528.857 576.32 528.872 576.266 528.888 576.211Z" fill="#37474F"/>
<path fill-rule="evenodd" clip-rule="evenodd" d="M641.733 609.512C648.53 608.152 654.79 606.937 660.146 605.998C694.745 599.929 704.834 581.409 698.869 541H635.121C624.708 543.991 570.591 566.686 542.512 578.757C523.929 586.746 529.787 615.546 540.311 623.041C540.368 623.5 540.557 623.813 540.894 623.952C580.794 640.49 614.82 639.256 636.669 638.463C645.82 638.131 652.835 637.877 657.251 639.038L664.171 617.209L641.733 609.512Z" fill="#455A64"/>
<path fill-rule="evenodd" clip-rule="evenodd" d="M681.639 625.933C681.693 624.566 682.846 623.473 684.207 623.618C686.688 623.882 690.349 624.397 692.131 625.267C694.972 626.652 699.96 630.256 699.96 630.256C698.353 633.551 671.072 689.484 671.072 689.484C671.072 689.484 662.314 688.07 664.131 682.799C665.949 677.528 667.063 673.999 667.063 673.999L668.217 640.485C668.24 639.827 668.801 639.318 669.458 639.359L674.614 639.683C674.614 639.683 679.008 636.126 680.412 633.247C681.267 631.495 681.549 628.224 681.639 625.933Z" fill="#E4E4E4"/>
<path fill-rule="evenodd" clip-rule="evenodd" d="M518.862 723.594C520.114 723.043 521.602 723.601 522.068 724.887C522.919 727.233 524.061 730.75 524.061 732.732C524.061 735.893 523.008 741.956 523.008 741.956C519.341 741.956 457.111 741.956 457.111 741.956C457.111 741.956 454.542 733.464 460.076 732.787C465.61 732.11 469.271 731.564 469.271 731.564L499.899 717.91C500.5 717.642 501.204 717.923 501.455 718.532L503.424 723.307C503.424 723.307 508.547 725.698 511.75 725.698C513.7 725.698 516.763 724.518 518.862 723.594Z" fill="#E4E4E4"/>
<path fill-rule="evenodd" clip-rule="evenodd" d="M532.429 492.092L574.764 510.684L561.246 528.001L529.54 503.692C513.703 500.784 506.359 498.285 507.506 496.196C508.474 494.434 510.274 494.335 511.933 494.243C513.225 494.172 514.43 494.106 515.089 493.262C516.593 491.335 512.881 485.382 509.116 479.884C505.352 474.386 508.88 474.585 510.946 475.242C517.852 479.085 525.013 484.702 532.429 492.092ZM721.975 520.555L745.917 515.805C762.154 558.601 771.834 582.053 774.957 586.16C777.248 589.173 791.372 596.931 800.933 601.075C804.77 602.738 803.946 605.981 802.821 607.018C795.721 613.562 789.121 611.269 781.937 608.772C779.857 608.049 777.728 607.309 775.524 606.762C769.819 605.345 768.083 608.279 766.442 611.051C764.99 613.506 763.612 615.834 759.62 614.905C759.802 614.122 760.025 613.244 760.266 612.297C761.822 606.175 764.116 597.145 760.712 591.899C758.965 589.207 746.053 565.426 721.975 520.555Z" fill="#B28B67"/>
<path fill-rule="evenodd" clip-rule="evenodd" d="M656.907 426.23L646.804 424.497C624.799 445.843 615.819 497.125 601.155 503.914C587.29 510.332 567.635 504.121 544.273 495.735L537.118 511.721C558.345 534.686 603.567 554.088 621.897 543.011C651.204 525.303 657.969 462.053 656.907 426.23Z" fill="#377AD3"/>
<path fill-rule="evenodd" clip-rule="evenodd" d="M700.947 553.192C700.947 553.192 640.184 553.192 611.555 553.192C607.471 553.192 608.24 547.293 608.831 544.317C615.646 509.967 642.248 472.94 642.248 424.043L668.033 420C689.36 454.301 696.736 496.532 700.947 553.192Z" fill="#DDE3E9"/>
<path fill-rule="evenodd" clip-rule="evenodd" d="M669.402 420H669.696C727.531 455.64 762.483 510.887 774.553 585.74L755.815 589.41C743.404 574.95 728.086 551.285 709.863 518.414C715.454 538.215 719.536 558.523 720.809 577.727H640.342C624.765 538.36 659.486 420 659.486 420H665.042H669.402Z" fill="#3E89EC"/>
<path d="M244.5 885C339.217 885 416 841.572 416 788C416 734.428 339.217 691 244.5 691C149.783 691 73 734.428 73 788C73 841.572 149.783 885 244.5 885Z" fill="#E0E0E0"/>
<path fill-rule="evenodd" clip-rule="evenodd" d="M170.503 318.152C179.694 320.795 188.088 321.012 191.487 319.095C200.01 314.286 191.893 280.625 181.278 269.342C170.663 258.058 132.711 262.07 137.873 288.678C139.665 297.913 145.644 304.98 153.045 310.072L155.539 359.774L184.874 351.914L170.503 318.152Z" fill="#784931"/>
<path fill-rule="evenodd" clip-rule="evenodd" d="M165.841 258.09C161.505 257.944 155.576 259.089 153.203 260.025C153.703 256.321 153.261 252.462 151.842 248.969C150.464 245.576 148.091 243.007 145.799 240.264C144.742 238.999 143.598 237.767 142.17 236.966C140.716 236.149 139.057 235.798 137.432 235.853C135.768 235.91 134.139 236.379 132.658 237.129C132.003 237.46 131.466 237.944 130.832 238.302C130.184 238.67 129.729 238.325 129.106 238.023C127.604 237.295 125.677 237.253 124.085 237.48C122.299 237.734 120.573 238.476 119.075 239.486C117.617 240.47 116.315 241.781 115.504 243.4C115.143 244.121 114.851 244.909 114.742 245.722C114.697 246.056 114.724 246.24 114.454 246.43C114.203 246.606 113.88 246.696 113.619 246.87C111.1 248.548 109.305 251.319 108.751 254.408C108.427 256.21 108.826 259.123 109.77 262.255C110.714 265.387 115.778 272.862 119.255 275.152C122.358 277.196 126.337 278.027 129.927 277.896C128.369 281.06 127.732 284.662 127.5 288.214C127.247 292.073 127.489 295.947 128.218 299.766C128.91 303.393 129.894 307.162 131.663 310.42C133.317 313.467 135.704 315.69 138.948 316.637C140.434 317.071 141.965 317.286 143.491 317.448C144.995 317.608 146.499 317.753 148.005 317.665C150.857 317.498 153.945 316.568 155.451 313.863C155.993 312.888 156.558 311.694 156.852 310.602C156.957 310.209 157.016 309.955 156.688 309.687C156.295 309.365 155.75 309.184 155.299 308.972C152.725 307.758 150.791 305.735 149.708 303.006C148.61 300.236 148.391 296.341 150.84 294.347C153.863 291.887 158.121 292.64 161.617 293.47C161.689 288.548 163.251 283.716 166.867 280.499C170.867 276.939 176.099 275.246 180.316 271.982C181.414 271.131 182.517 270.204 183.145 268.903C183.408 268.359 183.701 267.666 183.697 267.041C183.691 266.22 183.022 265.709 182.479 265.213C179.597 262.584 170.176 258.236 165.841 258.09Z" fill="black"/>
<path fill-rule="evenodd" clip-rule="evenodd" d="M161.973 461.027L207.85 621.767L241.323 740.241H265.737L230.167 461.027H161.973Z" fill="#455A64"/>
<path fill-rule="evenodd" clip-rule="evenodd" d="M149.703 461.027C148.642 543.874 145.023 589.061 143.909 596.588C142.795 604.115 125.948 651.999 93.3691 740.241H118.66C160.136 655.588 183.289 607.704 188.119 596.588C192.949 585.472 207.854 540.285 230.305 461.027H149.703Z" fill="#37474F"/>
<path fill-rule="evenodd" clip-rule="evenodd" d="M91.1113 762.982L92.3767 736.45L118.951 736.45C137.851 749.716 168.302 757.928 168.302 757.928V762.982H120.216L103.766 760.455V762.982H91.1113Z" fill="black"/>
<path fill-rule="evenodd" clip-rule="evenodd" d="M237.898 762.982L239.164 736.45L265.738 736.45C284.638 749.716 315.089 757.928 315.089 757.928V762.982H267.003L250.553 760.455V762.982H237.898Z" fill="black"/>
<path fill-rule="evenodd" clip-rule="evenodd" d="M71.3447 527.807C74.7901 520.17 88.8913 442.931 88.8913 442.931L111.528 442.24C111.528 442.24 89.5634 525.491 87.7801 530.387C85.4635 536.747 90.0843 545.707 93.2176 551.782C93.7023 552.722 94.1515 553.593 94.5338 554.374C90.5465 556.326 88.525 554.207 86.3939 551.974C83.9869 549.45 81.4399 546.781 75.7623 549.664C73.5687 550.778 71.5015 552.077 69.4819 553.345C62.5056 557.728 56.0969 561.754 47.0092 556.585C45.5685 555.765 43.9091 552.547 47.5552 549.859C56.6387 543.162 69.6603 531.541 71.3447 527.807ZM304.899 451.882L261.666 426.674L255.091 449.51L296.571 461.786C309.198 473.789 316.062 478.624 317.162 476.292C318.09 474.325 317.032 472.687 316.056 471.179C315.297 470.003 314.588 468.906 314.908 467.794C315.64 465.253 323.219 464.715 330.432 464.511C337.646 464.308 335.227 461.348 333.337 459.96C325.573 456.362 316.094 453.67 304.899 451.882Z" fill="#B28B67"/>
<path fill-rule="evenodd" clip-rule="evenodd" d="M165.301 336.827L178.182 329.9C204.894 372.901 240.458 412.794 293.355 442.459L285.396 464.166C240.553 447.435 198.819 435.654 176.89 402.55C169.53 391.44 167.411 351.292 165.301 336.827Z" fill="#3E89EC"/>
<path fill-rule="evenodd" clip-rule="evenodd" d="M141.29 475.34C141.29 475.34 201.155 471.199 233.803 459.028C236.5 458.022 236.118 453.286 234.268 450.351C205.457 404.659 184.078 364.126 178.047 329.924C172.999 333.69 158.803 334.179 158.803 334.179C140.201 373.802 135.925 416.254 141.29 475.34Z" fill="#323337"/>
<path fill-rule="evenodd" clip-rule="evenodd" d="M151.171 332.479C151.735 331.935 152.035 331.661 152.035 331.661L152.113 332.313L162.454 330.489C163.512 333.449 166.267 344.625 170.285 360.922C184.886 420.141 216.158 546.973 243.206 592.852L116.337 615.222C109.167 558.905 118.013 488.486 129.377 428.013C116.374 446.452 102.593 475.947 95.4196 522.265L70.5817 520.365C76.4277 411.909 137.903 345.665 149.982 333.644C150.062 333.31 150.141 332.977 150.22 332.647L151.171 332.479Z" fill="#3E89EC"/>
<path d="M636.54 292.405L630.18 290.182C630.104 290.159 630.034 290.12 629.974 290.068C629.914 290.016 629.866 289.952 629.833 289.88C629.777 289.733 629.777 289.57 629.833 289.422L636.531 270.207C636.555 270.132 636.595 270.063 636.647 270.004C636.698 269.945 636.762 269.896 636.833 269.862C636.903 269.828 636.981 269.809 637.059 269.805C637.138 269.801 637.216 269.813 637.29 269.841L643.695 272.055C643.841 272.111 643.962 272.218 644.034 272.357C644.089 272.505 644.089 272.667 644.034 272.815L637.336 292.03C637.292 292.164 637.201 292.278 637.08 292.35C636.959 292.422 636.816 292.448 636.677 292.424L636.54 292.405ZM637.455 271.167L631.15 289.258L636.384 291.088L642.689 272.998L637.455 271.167ZM628.872 287.226L614.231 282.139C613.264 281.869 612.442 281.229 611.945 280.356C611.448 279.484 611.316 278.451 611.578 277.481C611.763 276.949 612.018 276.445 612.337 275.981C611.817 275.508 611.43 274.906 611.216 274.236C611.003 273.566 610.969 272.852 611.12 272.165C611.316 271.554 611.627 270.986 612.035 270.49C611.569 270.018 611.244 269.426 611.093 268.78C610.943 268.134 610.975 267.459 611.184 266.83C611.344 266.316 611.629 265.851 612.014 265.475C612.399 265.1 612.872 264.826 613.389 264.68C612.998 263.814 612.958 262.829 613.279 261.935C613.561 261.06 614.177 260.332 614.992 259.909C615.808 259.485 616.758 259.401 617.635 259.675L625.761 262.511C626.074 259.874 627.233 257.408 629.064 255.484C629.757 254.728 630.684 254.226 631.696 254.06C632.709 253.894 633.747 254.073 634.646 254.569C635.616 255.136 635.561 255.749 635.442 255.987C635.323 256.225 635.213 256.563 635.012 257.048C634.527 258.229 633.383 260.992 633.41 261.678C633.438 262.365 634.609 267.041 635.387 269.96C635.419 270.073 635.419 270.194 635.387 270.307L629.631 286.778C629.584 286.91 629.492 287.021 629.372 287.093C629.252 287.165 629.111 287.192 628.972 287.171L628.872 287.226ZM632.23 261.77C632.184 260.855 633.008 258.833 633.923 256.627L634.27 255.786C633.822 255.457 633.288 255.267 632.733 255.237C632.226 255.18 631.712 255.246 631.235 255.427C630.758 255.609 630.33 255.901 629.988 256.28C628.152 258.193 627.045 260.689 626.859 263.335C626.85 263.425 626.82 263.513 626.773 263.59C626.725 263.668 626.661 263.734 626.584 263.783C626.508 263.834 626.422 263.867 626.331 263.878C626.24 263.889 626.148 263.879 626.063 263.847L617.242 260.773C616.669 260.597 616.05 260.654 615.519 260.932C614.988 261.209 614.588 261.685 614.405 262.255C614.256 262.673 614.217 263.123 614.292 263.56C614.367 263.998 614.554 264.409 614.835 264.753C614.911 264.843 614.959 264.954 614.972 265.071C614.985 265.189 614.963 265.307 614.908 265.412C614.853 265.517 614.768 265.603 614.664 265.66C614.56 265.717 614.441 265.742 614.323 265.732C613.87 265.708 613.423 265.841 613.057 266.107C612.69 266.374 612.426 266.758 612.31 267.196C612.137 267.695 612.138 268.238 612.312 268.736C612.487 269.234 612.824 269.659 613.27 269.941C613.358 269.994 613.431 270.07 613.481 270.159C613.531 270.249 613.556 270.351 613.554 270.454C613.552 270.556 613.526 270.656 613.476 270.745C613.427 270.835 613.356 270.911 613.27 270.966C612.758 271.366 612.389 271.922 612.218 272.549C612.138 273.066 612.211 273.595 612.427 274.071C612.643 274.547 612.994 274.95 613.435 275.23C613.529 275.263 613.614 275.318 613.681 275.392C613.748 275.465 613.796 275.554 613.819 275.651C613.843 275.747 613.843 275.847 613.819 275.943C613.795 276.038 613.748 276.127 613.682 276.2C613.262 276.692 612.937 277.256 612.721 277.866C612.574 278.536 612.691 279.237 613.05 279.822C613.408 280.407 613.979 280.831 614.643 281.004L628.68 285.89L634.17 270.115C633.831 268.825 632.257 262.831 632.212 261.77H632.23Z" fill="#E0E0E0"/>
<path d="M35.8 165.357C35.8 165.357 37.3464 156.636 37.3006 155.364C37.2549 154.092 34.7019 149.545 34.3084 148.675C33.915 147.806 37.8771 145.656 40.5765 148.209C43.0083 150.377 44.6016 153.331 45.0784 156.554L55.0524 152.098C55.8752 151.762 56.7976 151.766 57.6174 152.109C58.4373 152.452 59.0877 153.106 59.4262 153.928C59.6947 154.513 59.8064 155.158 59.7503 155.8C59.6941 156.442 59.4721 157.058 59.106 157.588C59.7833 157.498 60.4713 157.637 61.0601 157.984C61.649 158.33 62.1046 158.864 62.3544 159.5C62.6442 160.204 62.6919 160.984 62.4898 161.718C62.2877 162.452 61.8473 163.098 61.238 163.554C62.0251 164.039 62.6274 164.773 62.9491 165.64C63.4341 166.72 62.8485 169.181 61.4485 169.804C62.0544 170.399 62.5419 171.104 62.8851 171.881C63.204 172.814 63.1451 173.836 62.7211 174.726C62.297 175.617 61.5415 176.307 60.6158 176.648L44.1451 184.023L35.8 165.357Z" fill="#E0E0E0"/>
<path d="M33.1922 165.878L26 169.09L35.6903 190.813L42.9374 187.601L33.1922 165.878ZM37.7674 187.235C37.4883 187.237 37.215 187.156 36.982 187.002C36.7491 186.848 36.567 186.629 36.459 186.371C36.3509 186.114 36.3217 185.83 36.3751 185.556C36.4284 185.283 36.5619 185.031 36.7586 184.833C36.9553 184.635 37.2063 184.5 37.4799 184.444C37.7535 184.389 38.0373 184.417 38.2954 184.523C38.5534 184.629 38.774 184.81 38.9293 185.042C39.0845 185.274 39.1674 185.547 39.1674 185.826C39.1699 186.194 39.0272 186.548 38.7703 186.812C38.5134 187.076 38.163 187.228 37.7948 187.235H37.7674Z" fill="#E0E0E0"/>
<defs>
<linearGradient id="paint0_linear_237_980" x1="418.232" y1="0.828125" x2="488.17" y2="853.333" gradientUnits="userSpaceOnUse">
<stop offset="0.585" stop-color="#3E89EC"/>
<stop offset="1" stop-color="#234E86"/>
</linearGradient>
</defs>
</svg>
