<svg width="504" height="504" viewBox="0 0 504 504" fill="none" xmlns="http://www.w3.org/2000/svg">
<path fill-rule="evenodd" clip-rule="evenodd" d="M72.744 72.744C42 103.53 42 153.006 42 252C42 350.994 42 400.491 72.744 431.235C103.53 462 153.006 462 252 462C350.994 462 400.491 462 431.235 431.235C462 400.512 462 350.994 462 252C462 153.006 462 103.509 431.235 72.744C400.512 42 350.994 42 252 42C153.006 42 103.509 42 72.744 72.744ZM114.681 232.764C118.577 199.025 134.744 167.897 160.104 145.305C185.465 122.714 218.247 110.237 252.21 110.25C293.832 110.25 331.17 128.625 356.517 157.647C359.165 160.807 360.468 164.879 360.147 168.989C359.825 173.099 357.906 176.919 354.8 179.63C351.693 182.34 347.648 183.724 343.533 183.486C339.417 183.247 335.559 181.404 332.787 178.353C322.758 166.841 310.374 157.616 296.473 151.302C282.572 144.987 267.478 141.73 252.21 141.75C226.603 141.732 201.84 150.907 182.427 167.607C163.014 184.307 150.241 207.42 146.433 232.743H154.077C157.194 232.742 160.242 233.665 162.834 235.397C165.426 237.129 167.446 239.591 168.638 242.472C169.83 245.352 170.14 248.522 169.529 251.579C168.918 254.636 167.414 257.442 165.207 259.644L140.658 284.151C137.705 287.1 133.702 288.757 129.528 288.757C125.354 288.757 121.351 287.1 118.398 284.151L93.87 259.644C91.6701 257.441 90.1723 254.636 89.5657 251.583C88.9592 248.529 89.271 245.365 90.462 242.489C91.6529 239.612 93.6695 237.154 96.257 235.423C98.8446 233.692 101.887 232.767 105 232.764H114.681ZM363.321 219.849C366.274 216.9 370.277 215.243 374.451 215.243C378.625 215.243 382.628 216.9 385.581 219.849L410.13 244.356C412.33 246.559 413.828 249.364 414.434 252.417C415.041 255.471 414.729 258.635 413.538 261.511C412.347 264.388 410.331 266.846 407.743 268.577C405.155 270.308 402.113 271.233 399 271.236H389.34C385.443 304.979 369.273 336.11 343.909 358.702C318.544 381.294 285.757 393.768 251.79 393.75C232.027 393.772 212.489 389.554 194.495 381.381C176.502 373.208 160.47 361.271 147.483 346.374C144.734 343.227 143.348 339.117 143.63 334.949C143.912 330.78 145.838 326.894 148.985 324.146C152.131 321.397 156.241 320.011 160.41 320.293C164.578 320.574 168.464 322.5 171.213 325.647C181.245 337.162 193.632 346.388 207.536 352.703C221.441 359.017 236.54 362.273 251.811 362.25C277.415 362.263 302.173 353.085 321.581 336.386C340.99 319.687 353.759 296.576 357.567 271.257H349.944C346.827 271.258 343.779 270.335 341.187 268.603C338.595 266.871 336.575 264.409 335.383 261.528C334.192 258.648 333.881 255.478 334.492 252.421C335.103 249.364 336.607 246.558 338.814 244.356L363.321 219.849Z" fill="#3E89EC"/>
</svg>
