<svg width="772" height="347" viewBox="0 0 772 347" fill="none" xmlns="http://www.w3.org/2000/svg">
<path fill-rule="evenodd" clip-rule="evenodd" d="M383.253 2.09197C381.895 3.23547 380.781 4.5163 380.777 4.939C380.773 5.36104 379.516 7.60315 377.982 9.92031C376.45 12.2381 375.195 14.2672 375.195 14.4307C375.195 14.7006 370.508 22.4044 368.886 24.7986C368.512 25.3512 367.905 26.4706 367.536 27.2859C367.168 28.1011 365.65 30.6635 364.164 32.98C358.092 42.4449 354.238 49.5229 354.238 51.2117C354.238 54.9269 355.974 56.4831 368.494 63.9872C375.256 68.04 381.354 71.6575 382.046 72.0259C382.738 72.3943 385.331 73.9324 387.807 75.4444C398.63 82.0495 405.028 85.7178 406.945 86.4165C408.626 87.0288 410.497 86.8492 417.075 85.4458C429.188 82.8627 432.636 81.7755 434.741 79.879C437.853 77.0729 437.914 74.5199 434.993 69.3343C430.84 61.9594 427.526 60.3959 421.547 62.9904C413.131 66.6426 402.634 67.4197 394.845 64.9679C386.766 62.4244 382.341 58.7801 378.61 51.5942C376.533 47.5936 376.346 46.696 376.296 40.541C376.253 35.0801 376.541 33.0885 377.857 29.7645C379.811 24.8294 384.225 19.8287 390.29 15.6787C395.471 12.133 396.152 11.169 396.152 7.38142C396.152 3.91809 395.274 2.31437 392.673 1.02416C389.318 -0.639854 386.059 -0.270737 383.253 2.09197ZM399.995 26.4083C394.124 28.893 391.64 36.9129 394.333 44.6856C396.564 51.1253 403.007 54.868 410.415 54.0293C414.49 53.5684 417.467 51.2124 418.497 47.6338C419.42 44.4291 418.541 41.8185 414.078 34.5127C409.119 26.3943 405.266 24.1769 399.995 26.4083ZM343.139 68.8439C342.018 69.8568 340.172 72.3441 339.037 74.3705C337.901 76.3969 336.26 79.1984 335.389 80.5958C334.518 81.9932 333.96 83.2841 334.149 83.4649C334.337 83.6458 335.869 83.3631 337.554 82.8366C346.201 80.1329 355.412 80.2093 362.003 83.0396C366.025 84.7659 372.16 90.7132 374.214 94.8752C377.195 100.918 377.793 105.205 376.378 110.379C373.233 121.875 364.651 130.916 350.046 138.116C346.458 139.885 344.668 140.355 341.514 140.355C336.791 140.355 335.433 139.376 334.907 135.591C334.402 131.962 336.279 129.893 341.806 127.986C350.649 124.933 358.571 118.949 360.927 113.54C363.259 108.189 361.159 101.358 356.16 98.0364C352.442 95.5652 347.213 95.2369 340.266 97.0383C327.598 100.322 323.441 101.608 322.524 102.528C320.762 104.296 290.584 154.989 290.201 156.825C289.716 159.149 290.91 161.21 293.681 162.83C295.802 164.07 297.463 164.131 328.949 164.133C365.421 164.136 364.93 164.19 367.294 159.938C367.956 158.747 369.06 156.265 369.747 154.422C370.434 152.58 371.919 148.963 373.048 146.384C374.177 143.805 377.456 135.967 380.334 128.967C394.871 93.6084 394.638 94.3547 391.937 91.7649C391.155 91.0153 388.868 89.4323 386.855 88.248C384.842 87.0629 382.573 85.7292 381.815 85.2837C381.055 84.8376 378.548 83.4335 376.243 82.162C373.938 80.8912 367.045 76.9603 360.924 73.4266C348.433 66.2139 346.579 65.7363 343.139 68.8439ZM439.814 91.103C438.661 91.3965 433.002 92.4643 427.239 93.4751C421.476 94.486 414.717 95.801 412.22 96.3979C407.81 97.4509 407.629 97.5789 405.933 100.875C404.972 102.742 403.807 105.153 403.345 106.235C402.551 108.088 400.56 112.798 387.041 144.807C383.984 152.045 381.482 158.434 381.482 159.005C381.482 159.575 381.54 161.796 382.467 162.83L383.563 163.505L384.852 163.801L396.498 164.027C409.437 164.278 411.62 163.842 413.337 160.658C414.709 158.114 414.074 156.336 410.73 153.353C407.664 150.619 407.302 148.464 409.306 144.861C410.271 143.126 412.023 141.974 417.703 139.335C421.651 137.501 424.991 136 425.127 136C425.262 136 428.779 134.462 432.942 132.582C437.106 130.702 442.87 128.103 445.752 126.808C448.633 125.511 453.212 123.447 455.927 122.222C461.154 119.859 462.985 117.712 462.091 114.989C461.157 112.142 448.38 91.7502 447.128 91.1071C445.639 90.3427 442.801 90.3414 439.814 91.103ZM461.819 135.791C460.722 136.163 455.599 138.424 445.969 142.787C442.822 144.213 440.024 145.379 439.749 145.379C439.475 145.379 437.522 146.163 435.411 147.12C430.979 149.131 430.577 148.646 440.861 153.686C444.896 155.664 450.711 158.532 453.785 160.061C461.29 163.793 464.195 164.453 468.949 163.507C476.177 162.068 480.68 156.688 480.68 149.493C480.68 143.314 477.456 138.779 471.313 136.317C468.911 135.355 463.922 135.079 461.819 135.791Z" fill="#3E89EC"/>
<path d="M77.7965 236.681V242.892C77.7965 250.788 69.7958 254.683 53.7944 254.683H12.738C9.36927 254.683 7.47436 253.314 7.47436 250.577C7.47436 247.84 9.36927 246.471 12.738 246.471H53.7944C62.4267 246.471 66.7429 245.208 66.7429 242.892V236.997C66.7429 234.576 62.4267 233.418 53.7944 233.418H32.1082C16.0015 233.418 8.106 229.628 8.106 221.943V216.995C8.106 208.047 16.3173 203.52 32.8451 203.52H47.2675C50.7415 203.52 52.6364 204.994 52.6364 207.731C52.6364 210.468 50.6362 211.837 47.2675 211.837H32.8451C23.6864 211.837 19.0544 213.521 19.0544 216.995V221.627C19.0544 224.469 23.6864 225.943 32.7398 225.943H54.426C70.0064 225.943 77.7965 229.522 77.7965 236.681ZM148.683 254.683H115.943C100.889 254.683 93.4147 250.051 93.4147 240.681V234.681C93.4147 225.417 100.889 220.785 115.943 220.785H160.684V219.206C160.684 214.258 156.368 211.837 147.735 211.837H132.892C129.418 211.837 127.628 210.468 127.628 207.731C127.628 204.994 129.418 203.52 132.892 203.52H147.735C163.737 203.52 171.632 208.784 171.632 219.206V239.839C171.632 249.735 164.053 254.683 148.683 254.683ZM148.051 246.471C156.473 246.471 160.684 244.155 160.684 239.523V228.049H116.785C108.574 228.049 104.468 230.259 104.468 234.47V239.944C104.468 244.261 108.574 246.471 116.785 246.471H148.051ZM260.409 254.683H194.718C190.929 254.683 188.928 252.998 188.928 250.156C188.928 248.472 189.876 246.998 192.087 245.524L244.407 212.152H196.613C192.929 212.152 191.034 210.679 191.034 207.836C191.034 204.994 193.034 203.52 196.508 203.52H258.093C261.777 203.52 263.672 205.204 263.672 207.836C263.672 209.626 262.514 211.31 260.724 212.468L207.877 246.156H260.514C264.198 246.156 266.093 247.524 266.093 250.366C266.093 253.209 264.198 254.683 260.409 254.683ZM352.184 236.681V242.892C352.184 250.788 344.183 254.683 328.182 254.683H287.126C283.757 254.683 281.862 253.314 281.862 250.577C281.862 247.84 283.757 246.471 287.126 246.471H328.182C336.814 246.471 341.131 245.208 341.131 242.892V236.997C341.131 234.576 336.814 233.418 328.182 233.418H306.496C290.389 233.418 282.494 229.628 282.494 221.943V216.995C282.494 208.047 290.705 203.52 307.233 203.52H321.655C325.129 203.52 327.024 204.994 327.024 207.731C327.024 210.468 325.024 211.837 321.655 211.837H307.233C298.074 211.837 293.442 213.521 293.442 216.995V221.627C293.442 224.469 298.074 225.943 307.127 225.943H328.814C344.394 225.943 352.184 229.522 352.184 236.681ZM462.342 254.683H429.602C414.548 254.683 407.074 250.051 407.074 240.681V234.681C407.074 225.417 414.548 220.785 429.602 220.785H474.343V219.206C474.343 214.258 470.027 211.837 461.395 211.837H446.551C443.077 211.837 441.288 210.468 441.288 207.731C441.288 204.994 443.077 203.52 446.551 203.52H461.395C477.396 203.52 485.292 208.784 485.292 219.206V239.839C485.292 249.735 477.712 254.683 462.342 254.683ZM461.711 246.471C470.132 246.471 474.343 244.155 474.343 239.523V228.049H430.445C422.233 228.049 418.128 230.259 418.128 234.47V239.944C418.128 244.261 422.233 246.471 430.445 246.471H461.711ZM553.224 254.683H516.063V268.579C516.063 271.526 514.168 273 510.483 273C506.799 273 504.904 271.526 504.904 268.579V220.258C504.904 209.1 513.957 203.52 532.064 203.52H553.224C571.331 203.52 580.384 209.1 580.384 220.258V238.05C580.384 249.103 571.331 254.683 553.224 254.683ZM516.063 220.153V246.156H553.54C563.962 246.156 569.12 243.418 569.12 238.155V220.153C569.12 214.784 563.962 212.152 553.54 212.152H531.643C521.326 212.152 516.063 214.784 516.063 220.153ZM648.319 254.683H611.158V268.579C611.158 271.526 609.263 273 605.578 273C601.894 273 599.999 271.526 599.999 268.579V220.258C599.999 209.1 609.052 203.52 627.159 203.52H648.319C666.426 203.52 675.479 209.1 675.479 220.258V238.05C675.479 249.103 666.426 254.683 648.319 254.683ZM611.158 220.153V246.156H648.635C659.057 246.156 664.215 243.418 664.215 238.155V220.153C664.215 214.784 659.057 212.152 648.635 212.152H626.738C616.421 212.152 611.158 214.784 611.158 220.153ZM762.995 236.681V242.892C762.995 250.788 754.994 254.683 738.992 254.683H697.936C694.567 254.683 692.672 253.314 692.672 250.577C692.672 247.84 694.567 246.471 697.936 246.471H738.992C747.625 246.471 751.941 245.208 751.941 242.892V236.997C751.941 234.576 747.625 233.418 738.992 233.418H717.306C701.199 233.418 693.304 229.628 693.304 221.943V216.995C693.304 208.047 701.515 203.52 718.043 203.52H732.465C735.939 203.52 737.834 204.994 737.834 207.731C737.834 210.468 735.834 211.837 732.465 211.837H718.043C708.884 211.837 704.252 213.521 704.252 216.995V221.627C704.252 224.469 708.884 225.943 717.938 225.943H739.624C755.204 225.943 762.995 229.522 762.995 236.681Z" fill="#216DCE"/>
<path d="M55.406 203.259H48.5311H41.9999H35.4686H31.6874L27.5624 203.596L23.7812 204.27L23.0178 204.376C21.2877 204.617 20 206.097 20 207.843C20 209.777 21.5673 211.344 23.5007 211.344L37.8749 211.344L85.3534 211.667C86.4674 211.675 87.3745 210.774 87.3745 209.66V205.322C87.3745 204.183 86.4511 203.259 85.3121 203.259H82.5621H76.0309H69.1559H55.406Z" fill="black"/>
<path d="M26.8406 303.698C35.8239 303.698 41.2138 308.246 41.2138 316.668C41.2138 322.956 35.8239 329.694 26.8406 329.694H14.7132V343H6.68436V303.698H26.8406ZM14.7132 323.405H25.7177C29.5917 323.405 33.185 320.43 33.185 316.836C33.185 312.457 29.704 310.323 25.7177 310.323H14.7132V323.405ZM97.7975 324.023C99.7064 324.977 101.784 326.718 101.784 333.175L101.84 343H93.755V333.399C93.755 330.873 92.1268 329.637 89.1511 329.637L73.4303 329.694V343H65.3454V303.698H87.0737C96.057 303.698 101.447 307.067 101.447 314.478C101.447 318.689 99.3695 320.317 97.4045 321.384C95.9447 322.563 93.362 323.237 91.453 323.405V323.518C92.4075 323.461 93.4743 323.293 94.3164 323.293C94.5972 323.293 96.5623 323.237 97.7975 324.023ZM86.1754 310.323H73.4303V322.9H84.884C89.6564 322.9 94.3164 320.71 94.3164 316.668C94.3164 311.839 90.9477 310.323 86.1754 310.323ZM125.98 343V303.698H134.009V343H125.98ZM178.876 335.757L190.386 303.698H198.976L184.772 343H172.363L158.159 303.698H166.637L178.203 335.757C178.427 336.263 178.483 336.992 178.483 337.61H178.596C178.596 336.992 178.652 336.263 178.876 335.757ZM253.349 343H244.478L241.446 334.915H224.827L221.739 343H213.036L227.859 303.698H238.526L253.349 343ZM240.379 331.715L233.08 312.288L227.017 328.234C229.262 328.234 231.003 328.234 232.407 328.29C233.754 328.346 236 328.402 237.853 328.683C238.695 328.907 239.537 329.918 240.379 331.715ZM290.863 312.962V343H282.891V311.053H268.517V303.698H305.18V311.053H292.772C291.649 311.053 290.414 310.492 289.572 309.65L289.46 309.762C290.302 310.604 290.863 311.839 290.863 312.962ZM362.779 303.698V311.053H337.346V320.654H361.095V326.942H337.346V335.645H362.779V343H329.317V303.698H362.779ZM435.856 335.645H456.574V343H425.694V303.698H433.723V333.511C433.723 334.803 433.105 336.206 432.207 337.105L432.263 337.161C433.161 336.263 434.565 335.645 435.856 335.645ZM480.736 343V303.698H488.765V343H480.736ZM534.811 331.041L547.388 303.642H555.866V342.944L547.837 343V323.574C547.837 321.328 548.23 318.408 548.735 316.162H548.623C548.118 318.352 547.276 321.216 546.209 323.237L537.394 343H531.33L522.572 323.237C521.505 321.216 520.663 318.352 520.157 316.162H520.045C520.55 318.408 520.943 321.328 520.943 323.574V343H512.915V303.698H521.393L533.969 331.041C534.194 331.546 534.306 332.332 534.306 332.95H534.418C534.418 332.332 534.587 331.546 534.811 331.041ZM580.019 343V303.698H588.048V343H580.019ZM634.544 312.962V343H626.571V311.053H612.198V303.698H648.861V311.053H636.453C635.33 311.053 634.094 310.492 633.252 309.65L633.14 309.762C633.982 310.604 634.544 311.839 634.544 312.962ZM706.46 303.698V311.053H681.026V320.654H704.775V326.942H681.026V335.645H706.46V343H672.997V303.698H706.46ZM748.807 303.698C759.812 303.698 768.795 309.986 768.795 323.349C768.795 336.712 759.812 343 748.807 343H730.616V303.698H748.807ZM738.645 335.645H749.425C754.422 335.645 760.766 332.108 760.766 323.349C760.766 314.927 754.534 311.053 749.425 311.053H735.669C737.41 311.053 738.645 311.39 738.645 312.85V335.645Z" fill="black"/>
<path d="M77.7965 236.681V242.892C77.7965 250.788 69.7958 254.683 53.7944 254.683H12.738C9.36927 254.683 7.47436 253.314 7.47436 250.577C7.47436 247.84 9.36927 246.471 12.738 246.471H53.7944C62.4267 246.471 66.7429 245.208 66.7429 242.892V236.997C66.7429 234.576 62.4267 233.418 53.7944 233.418H32.1082C16.0015 233.418 8.106 229.628 8.106 221.943V216.995C8.106 208.047 16.3173 203.52 32.8451 203.52H47.2675C50.7415 203.52 52.6364 204.994 52.6364 207.731C52.6364 210.468 50.6362 211.837 47.2675 211.837H32.8451C23.6864 211.837 19.0544 213.521 19.0544 216.995V221.627C19.0544 224.469 23.6864 225.943 32.7398 225.943H54.426C70.0064 225.943 77.7965 229.522 77.7965 236.681ZM148.683 254.683H115.943C100.889 254.683 93.4147 250.051 93.4147 240.681V234.681C93.4147 225.417 100.889 220.785 115.943 220.785H160.684V219.206C160.684 214.258 156.368 211.837 147.735 211.837H132.892C129.418 211.837 127.628 210.468 127.628 207.731C127.628 204.994 129.418 203.52 132.892 203.52H147.735C163.737 203.52 171.632 208.784 171.632 219.206V239.839C171.632 249.735 164.053 254.683 148.683 254.683ZM148.051 246.471C156.473 246.471 160.684 244.155 160.684 239.523V228.049H116.785C108.574 228.049 104.468 230.259 104.468 234.47V239.944C104.468 244.261 108.574 246.471 116.785 246.471H148.051ZM260.409 254.683H194.718C190.929 254.683 188.928 252.998 188.928 250.156C188.928 248.472 189.876 246.998 192.087 245.524L244.407 212.152H196.613C192.929 212.152 191.034 210.679 191.034 207.836C191.034 204.994 193.034 203.52 196.508 203.52H258.093C261.777 203.52 263.672 205.204 263.672 207.836C263.672 209.626 262.514 211.31 260.724 212.468L207.877 246.156H260.514C264.198 246.156 266.093 247.524 266.093 250.366C266.093 253.209 264.198 254.683 260.409 254.683ZM352.184 236.681V242.892C352.184 250.788 344.183 254.683 328.182 254.683H287.126C283.757 254.683 281.862 253.314 281.862 250.577C281.862 247.84 283.757 246.471 287.126 246.471H328.182C336.814 246.471 341.131 245.208 341.131 242.892V236.997C341.131 234.576 336.814 233.418 328.182 233.418H306.496C290.389 233.418 282.494 229.628 282.494 221.943V216.995C282.494 208.047 290.705 203.52 307.233 203.52H321.655C325.129 203.52 327.024 204.994 327.024 207.731C327.024 210.468 325.024 211.837 321.655 211.837H307.233C298.074 211.837 293.442 213.521 293.442 216.995V221.627C293.442 224.469 298.074 225.943 307.127 225.943H328.814C344.394 225.943 352.184 229.522 352.184 236.681ZM462.342 254.683H429.602C414.548 254.683 407.074 250.051 407.074 240.681V234.681C407.074 225.417 414.548 220.785 429.602 220.785H474.343V219.206C474.343 214.258 470.027 211.837 461.395 211.837H446.551C443.077 211.837 441.288 210.468 441.288 207.731C441.288 204.994 443.077 203.52 446.551 203.52H461.395C477.396 203.52 485.292 208.784 485.292 219.206V239.839C485.292 249.735 477.712 254.683 462.342 254.683ZM461.711 246.471C470.132 246.471 474.343 244.155 474.343 239.523V228.049H430.445C422.233 228.049 418.128 230.259 418.128 234.47V239.944C418.128 244.261 422.233 246.471 430.445 246.471H461.711ZM553.224 254.683H516.063V268.579C516.063 271.526 514.168 273 510.483 273C506.799 273 504.904 271.526 504.904 268.579V220.258C504.904 209.1 513.957 203.52 532.064 203.52H553.224C571.331 203.52 580.384 209.1 580.384 220.258V238.05C580.384 249.103 571.331 254.683 553.224 254.683ZM516.063 220.153V246.156H553.54C563.962 246.156 569.12 243.418 569.12 238.155V220.153C569.12 214.784 563.962 212.152 553.54 212.152H531.643C521.326 212.152 516.063 214.784 516.063 220.153ZM648.319 254.683H611.158V268.579C611.158 271.526 609.263 273 605.578 273C601.894 273 599.999 271.526 599.999 268.579V220.258C599.999 209.1 609.052 203.52 627.159 203.52H648.319C666.426 203.52 675.479 209.1 675.479 220.258V238.05C675.479 249.103 666.426 254.683 648.319 254.683ZM611.158 220.153V246.156H648.635C659.057 246.156 664.215 243.418 664.215 238.155V220.153C664.215 214.784 659.057 212.152 648.635 212.152H626.738C616.421 212.152 611.158 214.784 611.158 220.153ZM762.995 236.681V242.892C762.995 250.788 754.994 254.683 738.992 254.683H697.936C694.567 254.683 692.672 253.314 692.672 250.577C692.672 247.84 694.567 246.471 697.936 246.471H738.992C747.625 246.471 751.941 245.208 751.941 242.892V236.997C751.941 234.576 747.625 233.418 738.992 233.418H717.306C701.199 233.418 693.304 229.628 693.304 221.943V216.995C693.304 208.047 701.515 203.52 718.043 203.52H732.465C735.939 203.52 737.834 204.994 737.834 207.731C737.834 210.468 735.834 211.837 732.465 211.837H718.043C708.884 211.837 704.252 213.521 704.252 216.995V221.627C704.252 224.469 708.884 225.943 717.938 225.943H739.624C755.204 225.943 762.995 229.522 762.995 236.681Z" fill="black"/>
</svg>
