<svg width="1433" height="293" viewBox="0 0 1433 293" fill="none" xmlns="http://www.w3.org/2000/svg">
<path d="M432.859 72.9917H423.266H414.152H405.038H399.762L394.006 73.4618L388.729 74.4019L387.664 74.5503C385.25 74.8866 383.453 76.9511 383.453 79.3886C383.453 82.0864 385.64 84.2735 388.338 84.2735L408.396 84.2736L474.648 84.7245C476.203 84.735 477.469 83.4778 477.469 81.9232V75.8697C477.469 74.2802 476.18 72.9917 474.591 72.9917H470.753H461.639H452.046H432.859Z" fill="black"/>
<path d="M392.998 214.375C405.534 214.375 413.055 220.721 413.055 232.473C413.055 241.248 405.534 250.65 392.998 250.65H376.076V269.218H364.872V214.375H392.998ZM376.076 241.875H391.432C396.837 241.875 401.852 237.723 401.852 232.708C401.852 226.597 396.994 223.62 391.432 223.62H376.076V241.875ZM492.013 242.737C494.677 244.069 497.576 246.497 497.576 255.507L497.654 269.218H486.372V255.821C486.372 252.295 484.1 250.571 479.948 250.571L458.011 250.65V269.218H446.729V214.375H477.049C489.584 214.375 497.105 219.076 497.105 229.418C497.105 235.294 494.207 237.566 491.465 239.054C489.428 240.7 485.824 241.64 483.16 241.875V242.032C484.492 241.953 485.98 241.718 487.155 241.718C487.547 241.718 490.289 241.64 492.013 242.737ZM475.795 223.62H458.011V241.17H473.993C480.653 241.17 487.155 238.114 487.155 232.473C487.155 225.736 482.455 223.62 475.795 223.62ZM531.34 269.218V214.375H542.543V269.218H531.34ZM605.152 259.111L621.213 214.375H633.2L613.378 269.218H596.064L576.242 214.375H588.072L604.212 259.111C604.525 259.816 604.603 260.835 604.603 261.697H604.76C604.76 260.835 604.838 259.816 605.152 259.111ZM709.072 269.218H696.693L692.463 257.936H669.272L664.963 269.218H652.819L673.503 214.375H688.389L709.072 269.218ZM690.974 253.47L680.789 226.362L672.328 248.613C675.461 248.613 677.89 248.613 679.849 248.691C681.729 248.769 684.863 248.848 687.448 249.239C688.624 249.553 689.799 250.963 690.974 253.47ZM761.42 227.302V269.218H750.295V224.639H730.238V214.375H781.399V224.639H764.084C762.517 224.639 760.793 223.855 759.618 222.68L759.462 222.837C760.637 224.012 761.42 225.736 761.42 227.302ZM861.773 214.375V224.639H826.282V238.036H859.423V246.811H826.282V258.954H861.773V269.218H815.079V214.375H861.773ZM963.746 258.954H992.656V269.218H949.565V214.375H960.769V255.977C960.769 257.779 959.907 259.738 958.654 260.991L958.732 261.07C959.985 259.816 961.944 258.954 963.746 258.954ZM1026.37 269.218V214.375H1037.58V269.218H1026.37ZM1101.83 252.53L1119.38 214.297H1131.21V269.139L1120.01 269.218V242.11C1120.01 238.976 1120.55 234.902 1121.26 231.768H1121.1C1120.4 234.824 1119.22 238.819 1117.73 241.64L1105.43 269.218H1096.97L1084.75 241.64C1083.26 238.819 1082.09 234.824 1081.38 231.768H1081.22C1081.93 234.902 1082.48 238.976 1082.48 242.11V269.218H1071.27V214.375H1083.1L1100.65 252.53C1100.97 253.235 1101.12 254.332 1101.12 255.194H1101.28C1101.28 254.332 1101.52 253.235 1101.83 252.53ZM1164.91 269.218V214.375H1176.12V269.218H1164.91ZM1241 227.302V269.218H1229.87V224.639H1209.82V214.375H1260.98V224.639H1243.66C1242.09 224.639 1240.37 223.855 1239.2 222.68L1239.04 222.837C1240.21 224.012 1241 225.736 1241 227.302ZM1341.35 214.375V224.639H1305.86V238.036H1339V246.811H1305.86V258.954H1341.35V269.218H1294.66V214.375H1341.35ZM1400.44 214.375C1415.8 214.375 1428.33 223.15 1428.33 241.797C1428.33 260.443 1415.8 269.218 1400.44 269.218H1375.06V214.375H1400.44ZM1386.26 258.954H1401.31C1408.28 258.954 1417.13 254.019 1417.13 241.797C1417.13 230.045 1408.43 224.639 1401.31 224.639H1382.11C1384.54 224.639 1386.26 225.109 1386.26 227.146V258.954Z" fill="black"/>
<path d="M455.52 119.512V128.256C455.52 139.371 444.257 144.854 421.731 144.854H363.932C359.19 144.854 356.522 142.928 356.522 139.075C356.522 135.221 359.19 133.295 363.932 133.295H421.731C433.883 133.295 439.959 131.516 439.959 128.256V119.957C439.959 116.548 433.883 114.918 421.731 114.918H391.201C368.527 114.918 357.411 109.583 357.411 98.764V91.7986C357.411 79.2015 368.971 72.8288 392.239 72.8288H412.542C417.433 72.8288 420.1 74.9036 420.1 78.7569C420.1 82.6101 417.285 84.5367 412.542 84.5367H392.239C379.345 84.5367 372.824 86.9079 372.824 91.7986V98.3194C372.824 102.321 379.345 104.396 392.09 104.396H422.62C444.554 104.396 455.52 109.434 455.52 119.512ZM555.313 144.854H509.222C488.03 144.854 477.507 138.334 477.507 125.144V116.696C477.507 103.655 488.03 97.1338 509.222 97.1338H572.208V94.9108C572.208 87.9453 566.132 84.5367 553.979 84.5367H533.083C528.192 84.5367 525.673 82.6101 525.673 78.7569C525.673 74.9036 528.192 72.8288 533.083 72.8288H553.979C576.506 72.8288 587.621 80.2389 587.621 94.9108V123.958C587.621 137.889 576.95 144.854 555.313 144.854ZM554.424 133.295C566.28 133.295 572.208 130.034 572.208 123.514V107.36H510.408C498.848 107.36 493.069 110.472 493.069 116.4V124.106C493.069 130.183 498.848 133.295 510.408 133.295H554.424ZM712.598 144.854H620.121C614.786 144.854 611.97 142.483 611.97 138.482C611.97 136.111 613.304 134.036 616.416 131.961L690.072 84.9813H622.788C617.601 84.9813 614.934 82.9065 614.934 78.9051C614.934 74.9036 617.75 72.8288 622.64 72.8288H709.338C714.525 72.8288 717.192 75.2001 717.192 78.9051C717.192 81.4245 715.562 83.7957 713.043 85.4259L638.646 132.85H712.746C717.933 132.85 720.601 134.777 720.601 138.778C720.601 142.78 717.933 144.854 712.598 144.854ZM841.798 119.512V128.256C841.798 139.371 830.535 144.854 808.008 144.854H750.21C745.468 144.854 742.8 142.928 742.8 139.075C742.8 135.221 745.468 133.295 750.21 133.295H808.008C820.161 133.295 826.237 131.516 826.237 128.256V119.957C826.237 116.548 820.161 114.918 808.008 114.918H777.479C754.804 114.918 743.689 109.583 743.689 98.764V91.7986C743.689 79.2015 755.249 72.8288 778.516 72.8288H798.82C803.71 72.8288 806.378 74.9036 806.378 78.7569C806.378 82.6101 803.562 84.5367 798.82 84.5367H778.516C765.623 84.5367 759.102 86.9079 759.102 91.7986V98.3194C759.102 102.321 765.623 104.396 778.368 104.396H808.898C830.831 104.396 841.798 109.434 841.798 119.512ZM996.877 144.854H950.786C929.593 144.854 919.071 138.334 919.071 125.144V116.696C919.071 103.655 929.593 97.1338 950.786 97.1338H1013.77V94.9108C1013.77 87.9453 1007.7 84.5367 995.543 84.5367H974.646C969.756 84.5367 967.236 82.6101 967.236 78.7569C967.236 74.9036 969.756 72.8288 974.646 72.8288H995.543C1018.07 72.8288 1029.18 80.2389 1029.18 94.9108V123.958C1029.18 137.889 1018.51 144.854 996.877 144.854ZM995.987 133.295C1007.84 133.295 1013.77 130.034 1013.77 123.514V107.36H951.972C940.412 107.36 934.632 110.472 934.632 116.4V124.106C934.632 130.183 940.412 133.295 951.972 133.295H995.987ZM1124.82 144.854H1072.5V164.417C1072.5 168.567 1069.84 170.641 1064.65 170.641C1059.46 170.641 1056.79 168.567 1056.79 164.417V96.3928C1056.79 80.6835 1069.54 72.8288 1095.03 72.8288H1124.82C1150.31 72.8288 1163.05 80.6835 1163.05 96.3928V121.439C1163.05 137 1150.31 144.854 1124.82 144.854ZM1072.5 96.2446V132.85H1125.26C1139.93 132.85 1147.2 128.997 1147.2 121.587V96.2446C1147.2 88.6863 1139.93 84.9813 1125.26 84.9813H1094.44C1079.91 84.9813 1072.5 88.6863 1072.5 96.2446ZM1258.69 144.854H1206.38V164.417C1206.38 168.567 1203.71 170.641 1198.52 170.641C1193.33 170.641 1190.67 168.567 1190.67 164.417V96.3928C1190.67 80.6835 1203.41 72.8288 1228.9 72.8288H1258.69C1284.18 72.8288 1296.93 80.6835 1296.93 96.3928V121.439C1296.93 137 1284.18 144.854 1258.69 144.854ZM1206.38 96.2446V132.85H1259.14C1273.81 132.85 1281.07 128.997 1281.07 121.587V96.2446C1281.07 88.6863 1273.81 84.9813 1259.14 84.9813H1228.31C1213.79 84.9813 1206.38 88.6863 1206.38 96.2446ZM1420.13 119.512V128.256C1420.13 139.371 1408.87 144.854 1386.34 144.854H1328.54C1323.8 144.854 1321.13 142.928 1321.13 139.075C1321.13 135.221 1323.8 133.295 1328.54 133.295H1386.34C1398.49 133.295 1404.57 131.516 1404.57 128.256V119.957C1404.57 116.548 1398.49 114.918 1386.34 114.918H1355.81C1333.14 114.918 1322.02 109.583 1322.02 98.764V91.7986C1322.02 79.2015 1333.58 72.8288 1356.85 72.8288H1377.15C1382.04 72.8288 1384.71 74.9036 1384.71 78.7569C1384.71 82.6101 1381.89 84.5367 1377.15 84.5367H1356.85C1343.95 84.5367 1337.43 86.9079 1337.43 91.7986V98.3194C1337.43 102.321 1343.95 104.396 1356.7 104.396H1387.23C1409.16 104.396 1420.13 109.434 1420.13 119.512Z" fill="black"/>
<path fill-rule="evenodd" clip-rule="evenodd" d="M159.563 4.58319C157.237 6.54183 155.329 8.73568 155.321 9.4597C155.316 10.1826 153.162 14.0229 150.535 17.9918C147.91 21.9619 145.761 25.4374 145.761 25.7174C145.761 26.1798 137.732 39.375 134.955 43.4759C134.314 44.4225 133.274 46.3398 132.642 47.7362C132.012 49.1326 129.413 53.5215 126.868 57.4892C116.466 73.701 109.865 85.8246 109.865 88.7172C109.865 95.0807 112.838 97.7462 134.284 110.599C145.865 117.541 156.311 123.737 157.496 124.368C158.681 125 163.122 127.634 167.364 130.224C185.901 141.537 196.86 147.82 200.144 149.017C203.022 150.066 206.228 149.758 217.494 147.355C238.241 142.93 244.149 141.068 247.753 137.82C253.083 133.013 253.189 128.64 248.186 119.758C241.072 107.126 235.395 104.448 225.155 108.892C210.739 115.148 192.759 116.479 179.419 112.279C165.58 107.923 158.001 101.681 151.611 89.3724C148.052 82.52 147.732 80.9825 147.647 70.4401C147.573 61.0864 148.067 57.6751 150.321 51.9816C153.668 43.5286 161.228 34.9632 171.616 27.855C180.491 21.7818 181.658 20.1306 181.658 13.6432C181.658 7.71104 180.154 4.96412 175.699 2.75421C169.951 -0.0959633 164.369 0.536272 159.563 4.58319ZM188.239 46.2331C178.183 50.4889 173.928 64.2257 178.541 77.5391C182.362 88.5692 193.398 94.9797 206.088 93.5432C213.067 92.7538 218.166 88.7183 219.93 82.5889C221.511 77.0996 220.006 72.6282 212.361 60.1145C203.868 46.209 197.268 42.4111 188.239 46.2331ZM90.855 118.918C88.9345 120.653 85.772 124.913 83.8276 128.384C81.8832 131.855 79.0726 136.654 77.5805 139.047C76.0884 141.441 75.1323 143.652 75.4554 143.962C75.7785 144.271 78.4025 143.787 81.2874 142.885C96.0995 138.254 111.876 138.385 123.165 143.233C130.054 146.19 140.563 156.377 144.08 163.506C149.187 173.856 150.211 181.199 147.788 190.06C142.401 209.752 127.702 225.237 102.685 237.57C96.5386 240.6 93.473 241.404 88.0706 241.404C79.9807 241.404 77.6558 239.728 76.7536 233.244C75.8897 227.029 79.1037 223.485 88.5708 220.219C103.718 214.99 117.287 204.74 121.323 195.476C125.317 186.309 121.72 174.61 113.157 168.92C106.788 164.687 97.8333 164.125 85.9336 167.21C64.2353 172.835 57.1147 175.038 55.5448 176.614C52.5259 179.642 0.836108 266.47 0.180399 269.615C-0.650007 273.596 1.3949 277.126 6.14042 279.9C9.77314 282.024 12.6185 282.13 66.5494 282.133C129.019 282.138 128.179 282.231 132.228 274.947C133.362 272.907 135.253 268.656 136.429 265.5C137.605 262.345 140.15 256.149 142.084 251.731C144.018 247.314 149.633 233.889 154.563 221.898C179.462 161.336 179.063 162.614 174.438 158.178C173.099 156.894 169.181 154.183 165.733 152.154C162.284 150.124 158.399 147.84 157.1 147.077C155.799 146.313 151.505 143.908 147.556 141.73C143.607 139.553 131.801 132.82 121.318 126.768C99.9224 114.413 96.7468 113.595 90.855 118.918ZM256.442 157.044C254.468 157.547 244.776 159.376 234.904 161.107C225.033 162.839 213.456 165.091 209.178 166.114C201.624 167.917 201.314 168.136 198.409 173.783C196.764 176.98 194.769 181.11 193.977 182.962C192.618 186.137 189.208 194.205 166.051 249.03C160.815 261.428 156.53 272.371 156.53 273.348C156.53 274.326 156.629 278.13 158.217 279.9L160.093 281.056L162.302 281.564L182.249 281.951C204.412 282.381 208.152 281.634 211.092 276.181C213.442 271.822 212.355 268.777 206.626 263.669C201.374 258.985 200.756 255.294 204.187 249.123C205.841 246.151 208.841 244.178 218.57 239.657C225.332 236.516 231.054 233.946 231.286 233.946C231.517 233.946 237.541 231.312 244.673 228.091C251.804 224.87 261.677 220.419 266.613 218.2C271.548 215.98 279.392 212.445 284.042 210.345C292.995 206.299 296.13 202.622 294.6 197.958C292.999 193.08 271.115 158.153 268.971 157.051C266.42 155.742 261.56 155.74 256.442 157.044ZM294.133 233.588C292.255 234.225 283.48 238.098 266.985 245.571C261.596 248.012 256.802 250.01 256.332 250.01C255.862 250.01 252.517 251.353 248.901 252.992C241.309 256.437 240.621 255.606 258.237 264.239C265.147 267.626 275.108 272.539 280.373 275.158C293.228 281.55 298.203 282.681 306.345 281.06C318.726 278.596 326.44 269.381 326.44 257.057C326.44 246.474 320.917 238.705 310.396 234.489C306.281 232.841 297.735 232.367 294.133 233.588Z" fill="#3E89EC"/>
</svg>
