<svg width="1034" height="282" viewBox="0 0 1034 282" fill="none" xmlns="http://www.w3.org/2000/svg">
<path d="M399.146 141.799H393.055H387.269H381.483H378.133L374.478 142.097L371.128 142.694L370.452 142.788C368.919 143.002 367.779 144.313 367.779 145.86C367.779 147.573 369.167 148.962 370.88 148.962L383.615 148.962L425.677 149.248C426.664 149.255 427.468 148.456 427.468 147.469V143.626C427.468 142.617 426.65 141.799 425.641 141.799H423.204H417.418H411.327H399.146Z" fill="black"/>
<path d="M373.839 231.485C381.797 231.485 386.573 235.514 386.573 242.975C386.573 248.546 381.797 254.515 373.839 254.515H363.095V266.304H355.982V231.485H373.839ZM363.095 248.944H372.844C376.276 248.944 379.46 246.308 379.46 243.124C379.46 239.245 376.376 237.354 372.844 237.354H363.095V248.944ZM436.702 249.491C438.393 250.337 440.233 251.879 440.233 257.599L440.283 266.304H433.12V257.798C433.12 255.56 431.678 254.465 429.042 254.465L415.114 254.515V266.304H407.951V231.485H427.201C435.16 231.485 439.935 234.469 439.935 241.035C439.935 244.766 438.095 246.208 436.354 247.153C435.06 248.198 432.772 248.795 431.081 248.944V249.044C431.927 248.994 432.872 248.845 433.618 248.845C433.867 248.845 435.608 248.795 436.702 249.491ZM426.405 237.354H415.114V248.496H425.261C429.489 248.496 433.618 246.556 433.618 242.975C433.618 238.697 430.633 237.354 426.405 237.354ZM461.67 266.304V231.485H468.783V266.304H461.67ZM508.532 259.887L518.729 231.485H526.34L513.755 266.304H502.762L490.178 231.485H497.689L507.935 259.887C508.134 260.335 508.184 260.981 508.184 261.529H508.284C508.284 260.981 508.333 260.335 508.532 259.887ZM574.51 266.304H566.651L563.965 259.141H549.241L546.506 266.304H538.796L551.927 231.485H561.378L574.51 266.304ZM563.02 256.306L556.553 239.095L551.181 253.222C553.171 253.222 554.713 253.222 555.957 253.272C557.15 253.321 559.14 253.371 560.781 253.62C561.528 253.819 562.274 254.714 563.02 256.306ZM607.745 239.692V266.304H600.682V238.001H587.948V231.485H620.429V238.001H609.436C608.442 238.001 607.347 237.504 606.601 236.757L606.502 236.857C607.248 237.603 607.745 238.697 607.745 239.692ZM671.458 231.485V238.001H648.925V246.507H669.966V252.078H648.925V259.788H671.458V266.304H641.812V231.485H671.458ZM736.199 259.788H754.554V266.304H727.196V231.485H734.309V257.897C734.309 259.042 733.762 260.285 732.966 261.081L733.016 261.131C733.812 260.335 735.055 259.788 736.199 259.788ZM775.96 266.304V231.485H783.073V266.304H775.96ZM823.867 255.709L835.009 231.435H842.52V266.254L835.407 266.304V249.093C835.407 247.104 835.755 244.517 836.203 242.527H836.103C835.655 244.467 834.909 247.004 833.964 248.795L826.155 266.304H820.783L813.023 248.795C812.078 247.004 811.332 244.467 810.884 242.527H810.785C811.232 244.517 811.581 247.104 811.581 249.093V266.304H804.468V231.485H811.979L823.121 255.709C823.32 256.157 823.419 256.853 823.419 257.4H823.519C823.519 256.853 823.668 256.157 823.867 255.709ZM863.918 266.304V231.485H871.031V266.304H863.918ZM912.223 239.692V266.304H905.16V238.001H892.426V231.485H924.907V238.001H913.914C912.919 238.001 911.825 237.504 911.079 236.757L910.979 236.857C911.725 237.603 912.223 238.697 912.223 239.692ZM975.936 231.485V238.001H953.403V246.507H974.444V252.078H953.403V259.788H975.936V266.304H946.29V231.485H975.936ZM1013.45 231.485C1023.2 231.485 1031.16 237.056 1031.16 248.894C1031.16 260.733 1023.2 266.304 1013.45 266.304H997.337V231.485H1013.45ZM1004.45 259.788H1014C1018.43 259.788 1024.05 256.654 1024.05 248.894C1024.05 241.433 1018.53 238.001 1014 238.001H1001.81C1003.36 238.001 1004.45 238.299 1004.45 239.593V259.788Z" fill="black"/>
<path d="M413.533 171.91V177.462C413.533 184.519 406.382 188 392.08 188H355.385C352.374 188 350.68 186.777 350.68 184.33C350.68 181.884 352.374 180.661 355.385 180.661H392.08C399.796 180.661 403.654 179.532 403.654 177.462V172.193C403.654 170.029 399.796 168.994 392.08 168.994H372.698C358.302 168.994 351.245 165.606 351.245 158.738V154.315C351.245 146.318 358.584 142.272 373.356 142.272H386.247C389.352 142.272 391.045 143.589 391.045 146.035C391.045 148.482 389.258 149.705 386.247 149.705H373.356C365.17 149.705 361.03 151.21 361.03 154.315V158.455C361.03 160.996 365.17 162.313 373.262 162.313H392.645C406.57 162.313 413.533 165.512 413.533 171.91ZM476.89 188H447.628C434.173 188 427.492 183.86 427.492 175.486V170.123C427.492 161.843 434.173 157.703 447.628 157.703H487.617V156.291C487.617 151.869 483.759 149.705 476.043 149.705H462.777C459.672 149.705 458.072 148.482 458.072 146.035C458.072 143.589 459.672 142.272 462.777 142.272H476.043C490.345 142.272 497.402 146.976 497.402 156.291V174.733C497.402 183.578 490.627 188 476.89 188ZM476.326 180.661C483.853 180.661 487.617 178.591 487.617 174.451V164.195H448.381C441.042 164.195 437.372 166.171 437.372 169.935V174.827C437.372 178.685 441.042 180.661 448.381 180.661H476.326ZM576.749 188H518.036C514.649 188 512.861 186.495 512.861 183.954C512.861 182.449 513.708 181.131 515.684 179.814L562.447 149.987H519.729C516.436 149.987 514.743 148.67 514.743 146.13C514.743 143.589 516.53 142.272 519.635 142.272H574.679C577.972 142.272 579.665 143.777 579.665 146.13C579.665 147.729 578.63 149.235 577.031 150.27L529.797 180.379H576.843C580.136 180.379 581.829 181.602 581.829 184.142C581.829 186.683 580.136 188 576.749 188ZM658.776 171.91V177.462C658.776 184.519 651.625 188 637.323 188H600.628C597.617 188 595.923 186.777 595.923 184.33C595.923 181.884 597.617 180.661 600.628 180.661H637.323C645.039 180.661 648.896 179.532 648.896 177.462V172.193C648.896 170.029 645.039 168.994 637.323 168.994H617.941C603.545 168.994 596.488 165.606 596.488 158.738V154.315C596.488 146.318 603.827 142.272 618.599 142.272H631.49C634.595 142.272 636.288 143.589 636.288 146.035C636.288 148.482 634.501 149.705 631.49 149.705H618.599C610.413 149.705 606.273 151.21 606.273 154.315V158.455C606.273 160.996 610.413 162.313 618.505 162.313H637.888C651.813 162.313 658.776 165.512 658.776 171.91ZM757.233 188H727.971C714.516 188 707.836 183.86 707.836 175.486V170.123C707.836 161.843 714.516 157.703 727.971 157.703H767.96V156.291C767.96 151.869 764.102 149.705 756.387 149.705H743.12C740.015 149.705 738.415 148.482 738.415 146.035C738.415 143.589 740.015 142.272 743.12 142.272H756.387C770.688 142.272 777.745 146.976 777.745 156.291V174.733C777.745 183.578 770.971 188 757.233 188ZM756.669 180.661C764.196 180.661 767.96 178.591 767.96 174.451V164.195H728.724C721.385 164.195 717.715 166.171 717.715 169.935V174.827C717.715 178.685 721.385 180.661 728.724 180.661H756.669ZM838.462 188H805.248V200.42C805.248 203.055 803.554 204.372 800.261 204.372C796.968 204.372 795.274 203.055 795.274 200.42V157.232C795.274 147.259 803.366 142.272 819.549 142.272H838.462C854.645 142.272 862.737 147.259 862.737 157.232V173.134C862.737 183.013 854.645 188 838.462 188ZM805.248 157.138V180.379H838.744C848.059 180.379 852.669 177.932 852.669 173.228V157.138C852.669 152.34 848.059 149.987 838.744 149.987H819.173C809.952 149.987 805.248 152.34 805.248 157.138ZM923.456 188H890.242V200.42C890.242 203.055 888.548 204.372 885.255 204.372C881.962 204.372 880.268 203.055 880.268 200.42V157.232C880.268 147.259 888.36 142.272 904.544 142.272H923.456C939.64 142.272 947.731 147.259 947.731 157.232V173.134C947.731 183.013 939.64 188 923.456 188ZM890.242 157.138V180.379H923.738C933.053 180.379 937.664 177.932 937.664 173.228V157.138C937.664 152.34 933.053 149.987 923.738 149.987H904.167C894.946 149.987 890.242 152.34 890.242 157.138ZM1025.95 171.91V177.462C1025.95 184.519 1018.8 188 1004.5 188H967.803C964.792 188 963.098 186.777 963.098 184.33C963.098 181.884 964.792 180.661 967.803 180.661H1004.5C1012.21 180.661 1016.07 179.532 1016.07 177.462V172.193C1016.07 170.029 1012.21 168.994 1004.5 168.994H985.116C970.72 168.994 963.663 165.606 963.663 158.738V154.315C963.663 146.318 971.002 142.272 985.774 142.272H998.665C1001.77 142.272 1003.46 143.589 1003.46 146.035C1003.46 148.482 1001.68 149.705 998.665 149.705H985.774C977.588 149.705 973.448 151.21 973.448 154.315V158.455C973.448 160.996 977.588 162.313 985.68 162.313H1005.06C1018.99 162.313 1025.95 165.512 1025.95 171.91Z" fill="black"/>
<path fill-rule="evenodd" clip-rule="evenodd" d="M159.563 3.58319C157.237 5.54183 155.329 7.73568 155.321 8.4597C155.316 9.18257 153.162 13.0229 150.535 16.9918C147.91 20.9619 145.761 24.4374 145.761 24.7174C145.761 25.1798 137.732 38.375 134.955 42.4759C134.314 43.4225 133.274 45.3398 132.642 46.7362C132.012 48.1326 129.413 52.5215 126.868 56.4892C116.466 72.701 109.865 84.8246 109.865 87.7172C109.865 94.0807 112.838 96.7462 134.284 109.599C145.865 116.541 156.311 122.737 157.496 123.368C158.681 124 163.122 126.634 167.364 129.224C185.901 140.537 196.86 146.82 200.144 148.017C203.022 149.066 206.228 148.758 217.494 146.355C238.241 141.93 244.149 140.068 247.753 136.82C253.083 132.013 253.189 127.64 248.186 118.758C241.072 106.126 235.395 103.448 225.155 107.892C210.739 114.148 192.759 115.479 179.419 111.279C165.58 106.923 158.001 100.681 151.611 88.3724C148.052 81.52 147.732 79.9825 147.647 69.4401C147.573 60.0864 148.067 56.6751 150.321 50.9816C153.668 42.5286 161.228 33.9632 171.616 26.855C180.491 20.7818 181.658 19.1306 181.658 12.6432C181.658 6.71104 180.154 3.96412 175.699 1.75421C169.951 -1.09596 164.369 -0.463728 159.563 3.58319ZM188.239 45.2331C178.183 49.4889 173.928 63.2257 178.541 76.5391C182.362 87.5692 193.398 93.9797 206.088 92.5432C213.067 91.7538 218.166 87.7183 219.93 81.5889C221.511 76.0996 220.006 71.6282 212.361 59.1145C203.868 45.209 197.268 41.4111 188.239 45.2331ZM90.855 117.918C88.9345 119.653 85.772 123.913 83.8276 127.384C81.8832 130.855 79.0726 135.654 77.5805 138.047C76.0884 140.441 75.1323 142.652 75.4554 142.962C75.7785 143.271 78.4025 142.787 81.2874 141.885C96.0995 137.254 111.876 137.385 123.165 142.233C130.054 145.19 140.563 155.377 144.08 162.506C149.187 172.856 150.211 180.199 147.788 189.06C142.401 208.752 127.702 224.237 102.685 236.57C96.5386 239.6 93.473 240.404 88.0706 240.404C79.9807 240.404 77.6558 238.728 76.7536 232.244C75.8897 226.029 79.1037 222.485 88.5708 219.219C103.718 213.99 117.287 203.74 121.323 194.476C125.317 185.309 121.72 173.61 113.157 167.92C106.788 163.687 97.8333 163.125 85.9336 166.21C64.2353 171.835 57.1147 174.038 55.5448 175.614C52.5259 178.642 0.836108 265.47 0.180399 268.615C-0.650007 272.596 1.3949 276.126 6.14042 278.9C9.77314 281.024 12.6185 281.13 66.5494 281.133C129.019 281.138 128.179 281.231 132.228 273.947C133.362 271.907 135.253 267.656 136.429 264.5C137.605 261.345 140.15 255.149 142.084 250.731C144.018 246.314 149.633 232.889 154.563 220.898C179.462 160.336 179.063 161.614 174.438 157.178C173.099 155.894 169.181 153.183 165.733 151.154C162.284 149.124 158.399 146.84 157.1 146.077C155.799 145.313 151.505 142.908 147.556 140.73C143.607 138.553 131.801 131.82 121.318 125.768C99.9224 113.413 96.7468 112.595 90.855 117.918ZM256.442 156.044C254.468 156.547 244.776 158.376 234.904 160.107C225.033 161.839 213.456 164.091 209.178 165.114C201.624 166.917 201.314 167.136 198.409 172.783C196.764 175.98 194.769 180.11 193.977 181.962C192.618 185.137 189.208 193.205 166.051 248.03C160.815 260.428 156.53 271.371 156.53 272.348C156.53 273.326 156.629 277.13 158.217 278.9L160.093 280.056L162.302 280.564L182.249 280.951C204.412 281.381 208.152 280.634 211.092 275.181C213.442 270.822 212.355 267.777 206.626 262.669C201.374 257.985 200.756 254.294 204.187 248.123C205.841 245.151 208.841 243.178 218.57 238.657C225.332 235.516 231.054 232.946 231.286 232.946C231.517 232.946 237.541 230.312 244.673 227.091C251.804 223.87 261.677 219.419 266.613 217.2C271.548 214.98 279.392 211.445 284.042 209.345C292.995 205.299 296.13 201.622 294.6 196.958C292.999 192.08 271.115 157.153 268.971 156.051C266.42 154.742 261.56 154.74 256.442 156.044ZM294.133 232.588C292.255 233.225 283.48 237.098 266.985 244.571C261.596 247.012 256.802 249.01 256.332 249.01C255.862 249.01 252.517 250.353 248.901 251.992C241.309 255.437 240.621 254.606 258.237 263.239C265.147 266.626 275.108 271.539 280.373 274.158C293.228 280.55 298.203 281.681 306.345 280.06C318.726 277.596 326.44 268.381 326.44 256.057C326.44 245.474 320.917 237.705 310.396 233.489C306.281 231.841 297.735 231.367 294.133 232.588Z" fill="#3E89EC"/>
</svg>
