<?xml version="1.0" encoding="utf-8"?>
<!-- Generator: Adobe Illustrator 27.5.0, SVG Export Plug-In . SVG Version: 6.00 Build 0)  -->
<svg version="1.1" xmlns="http://www.w3.org/2000/svg" xmlns:xlink="http://www.w3.org/1999/xlink" x="0px" y="0px"
	 viewBox="0 0 500 500" style="enable-background:new 0 0 500 500;" xml:space="preserve">
<g id="Background_Complete">
	<g>
		<rect y="382.398" style="fill:#EBEBEB;" width="500" height="0.25"/>
		<rect x="416.779" y="398.494" style="fill:#EBEBEB;" width="33.122" height="0.25"/>
		<rect x="322.527" y="401.208" style="fill:#EBEBEB;" width="8.693" height="0.25"/>
		<rect x="396.586" y="389.208" style="fill:#EBEBEB;" width="19.192" height="0.25"/>
		<rect x="52.459" y="390.888" style="fill:#EBEBEB;" width="43.193" height="0.25"/>
		<rect x="104.556" y="390.888" style="fill:#EBEBEB;" width="6.333" height="0.25"/>
		<rect x="131.471" y="395.111" style="fill:#EBEBEB;" width="93.676" height="0.25"/>
		<path style="fill:#EBEBEB;" d="M237.014,337.8H43.915c-3.147,0-5.708-2.561-5.708-5.708V60.66c0-3.147,2.561-5.708,5.708-5.708
			h193.099c3.146,0,5.707,2.561,5.707,5.708v271.432C242.721,335.239,240.16,337.8,237.014,337.8z M43.915,55.203
			c-3.01,0-5.458,2.448-5.458,5.458v271.432c0,3.01,2.448,5.458,5.458,5.458h193.099c3.009,0,5.457-2.448,5.457-5.458V60.66
			c0-3.009-2.448-5.458-5.457-5.458H43.915z"/>
		<path style="fill:#EBEBEB;" d="M453.31,337.8H260.212c-3.147,0-5.707-2.561-5.707-5.708V60.66c0-3.147,2.561-5.708,5.707-5.708
			H453.31c3.148,0,5.708,2.561,5.708,5.708v271.432C459.019,335.239,456.458,337.8,453.31,337.8z M260.212,55.203
			c-3.009,0-5.457,2.448-5.457,5.458v271.432c0,3.01,2.448,5.458,5.457,5.458H453.31c3.01,0,5.458-2.448,5.458-5.458V60.66
			c0-3.009-2.448-5.458-5.458-5.458H260.212z"/>
	</g>
	<g>
		<polygon style="fill:#E0E0E0;" points="390,317 390,284.116 334.879,284.116 334.879,212.068 325.214,212.068 325.214,253.364 
			298.855,253.364 298.855,241.942 251.408,241.942 251.408,202.403 242.622,202.403 242.622,154.078 235.593,154.078 
			235.593,201.524 218.898,201.524 218.898,271.815 187.268,271.815 187.268,201.524 130.156,201.524 130.156,271.815 
			102.04,271.815 102.04,366.708 403.413,366.708 403.413,325.005 		"/>
		<polygon style="fill:#F0F0F0;" points="250.75,308 230.737,267 105.763,267 85.75,308 101,308 101,367 235,367 235,308 		"/>
		<g>
			<rect x="223" y="313.38" style="fill:#F0F0F0;" width="92.409" height="53.62"/>
			<rect x="237.852" y="317" style="fill:#E6E6E6;" width="75.906" height="9.576"/>
			<rect x="237.852" y="331.091" style="fill:#E6E6E6;" width="75.906" height="9.576"/>
			<rect x="237.852" y="345.182" style="fill:#E6E6E6;" width="75.906" height="9.576"/>
			<rect x="237.852" y="359.274" style="fill:#E6E6E6;" width="75.906" height="7.726"/>
		</g>
		<polygon style="fill:#E6E6E6;" points="213,308 97,308 83.763,267 63.75,308 79,308 79,367 129,367 213,316.333 		"/>
	</g>
	<g>
		<rect x="416.384" y="133.269" style="fill:#E6E6E6;" width="6.756" height="233.731"/>
		<g>
			
				<ellipse transform="matrix(0.1602 -0.9871 0.9871 0.1602 204.2365 540.5045)" style="fill:#EBEBEB;" cx="419.762" cy="150.227" rx="25.837" ry="25.837"/>
			<text transform="matrix(1 0 0 1 410.3258 159.9209)" style="fill:#FFFFFF; font-family:'Cabin-Regular'; font-size:32.3147px;">S</text>
			
				<ellipse transform="matrix(0.1602 -0.9871 0.9871 0.1602 204.2365 540.5045)" style="fill:none;stroke:#FFFFFF;stroke-width:2;stroke-miterlimit:10;" cx="419.762" cy="150.227" rx="22.545" ry="22.545"/>
		</g>
	</g>
</g>
<g id="Background_Simple" style="display:none;">
	<g style="display:inline;">
		<path style="fill:#407BFF;" d="M374.105,116.805c-51.873-24.161-91.878,25.136-103.869,60.534
			c-11.991,35.398-37.365,44.121-59.52,30.072s-58.185-69.457-109.689-28.205s10.741,154.236,115.148,171.701
			c58.404,9.769,144.199-8.378,178.568-94.137C415.222,205.67,415.613,136.138,374.105,116.805z"/>
		<path style="opacity:0.9;fill:#FFFFFF;enable-background:new    ;" d="M374.105,116.805
			c-51.873-24.161-91.878,25.136-103.869,60.534c-11.991,35.398-37.365,44.121-59.52,30.072s-58.185-69.457-109.689-28.205
			s10.741,154.236,115.148,171.701c58.404,9.769,144.199-8.378,178.568-94.137C415.222,205.67,415.613,136.138,374.105,116.805z"/>
	</g>
</g>
<g id="Shadow_1_">
	<ellipse id="_x3C_Path_x3E__359_" style="fill:#F5F5F5;" cx="250" cy="416.238" rx="193.889" ry="11.323"/>
</g>
<g id="Street">
	<g>
		<path style="fill:#2E353A;" d="M443,368.3V382H57v-13.7c0-2.38,1.66-4.3,4.04-4.3h377.92C441.34,364,443,365.92,443,368.3z"/>
		<g>
			<rect x="79" y="364" style="fill:#407BFF;" width="24" height="18"/>
			<rect x="125" y="364" style="fill:#407BFF;" width="23" height="18"/>
			<rect x="170" y="364" style="fill:#407BFF;" width="24" height="18"/>
			<rect x="216" y="364" style="fill:#407BFF;" width="23" height="18"/>
			<rect x="261" y="364" style="fill:#407BFF;" width="23" height="18"/>
			<rect x="306" y="364" style="fill:#407BFF;" width="24" height="18"/>
			<rect x="352" y="364" style="fill:#407BFF;" width="23" height="18"/>
			<rect x="397" y="364" style="fill:#407BFF;" width="24" height="18"/>
			<g style="opacity:0.6;enable-background:new    ;">
				<rect x="79" y="364" style="fill:#FFFFFF;" width="24" height="18"/>
				<rect x="125" y="364" style="fill:#FFFFFF;" width="23" height="18"/>
				<rect x="170" y="364" style="fill:#FFFFFF;" width="24" height="18"/>
				<rect x="216" y="364" style="fill:#FFFFFF;" width="23" height="18"/>
				<rect x="261" y="364" style="fill:#FFFFFF;" width="23" height="18"/>
				<rect x="306" y="364" style="fill:#FFFFFF;" width="24" height="18"/>
				<rect x="352" y="364" style="fill:#FFFFFF;" width="23" height="18"/>
				<rect x="397" y="364" style="fill:#FFFFFF;" width="24" height="18"/>
			</g>
		</g>
		<path style="opacity:0.1;fill:#FFFFFF;enable-background:new    ;" d="M443,368.3V382H57v-13.7c0-2.38,1.66-4.3,4.04-4.3h377.92
			C441.34,364,443,365.92,443,368.3z"/>
	</g>
</g>
<g id="Screen3">
	<g>
		<g>
			<path style="fill:#407BFF;" d="M162,97.638V242.61c0,1.349-1.254,2.39-2.603,2.39H72.671c-1.24,0-1.671-0.953-1.671-2.193V97.44
				c0-1.074,0.285-2.44,1.359-2.44h21.681c0.612,0,1.168,0.613,1.396,1.189l0.898,2.028C96.563,98.788,97.118,99,97.73,99h36.912
				c0.612,0,1.168-0.09,1.396-0.66l0.898-2.29c0.228-0.576,0.784-1.05,1.396-1.05h21.37C160.886,95,162,96.454,162,97.638z"/>
			<path style="opacity:0.2;fill:#FFFFFF;" d="M162,97.638V242.61c0,1.349-1.254,2.39-2.603,2.39H72.671
				c-1.24,0-1.671-0.953-1.671-2.193V97.44c0-1.074,0.285-2.44,1.359-2.44h21.681c0.612,0,1.168,0.613,1.396,1.189l0.898,2.028
				C96.563,98.788,97.118,99,97.73,99h36.912c0.612,0,1.168-0.09,1.396-0.66l0.898-2.29c0.228-0.576,0.784-1.05,1.396-1.05h21.37
				C160.886,95,162,96.454,162,97.638z"/>
		</g>
		<rect x="74.511" y="110.986" style="opacity:0.4;fill:#FFFFFF;enable-background:new    ;" width="84" height="104"/>
		<path style="fill:#407BFF;" d="M142.035,123.799L142.035,123.799c-2.175-2.175-5.702-2.175-7.878,0l0,0
			c-2.175,2.175-2.175,5.703,0,7.878l3.939,3.939l3.939-3.939C144.211,129.502,144.211,125.975,142.035,123.799z M139.998,129.641
			L139.998,129.641c-1.051,1.05-2.754,1.05-3.804,0h0c-1.05-1.051-1.05-2.754,0-3.805h0c1.051-1.051,2.754-1.051,3.804,0l0,0
			C141.049,126.887,141.049,128.59,139.998,129.641z"/>
		<path style="fill:#407BFF;" d="M89.921,194.233L89.921,194.233c-2.175-2.175-5.702-2.175-7.878,0l0,0
			c-2.175,2.176-2.175,5.702,0,7.878l3.939,3.939l3.939-3.939C92.096,199.936,92.096,196.409,89.921,194.233z M87.884,200.075
			L87.884,200.075c-1.051,1.051-2.754,1.051-3.805,0l0,0c-1.051-1.051-1.051-2.754,0-3.804l0,0c1.051-1.051,2.754-1.051,3.805,0l0,0
			C88.935,197.321,88.935,199.024,87.884,200.075z"/>
		<path style="fill:#407BFF;" d="M146.438,110.986h-5.11l5.363,25.86l-25.34,6.3l-6.663-32.16h-5.12l6.922,33.37l-26.83,6.66
			l-8.293-40.03H76.29l8.601,41.24l-10.38,2.6v5.16l11.45-2.86l5.19,25.28l-16.64,4.16v5.16l17.66-4.42l5.65,27.68h5.11l-5.99-28.88
			l7.12-1.77c0.48-0.13,0.99-0.05,1.41,0.22c0.42,0.26,0.72,0.68,0.82,1.16l6.4,29.27h5.11l-6.62-30.33
			c-0.4-1.82-1.49-3.37-3.07-4.35c-1.58-0.98-3.45-1.27-5.26-0.83l-6.93,1.73l-5.24-25.29l26.83-6.66l2.35,11.34
			c0.64,3.08,3.17,5.39,6.3,5.73l27.27,3.02l5.08,24.5v-28.96l-31.8-3.52c-0.97-0.11-1.75-0.83-1.95-1.78l-2.4-11.54l36.15-8.98
			v-5.16l-6.96,1.73L146.438,110.986z"/>
		<g>
			<path style="fill:#407BFF;" d="M135.046,235.161h-37.07c-3.548,0-6.424-2.876-6.424-6.424l0,0c0-3.548,2.876-6.424,6.424-6.424
				h37.07c3.548,0,6.424,2.876,6.424,6.424l0,0C141.47,232.285,138.594,235.161,135.046,235.161z"/>
			<text transform="matrix(1 0 0 1 101.2398 232.3661)" style="fill:#FFFFFF; font-family:'Cabin-Regular'; font-size:9.3779px;">ORDER</text>
		</g>
		<path style="opacity:0.2;enable-background:new    ;" d="M162,157.655v84.708c0,1.451-1.187,2.638-2.638,2.638h-15.696v-80.845
			c0-3.59,2.91-6.5,6.5-6.5H162z"/>
	</g>
</g>
<g id="Screen2">
	<g>
		<g>
			<path style="fill:#407BFF;" d="M242,176.638V321.61c0,1.349-1.265,2.39-2.615,2.39H152.66c-1.24,0-1.66-0.953-1.66-2.193V176.441
				c0-1.074,0.274-2.441,1.348-2.441h21.681c0.612,0,1.168,0.613,1.396,1.189l0.898,2.028c0.228,0.571,0.784,0.783,1.396,0.783
				h36.912c0.612,0,1.168-0.09,1.396-0.66l0.898-2.29c0.228-0.576,0.784-1.05,1.396-1.05h21.37C240.875,174,242,175.454,242,176.638
				z"/>
			<path style="opacity:0.2;fill:#FFFFFF;" d="M242,176.638V321.61c0,1.349-1.265,2.39-2.615,2.39H152.66
				c-1.24,0-1.66-0.953-1.66-2.193V176.441c0-1.074,0.274-2.441,1.348-2.441h21.681c0.612,0,1.168,0.613,1.396,1.189l0.898,2.028
				c0.228,0.571,0.784,0.783,1.396,0.783h36.912c0.612,0,1.168-0.09,1.396-0.66l0.898-2.29c0.228-0.576,0.784-1.05,1.396-1.05h21.37
				C240.875,174,242,175.454,242,176.638z"/>
		</g>
		<rect x="153.816" y="189.897" style="fill:#407BFF;" width="84.667" height="25.853"/>
		<rect x="153.816" y="217.75" style="opacity:0.4;fill:#FFFFFF;enable-background:new    ;" width="84.667" height="98.583"/>
		
			<text transform="matrix(1 0 0 1 161.2529 200.3358)" style="opacity:0.4;fill:#FFFFFF;enable-background:new    ; font-family:'Cabin-Regular'; font-size:6.4113px;">FROM</text>
		<g>
			<path style="fill:#407BFF;" d="M221.15,277.112c0,3.439-11.193,6.226-25,6.226c-13.807,0-25-2.788-25-6.226
				c0-3.439,11.193-6.226,25-6.226C209.957,270.886,221.15,273.674,221.15,277.112z"/>
			<path style="opacity:0.2;enable-background:new    ;" d="M221.15,277.112c0,3.439-11.193,6.226-25,6.226
				c-13.807,0-25-2.788-25-6.226c0-3.439,11.193-6.226,25-6.226C209.957,270.886,221.15,273.674,221.15,277.112z"/>
		</g>
		<path style="fill:#407BFF;" d="M209.566,233.659L209.566,233.659c-7.41-7.41-19.423-7.41-26.833,0v0
			c-7.41,7.41-7.41,19.423,0,26.832l13.416,13.416l13.416-13.416C216.976,253.082,216.976,241.069,209.566,233.659z
			 M202.629,253.555L202.629,253.555c-3.578,3.578-9.38,3.578-12.958,0h0c-3.578-3.578-3.578-9.38,0-12.958h0
			c3.578-3.578,9.38-3.578,12.958,0l0,0C206.207,244.175,206.207,249.976,202.629,253.555z"/>
		<g>
			<path style="fill:#407BFF;" d="M206.68,306.235h-21.06c-3.548,0-6.424-2.876-6.424-6.424l0,0c0-3.548,2.876-6.424,6.424-6.424
				h21.06c3.548,0,6.424,2.876,6.424,6.424l0,0C213.103,303.359,210.227,306.235,206.68,306.235z"/>
			<text transform="matrix(1 0 0 1 188.3151 303.4401)" style="fill:#FFFFFF; font-family:'Cabin-Regular'; font-size:9.3779px;">SET</text>
		</g>
		<path style="opacity:0.2;enable-background:new    ;" d="M242,242.333v-65.696c0-1.451-1.187-2.638-2.638-2.638h-15.696v61.833
			c0,3.59,2.91,6.5,6.5,6.5H242z"/>
		
			<text transform="matrix(1 0 0 1 161.2529 210.3421)" style="opacity:0.4;fill:#FFFFFF;enable-background:new    ; font-family:'Cabin-Regular'; font-size:6.4113px;">TO</text>
		<path style="opacity:0.4;fill:#FFFFFF;enable-background:new    ;" d="M227.805,194.11h-40.61c-2.041,0-3.695,1.654-3.695,3.695
			l0,0c0,2.041,1.654,3.695,3.695,3.695h40.61c2.041,0,3.695-1.654,3.695-3.695l0,0C231.5,195.764,229.846,194.11,227.805,194.11z"
			/>
		<path style="opacity:0.4;fill:#FFFFFF;enable-background:new    ;" d="M227.805,204.116h-40.61c-2.041,0-3.695,1.654-3.695,3.695
			l0,0c0,2.041,1.654,3.695,3.695,3.695h40.61c2.041,0,3.695-1.654,3.695-3.695l0,0C231.5,205.77,229.846,204.116,227.805,204.116z"
			/>
	</g>
</g>
<g id="Screen1">
	<g>
		<g>
			<path style="fill:#407BFF;" d="M321,72.638V217.61c0,1.349-0.75,2.39-2.1,2.39h-86.726c-1.24,0-2.174-0.953-2.174-2.193V72.44
				c0-1.074,0.789-2.44,1.863-2.44h21.681c0.612,0,1.168,0.613,1.396,1.189l0.898,2.028c0.228,0.571,0.784,0.783,1.396,0.783h36.912
				c0.612,0,1.168-0.09,1.396-0.66l0.898-2.29c0.228-0.576,0.784-1.05,1.396-1.05h21.37C320.389,70,321,71.454,321,72.638z"/>
			<path style="opacity:0.2;fill:#FFFFFF;" d="M321,72.638V217.61c0,1.349-0.75,2.39-2.1,2.39h-86.726
				c-1.24,0-2.174-0.953-2.174-2.193V72.44c0-1.074,0.789-2.44,1.863-2.44h21.681c0.612,0,1.168,0.613,1.396,1.189l0.898,2.028
				c0.228,0.571,0.784,0.783,1.396,0.783h36.912c0.612,0,1.168-0.09,1.396-0.66l0.898-2.29c0.228-0.576,0.784-1.05,1.396-1.05h21.37
				C320.389,70,321,71.454,321,72.638z"/>
		</g>
		<g>
			<g>
				<circle style="fill:#407BFF;" cx="275.107" cy="133.25" r="33.25"/>
				<path style="opacity:0.4;fill:#FFFFFF;enable-background:new    ;" d="M308.5,133.25c0,5.66-1.42,10.99-3.91,15.66
					c-5.6,10.47-16.64,17.59-29.34,17.59s-23.74-7.12-29.34-17.59c-2.49-4.67-3.91-10-3.91-15.66c0-18.36,14.89-33.25,33.25-33.25
					S308.5,114.89,308.5,133.25z"/>
			</g>
			<g>
				<polygon style="fill:#407BFF;" points="280.245,122.729 274.532,122.729 275.355,120.358 279.422,120.358 				"/>
				<path style="fill:#407BFF;" d="M301.142,144h-54.271l1.34-8.675c0.181-1.176,1.118-2.084,2.302-2.232l10.78-1.383l6.504-7.463
					c0.008-0.008,0.017-0.015,0.017-0.015c0.485-0.551,1.135-0.937,1.858-1.068c1.201-0.23,3.495-0.493,7.672-0.493
					c3.824,0,6.077,0.247,7.524,0.477c0.987,0.148,2.13,0.757,2.13,1.628v0.008c0,0.033,0.065,0.066,0.082,0.099l3.001,6.324
					l-0.083,0.09v0.008l0.629,0.411l8.254,1.423c0.715,0.132,1.372,0.707,1.43,1.447L301.142,144z"/>
				<path style="opacity:0.2;enable-background:new    ;" d="M301.142,144h-54.271l1.34-8.675c0.181-1.176,1.118-2.084,2.302-2.232
					l10.78-1.383l6.504-7.463c0.008-0.008,0.017-0.015,0.017-0.015c0.485-0.551,1.135-0.937,1.858-1.068
					c1.201-0.23,3.495-0.493,7.672-0.493c3.824,0,6.077,0.247,7.524,0.477c0.987,0.148,2.13,0.757,2.13,1.628v0.008
					c0,0.033,0.065,0.066,0.082,0.099l3.001,6.324l-0.083,0.09v0.008l0.629,0.411l8.254,1.423c0.715,0.132,1.372,0.707,1.43,1.447
					L301.142,144z"/>
				<g>
					<path style="fill:#2E353A;" d="M262.089,144.235c0,2.581-2.092,4.673-4.673,4.673c-2.581,0-4.673-2.092-4.673-4.673
						c0-2.581,2.092-4.673,4.673-4.673C259.997,139.563,262.089,141.654,262.089,144.235z"/>
					<path style="fill:#407BFF;" d="M259.753,144.235c0,1.29-1.046,2.336-2.336,2.336c-1.29,0-2.336-1.046-2.336-2.336
						c0-1.29,1.046-2.336,2.336-2.336C258.707,141.899,259.753,142.945,259.753,144.235z"/>
				</g>
				<g>
					<path style="fill:#2E353A;" d="M295.832,144.235c0,2.581-2.092,4.673-4.673,4.673c-2.581,0-4.673-2.092-4.673-4.673
						c0-2.581,2.092-4.673,4.673-4.673C293.739,139.563,295.832,141.654,295.832,144.235z"/>
					<path style="fill:#407BFF;" d="M293.495,144.235c0,1.29-1.046,2.336-2.336,2.336c-1.29,0-2.336-1.046-2.336-2.336
						c0-1.29,1.046-2.336,2.336-2.336C292.449,141.899,293.495,142.945,293.495,144.235z"/>
				</g>
				<path style="fill:#407BFF;" d="M251.546,144.598h-4.818c-0.329,0-0.596-0.267-0.596-0.596v-1.507
					c0-0.329,0.267-0.596,0.596-0.596h4.818c0.329,0,0.596,0.267,0.596,0.596v1.507
					C252.142,144.331,251.875,144.598,251.546,144.598z"/>
				<path style="fill:#407BFF;" d="M300.915,144.598h-3.878c-0.329,0-0.596-0.267-0.596-0.596v-1.507
					c0-0.329,0.267-0.596,0.596-0.596h3.878c0.329,0,0.596,0.267,0.596,0.596v1.507
					C301.511,144.331,301.244,144.598,300.915,144.598z"/>
				<path style="fill:#407BFF;" d="M249.881,138.979c0,1.022-0.368,1.85-0.822,1.85s-0.822-0.828-0.822-1.85
					c0-1.022,0.368-1.85,0.822-1.85S249.881,137.957,249.881,138.979z"/>
				<polygon style="fill:#407BFF;" points="300.452,141.172 298.976,141.172 298.976,137.129 300.109,137.129 				"/>
				<g>
					<rect x="250.023" y="135.553" style="fill:#407BFF;" width="1.576" height="1.576"/>
					<rect x="251.599" y="137.129" style="fill:#407BFF;" width="1.576" height="1.576"/>
					<rect x="253.176" y="135.553" style="fill:#407BFF;" width="1.576" height="1.576"/>
					<rect x="254.752" y="137.129" style="fill:#407BFF;" width="1.576" height="1.576"/>
					<rect x="256.328" y="135.553" style="fill:#407BFF;" width="1.576" height="1.576"/>
					<rect x="257.904" y="137.129" style="fill:#407BFF;" width="1.576" height="1.576"/>
					<rect x="259.48" y="135.553" style="fill:#407BFF;" width="1.576" height="1.576"/>
					<rect x="261.056" y="137.129" style="fill:#407BFF;" width="1.576" height="1.576"/>
					<rect x="262.632" y="135.553" style="fill:#407BFF;" width="1.576" height="1.576"/>
					<rect x="264.208" y="137.129" style="fill:#407BFF;" width="1.576" height="1.576"/>
					<rect x="265.784" y="135.553" style="fill:#407BFF;" width="1.576" height="1.576"/>
					<rect x="267.36" y="137.129" style="fill:#407BFF;" width="1.576" height="1.576"/>
					<rect x="268.936" y="135.553" style="fill:#407BFF;" width="1.576" height="1.576"/>
					<rect x="270.512" y="137.129" style="fill:#407BFF;" width="1.576" height="1.576"/>
					<rect x="272.088" y="135.553" style="fill:#407BFF;" width="1.576" height="1.576"/>
					<rect x="273.664" y="137.129" style="fill:#407BFF;" width="1.576" height="1.576"/>
					<rect x="275.24" y="135.553" style="fill:#407BFF;" width="1.576" height="1.576"/>
					<rect x="276.816" y="137.129" style="fill:#407BFF;" width="1.576" height="1.576"/>
					<rect x="278.392" y="135.553" style="fill:#407BFF;" width="1.576" height="1.576"/>
					<rect x="279.969" y="137.129" style="fill:#407BFF;" width="1.576" height="1.576"/>
					<rect x="281.545" y="135.553" style="fill:#407BFF;" width="1.576" height="1.576"/>
					<rect x="283.121" y="137.129" style="fill:#407BFF;" width="1.576" height="1.576"/>
					<rect x="284.697" y="135.553" style="fill:#407BFF;" width="1.576" height="1.576"/>
					<rect x="286.273" y="137.129" style="fill:#407BFF;" width="1.576" height="1.576"/>
					<rect x="287.849" y="135.553" style="fill:#407BFF;" width="1.576" height="1.576"/>
					<rect x="289.425" y="137.129" style="fill:#407BFF;" width="1.576" height="1.576"/>
					<rect x="291.001" y="135.553" style="fill:#407BFF;" width="1.576" height="1.576"/>
					<rect x="292.577" y="137.129" style="fill:#407BFF;" width="1.576" height="1.576"/>
					<rect x="294.153" y="135.553" style="fill:#407BFF;" width="1.576" height="1.576"/>
					<rect x="295.729" y="137.129" style="fill:#407BFF;" width="1.576" height="1.576"/>
					<rect x="297.305" y="135.553" style="fill:#407BFF;" width="1.576" height="1.576"/>
				</g>
				<path style="fill:#407BFF;" d="M277.975,130.893v-6.578l5.429,0.09c0.658,0.011,1.251,0.401,1.521,1.001l2.469,5.487H277.975z"
					/>
				<path style="fill:#407BFF;" d="M264.886,130.893l4.513-5.548c0.53-0.652,1.326-1.031,2.167-1.031h4.766v6.578H264.886z"/>
				<path style="fill:#407BFF;" d="M268.933,124.315l-5.51,6.891c0,0.016-0.041,0.238-2.13,0.51l6.504-7.466
					c0.008-0.008,0.017-0.017,0.017-0.017L268.933,124.315z"/>
				<path style="fill:#407BFF;" d="M290.411,131.206l-1.447-0.313l-3.289-6.266c0.633,0.058,1.324,0.115,1.324,0.148v0.008
					c0,0.033,0.065,0.066,0.082,0.099L290.411,131.206z"/>
				<path style="opacity:0.2;fill:#FFFFFF;" d="M249.881,138.979c0,1.022-0.368,1.85-0.822,1.85s-0.822-0.828-0.822-1.85
					c0-1.022,0.368-1.85,0.822-1.85S249.881,137.957,249.881,138.979z"/>
				<polygon style="opacity:0.2;fill:#FFFFFF;" points="300.452,141.172 298.976,141.172 298.976,137.129 300.109,137.129 				"/>
			</g>
			<path style="fill:#407BFF;" d="M304.59,149c-5.6,10-16.64,17.59-29.34,17.59S251.51,159,245.91,149H304.59z"/>
			<g>
				<path style="fill:#407BFF;" d="M281.666,115h-7.436c-0.725,0-1.313-0.588-1.313-1.313l0,0c0-0.725,0.588-1.313,1.313-1.313
					h7.436c0.725,0,1.313,0.588,1.313,1.313l0,0C282.978,114.412,282.391,115,281.666,115z"/>
				<path style="fill:#407BFF;" d="M279.67,112.375c0,1.419-1.15,2.569-2.569,2.569c-1.419,0-2.569-1.15-2.569-2.569
					s1.15-2.569,2.569-2.569C278.52,109.806,279.67,110.956,279.67,112.375z"/>
				<circle style="fill:#407BFF;" cx="279.401" cy="112.425" r="1.426"/>
			</g>
			<g>
				<path style="fill:#407BFF;" d="M299.469,125.326h-5.566c-0.543,0-0.983-0.44-0.983-0.983l0,0c0-0.543,0.44-0.983,0.983-0.983
					h5.566c0.543,0,0.982,0.44,0.982,0.983l0,0C300.452,124.886,300.012,125.326,299.469,125.326z"/>
				<circle style="fill:#407BFF;" cx="296.052" cy="123.361" r="1.923"/>
				<circle style="fill:#407BFF;" cx="297.774" cy="123.399" r="1.067"/>
			</g>
			<g>
				<path style="fill:#407BFF;" d="M256.447,124.931h-7.443c-0.726,0-1.314-0.588-1.314-1.314l0,0c0-0.726,0.588-1.314,1.314-1.314
					h7.443c0.726,0,1.314,0.588,1.314,1.314l0,0C257.761,124.343,257.173,124.931,256.447,124.931z"/>
				<circle style="fill:#407BFF;" cx="251.879" cy="122.304" r="2.571"/>
				<circle style="fill:#407BFF;" cx="254.18" cy="122.354" r="1.427"/>
			</g>
		</g>
		<g>
			<path style="fill:#407BFF;" d="M293.58,196.32h-37.07c-3.548,0-6.424-2.876-6.424-6.424l0,0c0-3.548,2.876-6.424,6.424-6.424
				h37.07c3.548,0,6.424,2.876,6.424,6.424l0,0C300.004,193.444,297.128,196.32,293.58,196.32z"/>
			<text transform="matrix(1 0 0 1 261.9065 193.5255)" style="fill:#FFFFFF; font-family:'Cabin-Regular'; font-size:9.3779px;">START</text>
		</g>
	</g>
</g>
<g id="Character">
	<g>
		<path style="fill:#2E353A;" d="M396.02,258.17c-0.19,4-26.71,10.33-30.12,8.33c-3.4-2,0-29,0-29l20.43-4.17
			c0,0,0.01,0.01,0.01,0.02C386.69,234.1,396.21,254.24,396.02,258.17z"/>
		<path style="fill:#407BFF;" d="M390.5,236.5c-5.42,3.4-12.35-2.47-17.47-8.43c-4.16-4.84-7.13-9.74-7.13-9.74l5.92-8.76l8.18,8.57
			v0.01l1.5,1.31l-1.045-1.8l-6.338-9.99l6.826-19.66c0.01-0.01,0.023-0.02,0.023-0.02S400.33,230.33,390.5,236.5z"/>
		<path style="opacity:0.2;enable-background:new    ;" d="M371.82,209.57l8.18,8.57v0.01c-1,4.53-3.45,8.24-7.18,9.92
			c-4.16-4.84-7.13-9.74-7.13-9.74L371.82,209.57z"/>
		<path style="opacity:0.2;enable-background:new    ;" d="M380.56,217.66l-6.39-9.99l6.8-19.66c0.01-0.01,0.01-0.02,0.01-0.02
			S383.98,205.52,380.56,217.66z"/>
		<path style="fill:#EBB376;" d="M293.776,196.881l-9.674-2.044c0,0-3.379-3.244-4.599-4.212c-1.22-0.968-5.708-2.499-6.462-2.093
			c-0.754,0.406,3.42,2.364,3.42,2.364s-2.047,4.296-1.61,5.606c0.437,1.31,6.299,3.022,6.84,2.783l9.777,3.735L293.776,196.881z"/>
		<g>
			<polygon style="fill:#407BFF;" points="290.75,195.438 286.212,194.758 284.15,200.938 287.941,202.495 			"/>
			<polygon style="opacity:0.6;fill:#FFFFFF;enable-background:new    ;" points="290.75,195.438 286.212,194.758 284.15,200.938 
				287.941,202.495 			"/>
		</g>
		<polygon style="fill:#E4897B;" points="397.331,404.146 390.671,405.322 387.939,396.239 385.447,387.904 393.127,385.221 
			395.357,395.24 		"/>
		<polygon style="opacity:0.2;enable-background:new    ;" points="395.393,395.445 387.971,396.422 385.463,387.995 
			393.135,385.267 		"/>
		<polygon style="fill:#E4897B;" points="352.863,407 346.099,407 344.988,397.581 343.983,388.939 352.012,387.633 
			352.467,397.887 		"/>
		<polygon style="opacity:0.2;enable-background:new    ;" points="352.467,398.095 344.988,397.767 343.983,389.032 
			352.012,387.679 		"/>
		<g>
			<g>
				<path style="fill:#407BFF;" d="M396.02,390.16l-10.95,1.93c-11.05-27.53-18.91-50.51-24.46-69.58
					c-2.99-10.29-5.32-19.44-7.11-27.56l0.5,29.97V393h-11.12C315.83,264,335,234.52,335,234.52l32.36-5.53
					c1.23,4.83,2.16,12.66,2.71,18.11l1.46,10.7l12.65,65.32L396.02,390.16z"/>
			</g>
			<g style="opacity:0.5;enable-background:new    ;">
				<path style="fill:#FFFFFF;" d="M396.02,390.16l-10.95,1.93c-10.09-25.15-17.53-46.5-22.97-64.54c-0.51-1.71-1.01-3.39-1.5-5.04
					c-2.71-9.34-4.6-17.74-6.6-25.28v-0.02c0-0.76-0.34-1.52-0.51-2.26l0.51,29.97V393h-11.12
					c-16.52-78.79-15.8-120.45-12.74-140.95c1.96-13.07,4.86-17.53,4.86-17.53l32.36-5.53c1.23,4.83,2.16,12.66,2.71,18.11
					l0.44,3.22l1.02,7.48l12.65,65.32L396.02,390.16z"/>
			</g>
		</g>
		<g>
			<polygon style="fill:#407BFF;" points="383.353,390.737 396.936,386.234 396.752,392.012 385.519,395.594 			"/>
			<polygon style="opacity:0.6;fill:#FFFFFF;enable-background:new    ;" points="383.353,390.737 396.936,386.234 396.752,392.012 
				385.519,395.594 			"/>
		</g>
		<g>
			<polygon style="fill:#407BFF;" points="341.429,391.366 355.587,389.293 354.402,394.95 342.717,396.525 			"/>
			<polygon style="opacity:0.6;fill:#FFFFFF;enable-background:new    ;" points="341.429,391.366 355.587,389.293 354.402,394.95 
				342.717,396.525 			"/>
		</g>
		<path style="opacity:0.2;enable-background:new    ;" d="M362.1,327.55c-0.51-1.71-1.015-3.39-1.495-5.04
			c-2.71-9.34-4.605-17.74-6.605-25.28v-0.02l-1.145-13.88c0,0,6.903-15.25,4.313-25.98c0.24,0.61,4.811,12.3,3.011,23.98
			C360.179,281.33,359.3,302.41,362.1,327.55z"/>
		<path style="opacity:0.2;enable-background:new    ;" d="M370.51,250.32l-40.37,1.73c1.96-13.07,4.86-17.53,4.86-17.53l32.36-5.53
			c1.23,4.83,2.16,12.66,2.71,18.11L370.51,250.32z"/>
		<g>
			<path style="fill:#EBB376;" d="M366.1,173.35c-0.08,0.07-0.17,0.14-0.26,0.19c-1.21,0.86-2.6,1.685-4.18,2.045
				c-4.42,1.02-7.44,0.415-9.41-1.585c-0.01,0-0.01,0-0.01,0c-2.76-3-3.45-8.315-3.06-14.725c0.17-2.94,0.59-5.497,1.4-7.487
				c0.01-0.02,0.01-0.094,0.02-0.114c0.04-0.08,0.07-0.192,0.11-0.272c1.21-2.78,3.22-4.581,6.43-5.341
				c1.11-0.26,2.37-0.406,3.79-0.425C373.43,145.505,375.68,166.21,366.1,173.35z"/>
			<path style="opacity:0.2;enable-background:new    ;" d="M365.84,173.54c-1.21,0.86-2.6,1.51-4.18,1.87
				c-4.42,1.02-7.44,0.27-9.41-1.76c2.17,0.48,5.09,0.66,7.93-0.65C361.97,172.18,363.96,172.6,365.84,173.54z"/>
			<path style="fill:#EBB376;" d="M367.11,184.83c0.77,3.56-3.84,5.01-3.84,5.01c-7.54-3.22-8.94-7.23-8.94-7.23
				c6.29-3.28,4.47-12.56,4.47-12.56l1.28,0.63l8.982,1.758c0,0-2.492,4.783-2.823,5.872c0,0.01-0.01,0.02-0.01,0.03
				C364.54,184.04,367.11,184.83,367.11,184.83z"/>
			<path style="fill:#2E353A;" d="M350.575,151.705c0,0-0.689,8.766,7.618,12.531c0,0,3.567,9.106,8.818,9.235
				c7.159,0.175,13.469-10.012,10.989-20.387C374.784,139.629,354.4,138.535,350.575,151.705z"/>
			<path style="fill:#2E353A;" d="M364.555,141.5c0,0-13.615-3.75-15.476,5.75c-2.582,13.184,7.837,14.591,7.837,14.591
				s1.138,11.023-2.905,14.951c0,0,9.323,6.533,24.538,1.5c9.95-3.292,0.617-18.794,0.617-18.794S384.667,139.167,364.555,141.5z"/>
			<path style="fill:#EBB376;" d="M353.986,161.719c0.003-1.367,1.102-3.664,3.228-3.352c2.2,0.323,3.419,5.746-1.987,6.957
				C354.451,165.498,353.98,164.572,353.986,161.719z"/>
			<path style="fill:none;stroke:#2E353A;stroke-width:0.5;stroke-linecap:round;stroke-linejoin:round;stroke-miterlimit:10;" d="
				M355.4,142.388c0,0-6.733-1.721-8.567,6.612c-1.833,8.333,4.283,11.483,4.283,11.483"/>
		</g>
		<g>
			<path style="fill:#407BFF;" d="M350.561,181.601c0,0,7.286-3.929,15.279-1.182c7.993,2.747,6.188,8.081,6.188,8.081
				L350.561,181.601z"/>
			<path style="opacity:0.5;fill:#FFFFFF;enable-background:new    ;" d="M350.561,181.601c0,0,7.286-3.929,15.279-1.182
				c7.993,2.747,6.188,8.081,6.188,8.081L350.561,181.601z"/>
		</g>
		<path style="fill:#407BFF;" d="M380.977,187.989c0,0-6.903-2.709-13.093-4.414c-4.827-1.194-9.741-2.049-14.683-2.547
			c-4.674-0.527-9.373-0.707-14.083-0.558c0.137,2.263,0.237,4.402,0.321,6.411c0.12,2.654,0.202,5.109,0.261,7.392
			c0.107,4.272,0.095,7.938-0.008,11.193c-0.255,8.703-1.192,14.488-2.562,21.071l-6.964,16.961l41.861,5.333l-2.374-16.671l0,0
			c6.944-20.222,9.921-30.869,11.04-36.914C381.918,188.516,380.977,187.989,380.977,187.989z"/>
		<path style="fill:#407BFF;" d="M339.12,180.47c0,0,3.899,7.647,0.639,16.964c0,0-22.759,16.316-29.259,15.066s-24-9.333-24-9.333
			l2.75-8.208c0,0,20.25,4.042,22,4.792S339.12,180.47,339.12,180.47z"/>
		<g>
			<path style="fill:#2E353A;" d="M376.396,186.296c0,0,9.771,29.898,12.104,54.634l-3.189-0.41c0,0-4.553-40.652-10.401-54.367
				L376.396,186.296z"/>
			<path style="opacity:0.2;enable-background:new    ;" d="M376.396,186.296c0,0,9.771,29.898,12.104,54.634l-3.189-0.41
				c0,0-4.553-40.652-10.401-54.367L376.396,186.296z"/>
			<path style="fill:#2E353A;" d="M386.34,233.35c0-0.01-0.01-0.02-0.01-0.02l-13.163,2.687l4.333,29.654
				c8.489-1.754,18.404-5.061,18.52-7.501C396.21,254.24,386.69,234.1,386.34,233.35z"/>
			<path style="opacity:0.1;fill:#FFFFFF;enable-background:new    ;" d="M396.02,258.17c-2.01,1.43-5.66,3.83-9.02,0.66
				c-3.36-3.16-0.67-25.5-0.67-25.5s0.01,0.01,0.01,0.02C386.69,234.1,396.21,254.24,396.02,258.17z"/>
			<path style="fill:#2E353A;" d="M380.206,239c0,0-2.085-46.609-6.645-53.43l1.35,0.582c0,0,6.412,7.347,8.228,52.847H380.206z"/>
		</g>
		<path style="fill:#2E353A;" d="M335.598,421.735c1.017-0.823,2.176-1.454,3.42-1.86l0,0c0,0,3.72-3.69,5.51-14.8l4.87-1.27
			c1.693-0.411,3.463,0.281,4.43,1.73c0.135,0.196,0.24,0.412,0.31,0.64c0.251,1.191,0.424,2.397,0.52,3.61
			c0.49,3.76,0.07,12.2,0.07,12.2h-0.88l-0.35-7.66c-0.13-2.6-2.12,0.45-2.69,3.25c-0.57,2.8-1.78,5.78-7.48,5.92
			C336.678,423.625,333.918,423.365,335.598,421.735z"/>
		<path style="fill:#2E353A;" d="M353.998,405.625c0.32-2.6,0.42-7.12,0.42-7.12l-10.82,1.2c0,0,1.31,5.14,0.23,9
			C349.278,407.275,353.998,405.625,353.998,405.625z"/>
		<path style="fill:#2E353A;" d="M379.626,421.735c1.017-0.823,2.176-1.454,3.42-1.86l0,0c0,0,3.72-3.69,5.51-14.8l4.87-1.27
			c1.693-0.411,3.463,0.281,4.43,1.73c0.135,0.196,0.24,0.412,0.31,0.64c0.251,1.191,0.424,2.397,0.52,3.61
			c0.49,3.76,0.07,12.2,0.07,12.2h-0.88l-0.35-7.66c-0.13-2.6-2.12,0.45-2.69,3.25c-0.57,2.8-1.78,5.78-7.48,5.92
			C380.706,423.625,377.946,423.365,379.626,421.735z"/>
		<path style="fill:#2E353A;" d="M398.026,405.625c0.32-2.6,0.42-7.12,0.42-7.12l-10.82,1.2c0,0,1.31,5.14,0.23,9
			C393.306,407.275,398.026,405.625,398.026,405.625z"/>
	</g>
</g>
</svg>
