<svg width="500" height="500" viewBox="0 0 500 500" fill="none" xmlns="http://www.w3.org/2000/svg">
<path d="M405.2 255.09C316.79 204.09 173.91 204.09 86.0799 255.09C-1.75014 306.09 -1.30013 388.9 87.0799 439.94C175.46 490.98 318.37 490.99 406.21 439.94C494.05 388.89 493.61 306.14 405.2 255.09Z" fill="#F5F5F5"/>
<path d="M441.75 354.44C449.67 349.87 462.47 349.87 470.34 354.44C478.21 359.01 478.17 366.44 470.25 371C462.33 375.56 449.53 375.57 441.66 371C433.79 366.43 433.83 359 441.75 354.44Z" fill="#E6E6E6"/>
<path d="M51.4193 419.46C72.4193 407.31 106.479 407.31 127.419 419.46C148.359 431.61 148.219 451.31 127.179 463.46C106.139 475.61 72.1193 475.61 51.1793 463.46C30.2393 451.31 30.3693 431.61 51.4193 419.46Z" fill="#E6E6E6"/>
<path d="M142.999 316.51C123.169 305.05 91.109 305.05 71.399 316.51C51.689 327.97 51.799 346.51 71.639 357.98C91.479 369.45 123.529 369.43 143.239 357.98C162.949 346.53 162.839 328 142.999 316.51Z" fill="#E6E6E6"/>
<path d="M180.079 402C202.349 389.15 238.339 389.15 260.459 402C282.579 414.85 282.459 435.71 260.199 448.57C237.939 461.43 201.939 461.42 179.819 448.57C157.699 435.72 157.809 414.85 180.079 402Z" fill="#E6E6E6"/>
<path d="M172.439 272.19L419.079 413.6L431.729 406.23L185.029 264.85L172.439 272.19Z" fill="#E6E6E6"/>
<path d="M93.1401 84.6302C93.3642 85.1782 93.4211 85.7803 93.3037 86.3606C93.1862 86.9409 92.8997 87.4734 92.4802 87.8912C92.0607 88.309 91.5269 88.5933 90.9461 88.7083C90.3654 88.8234 89.7635 88.764 89.2164 88.5377C88.6693 88.3113 88.2014 87.9282 87.8717 87.4364C87.5419 86.9447 87.365 86.3664 87.3633 85.7743C87.3616 85.1823 87.535 84.6029 87.8619 84.1093C88.1888 83.6156 88.6544 83.2297 89.2001 83.0002C89.5632 82.8453 89.9532 82.7636 90.3479 82.7597C90.7425 82.7558 91.1341 82.8298 91.5001 82.9775C91.8661 83.1252 92.1994 83.3437 92.4808 83.6204C92.7623 83.8972 92.9863 84.2267 93.1401 84.5902V84.6302Z" fill="#37474F"/>
<path d="M87.1116 87.4201C84.8316 87.1401 84.1116 85.4201 85.4916 83.5801C86.2981 82.6242 87.319 81.8724 88.4712 81.3858C89.6233 80.8992 90.8741 80.6917 92.1216 80.7801C94.4016 81.0601 95.1216 82.7801 93.7416 84.6001C92.9341 85.5559 91.9135 86.309 90.7621 86.7987C89.6106 87.2885 88.3603 87.5013 87.1116 87.4201Z" fill="#455A64"/>
<path d="M86.5916 86.4703C84.2416 86.1703 83.4916 84.4103 84.9116 82.4703C85.7441 81.4832 86.7968 80.7056 87.9849 80.2002C89.173 79.6947 90.4633 79.4755 91.7516 79.5603C94.1016 79.8603 94.8516 81.6203 93.4116 83.5603C92.5865 84.5507 91.5379 85.331 90.3522 85.8369C89.1665 86.3428 87.8776 86.5599 86.5916 86.4703Z" fill="#37474F"/>
<path d="M86.0609 85.4901C83.6409 85.1901 82.8709 83.3801 84.3709 81.4901C85.2199 80.4752 86.2962 79.6747 87.5124 79.1535C88.7286 78.6322 90.0505 78.405 91.3709 78.4901C93.7909 78.7801 94.5709 80.6001 93.1109 82.5501C92.2492 83.5593 91.1619 84.3514 89.9371 84.8622C88.7123 85.373 87.3844 85.5881 86.0609 85.4901Z" fill="#455A64"/>
<path d="M85.4815 84.4602C82.9915 84.1602 82.2015 82.2802 83.7115 80.2802C84.5956 79.2252 85.7173 78.395 86.9846 77.8578C88.2519 77.3207 89.6286 77.0919 91.0015 77.1902C93.4915 77.5002 94.2915 79.3702 92.7715 81.3802C91.8865 82.4334 90.7643 83.2617 89.497 83.7971C88.2298 84.3325 86.8536 84.5598 85.4815 84.4602Z" fill="#37474F"/>
<path d="M84.9217 83.4002C82.3317 83.0602 81.5617 81.1802 83.1017 79.1202C84.0059 78.0531 85.1491 77.2144 86.4383 76.6723C87.7276 76.1302 89.1266 75.8999 90.5217 76.0002C93.0617 76.3002 93.8817 78.2202 92.3317 80.2702C91.4311 81.3395 90.2902 82.1806 89.0024 82.7246C87.7145 83.2686 86.3162 83.5001 84.9217 83.4002Z" fill="#455A64"/>
<path d="M75.0011 49.5901C71.5129 51.0616 68.7518 53.8581 67.3248 57.3647C65.8978 60.8713 65.9216 64.8011 67.3911 68.2901V68.3501C71.8011 78.8001 81.1511 76.8801 83.0011 81.0801C83.2084 81.4638 83.514 81.7854 83.8865 82.0121C84.259 82.2387 84.6851 82.3623 85.1211 82.3701C86.3297 82.453 87.5407 82.2499 88.6561 81.7773C89.7716 81.3048 90.7599 80.576 91.5411 79.6501C91.8304 79.3306 92.0314 78.9413 92.1243 78.5204C92.2173 78.0996 92.1989 77.6617 92.0711 77.2501C90.2711 73.0401 98.1611 67.6401 93.7211 57.1801C92.9926 55.4505 91.9302 53.8815 90.5948 52.5627C89.2595 51.244 87.6772 50.2014 85.9386 49.4946C84.2 48.7879 82.3391 48.4307 80.4623 48.4437C78.5856 48.4567 76.7298 48.8394 75.0011 49.5701V49.5901Z" fill="#3E89EC"/>
<g opacity="0.6">
<path d="M75.0011 49.5901C71.5129 51.0616 68.7518 53.8581 67.3248 57.3647C65.8978 60.8713 65.9216 64.8011 67.3911 68.2901V68.3501C71.8011 78.8001 81.1511 76.8801 83.0011 81.0801C83.2084 81.4638 83.514 81.7854 83.8865 82.0121C84.259 82.2387 84.6851 82.3623 85.1211 82.3701C86.3297 82.453 87.5407 82.2499 88.6561 81.7773C89.7716 81.3048 90.7599 80.576 91.5411 79.6501C91.8304 79.3306 92.0314 78.9413 92.1243 78.5204C92.2173 78.0996 92.1989 77.6617 92.0711 77.2501C90.2711 73.0401 98.1611 67.6401 93.7211 57.1801C92.9926 55.4505 91.9302 53.8815 90.5948 52.5627C89.2595 51.244 87.6772 50.2014 85.9386 49.4946C84.2 48.7879 82.3391 48.4307 80.4623 48.4437C78.5856 48.4567 76.7298 48.8394 75.0011 49.5701V49.5901Z" fill="white"/>
</g>
<path d="M85.6605 81.4902C84.0305 81.2602 83.4605 80.0502 84.4405 78.7402C85.0333 78.05 85.7805 77.5093 86.6214 77.1618C87.4623 76.8143 88.3733 76.6699 89.2805 76.7402C90.9105 76.9702 91.4605 78.1902 90.4605 79.5202C89.8702 80.2012 89.1285 80.7342 88.2948 81.0763C87.4612 81.4185 86.5589 81.5602 85.6605 81.4902Z" fill="#3E89EC"/>
<path d="M89.0916 78.0001C88.9773 78.0479 88.8489 78.0496 88.7333 78.0049C88.6178 77.9601 88.524 77.8724 88.4716 77.7601C87.4073 75.2224 86.6486 72.5671 86.2116 69.8501C86.0868 69.0659 86.0166 68.274 86.0016 67.4801C85.5368 67.4984 85.0713 67.4716 84.6116 67.4001C83.7812 67.2687 82.9754 67.0125 82.2216 66.6401C81.9559 67.4266 81.5787 68.1708 81.1016 68.8501C80.8289 69.2101 80.5243 69.5448 80.1916 69.8501C80.7428 70.423 81.2604 71.0273 81.7416 71.6601C83.3921 73.8673 84.772 76.2644 85.8516 78.8001C85.8759 78.8592 85.8881 78.9224 85.8877 78.9863C85.8872 79.0501 85.874 79.1132 85.8489 79.1718C85.8237 79.2305 85.7871 79.2835 85.7413 79.3279C85.6954 79.3723 85.6411 79.407 85.5816 79.4301C85.4607 79.4732 85.3279 79.4682 85.2106 79.4161C85.0934 79.364 85.0006 79.2687 84.9516 79.1501C83.8944 76.7008 82.5518 74.3847 80.9516 72.2501C80.4847 71.6119 79.9699 71.0101 79.4116 70.4501C79.0039 70.7264 78.5353 70.8998 78.0459 70.9555C77.5566 71.0112 77.061 70.9476 76.6016 70.7701C76.2516 70.6453 75.9582 70.399 75.7746 70.0759C75.5911 69.7529 75.5297 69.3747 75.6016 69.0101C75.6528 68.7642 75.7747 68.5385 75.9523 68.3609C76.13 68.1832 76.3556 68.0613 76.6016 68.0101C77.1344 67.9941 77.6642 68.094 78.1546 68.3029C78.645 68.5119 79.0841 68.8248 79.4416 69.2201C79.7515 68.9407 80.0268 68.6251 80.2616 68.2801C80.732 67.626 81.0934 66.8999 81.3316 66.1301C80.9079 65.8954 80.5368 65.5765 80.241 65.193C79.9452 64.8095 79.731 64.3695 79.6116 63.9001C79.5904 63.6132 79.6601 63.3269 79.8107 63.0818C79.9614 62.8367 80.1854 62.6452 80.4509 62.5346C80.7165 62.4239 81.0102 62.3997 81.2903 62.4653C81.5704 62.5309 81.8228 62.6831 82.0116 62.9001C82.2691 63.3116 82.4385 63.7719 82.5091 64.2521C82.5797 64.7324 82.5499 65.222 82.4216 65.6901C83.1388 66.051 83.9081 66.2973 84.7016 66.4201C85.117 66.4652 85.5361 66.4652 85.9516 66.4201C85.919 65.8885 86.0013 65.3562 86.1929 64.8592C86.3844 64.3623 86.6807 63.9124 87.0616 63.5401C87.2749 63.3982 87.5254 63.3225 87.7816 63.3225C88.0378 63.3225 88.2883 63.3982 88.5016 63.5401C88.8134 63.7366 89.0444 64.0384 89.1527 64.3907C89.261 64.743 89.2393 65.1225 89.0916 65.4601C88.8998 65.9134 88.6014 66.3136 88.2219 66.627C87.8424 66.9403 87.3929 67.1575 86.9116 67.2601C86.9299 68.051 87.0034 68.8395 87.1316 69.6201C87.5613 72.2543 88.2998 74.8287 89.3316 77.2901C89.3833 77.4085 89.3872 77.5423 89.3424 77.6635C89.2977 77.7846 89.2078 77.8838 89.0916 77.9401V78.0001ZM76.7416 69.0001C76.6915 69.0266 76.6487 69.0651 76.6173 69.1123C76.5859 69.1594 76.5667 69.2137 76.5616 69.2701C76.4716 69.6601 76.8616 69.8801 76.9816 69.9301C77.2467 70.029 77.5304 70.0677 77.8123 70.0435C78.0942 70.0193 78.3672 69.9327 78.6116 69.7901C78.1346 69.3022 77.4928 69.0098 76.8116 68.9701L76.7416 69.0001ZM87.0016 66.2901C87.2721 66.2059 87.5217 66.0652 87.7337 65.8773C87.9458 65.6894 88.1155 65.4586 88.2316 65.2001C88.2316 65.0801 88.4016 64.6501 88.0516 64.4401C87.9972 64.398 87.9304 64.3751 87.8616 64.3751C87.7928 64.3751 87.726 64.398 87.6716 64.4401C87.3716 64.6001 87.0816 65.2101 87.0016 66.2901ZM80.8716 63.4401C80.7889 63.4615 80.7177 63.514 80.6729 63.5867C80.6282 63.6595 80.6134 63.7467 80.6316 63.8301C80.7929 64.3773 81.1485 64.8467 81.6316 65.1501C81.7303 64.5972 81.6312 64.0272 81.3516 63.5401C81.3044 63.4683 81.2317 63.417 81.1482 63.3966C81.0647 63.3762 80.9766 63.3882 80.9016 63.4301L80.8716 63.4401Z" fill="white"/>
<path d="M72.9211 44.56C72.8602 44.619 72.789 44.6665 72.7111 44.7C72.4829 44.7971 72.2256 44.8001 71.9952 44.7083C71.7648 44.6165 71.58 44.4374 71.4811 44.21L69.5511 39.73C69.4491 39.5086 69.4393 39.2557 69.5236 39.0269C69.608 38.7981 69.7798 38.6122 70.0011 38.51C70.2306 38.4135 70.4889 38.412 70.7195 38.5057C70.9501 38.5995 71.1341 38.7808 71.2311 39.01L73.1611 43.48C73.2318 43.6637 73.2468 43.8641 73.2041 44.0562C73.1614 44.2484 73.0629 44.4236 72.9211 44.56Z" fill="#E0E0E0"/>
<path d="M64.4802 51.2501C64.318 51.3742 64.1194 51.4414 63.9152 51.4414C63.711 51.4414 63.5124 51.3742 63.3502 51.2501L59.4402 48.3501C59.2614 48.1954 59.1475 47.9791 59.1211 47.7441C59.0947 47.5092 59.1578 47.273 59.2979 47.0825C59.4379 46.892 59.6445 46.7613 59.8766 46.7163C60.1087 46.6714 60.3492 46.7156 60.5502 46.8401L64.4602 49.7401C64.6582 49.8893 64.7893 50.1106 64.8249 50.356C64.8605 50.6013 64.7977 50.8508 64.6502 51.0501C64.6096 51.1289 64.5514 51.1973 64.4802 51.2501Z" fill="#E0E0E0"/>
<path d="M60.5309 61.2502C60.4333 61.3284 60.3212 61.3863 60.201 61.4207C60.0808 61.455 59.955 61.465 59.8309 61.4502L55.0009 60.8902C54.7612 60.8624 54.5416 60.7426 54.3886 60.556C54.2356 60.3694 54.1611 60.1307 54.1809 59.8902C54.2213 59.6554 54.3443 59.4427 54.5277 59.2906C54.711 59.1384 54.9426 59.0567 55.1809 59.0602L60.0209 59.6202C60.2606 59.6479 60.4801 59.7677 60.6331 59.9543C60.7861 60.1409 60.8606 60.3797 60.8409 60.6202C60.8335 60.7405 60.8023 60.8581 60.7491 60.9663C60.6959 61.0744 60.6217 61.1709 60.5309 61.2502Z" fill="#E0E0E0"/>
<path d="M62.0918 71.8902C62.0447 71.9591 61.9833 72.0171 61.9118 72.0602L57.4418 74.0002C57.3315 74.0503 57.2124 74.0782 57.0913 74.0822C56.9703 74.0863 56.8496 74.0663 56.7362 74.0236C56.6229 73.9808 56.5191 73.9161 56.4308 73.8332C56.3425 73.7502 56.2715 73.6506 56.2218 73.5402C56.1201 73.316 56.1114 73.0607 56.1976 72.8301C56.2838 72.5995 56.4579 72.4126 56.6818 72.3102L61.1318 70.3102C61.3423 70.1899 61.5911 70.1555 61.8263 70.2144C62.0615 70.2732 62.2648 70.4206 62.3939 70.6258C62.523 70.8311 62.5678 71.0782 62.5189 71.3157C62.4701 71.5531 62.3314 71.7625 62.1318 71.9002L62.0918 71.8902Z" fill="#E0E0E0"/>
<path d="M104.72 53.4702C104.667 53.5341 104.607 53.5912 104.54 53.6402L100 55.5302C99.8872 55.5821 99.765 55.6109 99.6408 55.6148C99.5166 55.6187 99.3928 55.5976 99.2769 55.5529C99.1609 55.5082 99.0551 55.4407 98.9657 55.3543C98.8763 55.268 98.8051 55.1647 98.7563 55.0504C98.7075 54.9361 98.6821 54.8132 98.6816 54.6889C98.6812 54.5646 98.7056 54.4415 98.7535 54.3268C98.8014 54.2122 98.8718 54.1082 98.9605 54.0212C99.0492 53.9342 99.1545 53.8659 99.2701 53.8202L103.74 51.8802C103.854 51.835 103.976 51.8129 104.099 51.8151C104.222 51.8173 104.343 51.8438 104.456 51.8931C104.568 51.9424 104.67 52.0134 104.755 52.1022C104.839 52.1909 104.906 52.2956 104.95 52.4102C105.022 52.592 105.036 52.7918 104.99 52.9818C104.943 53.1718 104.838 53.3426 104.69 53.4702H104.72Z" fill="#E0E0E0"/>
<path d="M93.5715 47.0002C93.392 47.1366 93.1694 47.2041 92.9443 47.1901C92.7192 47.1761 92.5067 47.0817 92.3454 46.9241C92.1842 46.7665 92.085 46.5562 92.0659 46.3315C92.0468 46.1068 92.1091 45.8827 92.2415 45.7002L95.1515 41.8002C95.2219 41.7023 95.311 41.6194 95.4137 41.5563C95.5164 41.4932 95.6306 41.4511 95.7497 41.4325C95.8687 41.4139 95.9903 41.4192 96.1074 41.4479C96.2244 41.4767 96.3346 41.5285 96.4315 41.6002C96.6275 41.7458 96.7584 41.9628 96.7958 42.2042C96.8333 42.4455 96.7742 42.6919 96.6315 42.8902L93.7215 46.8002C93.6833 46.8749 93.6326 46.9426 93.5715 47.0002Z" fill="#E0E0E0"/>
<path d="M83.5705 43.0001C83.3703 43.1411 83.1253 43.2036 82.882 43.176C82.6387 43.1483 82.414 43.0324 82.2505 42.8501C82.1007 42.6528 82.0294 42.407 82.0505 42.1601L82.6605 37.3601C82.6743 37.2386 82.7119 37.1211 82.7711 37.0141C82.8303 36.9072 82.91 36.8129 83.0057 36.7368C83.1013 36.6607 83.211 36.6041 83.3285 36.5703C83.446 36.5366 83.569 36.5263 83.6905 36.5401C83.812 36.5539 83.9295 36.5915 84.0365 36.6507C84.1434 36.7099 84.2377 36.7896 84.3138 36.8853C84.39 36.9809 84.4465 37.0906 84.4803 37.2081C84.514 37.3256 84.5243 37.4486 84.5105 37.5701L83.9405 42.4101C83.9217 42.5283 83.8792 42.6414 83.8156 42.7428C83.752 42.8442 83.6687 42.9317 83.5705 43.0001Z" fill="#E0E0E0"/>
<path d="M436.83 328.13L456 328.69L475.18 328.13C476 341.08 473.47 354.28 469.99 360.72C469.171 362.378 467.843 363.73 466.2 364.58C460.54 367.85 451.4 367.85 445.78 364.58C444.104 363.706 442.767 362.299 441.98 360.58C438.5 354.14 436 341 436.83 328.13Z" fill="white"/>
<path d="M442.491 320.28C434.971 324.62 434.931 331.65 442.401 335.99C449.871 340.33 462.001 340.32 469.521 335.99C477.041 331.66 477.071 324.62 469.601 320.28C462.131 315.94 450.001 315.94 442.491 320.28Z" fill="#EBEBEB"/>
<path d="M445.46 322C439.6 325.39 439.56 330.87 445.39 334.26C451.22 337.65 460.68 337.64 466.54 334.26C472.4 330.88 472.44 325.39 466.61 322C460.78 318.61 451.32 318.62 445.46 322Z" fill="#E0E0E0"/>
<g opacity="0.15">
<path d="M445.46 322C439.6 325.39 439.56 330.87 445.39 334.26C451.22 337.65 460.68 337.64 466.54 334.26C472.4 330.88 472.44 325.39 466.61 322C460.78 318.61 451.32 318.62 445.46 322Z" fill="black"/>
</g>
<path d="M465.779 288.89C468.899 285.01 472.519 281.54 475.379 277.47C477.329 274.69 478.959 271.29 478.139 268C477.685 266.486 476.815 265.131 475.629 264.086C474.443 263.041 472.988 262.35 471.429 262.09C468.285 261.619 465.078 262.332 462.429 264.09C459.805 265.844 457.502 268.036 455.619 270.57C444.828 284.242 439.724 301.55 441.369 318.89C441.559 320.89 441.889 322.89 443.149 324.44C443.835 325.251 444.741 325.848 445.757 326.158C446.773 326.468 447.857 326.48 448.879 326.19C454.099 324.64 453.409 317.59 454.259 313.44C455.438 307.742 457.46 302.251 460.259 297.15C461.857 294.242 463.704 291.478 465.779 288.89Z" fill="#455A64"/>
<path opacity="0.2" d="M465.779 288.89C468.899 285.01 472.519 281.54 475.379 277.47C477.329 274.69 478.959 271.29 478.139 268C477.685 266.486 476.815 265.131 475.629 264.086C474.443 263.041 472.988 262.35 471.429 262.09C468.285 261.619 465.078 262.332 462.429 264.09C459.805 265.844 457.502 268.036 455.619 270.57C444.828 284.242 439.724 301.55 441.369 318.89C441.559 320.89 441.889 322.89 443.149 324.44C443.835 325.251 444.741 325.848 445.757 326.158C446.773 326.468 447.857 326.48 448.879 326.19C454.099 324.64 453.409 317.59 454.259 313.44C455.438 307.742 457.46 302.251 460.259 297.15C461.857 294.242 463.704 291.478 465.779 288.89Z" fill="white"/>
<path d="M448.54 321C448.641 320.98 448.733 320.927 448.8 320.849C448.867 320.771 448.906 320.673 448.91 320.57C449.28 312.18 452 283.57 471.73 267.32C471.822 267.242 471.88 267.132 471.891 267.012C471.902 266.893 471.866 266.773 471.79 266.68C471.753 266.634 471.706 266.595 471.653 266.567C471.601 266.539 471.543 266.521 471.483 266.516C471.423 266.51 471.363 266.516 471.306 266.534C471.249 266.552 471.196 266.581 471.15 266.62C451.15 283.1 448.37 312.05 448 320.53C447.998 320.59 448.007 320.65 448.028 320.706C448.049 320.762 448.08 320.814 448.121 320.858C448.162 320.901 448.212 320.937 448.267 320.961C448.321 320.986 448.38 320.999 448.44 321H448.54Z" fill="#F0F0F0"/>
<path d="M445.66 321.85C446.26 325.14 449.09 329.22 452.07 330.73C455.086 332.161 458.441 332.726 461.76 332.36C465.122 331.967 468.425 331.175 471.6 330C473.18 329.47 474.94 328.75 475.1 326.79C475.129 326.278 475.045 325.766 474.853 325.291C474.661 324.815 474.366 324.388 473.99 324.04C473.675 323.727 473.341 323.433 472.99 323.16C472.818 323.04 472.687 322.868 472.618 322.67C472.548 322.472 472.543 322.256 472.603 322.055C472.663 321.853 472.784 321.676 472.951 321.548C473.117 321.419 473.32 321.347 473.53 321.34C474.473 321.283 475.412 321.166 476.34 320.99C478.503 320.647 480.534 319.728 482.22 318.33C483.448 317.246 484.384 315.871 484.94 314.33C485.42 313.02 485.55 311.33 484.55 310.38C483.927 309.865 483.171 309.536 482.37 309.43C481.67 309.277 480.97 309.147 480.27 309.04C480.065 309.014 479.874 308.92 479.727 308.774C479.581 308.627 479.488 308.436 479.463 308.231C479.438 308.025 479.482 307.817 479.588 307.639C479.694 307.462 479.857 307.325 480.05 307.25L483.05 306.02C483.905 305.737 484.68 305.254 485.31 304.61C485.698 304.011 485.949 303.335 486.048 302.628C486.146 301.921 486.089 301.202 485.88 300.52C485.52 298.65 484.88 296.86 484.44 295.01C483.92 293.177 483.851 291.245 484.24 289.38C478.665 288.761 473.024 289.137 467.58 290.49C465.94 290.83 464.39 291.511 463.03 292.49C461.18 293.98 460.69 296.2 460.89 298.62C460.897 298.718 460.87 298.817 460.813 298.898C460.757 298.978 460.674 299.037 460.579 299.064C460.483 299.091 460.382 299.085 460.291 299.046C460.2 299.007 460.126 298.938 460.08 298.85L458.18 295.34C457.902 294.823 457.432 294.435 456.871 294.259C456.311 294.083 455.704 294.134 455.18 294.4C453.517 295.23 452.04 296.39 450.84 297.81C450.172 298.566 449.663 299.449 449.344 300.406C449.024 301.363 448.901 302.374 448.98 303.38C449.209 306.137 449.671 308.87 450.36 311.55C450.401 311.701 450.393 311.861 450.338 312.008C450.283 312.155 450.183 312.28 450.053 312.367C449.923 312.454 449.769 312.499 449.612 312.494C449.455 312.489 449.304 312.435 449.18 312.34L449.09 312.28C448.581 311.886 447.941 311.7 447.3 311.76C445.62 311.97 445.19 313.67 445.08 315.12C445 317.378 445.195 319.638 445.66 321.85Z" fill="#455A64"/>
<path opacity="0.2" d="M445.66 321.85C446.26 325.14 449.09 329.22 452.07 330.73C455.086 332.161 458.441 332.726 461.76 332.36C465.122 331.967 468.425 331.175 471.6 330C473.18 329.47 474.94 328.75 475.1 326.79C475.129 326.278 475.045 325.766 474.853 325.291C474.661 324.815 474.366 324.388 473.99 324.04C473.675 323.727 473.341 323.433 472.99 323.16C472.818 323.04 472.687 322.868 472.618 322.67C472.548 322.472 472.543 322.256 472.603 322.055C472.663 321.853 472.784 321.676 472.951 321.548C473.117 321.419 473.32 321.347 473.53 321.34C474.473 321.283 475.412 321.166 476.34 320.99C478.503 320.647 480.534 319.728 482.22 318.33C483.448 317.246 484.384 315.871 484.94 314.33C485.42 313.02 485.55 311.33 484.55 310.38C483.927 309.865 483.171 309.536 482.37 309.43C481.67 309.277 480.97 309.147 480.27 309.04C480.065 309.014 479.874 308.92 479.727 308.774C479.581 308.627 479.488 308.436 479.463 308.231C479.438 308.025 479.482 307.817 479.588 307.639C479.694 307.462 479.857 307.325 480.05 307.25L483.05 306.02C483.905 305.737 484.68 305.254 485.31 304.61C485.698 304.011 485.949 303.335 486.048 302.628C486.146 301.921 486.089 301.202 485.88 300.52C485.52 298.65 484.88 296.86 484.44 295.01C483.92 293.177 483.851 291.245 484.24 289.38C478.665 288.761 473.024 289.137 467.58 290.49C465.94 290.83 464.39 291.511 463.03 292.49C461.18 293.98 460.69 296.2 460.89 298.62C460.897 298.718 460.87 298.817 460.813 298.898C460.757 298.978 460.674 299.037 460.579 299.064C460.483 299.091 460.382 299.085 460.291 299.046C460.2 299.007 460.126 298.938 460.08 298.85L458.18 295.34C457.902 294.823 457.432 294.435 456.871 294.259C456.311 294.083 455.704 294.134 455.18 294.4C453.517 295.23 452.04 296.39 450.84 297.81C450.172 298.566 449.663 299.449 449.344 300.406C449.024 301.363 448.901 302.374 448.98 303.38C449.209 306.137 449.671 308.87 450.36 311.55C450.401 311.701 450.393 311.861 450.338 312.008C450.283 312.155 450.183 312.28 450.053 312.367C449.923 312.454 449.769 312.499 449.612 312.494C449.455 312.489 449.304 312.435 449.18 312.34L449.09 312.28C448.581 311.886 447.941 311.7 447.3 311.76C445.62 311.97 445.19 313.67 445.08 315.12C445 317.378 445.195 319.638 445.66 321.85Z" fill="black"/>
<path opacity="0.2" d="M445.66 321.85C446.26 325.14 449.09 329.22 452.07 330.73C455.086 332.161 458.441 332.726 461.76 332.36C465.122 331.967 468.425 331.175 471.6 330C473.18 329.47 474.94 328.75 475.1 326.79C475.129 326.278 475.045 325.766 474.853 325.291C474.661 324.815 474.366 324.388 473.99 324.04C473.675 323.727 473.341 323.433 472.99 323.16C472.818 323.04 472.687 322.868 472.618 322.67C472.548 322.472 472.543 322.256 472.603 322.055C472.663 321.853 472.784 321.676 472.951 321.548C473.117 321.419 473.32 321.347 473.53 321.34C474.473 321.283 475.412 321.166 476.34 320.99C478.503 320.647 480.534 319.728 482.22 318.33C483.448 317.246 484.384 315.871 484.94 314.33C485.42 313.02 485.55 311.33 484.55 310.38C483.927 309.865 483.171 309.536 482.37 309.43C481.67 309.277 480.97 309.147 480.27 309.04C480.065 309.014 479.874 308.92 479.727 308.774C479.581 308.627 479.488 308.436 479.463 308.231C479.438 308.025 479.482 307.817 479.588 307.639C479.694 307.462 479.857 307.325 480.05 307.25L483.05 306.02C483.905 305.737 484.68 305.254 485.31 304.61C485.698 304.011 485.949 303.335 486.048 302.628C486.146 301.921 486.089 301.202 485.88 300.52C485.52 298.65 484.88 296.86 484.44 295.01C483.92 293.177 483.851 291.245 484.24 289.38C478.665 288.761 473.024 289.137 467.58 290.49C465.94 290.83 464.39 291.511 463.03 292.49C461.18 293.98 460.69 296.2 460.89 298.62C460.897 298.718 460.87 298.817 460.813 298.898C460.757 298.978 460.674 299.037 460.579 299.064C460.483 299.091 460.382 299.085 460.291 299.046C460.2 299.007 460.126 298.938 460.08 298.85L458.18 295.34C457.902 294.823 457.432 294.435 456.871 294.259C456.311 294.083 455.704 294.134 455.18 294.4C453.517 295.23 452.04 296.39 450.84 297.81C450.172 298.566 449.663 299.449 449.344 300.406C449.024 301.363 448.901 302.374 448.98 303.38C449.209 306.137 449.671 308.87 450.36 311.55C450.401 311.701 450.393 311.861 450.338 312.008C450.283 312.155 450.183 312.28 450.053 312.367C449.923 312.454 449.769 312.499 449.612 312.494C449.455 312.489 449.304 312.435 449.18 312.34L449.09 312.28C448.581 311.886 447.941 311.7 447.3 311.76C445.62 311.97 445.19 313.67 445.08 315.12C445 317.378 445.195 319.638 445.66 321.85Z" fill="white"/>
<path d="M454.499 330.28C455.541 325.804 457.042 321.447 458.979 317.28C458.979 317.215 458.993 317.151 459.021 317.092C459.049 317.033 459.089 316.981 459.139 316.94C459.239 316.71 459.339 316.49 459.449 316.26C458.907 311.072 457.397 306.032 454.999 301.4C454.94 301.293 454.925 301.168 454.957 301.051C454.989 300.933 455.065 300.832 455.169 300.77C455.274 300.712 455.398 300.697 455.514 300.729C455.63 300.76 455.729 300.836 455.789 300.94C458.033 305.26 459.515 309.936 460.169 314.76C463.959 307.16 470.019 298.26 479.359 291.76C479.408 291.724 479.464 291.698 479.523 291.684C479.582 291.67 479.643 291.668 479.703 291.678C479.762 291.689 479.82 291.711 479.87 291.744C479.921 291.777 479.965 291.82 479.999 291.87C480.033 291.92 480.057 291.976 480.07 292.035C480.082 292.094 480.083 292.155 480.072 292.215C480.061 292.274 480.038 292.331 480.005 292.381C479.972 292.432 479.929 292.476 479.879 292.51C470.239 299.21 464.159 308.51 460.469 316.22C465.442 313.977 470.959 313.23 476.349 314.07C476.469 314.094 476.575 314.164 476.644 314.265C476.713 314.366 476.74 314.489 476.719 314.61C476.701 314.699 476.658 314.78 476.594 314.844C476.529 314.908 476.448 314.952 476.359 314.97H476.179C476.089 314.97 467.369 313.37 459.829 317.59C457.912 321.713 456.425 326.022 455.389 330.45C455.371 330.539 455.328 330.62 455.264 330.684C455.199 330.748 455.118 330.792 455.029 330.81C454.97 330.825 454.908 330.825 454.849 330.81C454.733 330.786 454.63 330.716 454.565 330.617C454.499 330.518 454.476 330.396 454.499 330.28Z" fill="#F0F0F0"/>
<path d="M416.999 358.21L417.329 173C417.214 170.752 416.567 168.563 415.442 166.613C414.318 164.662 412.747 163.006 410.859 161.78L181.119 29.4401C179.339 28.4401 177.719 28.3001 176.539 28.9601L183.339 25.0301C184.519 24.2801 186.199 24.3401 188.059 25.4101L417.789 157.7C419.678 158.926 421.25 160.582 422.376 162.532C423.502 164.482 424.151 166.671 424.269 168.92L423.999 354.19C424.064 354.955 423.941 355.725 423.639 356.431C423.337 357.137 422.867 357.758 422.269 358.24L421.909 358.45L415.199 362.36C416.289 361.67 416.999 360.24 416.999 358.21Z" fill="#4E4C4F"/>
<path opacity="0.3" d="M183.339 25.0001C184.519 24.2501 186.199 24.3101 188.059 25.3801L417.789 157.7C419.938 159.043 421.669 160.958 422.789 163.23L415.839 167.23C414.734 164.966 413.02 163.054 410.889 161.71L181.119 29.4401C179.339 28.4401 177.719 28.3001 176.539 28.9601L183.339 25.0001Z" fill="white"/>
<path opacity="0.2" d="M424.269 168.92L423.999 354.19C424.064 354.955 423.941 355.725 423.639 356.431C423.337 357.137 422.867 357.758 422.269 358.24L421.909 358.45L415.199 362.36C416.349 361.67 417.059 360.24 417.069 358.21L417.329 173C417.282 171.006 416.761 169.053 415.809 167.3L422.759 163.3C423.691 165.031 424.208 166.955 424.269 168.92Z" fill="white"/>
<path d="M417.32 181.36L417 358.21C417 360.21 416.28 361.67 415.13 362.36L415.03 362.42H414.98C413.81 363.03 412.23 362.92 410.48 361.91L180.75 229.64C178.863 228.411 177.293 226.755 176.167 224.805C175.041 222.856 174.391 220.668 174.27 218.42L174.58 41.3401L417.32 181.36Z" fill="#4E4C4F"/>
<path opacity="0.2" d="M417.32 181.36L417 358.21C417 360.21 416.28 361.67 415.13 362.36L415.03 362.42H414.98C413.81 363.03 412.23 362.92 410.48 361.91L180.75 229.64C178.863 228.411 177.293 226.755 176.167 224.805C175.041 222.856 174.391 220.668 174.27 218.42L174.58 41.3401L417.32 181.36Z" fill="black"/>
<path d="M203.16 224.14L203.42 77.1602L401.01 190.76L400.75 337.52L203.16 224.14Z" fill="white"/>
<path d="M284.969 211.71L285.079 135.73L372.689 186.09L372.569 261.98L284.969 211.71Z" fill="#455A64"/>
<path d="M174.6 33.1501C174.6 31.1501 175.32 29.7001 176.47 29.0101C177.65 28.3501 179.27 28.4601 181.05 29.4901L410.86 161.73C412.755 162.961 414.329 164.625 415.454 166.585C416.579 168.544 417.222 170.743 417.33 173V181.41L174.59 41.4101L174.6 33.1501Z" fill="#4E4C4F"/>
<path opacity="0.3" d="M174.6 33.1501C174.6 31.1501 175.32 29.7001 176.47 29.0101C177.65 28.3501 179.27 28.4601 181.05 29.4901L410.86 161.73C412.755 162.961 414.329 164.625 415.454 166.585C416.579 168.544 417.222 170.743 417.33 173V181.41L174.59 41.4101L174.6 33.1501Z" fill="black"/>
<g opacity="0.39">
<path d="M191.799 42.1003C190.799 41.5403 190.029 41.9903 190.029 43.1003C190.057 43.7137 190.232 44.3116 190.538 44.8439C190.844 45.3762 191.273 45.8276 191.789 46.1603C192.789 46.7303 193.569 46.2703 193.569 45.1603C193.536 44.5469 193.358 43.95 193.051 43.4182C192.743 42.8865 192.314 42.4349 191.799 42.1003Z" fill="white"/>
<path d="M187 39.3101C186 38.7401 185.23 39.1901 185.23 40.3101C185.261 40.9256 185.437 41.5251 185.745 42.059C186.052 42.5929 186.483 43.0457 187 43.3801C188 43.9401 188.78 43.4901 188.78 42.3801C188.749 41.7639 188.57 41.1641 188.261 40.6303C187.951 40.0965 187.519 39.644 187 39.3101Z" fill="white"/>
<path d="M182.12 36.5102C181.12 35.9502 180.35 36.4002 180.35 37.5102C180.378 38.1237 180.552 38.7215 180.858 39.2538C181.164 39.7861 181.593 40.2375 182.11 40.5702C183.11 41.1402 183.89 40.6902 183.89 39.5702C183.855 38.9572 183.677 38.3609 183.369 37.8294C183.062 37.2979 182.634 36.846 182.12 36.5102Z" fill="white"/>
</g>
<path d="M191.079 102.5L191.049 111.73L191.079 102.5Z" fill="white"/>
<path d="M191.04 115.28L183.01 110.64L191.04 115.28L191.02 124.51L191.04 115.28Z" fill="white"/>
<path d="M183.09 81.55L191.13 86.19L183.09 81.55Z" fill="white"/>
<path d="M186.48 87.05L191.12 89.73L191.09 98.96L191.12 89.73L186.48 87.05Z" fill="white"/>
<path d="M183.059 94.3201L191.089 98.9601L183.059 94.3201Z" fill="white"/>
<path d="M183.02 107.09L191.05 111.73L183.02 107.09Z" fill="white"/>
<path d="M186.199 184.59L190.839 187.27L190.809 196.5L190.839 187.27L186.199 184.59Z" fill="white"/>
<path d="M183.05 97.8701L191.08 102.5L191.05 111.73L183.02 107.09L183.05 97.8701Z" fill="white"/>
<path d="M191.02 124.51L182.99 119.87L183.01 110.64L191.04 115.28L191.02 124.51Z" fill="white"/>
<path d="M182.88 157.09L190.91 161.73L190.88 170.96L182.85 166.32L182.88 157.09Z" fill="white"/>
<path d="M190.85 183.72L182.82 179.09L182.84 169.86L190.88 174.5L190.85 183.72Z" fill="white"/>
<path d="M182.919 144.32L190.949 148.95L190.919 158.18L182.889 153.54L182.919 144.32Z" fill="white"/>
<path d="M180.15 206.12L193.36 213.74L193.55 147.48L180.34 139.85L180.15 206.12ZM182.84 169.86L190.84 174.5V183.73L182.84 179.09V169.86ZM190.92 158.18L182.92 153.54V144.32L190.92 148.95V158.18ZM190.92 170.96L182.92 166.32V157.09L190.92 161.73V170.96ZM190.85 196.5L182.85 191.86V182.64L186.24 184.64L190.88 187.32V196.55L190.85 196.5ZM182.79 204.63V195.4L190.79 200.04V209.27L182.79 204.63Z" fill="#4E4C4F"/>
<path d="M180.359 134.12L193.559 141.75L193.749 75.4801L180.539 67.8501L180.359 134.12ZM191.129 86.1901L183.129 81.5501V72.3201L191.129 76.9601V86.1901ZM191.129 98.9601L183.129 94.3201V85.0901L186.529 87.0901L191.169 89.7701L191.129 98.9601ZM191.129 111.73L183.129 107.1V97.8701L191.129 102.5V111.73ZM191.129 124.51L183.129 119.87V110.64L191.129 115.28V124.51ZM191.129 137.28L183.129 132.64V123.41L191.129 128.05V137.28Z" fill="#4E4C4F"/>
<path d="M180.15 206.12L193.36 213.74L193.55 147.48L180.34 139.85L180.15 206.12ZM182.84 169.86L190.84 174.5V183.73L182.84 179.09V169.86ZM190.92 158.18L182.92 153.54V144.32L190.92 148.95V158.18ZM190.92 170.96L182.92 166.32V157.09L190.92 161.73V170.96ZM190.85 196.5L182.85 191.86V182.64L186.24 184.64L190.88 187.32V196.55L190.85 196.5ZM182.79 204.63V195.4L190.79 200.04V209.27L182.79 204.63Z" fill="#455A64"/>
<path d="M180.359 134.12L193.559 141.75L193.749 75.4801L180.539 67.8501L180.359 134.12ZM191.129 86.1901L183.129 81.5501V72.3201L191.129 76.9601V86.1901ZM191.129 98.9601L183.129 94.3201V85.0901L186.529 87.0901L191.169 89.7701L191.129 98.9601ZM191.129 111.73L183.129 107.1V97.8701L191.129 102.5V111.73ZM191.129 124.51L183.129 119.87V110.64L191.129 115.28V124.51ZM191.129 137.28L183.129 132.64V123.41L191.129 128.05V137.28Z" fill="#455A64"/>
<path d="M183.059 94.3201L183.079 85.0901L186.479 87.0501L191.119 89.7301L191.089 98.9601L183.059 94.3201Z" fill="white"/>
<path d="M180.539 67.8502L180.559 62.7102L193.769 70.3302L193.749 75.4802L180.539 67.8502Z" fill="white"/>
<path d="M183.09 81.5501L183.12 72.3201L191.15 76.9601L191.13 86.1901L183.09 81.5501Z" fill="white"/>
<path d="M182.969 123.41L191.009 128.05L190.979 137.28L182.949 132.64L182.969 123.41Z" fill="white"/>
<path d="M182.779 191.86L182.809 182.63L186.199 184.59L190.839 187.27L190.809 196.5L182.779 191.86Z" fill="white"/>
<path d="M190.8 200.04L190.78 209.27L182.75 204.63L182.77 195.4L190.8 200.04Z" fill="white"/>
<path d="M352.369 264.71L352.349 268.92L284.709 229.3L284.729 225.09L352.369 264.71Z" fill="#37474F"/>
<path d="M230.59 224.295C233.747 222.461 233.739 216.557 230.573 211.109C227.407 205.66 222.282 202.73 219.125 204.565C215.969 206.399 215.977 212.302 219.143 217.751C222.309 223.199 227.434 226.129 230.59 224.295Z" fill="#E0E0E0"/>
<path d="M224.999 181.54C229.469 184.12 233.089 190.38 233.069 195.54C233.049 200.7 229.419 202.75 224.949 200.17C220.479 197.59 216.859 191.33 216.879 186.17C216.899 181.01 220.479 179 224.999 181.54Z" fill="#E0E0E0"/>
<path d="M246.999 194.24C251.469 196.82 255.089 203.08 255.069 208.24C255.049 213.4 251.419 215.45 246.949 212.87C242.479 210.29 238.859 204.03 238.879 198.87C238.899 193.71 242.479 191.66 246.999 194.24Z" fill="#E0E0E0"/>
<path d="M268.88 230.52C273.35 233.1 276.96 239.36 276.95 244.52C276.94 249.68 273.3 251.73 268.82 249.15C264.34 246.57 260.74 240.31 260.75 235.15C260.76 229.99 264.4 227.94 268.88 230.52Z" fill="#E0E0E0"/>
<path d="M274.649 226.122C277.805 224.288 277.798 218.385 274.632 212.936C271.466 207.488 266.34 204.558 263.184 206.392C260.028 208.226 260.035 214.13 263.201 219.578C266.367 225.027 271.493 227.957 274.649 226.122Z" fill="#E0E0E0"/>
<path d="M252.583 237.003C255.739 235.169 255.731 229.265 252.565 223.816C249.399 218.368 244.274 215.438 241.118 217.272C237.961 219.106 237.969 225.01 241.135 230.458C244.301 235.907 249.426 238.837 252.583 237.003Z" fill="#E0E0E0"/>
<path d="M440.63 130.1L354 80.0601C353.748 79.8771 353.452 79.7648 353.143 79.7349C352.833 79.705 352.522 79.7586 352.24 79.8901L345.76 84.5301C346.04 84.4058 346.348 84.357 346.654 84.3886C346.959 84.4202 347.251 84.531 347.5 84.7101L434.18 134.76C434.884 135.231 435.47 135.859 435.89 136.595C436.31 137.33 436.553 138.154 436.6 139L436.26 216.39C436.289 216.688 436.241 216.988 436.12 217.261C435.999 217.534 435.81 217.772 435.57 217.95L442.13 213.25C442.348 213.065 442.519 212.831 442.629 212.566C442.738 212.302 442.783 212.015 442.76 211.73L443.1 134.34C443.047 133.49 442.797 132.663 442.368 131.927C441.939 131.191 441.344 130.565 440.63 130.1Z" fill="#4E4C4F"/>
<path d="M436.259 216.43L436.599 139C436.553 138.143 436.305 137.308 435.876 136.565C435.447 135.821 434.848 135.189 434.129 134.72L347.449 84.72C347.2 84.5409 346.908 84.4301 346.603 84.3985C346.298 84.3669 345.989 84.4157 345.709 84.54C345.451 84.7159 345.246 84.9587 345.116 85.2424C344.985 85.526 344.935 85.8397 344.969 86.15L344.629 163.54C344.675 164.397 344.923 165.232 345.352 165.975C345.781 166.719 346.38 167.351 347.099 167.82L433.779 217.82C434.034 218.009 434.337 218.123 434.654 218.147C434.97 218.172 435.288 218.107 435.569 217.96C435.804 217.784 435.991 217.552 436.112 217.284C436.233 217.017 436.283 216.723 436.259 216.43Z" fill="#455A64"/>
<g opacity="0.3">
<path d="M358.139 141.41L358.119 150.59L350.129 145.98L350.159 136.8L358.139 141.41Z" fill="black"/>
</g>
<g opacity="0.3">
<path d="M358.139 158.59L358.119 167.76L350.129 163.15L350.159 153.97L358.139 158.59Z" fill="black"/>
</g>
<path d="M366.129 163.19L366.109 172.37L358.119 167.76L358.149 158.59L366.129 163.19Z" fill="white"/>
<g opacity="0.5">
<path d="M410.38 174.37L410.37 177.95L362.85 150.52L362.86 146.94L410.38 174.37Z" fill="white"/>
</g>
<g opacity="0.3">
<path d="M358.18 127.34L358.16 136.51L350.17 131.9L350.2 122.73L358.18 127.34Z" fill="black"/>
</g>
<g opacity="0.5">
<path d="M410.46 146.22L410.45 149.8L362.93 122.37L362.94 118.78L410.46 146.22Z" fill="white"/>
</g>
<g opacity="0.5">
<path d="M410.419 160.3L410.409 163.88L362.889 136.45L362.899 132.87L410.419 160.3Z" fill="white"/>
</g>
<g opacity="0.3">
<path d="M358.219 113.26L358.199 122.44L350.209 117.83L350.239 108.65L358.219 113.26Z" fill="black"/>
</g>
<path d="M431.1 155.33L431.07 164.51L414.67 155.04L414.7 145.86L431.1 155.33Z" fill="white"/>
<path d="M431.02 183.49L430.99 192.66L414.59 183.19L414.62 174.02L431.02 183.49Z" fill="white"/>
<path d="M431.059 169.41L431.029 178.59L414.629 169.12L414.659 159.94L431.059 169.41Z" fill="white"/>
<g opacity="0.3">
<path d="M434.129 134.75C434.844 135.216 435.44 135.843 435.869 136.581C436.298 137.32 436.548 138.148 436.599 139V146.41L383.299 115.63V105.38L434.129 134.75Z" fill="black"/>
</g>
<path d="M378.49 107.21L348.77 90.05L348.76 93.44L378.49 110.6V107.21Z" fill="white"/>
<path d="M426.789 133.08V134.04L432.779 137.5V136.54L426.789 133.08Z" fill="white"/>
<path d="M426.779 138.95L432.759 142.4L432.769 141.46L426.779 138V138.95Z" fill="white"/>
<path d="M426.789 135.68L432.769 139.13L432.779 138.18L426.789 134.72V135.68Z" fill="white"/>
<path d="M426.779 137.31L432.769 140.76V139.82L426.779 136.36V137.31Z" fill="white"/>
<path d="M440.63 130.1L354 80.0601C353.748 79.8771 353.452 79.7648 353.143 79.7349C352.833 79.705 352.522 79.7586 352.24 79.8901L345.76 84.5301C346.04 84.4058 346.348 84.357 346.654 84.3886C346.959 84.4202 347.251 84.531 347.5 84.7101L434.18 134.76C434.996 135.276 435.651 136.01 436.07 136.88L442.88 132.97C442.479 131.785 441.685 130.772 440.63 130.1Z" fill="#37474F"/>
<path d="M435.999 136.88C436.356 137.546 436.555 138.285 436.579 139.04L436.239 216.43C436.268 216.728 436.22 217.028 436.099 217.301C435.979 217.575 435.789 217.812 435.549 217.99L442.109 213.29C442.327 213.105 442.498 212.871 442.608 212.606C442.717 212.342 442.762 212.055 442.739 211.77L443.079 134.38C443.069 133.898 442.978 133.422 442.809 132.97L435.999 136.88Z" fill="#263238"/>
<path d="M306.76 74.4701L220.08 24.4701C219.828 24.2883 219.533 24.176 219.224 24.1444C218.915 24.1128 218.603 24.1631 218.32 24.2901L211.84 28.9401C212.12 28.8158 212.429 28.7671 212.734 28.7986C213.039 28.8302 213.331 28.941 213.58 29.1201L300.26 79.1701C300.979 79.6391 301.578 80.271 302.007 81.0147C302.436 81.7583 302.684 82.5927 302.73 83.4501L302.39 118.84C302.419 119.137 302.371 119.435 302.252 119.708C302.133 119.981 301.947 120.219 301.71 120.4L308.27 115.7C308.484 115.515 308.652 115.281 308.76 115.019C308.867 114.757 308.912 114.473 308.89 114.19L309.23 78.7901C309.19 77.9258 308.945 77.0834 308.516 76.3324C308.086 75.5813 307.484 74.943 306.76 74.4701Z" fill="#4E4C4F"/>
<path d="M302.39 118.8L302.73 83.4101C302.684 82.5528 302.436 81.7184 302.007 80.9747C301.577 80.2311 300.979 79.5991 300.26 79.1301L213.58 29.1301C213.331 28.9511 213.039 28.8402 212.734 28.8087C212.428 28.7771 212.12 28.8259 211.84 28.9501C211.585 29.1268 211.382 29.3682 211.252 29.6495C211.122 29.9308 211.069 30.2417 211.1 30.5501L210.76 65.9501C210.806 66.8075 211.054 67.6419 211.483 68.3856C211.912 69.1292 212.511 69.7612 213.23 70.2301L299.91 120.23C300.167 120.419 300.472 120.532 300.79 120.557C301.108 120.582 301.427 120.517 301.71 120.37C301.948 120.189 302.136 119.949 302.255 119.674C302.374 119.399 302.42 119.098 302.39 118.8Z" fill="#455A64"/>
<g opacity="0.5">
<path d="M227.47 57.5001L227.43 70.1501L216.43 63.8001L216.46 51.1501L227.47 57.5001Z" fill="white"/>
</g>
<g opacity="0.5">
<path d="M244.63 67.0001L244.59 79.6601L233.59 73.3101L233.62 60.6501L244.63 67.0001Z" fill="white"/>
</g>
<g opacity="0.5">
<path d="M261.78 76.5101L261.75 89.1601L250.74 82.8101L250.78 70.1501L261.78 76.5101Z" fill="white"/>
</g>
<g opacity="0.5">
<path d="M278.94 86.0102L278.91 98.6602L267.9 92.3102L267.94 79.6602L278.94 86.0102Z" fill="white"/>
</g>
<g opacity="0.5">
<path d="M296.099 95.5102L296.059 108.17L285.059 101.81L285.099 89.1602L296.099 95.5102Z" fill="white"/>
</g>
<g opacity="0.3">
<path d="M300.26 79.12C300.979 79.589 301.578 80.2209 302.007 80.9646C302.436 81.7082 302.684 82.5426 302.73 83.4V90.8L249.41 60V49.75L300.26 79.12Z" fill="black"/>
</g>
<path d="M244.63 51.5802L214.91 34.4202L214.9 37.8102L244.62 54.9702L244.63 51.5802Z" fill="white"/>
<path d="M292.93 77.4502L292.92 78.4102L298.91 81.8602V80.9102L292.93 77.4502Z" fill="white"/>
<path d="M292.91 83.3201L298.9 86.7701V85.8301L292.91 82.3701V83.3201Z" fill="white"/>
<path d="M292.92 80.0501L298.91 83.5001V82.5501L292.92 79.0901V80.0501Z" fill="white"/>
<path d="M292.91 81.6802L298.9 85.1302V84.1902L292.92 80.7302L292.91 81.6802Z" fill="white"/>
<path d="M306.76 74.4701L220.08 24.4701C219.828 24.2883 219.533 24.176 219.224 24.1444C218.915 24.1128 218.603 24.1631 218.32 24.2901L211.84 28.9401C212.12 28.8158 212.429 28.7671 212.734 28.7986C213.039 28.8302 213.331 28.941 213.58 29.1201L300.26 79.1701C301.076 79.6856 301.731 80.4203 302.15 81.2901L309 77.3401C308.605 76.1546 307.814 75.1411 306.76 74.4701Z" fill="#37474F"/>
<path d="M302.149 81.2501C302.507 81.9156 302.705 82.655 302.729 83.4101L302.389 118.8C302.418 119.096 302.37 119.395 302.251 119.668C302.132 119.941 301.946 120.179 301.709 120.36L308.269 115.66C308.483 115.475 308.651 115.241 308.759 114.979C308.867 114.717 308.911 114.433 308.889 114.15L309.229 78.7501C309.219 78.2682 309.128 77.7915 308.959 77.3401L302.149 81.2501Z" fill="#263238"/>
<path d="M440.629 230.46L353.949 180.46C353.697 180.278 353.402 180.166 353.093 180.134C352.784 180.103 352.472 180.153 352.189 180.28L345.709 184.93C345.99 184.806 346.298 184.757 346.603 184.789C346.908 184.82 347.2 184.931 347.449 185.11L434.129 235.16C434.848 235.629 435.447 236.261 435.876 237.005C436.305 237.748 436.553 238.583 436.599 239.44L436.259 357.86C436.289 358.158 436.241 358.458 436.12 358.731C435.999 359.004 435.809 359.242 435.569 359.42L442.129 354.72C442.347 354.535 442.518 354.301 442.628 354.036C442.737 353.772 442.782 353.485 442.759 353.2L443.099 234.78C443.059 233.916 442.814 233.073 442.385 232.322C441.955 231.571 441.354 230.933 440.629 230.46Z" fill="#4E4C4F"/>
<path d="M436.259 357.82L436.599 239.4C436.553 238.543 436.305 237.708 435.876 236.965C435.447 236.221 434.848 235.589 434.129 235.12L347.449 185.07C347.2 184.891 346.908 184.78 346.603 184.749C346.298 184.717 345.989 184.766 345.709 184.89C345.453 185.065 345.249 185.306 345.118 185.588C344.988 185.87 344.936 186.181 344.969 186.49L344.629 304.92C344.675 305.777 344.923 306.612 345.352 307.356C345.781 308.099 346.38 308.731 347.099 309.2L433.779 359.2C434.034 359.389 434.337 359.503 434.654 359.527C434.97 359.552 435.288 359.487 435.569 359.34C435.803 359.165 435.989 358.935 436.109 358.669C436.23 358.403 436.281 358.111 436.259 357.82Z" fill="#4E4C4F"/>
<g opacity="0.3">
<path d="M434.129 235.11C434.849 235.579 435.447 236.211 435.876 236.955C436.305 237.698 436.553 238.533 436.599 239.39V246.79L383.279 216V205.75L434.129 235.11Z" fill="black"/>
</g>
<path d="M354.649 268.74L348.569 265.23L348.549 272.62L354.629 276.13L354.649 268.74Z" fill="white"/>
<path d="M354.68 258.28L348.6 254.77L348.58 262.16L354.66 265.67L354.68 258.28Z" fill="white"/>
<path d="M378.49 207.56L348.77 190.41L348.76 193.8L378.49 210.96V207.56Z" fill="white"/>
<path d="M430.299 265.68L429.719 264.68L428.619 265.3L427.529 263.42L426.939 263.74L428.619 266.64L430.299 265.68Z" fill="white"/>
<path d="M354.729 242.86L348.639 239.35L348.619 246.74L354.699 250.26L354.729 242.86Z" fill="white"/>
<path d="M354.76 232.4L348.67 228.89L348.65 236.28L354.74 239.8L354.76 232.4Z" fill="white"/>
<path d="M348.709 215.33L348.689 222.73L424.529 266.51L424.549 259.12L348.709 215.33Z" fill="#4E4C4F"/>
<path d="M424.529 266.51L432.689 271.22V263.83L424.529 259.12V266.51ZM427.529 263.42L428.619 265.3L429.719 264.68L430.299 265.68L428.619 266.68L426.939 263.78L427.529 263.42Z" fill="#4E4C4F"/>
<path d="M348.739 204.32L348.719 211.71L424.559 255.5L424.579 248.11L348.739 204.32Z" fill="#4E4C4F"/>
<path d="M430.329 254.67L429.749 253.66L428.649 254.28L427.559 252.39L426.969 252.73L428.649 255.62L430.329 254.67Z" fill="white"/>
<path d="M424.559 255.5L432.719 260.21V252.82L424.559 248.11V255.5ZM427.559 252.39L428.649 254.28L429.749 253.66L430.329 254.66L428.649 255.66L426.999 252.73L427.559 252.39Z" fill="#4E4C4F"/>
<path d="M383.169 252.05L382.589 251.04L381.489 251.67L380.399 249.78L379.809 250.11L381.489 253.01L383.169 252.05Z" fill="white"/>
<path d="M385.56 257.59V250.2L377.4 245.49V252.88L385.56 257.59ZM380.4 249.78L381.49 251.67L382.59 251.04L383.17 252.04L381.49 253.04L379.81 250.14L380.4 249.78Z" fill="#4E4C4F"/>
<path d="M357.799 252.04L377.369 263.34L377.389 255.95L357.819 244.65L357.799 252.04Z" fill="#4E4C4F"/>
<path d="M377.42 245.49L357.85 234.19L357.83 241.59L377.4 252.88L377.42 245.49Z" fill="#4E4C4F"/>
<path d="M381.459 263.47L383.139 262.51L382.559 261.5L381.459 262.12L380.369 260.24L379.789 260.57L381.459 263.47Z" fill="white"/>
<path d="M377.369 263.34L385.529 268.05V260.66L377.389 256V263.39L377.369 263.34ZM380.369 260.24L381.459 262.12L382.559 261.5L383.139 262.5L381.459 263.5L379.789 260.6L380.369 260.24Z" fill="#4E4C4F"/>
<path d="M424.459 290.53L432.619 295.24V287.85L424.459 283.14V290.53ZM426.879 287.76L427.459 287.42L428.549 289.31L429.649 288.68L430.229 289.68L428.549 290.68L426.879 287.78V287.76Z" fill="#4E4C4F"/>
<path d="M424.42 306L432.58 310.71V303.32L424.42 298.61V306ZM427.42 302.9L428.51 304.79L429.6 304.16L430.19 305.16L428.51 306.16L426.83 303.26L427.42 302.9Z" fill="#4E4C4F"/>
<path d="M424.389 316.41L432.549 321.12V313.72L424.409 309L424.389 316.41ZM427.389 313.3L428.479 315.19L429.579 314.56L430.159 315.56L428.479 316.56L426.799 313.67L427.389 313.3Z" fill="#4E4C4F"/>
<path d="M404.84 297.71L404.82 305.11L424.39 316.41L424.41 309.01L404.84 297.71Z" fill="#4E4C4F"/>
<path d="M404.87 287.26L404.85 294.65L424.42 305.95L424.44 298.56L404.87 287.26Z" fill="#4E4C4F"/>
<path d="M404.909 271.84L404.889 279.23L424.459 290.53L424.489 283.14L404.909 271.84Z" fill="#4E4C4F"/>
<path d="M404.94 261.38L404.92 268.77L424.49 280.07L424.51 272.68L404.94 261.38Z" fill="#4E4C4F"/>
<path d="M430.26 279.24L429.68 278.23L428.58 278.86L427.49 276.96L426.9 277.3L428.58 280.2L430.26 279.24Z" fill="white"/>
<path d="M424.51 272.68V280.07L432.67 284.78V277.39L424.51 272.68ZM427.51 276.96L428.6 278.86L429.7 278.23L430.28 279.23L428.6 280.23L426.92 277.33L427.51 276.96Z" fill="#4E4C4F"/>
<path d="M395.709 273.93L401.799 277.44L401.819 270.05L395.729 266.54L395.709 273.93Z" fill="white"/>
<path d="M401.85 259.59L395.76 256.08L395.74 263.47L401.82 266.99L401.85 259.59Z" fill="white"/>
<path d="M428.549 290.66L430.229 289.7L429.649 288.68L428.549 289.31L427.459 287.42L426.879 287.76L428.549 290.66Z" fill="white"/>
<path d="M357.76 267.46L377.33 278.76L377.35 271.37L357.78 260.07L357.76 267.46Z" fill="#4E4C4F"/>
<path d="M377.33 278.76L385.49 283.47V276.08L377.33 271.37V278.76ZM380.33 275.66L381.42 277.55L382.51 276.92L383.1 277.92L381.42 278.92L379.74 276.02L380.33 275.66Z" fill="#4E4C4F"/>
<path d="M381.42 278.89L383.1 277.93L382.51 276.92L381.42 277.55L380.33 275.66L379.74 275.99L381.42 278.89Z" fill="white"/>
<path d="M381.389 288.01L380.299 286.11L379.709 286.45L381.389 289.35L383.069 288.39L382.489 287.37L381.389 288.01Z" fill="white"/>
<path d="M377.299 289.22L385.459 293.93V286.54L377.299 281.83V289.22ZM380.299 286.11L381.389 288.01L382.489 287.37L383.069 288.37L381.389 289.37L379.709 286.47L380.299 286.11Z" fill="#4E4C4F"/>
<path d="M365.219 296.97L365.239 289.58L359.159 286.07L359.139 293.46L365.219 296.97Z" fill="white"/>
<path d="M357.73 277.92L377.3 289.22L377.32 281.83L357.75 270.53L357.73 277.92Z" fill="#4E4C4F"/>
<path d="M377.229 312.8L348.479 296.2L348.459 303.59L377.209 320.19L377.229 312.8Z" fill="#4E4C4F"/>
<path d="M380.689 319.26L381.299 320.32L382.979 319.36L382.399 318.35L381.299 318.98L380.209 317.09L379.619 317.42L380.689 319.26Z" fill="white"/>
<path d="M377.23 312.8V320.19L385.39 324.9V317.51L377.23 312.8ZM380.23 317.09L381.3 319L382.4 318.37L382.98 319.37L381.3 320.37L380.69 319.31L379.62 317.47L380.23 317.09Z" fill="#4E4C4F"/>
<path d="M424.319 339.99L395.569 323.39L395.549 330.78L424.299 347.38L424.319 339.99Z" fill="#4E4C4F"/>
<path opacity="0.3" d="M348.709 215.33L348.689 222.73L424.529 266.51L424.549 259.12L348.709 215.33Z" fill="black"/>
<path opacity="0.3" d="M348.739 204.32L348.719 211.71L424.559 255.5L424.579 248.11L348.739 204.32Z" fill="black"/>
<path opacity="0.3" d="M357.799 252.04L377.369 263.34L377.389 255.95L357.819 244.65L357.799 252.04Z" fill="black"/>
<path opacity="0.3" d="M377.42 245.49L357.85 234.19L357.83 241.59L377.4 252.88L377.42 245.49Z" fill="black"/>
<path opacity="0.3" d="M404.84 297.71L404.82 305.11L424.39 316.41L424.41 309.01L404.84 297.71Z" fill="black"/>
<path opacity="0.3" d="M404.87 287.26L404.85 294.65L424.42 305.95L424.44 298.56L404.87 287.26Z" fill="black"/>
<path opacity="0.3" d="M404.909 271.84L404.889 279.23L424.459 290.53L424.489 283.14L404.909 271.84Z" fill="black"/>
<path opacity="0.3" d="M404.94 261.38L404.92 268.77L424.49 280.07L424.51 272.68L404.94 261.38Z" fill="black"/>
<path opacity="0.3" d="M357.76 267.46L377.33 278.76L377.35 271.37L357.78 260.07L357.76 267.46Z" fill="black"/>
<path opacity="0.3" d="M357.73 277.92L377.3 289.22L377.32 281.83L357.75 270.53L357.73 277.92Z" fill="black"/>
<path opacity="0.3" d="M377.229 312.8L348.479 296.2L348.459 303.59L377.209 320.19L377.229 312.8Z" fill="black"/>
<path opacity="0.3" d="M424.319 339.99L395.569 323.39L395.549 330.78L424.299 347.38L424.319 339.99Z" fill="black"/>
<path d="M424.32 340V347.39L432.48 352.1V344.71L424.32 340ZM427.32 344.28L427.72 344.97L428.41 346.18L429.51 345.54L430.09 346.54L428.41 347.54L426.73 344.64L427.32 344.28Z" fill="#4E4C4F"/>
<path opacity="0.4" d="M424.529 266.51L432.689 271.22V263.83L424.529 259.12V266.51ZM427.529 263.42L428.619 265.3L429.719 264.68L430.299 265.68L428.619 266.68L426.939 263.78L427.529 263.42Z" fill="black"/>
<path opacity="0.4" d="M424.559 255.5L432.719 260.21V252.82L424.559 248.11V255.5ZM427.559 252.39L428.649 254.28L429.749 253.66L430.329 254.66L428.649 255.66L426.999 252.73L427.559 252.39Z" fill="black"/>
<path opacity="0.4" d="M385.56 257.59V250.2L377.4 245.49V252.88L385.56 257.59ZM380.4 249.78L381.49 251.67L382.59 251.04L383.17 252.04L381.49 253.04L379.81 250.14L380.4 249.78Z" fill="black"/>
<path opacity="0.4" d="M377.369 263.34L385.529 268.05V260.66L377.389 256V263.39L377.369 263.34ZM380.369 260.24L381.459 262.12L382.559 261.5L383.139 262.5L381.459 263.5L379.789 260.6L380.369 260.24Z" fill="black"/>
<path opacity="0.4" d="M424.459 290.53L432.619 295.24V287.85L424.459 283.14V290.53ZM426.879 287.76L427.459 287.42L428.549 289.31L429.649 288.68L430.229 289.68L428.549 290.68L426.879 287.78V287.76Z" fill="black"/>
<path opacity="0.4" d="M424.42 306L432.58 310.71V303.32L424.42 298.61V306ZM427.42 302.9L428.51 304.79L429.6 304.16L430.19 305.16L428.51 306.16L426.83 303.26L427.42 302.9Z" fill="black"/>
<path opacity="0.4" d="M424.389 316.41L432.549 321.12V313.72L424.409 309L424.389 316.41ZM427.389 313.3L428.479 315.19L429.579 314.56L430.159 315.56L428.479 316.56L426.799 313.67L427.389 313.3Z" fill="black"/>
<path opacity="0.4" d="M424.51 272.68V280.07L432.67 284.78V277.39L424.51 272.68ZM427.51 276.96L428.6 278.86L429.7 278.23L430.28 279.23L428.6 280.23L426.92 277.33L427.51 276.96Z" fill="black"/>
<path opacity="0.4" d="M377.33 278.76L385.49 283.47V276.08L377.33 271.37V278.76ZM380.33 275.66L381.42 277.55L382.51 276.92L383.1 277.92L381.42 278.92L379.74 276.02L380.33 275.66Z" fill="black"/>
<path opacity="0.4" d="M377.299 289.22L385.459 293.93V286.54L377.299 281.83V289.22ZM380.299 286.11L381.389 288.01L382.489 287.37L383.069 288.37L381.389 289.37L379.709 286.47L380.299 286.11Z" fill="black"/>
<path opacity="0.4" d="M377.23 312.8V320.19L385.39 324.9V317.51L377.23 312.8ZM380.23 317.09L381.3 319L382.4 318.37L382.98 319.37L381.3 320.37L380.69 319.31L379.62 317.47L380.23 317.09Z" fill="black"/>
<path opacity="0.4" d="M424.32 340V347.39L432.48 352.1V344.71L424.32 340ZM427.32 344.28L427.72 344.97L428.41 346.18L429.51 345.54L430.09 346.54L428.41 347.54L426.73 344.64L427.32 344.28Z" fill="black"/>
<path d="M430.069 346.55L429.489 345.54L428.389 346.17L427.699 344.96L427.299 344.27L426.709 344.61L428.389 347.51L430.069 346.55Z" fill="white"/>
<path d="M395.639 299.81L401.719 303.32L401.739 295.93L395.659 292.41L395.639 299.81Z" fill="white"/>
<path d="M395.67 289.35L401.75 292.86L401.77 285.47L395.69 281.95L395.67 289.35Z" fill="white"/>
<path d="M430.19 305.12L429.61 304.11L428.51 304.74L427.42 302.85L426.83 303.18L428.5 306.08L430.19 305.12Z" fill="white"/>
<path d="M430.159 315.57L429.569 314.56L428.479 315.19L427.389 313.3L426.799 313.63L428.479 316.53L430.159 315.57Z" fill="white"/>
<path d="M354.61 283.44L348.53 279.93L348.5 287.32L354.59 290.83L354.61 283.44Z" fill="white"/>
<path d="M383.08 307.28L389.16 310.79L389.18 303.4L383.1 299.89L383.08 307.28Z" fill="white"/>
<path d="M393.699 313.41L399.789 316.93L399.809 309.54L393.719 306.02L393.699 313.41Z" fill="white"/>
<path d="M415.809 318.77L415.789 326.17L421.869 329.68L421.889 322.29L415.809 318.77Z" fill="white"/>
<path d="M426.41 332.3L432.51 335.82L432.53 328.43L426.44 324.91L426.41 332.3Z" fill="white"/>
<path d="M426.789 233.44V234.4L432.779 237.85V236.9L426.789 233.44Z" fill="white"/>
<path d="M426.779 239.31L432.759 242.76L432.769 241.81L426.779 238.36V239.31Z" fill="white"/>
<path d="M426.789 236.04L432.769 239.49L432.779 238.54L426.789 235.08V236.04Z" fill="white"/>
<path d="M426.779 237.67L432.769 241.12V240.18L426.779 236.72V237.67Z" fill="white"/>
<path opacity="0.3" d="M440.629 230.46L353.949 180.46C353.697 180.278 353.402 180.166 353.093 180.134C352.784 180.103 352.472 180.153 352.189 180.28L345.709 184.93C345.99 184.806 346.298 184.757 346.603 184.789C346.908 184.82 347.2 184.931 347.449 185.11L434.129 235.16C434.947 235.673 435.603 236.408 436.019 237.28L442.829 233.37C442.452 232.176 441.675 231.148 440.629 230.46Z" fill="white"/>
<path opacity="0.2" d="M435.999 237.24C436.356 237.906 436.555 238.645 436.579 239.4L436.239 357.82C436.268 358.118 436.22 358.418 436.099 358.691C435.979 358.964 435.789 359.202 435.549 359.38L442.109 354.68C442.327 354.495 442.498 354.261 442.608 353.996C442.717 353.732 442.762 353.445 442.739 353.16L443.079 234.74C443.069 234.258 442.978 233.782 442.809 233.33L435.999 237.24Z" fill="white"/>
<path d="M331.949 279.84L331.939 284.06L284.639 256.17L284.649 251.96L331.949 279.84Z" fill="#37474F"/>
<path d="M320.05 258.93L320.04 263.14L284.68 242.16L284.69 237.94L320.05 258.93Z" fill="#37474F"/>
<path d="M352.31 285.16L352.3 289.37L284.66 249.75L284.67 245.53L352.31 285.16Z" fill="#37474F"/>
<path d="M352.349 271.14L352.329 275.35L284.699 235.72L284.709 231.52L352.349 271.14Z" fill="#37474F"/>
<path fill-rule="evenodd" clip-rule="evenodd" d="M309.787 268.895C305.751 271.327 301.785 272.503 299.924 272.023C295.257 270.82 294.827 253.744 298.439 247.013C302.05 240.281 320.617 237.347 321.552 250.685C321.877 255.314 319.933 259.445 317.062 262.816L322.211 286.816H307.253L309.787 268.895Z" fill="#B28B67"/>
<path fill-rule="evenodd" clip-rule="evenodd" d="M328.073 246.245C328.556 245.766 328.819 245.083 329.047 244.434C329.284 243.76 329.514 243.079 329.671 242.377C329.985 240.975 329.988 239.363 328.988 238.275C328.186 237.402 326.983 237.01 325.872 236.925C325.132 236.869 324.372 236.972 323.663 237.205C322.959 237.437 322.353 237.898 321.67 238.184C321.644 236.673 321.386 235.093 320.619 233.803C319.882 232.562 318.706 231.865 317.367 231.681C315.993 231.492 314.635 231.814 313.405 232.479C313.097 232.646 312.792 232.82 312.5 233.018C312.255 233.183 312.001 233.382 311.714 233.45C311.394 233.525 311.236 233.34 311.028 233.107C310.784 232.833 310.51 232.592 310.219 232.378C308.934 231.434 307.248 231.046 305.759 231.612C305.074 231.873 304.407 232.316 303.941 232.926C303.526 233.47 303.231 234.333 302.658 234.712C302.415 234.873 302.244 234.66 302.022 234.502C301.69 234.266 301.373 234.004 301.037 233.774C300.565 233.45 300.053 233.208 299.506 233.082C298.704 232.896 297.596 232.94 297.367 233.99C297.281 234.384 297.347 234.806 297.375 235.203C297.413 235.749 297.452 236.295 297.5 236.839C297.536 237.253 297.581 237.653 297.659 238.059C297.701 238.275 297.831 238.679 297.738 238.896C297.622 239.167 297.087 239.013 296.858 239.022C296.406 239.041 295.952 239.12 295.534 239.313C295.21 239.463 294.87 239.683 294.733 240.055C294.649 240.283 294.671 240.517 294.711 240.751C294.759 241.033 294.704 241.182 294.669 241.466C294.062 241.167 291.958 240.503 291.693 241.591C291.605 241.953 291.806 242.363 291.959 242.668C292.228 243.204 292.58 243.694 292.94 244.161C293.69 245.135 294.586 245.975 295.551 246.694C294.421 247.196 294.126 248.678 295.104 249.561C295.536 249.95 296.117 250.037 296.662 250.012C296.861 250.003 297.148 249.926 297.305 249.961C297.39 249.98 297.48 250.051 297.597 250.059C298.366 250.112 299.234 249.927 299.985 249.756C301.325 249.452 302.593 248.818 303.628 247.851C303.893 247.603 304.113 247.461 304.47 247.464C304.784 247.468 305.091 247.553 305.404 247.561C306.232 247.583 306.979 247.178 307.748 246.908C307.795 247.947 308.091 249.091 308.516 250.026C308.862 250.788 309.586 250.899 310.297 250.965C312.571 251.179 314.853 250.941 317.129 250.944C314.925 251.442 312.648 251.647 310.464 252.234C309.476 252.498 310.23 253.164 310.652 253.625C311.347 254.385 311.864 255.326 312.223 256.318C313.301 254.912 315.207 253.986 316.895 254.418C318.76 254.895 320.074 257.418 318.881 259.231C318.189 260.284 316.938 260.691 315.897 261.143C316.709 261.987 316.906 263.234 317.394 264.284C317.635 264.802 317.973 265.387 318.512 265.567C318.712 265.634 318.946 265.64 319.103 265.803C319.298 266.004 319.344 266.229 319.593 266.402C320.586 267.092 322.137 267.039 323.017 266.138C323.813 265.323 323.606 264.034 322.941 263.208C323.999 262.767 325.927 262.2 325.507 260.551C327.799 260.399 333.366 256.68 330.289 253.963C331.978 253.009 333.529 250.676 332.444 248.62C331.609 247.036 329.666 246.329 328.073 246.245" fill="black"/>
<path fill-rule="evenodd" clip-rule="evenodd" d="M349.244 364.719H301.096L294.788 442H366.459L349.244 364.719Z" fill="#C5CFD6"/>
<path fill-rule="evenodd" clip-rule="evenodd" d="M349.244 364.719H334.436L325.573 442H366.459L349.244 364.719Z" fill="black" fill-opacity="0.1"/>
<path fill-rule="evenodd" clip-rule="evenodd" d="M274.643 380.03C280.053 391.505 288.508 419.359 288.508 419.359L281.33 422.639C281.33 422.639 263.119 393.359 251.989 373.343C252.508 377.849 253.036 382.922 253.526 388.254C254.685 400.887 253.526 428.181 252.902 436.065C252.51 441.02 245.777 439.982 245.149 436.052C245.042 435.387 244.609 433.05 243.961 429.563C240.787 412.467 232.48 367.722 232.465 356.766C232.459 352.358 241.072 348.397 246.205 351.48C249.731 347.717 256.405 345.549 260.238 351.764C262.676 355.715 268.467 366.932 274.643 380.03Z" fill="#B28B67"/>
<path fill-rule="evenodd" clip-rule="evenodd" d="M287.994 409.047L263.359 350.689C257.458 341.196 240.911 352.621 242.924 358.127C247.493 370.627 270.731 411.097 272.092 414.821L287.994 409.047Z" fill="#232B30"/>
<path fill-rule="evenodd" clip-rule="evenodd" d="M287.518 415.94C287.95 415.351 288.786 415.212 289.345 415.682C290.363 416.539 291.829 417.859 292.357 418.775C293.2 420.235 294.331 423.316 294.331 423.316C292.637 424.294 263.889 440.892 263.889 440.892C263.889 440.892 260.438 437.654 262.814 435.865C265.189 434.077 266.735 432.848 266.735 432.848L277.242 418.371C277.449 418.087 277.849 418.03 278.127 418.244L280.31 419.925C280.31 419.925 283.314 419.663 284.794 418.808C285.695 418.288 286.795 416.926 287.518 415.94Z" fill="black"/>
<path fill-rule="evenodd" clip-rule="evenodd" d="M252.75 432.205C253.418 431.911 254.212 432.209 254.461 432.895C254.915 434.146 255.523 436.022 255.523 437.08C255.523 438.766 254.962 442 254.962 442C253.006 442 219.81 442 219.81 442C219.81 442 218.44 437.47 221.392 437.109C224.344 436.748 226.297 436.457 226.297 436.457L242.635 429.173C242.956 429.03 243.331 429.18 243.465 429.505L244.515 432.052C244.515 432.052 247.248 433.327 248.957 433.327C249.997 433.327 251.631 432.698 252.75 432.205Z" fill="black"/>
<path fill-rule="evenodd" clip-rule="evenodd" d="M230.739 361.25C230.739 377.807 238.602 416.429 238.607 420.075L255.525 420.088C255.525 420.088 251.811 368.395 252.891 367.838C253.971 367.281 297.172 372.152 310.128 372.152C328.812 372.152 336.541 360.37 337.168 338.544H300.157C292.621 339.35 253.313 347.279 238.715 350.004C232.465 351.171 230.739 356.689 230.739 361.25Z" fill="#2D3C43"/>
<path fill-rule="evenodd" clip-rule="evenodd" d="M272.758 287.869L294.391 299.717L286.402 308.291L270.684 293.899C262.403 291.617 258.617 289.948 259.324 288.891C259.92 288 260.881 288.031 261.767 288.059C262.456 288.081 263.1 288.102 263.489 287.684C264.378 286.73 262.682 283.395 260.938 280.298C259.193 277.201 261.059 277.471 262.125 277.916C265.617 280.28 269.161 283.597 272.758 287.869ZM251.009 304.493L260.511 309.713L259.97 319.249C259.97 319.249 253.816 314.807 248.521 313.331C241.77 311.448 239.039 310.011 235.74 305.808C233.975 303.559 232.477 299.037 234.157 297.565C234.801 297 237.202 298.335 239.653 299.696C241.52 300.734 243.415 301.787 244.583 302.027C246.156 302.351 245.971 300.313 245.824 298.685C245.719 297.516 245.632 296.559 246.227 296.836C249.009 296.883 251.009 304.493 251.009 304.493Z" fill="#997659"/>
<path fill-rule="evenodd" clip-rule="evenodd" d="M304.925 297.078C297.348 296.998 287.244 295.397 276.463 288.554L272.229 297.996C279.665 305.376 290.122 311.439 299.264 311.183C306.469 310.98 310.152 302.265 304.925 297.078Z" fill="#3E89EC"/>
<path fill-rule="evenodd" clip-rule="evenodd" d="M325.36 361.764C332.563 360.825 339.182 359.962 343.104 360.735C347.505 346.442 343.851 337.443 340.477 329.136C338.444 324.129 336.513 319.374 336.509 313.862C336.497 297.811 323.608 273.105 321.712 273.105H304.42C303.647 283.037 300.347 293.792 297.026 304.615C296.25 307.143 295.474 309.674 294.728 312.2C282.16 315.052 254.255 305.122 254.255 305.122C254.255 305.122 247.21 319.697 247.742 325.903C263.984 334.388 277.906 338.17 289.375 338.42C289.011 345.226 289.839 351.701 292.622 357.618C296.35 365.547 311.878 363.522 325.36 361.764Z" fill="#276BC5"/>
<path fill-rule="evenodd" clip-rule="evenodd" d="M127.829 198.656C131.653 199.755 135.145 199.845 136.559 199.048C140.104 197.047 136.727 183.044 132.312 178.35C127.896 173.656 112.108 175.325 114.255 186.394C115.001 190.236 117.488 193.176 120.567 195.294L121.604 215.97L133.808 212.7L127.829 198.656Z" fill="#B28B67"/>
<path fill-rule="evenodd" clip-rule="evenodd" d="M124.788 184.858C125.423 183.006 126.116 181.538 127.248 180.49C132.635 179.137 133.006 178.008 132.139 174.772C131.107 174.385 127.77 174.162 124.267 174.786C122.387 174.755 120.343 175.403 118.572 176.77C116.298 178.126 114.167 179.943 114 183C112.208 189.629 116.785 195.167 120.737 196.294C121.357 194.979 121.869 193.728 122.309 192.544C121.593 192.143 121.035 191.465 120.806 190.611C120.355 188.929 121.355 187.199 123.04 186.748C123.164 186.714 123.289 186.689 123.413 186.671C124.052 188.754 126.271 195.787 127.753 198.039C129.5 200.694 135.33 199.899 137.297 199.372C138.995 198.917 138.507 197.326 138.157 196.186C138.107 196.022 138.059 195.867 138.021 195.727C137.943 195.433 137.56 195.536 137.127 195.653C136.566 195.805 135.92 195.979 135.748 195.335C135.56 194.634 136.387 193.835 137.127 193.121C137.588 192.675 138.016 192.262 138.143 191.925C138.541 190.864 138.434 189.605 137.473 189.862C136.947 190.003 136.307 190.499 135.537 191.095C134.374 191.996 132.915 193.126 131.107 193.61C128.114 194.412 124.818 184.944 124.788 184.858Z" fill="black"/>
<path fill-rule="evenodd" clip-rule="evenodd" d="M127.539 258.092L153.377 323.383L170.706 378.582H177.549L151.056 258.092L127.539 258.092Z" fill="#997659"/>
<path fill-rule="evenodd" clip-rule="evenodd" d="M122.337 258.092C122.062 281.036 118.05 311.926 117.409 313.356C116.768 314.786 73.1484 349.731 73.1484 349.731L77.8616 354.767C77.8616 354.767 129.328 324.806 131.71 320.81C134.092 316.814 141.845 280.042 148.071 258.092H122.337Z" fill="#B28B67"/>
<path fill-rule="evenodd" clip-rule="evenodd" d="M73.8821 348.706C73.7248 348.16 73.149 347.834 72.6135 348.028C71.557 348.41 69.9486 349.051 69.2463 349.64C68.1555 350.553 66.3677 352.669 66.3677 352.669C67.4295 353.933 85.4527 375.378 85.4527 375.378C85.4527 375.378 89.1276 373.808 87.7586 371.705C86.3895 369.602 85.5176 368.183 85.5176 368.183L81.3486 353.64C81.2732 353.377 80.9951 353.228 80.7339 353.311L78.4761 354.026C78.4761 354.026 76.1673 352.951 75.2397 351.848C74.659 351.157 74.1682 349.7 73.8821 348.706Z" fill="black"/>
<path fill-rule="evenodd" clip-rule="evenodd" d="M169.283 375.411C168.764 375.18 168.145 375.411 167.949 375.945C167.563 376.999 167.021 378.641 167.021 379.557C167.021 380.979 167.496 383.706 167.496 383.706C169.148 383.706 197.187 383.706 197.187 383.706C197.187 383.706 198.344 379.886 195.851 379.582C193.357 379.277 191.708 379.031 191.708 379.031L177.869 372.872C177.62 372.761 177.327 372.878 177.223 373.131L176.32 375.317C176.32 375.317 174.011 376.393 172.568 376.393C171.664 376.393 170.229 375.831 169.283 375.411Z" fill="black"/>
<path fill-rule="evenodd" clip-rule="evenodd" d="M144.913 372.896L177.448 369.371L153.336 258.092H124.195L144.913 372.896Z" fill="#37474F"/>
<path fill-rule="evenodd" clip-rule="evenodd" d="M79.877 341.607L101.218 366.828C101.218 366.828 134.935 330.061 140.532 318.847C146.129 307.633 150.595 258.092 150.595 258.092H117.789C117.789 258.092 115.349 301.676 114.5 303.704C113.65 305.733 79.877 341.607 79.877 341.607Z" fill="#455A64"/>
<path fill-rule="evenodd" clip-rule="evenodd" d="M186.537 255.375L167.863 246.167L165.798 255.834L183.369 259.726C188.958 264.341 191.947 266.149 192.336 265.149C192.664 264.307 192.177 263.657 191.729 263.06C191.379 262.594 191.053 262.159 191.154 261.688C191.383 260.613 194.513 260.17 197.501 259.876C200.489 259.583 199.399 258.425 198.574 257.903C195.248 256.636 191.235 255.793 186.537 255.375ZM103.581 292.03C104.558 288.685 104.443 257.781 104.443 257.781L115.284 255.913C115.284 255.913 110.953 290.022 110.502 292.142C109.916 294.896 112.34 298.32 113.983 300.641C114.237 301 114.473 301.333 114.675 301.633C113.146 302.667 112.19 301.911 111.183 301.114C110.045 300.214 108.841 299.262 106.669 300.778C105.83 301.363 105.053 302.018 104.295 302.657C101.675 304.866 99.2678 306.894 95.224 305.291C94.583 305.036 93.7128 303.807 95.059 302.489C98.413 299.205 103.104 293.665 103.581 292.03Z" fill="#B28B67"/>
<path fill-rule="evenodd" clip-rule="evenodd" d="M127.229 206.965L131.576 205.407C150.739 216.82 162.43 243.175 185.392 254.179L181.555 261.117C145.416 262.981 130.722 230.911 127.229 206.965Z" fill="#3E89EC"/>
<path fill-rule="evenodd" clip-rule="evenodd" d="M117.606 266.658C117.606 266.658 144.567 261.903 157.271 259.664C159.083 259.344 158.281 256.791 157.786 255.519C152.079 240.834 137.383 226.512 133.563 204.85L121.806 205.076C115.022 221.941 115.048 241.227 117.606 266.658Z" fill="#DDE3E9"/>
<path fill-rule="evenodd" clip-rule="evenodd" d="M115.061 278.314C114.032 282.902 112.941 286.941 111.799 290.096L103.292 291.596C97.1676 262.212 104.362 237.503 111.322 222.142C109.214 222.36 107.182 221.821 105.617 219.891C100.107 213.095 100.886 208.681 105.114 206.529C107.439 205.346 109.841 205.45 112.716 205.575C115.068 205.677 117.737 205.793 120.94 205.229C120.94 205.229 120.94 205.229 120.94 205.229L120.94 205.229C120.941 205.228 120.943 205.228 120.944 205.228C121.254 205.173 121.539 205.144 121.802 205.139L125.638 204.686C125.638 204.686 150.249 254.126 146.412 272.785L115.061 278.314Z" fill="#377AD2"/>
<path fill-rule="evenodd" clip-rule="evenodd" d="M115.062 278.313C116.412 272.292 117.656 265.323 118.772 258.155C120.944 265.449 123.694 272.675 126.78 276.247L115.062 278.313Z" fill="black" fill-opacity="0.1"/>
</svg>
