<svg width="258" height="122" viewBox="0 0 258 122" fill="none" xmlns="http://www.w3.org/2000/svg">
<path d="M197.131 0C178.028 0 159.259 11.9347 144.778 24.4833C148.403 28.4396 151.858 32.5479 155.133 36.7972C156.686 38.8465 158.952 41.6181 161.751 44.7597C172.909 34.9736 186.026 26.3069 197.131 26.3069C215.999 26.3069 231.346 41.6542 231.346 60.5222C231.346 79.3903 215.999 94.7375 197.131 94.7375C176.033 94.7375 147.622 63.5375 139.335 52.5958C135.272 47.2153 98.5201 0 60.5313 0C27.1556 0 0 27.1556 0 60.5313C0 93.907 27.1556 121.053 60.5313 121.053C79.0833 121.053 97.3014 109.787 111.601 97.6354C107.62 93.3499 103.84 88.8824 100.272 84.2472C98.4688 81.9084 96.59 79.6292 94.6382 77.4132C83.7688 86.7299 71.2201 94.7375 60.5313 94.7375C41.6632 94.7375 26.316 79.3903 26.316 60.5222C26.316 41.6542 41.6632 26.3069 60.5313 26.3069C81.6382 26.3069 110.04 57.507 118.327 68.4486C122.39 73.8292 159.142 121.044 197.131 121.044C213.178 121.03 228.563 114.649 239.91 103.302C251.257 91.9551 257.638 76.5693 257.653 60.5222C257.638 44.4751 251.257 29.0894 239.91 17.7424C228.563 6.39538 213.178 0.0143427 197.131 0Z" fill="#3E89EC"/>
</svg>
