<svg width="375" height="420" viewBox="0 0 375 420" fill="none" xmlns="http://www.w3.org/2000/svg">
<path d="M121.712 97.7074C122.57 97.2364 123.46 96.829 124.377 96.4884L139.16 90.9977C140.052 90.6663 140.967 90.3991 141.897 90.1979L159 86.5L180.5 84H200.788C201.927 84 203.064 84.0973 204.187 84.2908L217 86.5L229 89.5C239.167 92.2234 245.181 93.8342 254.765 96.4014C256.249 96.7988 257.684 97.3662 259.037 98.0914L271 104.5L284.5 113.5L297 122.5L309.5 132.5L325.5 146L345.5 164.5L365.312 188.411C370.8 195.035 371.438 204.425 366.897 211.73L363.996 216.397C363.334 217.463 362.572 218.465 361.721 219.388L345.5 237L310.637 268.958C309.88 269.652 309.071 270.286 308.217 270.856L285.5 286L262.523 299.13C261.51 299.709 260.448 300.198 259.349 300.592L235.851 309.016C234.951 309.338 234.03 309.596 233.094 309.786L209.763 314.539C208.259 314.845 206.725 314.978 205.191 314.933L173 314L138.732 308.836C137.249 308.613 135.795 308.223 134.399 307.675L122.5 303L108 296L75.9109 277.321C74.9719 276.775 74.0789 276.152 73.241 275.461L43 250.5L19.4873 227.458C18.4984 226.488 17.6129 225.419 16.8449 224.267L7.76002 210.64C3.1001 203.65 3.305 194.493 8.27292 187.719L11 184L24.5 169.5L54.5 141L87.5 116.5L121.712 97.7074Z" fill="#E2D2F6"/>
<path d="M80.8672 36L112.176 76.2619" stroke="black" stroke-width="8" stroke-linecap="round"/>
<path d="M134.441 15.3006L152.599 62.9613" stroke="black" stroke-width="8" stroke-linecap="round"/>
<path d="M199.582 4L199.67 55.0024" stroke="black" stroke-width="8" stroke-linecap="round"/>
<path d="M260.879 18.1365L236.373 62.8659" stroke="black" stroke-width="8" stroke-linecap="round"/>
<path d="M312.121 43.2888L276.999 80.2714" stroke="black" stroke-width="8" stroke-linecap="round"/>
<path d="M186.99 419.5C217.499 419.5 215.514 421 215.514 399.74C215.514 390.449 202.743 382.918 186.99 382.918C171.236 382.918 159 395.209 159 404.5C159 420 156.48 419.5 186.99 419.5Z" fill="#FF5F6E"/>
<path d="M187.007 133.438C137.271 133.438 96.9258 170.409 96.9258 215.992C96.9258 227.883 100.512 240.6 105.773 251.807C113.158 267.568 121.204 279.223 123.563 283.517C130.122 295.456 129.178 308.031 130.995 315.912C134.416 330.634 144.656 335.966 186.983 335.966C229.31 335.966 238.418 330.894 242.216 317.327C244.811 308.102 242.287 298.027 248.822 286.113C251.182 281.819 260.784 267.592 268.193 251.807C273.454 240.6 277.04 227.883 277.04 215.992C277.088 170.409 236.742 133.438 187.007 133.438Z" fill="#FFC372"/>
<path d="M187.007 337.736C215.596 337.736 238.772 333.025 238.772 327.213C238.772 321.401 215.596 316.69 187.007 316.69C158.418 316.69 135.242 321.401 135.242 327.213C135.242 333.025 158.418 337.736 187.007 337.736Z" fill="#B26500"/>
<path d="M187.007 337.736C215.596 337.736 238.772 333.025 238.772 327.213C238.772 321.401 215.596 316.69 187.007 316.69C158.418 316.69 135.242 321.401 135.242 327.213C135.242 333.025 158.418 337.736 187.007 337.736Z" fill="#B26500"/>
<path d="M187.004 332.073C207.839 332.073 224.73 329.897 224.73 327.213C224.73 324.529 207.839 322.353 187.004 322.353C166.168 322.353 149.277 324.529 149.277 327.213C149.277 329.897 166.168 332.073 187.004 332.073Z" fill="#FFC372"/>
<path d="M237.564 331.117C237.568 331.219 237.572 331.324 237.576 331.433C237.616 332.64 237.64 334.302 237.575 336.128C237.509 337.956 237.356 339.929 237.045 341.762C236.732 343.61 236.273 345.239 235.635 346.426L235.633 346.431C234.295 348.95 232.477 350.997 231.048 352.358C229.765 353.579 229.232 355.487 229.885 357.216L229.889 357.226C230.384 358.504 230.318 360.254 229.375 361.362L228.52 362.025L228.178 362.29L228.088 362.713L226.602 369.72L226.516 370.126L226.703 370.497L227.881 372.828C227.881 372.829 227.881 372.83 227.882 372.83C228.486 374.042 228.277 375.487 227.348 376.468L224.776 379.181L224.546 379.423L224.478 379.75L223.015 386.734L222.944 387.075L223.069 387.399L223.419 388.31C223.845 389.477 223.553 390.778 222.659 391.655L222.651 391.663L222.038 392.276L221.79 392.524L221.718 392.867L221.657 393.154C221.621 393.218 221.565 393.312 221.488 393.432C221.306 393.712 221.005 394.132 220.547 394.648C219.633 395.678 218.087 397.096 215.61 398.531C210.658 401.399 201.932 404.364 187.01 404.364C172.087 404.364 163.362 401.399 158.41 398.531C155.933 397.096 154.387 395.678 153.472 394.648C153.014 394.132 152.713 393.712 152.532 393.432C152.454 393.313 152.399 393.219 152.362 393.154L151.287 388.031L151.217 387.696L150.977 387.45L150.081 386.53L150.081 386.53C148.552 384.962 148.048 382.676 148.788 380.63C148.788 380.63 148.788 380.63 148.788 380.63L149.259 379.334L149.375 379.016L149.305 378.686L147.936 372.221L147.871 371.913L147.661 371.678L146.434 370.31C145.091 368.812 144.656 366.701 145.264 364.778C145.264 364.777 145.264 364.777 145.265 364.776L145.83 363.01L145.925 362.713L145.86 362.408L144.445 355.683L144.364 355.301L144.074 355.045C144.075 355.045 144.075 355.045 144.074 355.045L144.074 355.044L144.073 355.044L144.062 355.034C144.049 355.022 144.027 355.001 143.995 354.97C143.931 354.908 143.83 354.806 143.695 354.662C143.426 354.372 143.02 353.908 142.508 353.239C141.483 351.901 140.028 349.738 138.372 346.495L138.372 346.495C137.099 344.003 136.607 339.838 136.468 336.114C136.4 334.287 136.418 332.627 136.453 331.422C136.456 331.318 136.459 331.217 136.463 331.12C136.817 331.25 137.233 331.395 137.712 331.553C139.628 332.183 142.562 333.015 146.682 333.843C154.924 335.5 167.914 337.146 187.01 337.146C206.105 337.146 219.096 335.5 227.337 333.843C231.458 333.015 234.391 332.183 236.307 331.553C236.79 331.394 237.208 331.248 237.564 331.117Z" fill="#3A97D4" stroke="#3A97D4" stroke-width="2.35938"/>
<path d="M142.5 365L236.5 355.5" stroke="black" stroke-width="4" stroke-linecap="round"/>
<path d="M144 381.5L238 372" stroke="black" stroke-width="4" stroke-linecap="round"/>
<path d="M135.512 329.407C135.512 329.407 150.753 335.966 186.852 335.966C222.95 335.966 238.475 329.407 238.475 329.407" fill="#3A97D4"/>
<path d="M135.512 329.407C135.512 329.407 150.753 335.966 186.852 335.966C222.95 335.966 238.475 329.407 238.475 329.407" stroke="#3A97D4" stroke-width="9.43042" stroke-miterlimit="10" stroke-linecap="round"/>
<path d="M145.602 340.897C143.526 339.954 144.352 336.839 146.617 337.004C154.214 337.594 167.143 338.326 184.249 338.326C202.275 338.326 218.13 336.981 227.378 335.99C229.667 335.754 230.54 338.892 228.44 339.859C221.315 343.21 208.267 347.032 185.9 347.032C164.076 347.032 152.043 343.799 145.602 340.897Z" fill="#F0B96F"/>
<circle cx="189.5" cy="236.5" r="51.5" fill="white"/>
<circle cx="188.855" cy="237.144" r="28.9688" fill="#3A97D4"/>
<path d="M231.766 167L235.377 168.093C239.584 169.367 243.497 171.461 246.89 174.255V174.255C249.12 176.092 251.102 178.212 252.785 180.561L254.059 182.338L256.009 185.605C257.168 187.547 258.185 189.571 259.053 191.66L259.335 192.34C260.132 194.261 260.77 196.243 261.243 198.268V198.268C261.902 201.095 262.235 203.988 262.235 206.891L262.235 210.045" stroke="black" stroke-width="4" stroke-linecap="round"/>
<path d="M179 222.85C179 224.59 178.455 227.5 176 227.5C173.545 227.5 171 224.59 171 222.85C171 221.11 172.101 219 174.556 219C177.01 219 179 221.11 179 222.85Z" fill="white"/>
<path d="M128.5 297L128.438 296.627C127.488 290.927 125.473 285.456 122.5 280.5V280.5L111 260L105.503 247.54C104.17 244.519 103.089 241.392 102.27 238.192L99.8718 228.817C98.6289 223.958 98 218.963 98 213.947V212.861C98 201.52 101.214 190.41 107.271 180.821L110 176.5L117.912 165.423C120.957 161.16 124.549 157.313 128.593 153.982L133.055 150.307C137.331 146.786 142.074 143.874 147.149 141.654L150.158 140.337C153.711 138.783 157.406 137.576 161.192 136.735L178 133" stroke="black" stroke-width="4" stroke-linecap="round"/>
<path d="M31.9844 218.797L55.5126 243.203" stroke="black" stroke-width="4" stroke-linecap="round"/>
</svg>
