<svg width="720" height="590" viewBox="0 0 720 590" fill="none" xmlns="http://www.w3.org/2000/svg">
<path d="M331.5 568.64C488.073 568.64 615 563.572 615 557.32C615 551.068 488.073 546 331.5 546C174.927 546 48 551.068 48 557.32C48 563.572 174.927 568.64 331.5 568.64Z" fill="#F5F5F5"/>
<path d="M601 348.4H101V348.65H601V348.4Z" fill="#EBEBEB"/>
<path d="M186.581 357.92H153.461V358.17H186.581V357.92Z" fill="#EBEBEB"/>
<path d="M280.829 355.21H254.439V355.46H280.829V355.21Z" fill="#EBEBEB"/>
<path d="M236.891 363.82H190.971V364.07H236.891V363.82Z" fill="#EBEBEB"/>
<path d="M550.901 365.53H529.301V365.78H550.901V365.53Z" fill="#EBEBEB"/>
<path d="M524.441 365.53H492.471V365.78H524.441V365.53Z" fill="#EBEBEB"/>
<path d="M433.331 361.31H378.211V361.56H433.331V361.31Z" fill="#EBEBEB"/>
<path d="M338.001 303.8H144.911C143.398 303.797 141.948 303.195 140.88 302.124C139.811 301.053 139.211 299.603 139.211 298.09V26.66C139.224 25.156 139.83 23.718 140.897 22.6582C141.965 21.5985 143.407 21.0026 144.911 21H338.001C339.515 21 340.968 21.6016 342.039 22.6724C343.109 23.7433 343.711 25.1956 343.711 26.71V298.09C343.711 299.604 343.109 301.057 342.039 302.128C340.968 303.198 339.515 303.8 338.001 303.8ZM144.911 21.2C143.465 21.2026 142.078 21.7791 141.057 22.8027C140.035 23.8264 139.461 25.2136 139.461 26.66V298.09C139.461 299.536 140.035 300.924 141.057 301.947C142.078 302.971 143.465 303.547 144.911 303.55H338.001C339.448 303.547 340.835 302.971 341.859 301.948C342.882 300.924 343.458 299.537 343.461 298.09V26.66C343.458 25.2127 342.882 23.8255 341.859 22.8021C340.835 21.7787 339.448 21.2026 338.001 21.2H144.911Z" fill="#EBEBEB"/>
<path d="M554.31 303.8H361.21C359.696 303.797 358.246 303.195 357.175 302.125C356.105 301.054 355.503 299.604 355.5 298.09V26.66C355.516 25.1551 356.124 23.7171 357.193 22.6576C358.262 21.5981 359.705 21.0025 361.21 21H554.31C555.812 21.0052 557.252 21.6022 558.317 22.6617C559.382 23.7212 559.987 25.1578 560 26.66V298.09C560 299.601 559.401 301.05 558.335 302.121C557.268 303.191 555.821 303.795 554.31 303.8ZM361.21 21.2C359.763 21.2026 358.375 21.7787 357.352 22.8021C356.329 23.8255 355.753 25.2127 355.75 26.66V298.09C355.753 299.537 356.329 300.924 357.352 301.948C358.375 302.971 359.763 303.547 361.21 303.55H554.31C555.757 303.547 557.145 302.971 558.168 301.948C559.191 300.924 559.767 299.537 559.77 298.09V26.66C559.767 25.2127 559.191 23.8255 558.168 22.8021C557.145 21.7787 555.757 21.2026 554.31 21.2H361.21Z" fill="#EBEBEB"/>
<path d="M187.241 188.99L513.881 188.99V47.3002L187.241 47.3002V188.99Z" fill="#E6E6E6"/>
<path d="M182.74 188.99L511.92 188.99V47.3002L182.74 47.3002V188.99Z" fill="#F5F5F5"/>
<path d="M503.84 180.82V55.4702L190.81 55.4702V180.82H503.84Z" fill="#FAFAFA"/>
<path d="M323.911 180.82L288.211 55.48H263.301L299.001 180.82H323.911Z" fill="white"/>
<path d="M291.93 180.82L256.24 55.48H239.08L274.78 180.82H291.93Z" fill="white"/>
<path d="M473.78 180.82L438.09 55.48H413.17L448.87 180.82H473.78Z" fill="white"/>
<path d="M441.811 180.82L406.111 55.48H388.961L424.651 180.82H441.811Z" fill="white"/>
<path d="M260.01 180.82V55.4702H250.37V180.82H260.01Z" fill="#E6E6E6"/>
<path d="M450.74 180.83V55.48H441.1V180.83H450.74Z" fill="#E6E6E6"/>
<path d="M258.27 186.01V49.3999H246.09V186.01H258.27Z" fill="#F5F5F5"/>
<path d="M449.01 186.01V49.3999H436.83V186.01H449.01Z" fill="#F5F5F5"/>
<path d="M191.67 180.83V55.48H190.81V180.83H191.67Z" fill="#E6E6E6"/>
<path d="M179.34 36.7998H522.66C522.925 36.7998 523.179 36.9052 523.367 37.0927C523.554 37.2802 523.66 37.5346 523.66 37.7998C523.66 38.065 523.554 38.3194 523.367 38.5069C523.179 38.6944 522.925 38.7998 522.66 38.7998H179.34C179.075 38.7998 178.82 38.6944 178.633 38.5069C178.445 38.3194 178.34 38.065 178.34 37.7998C178.34 37.5346 178.445 37.2802 178.633 37.0927C178.82 36.9052 179.075 36.7998 179.34 36.7998Z" fill="#E6E6E6"/>
<path d="M513.871 43.6699C514.243 43.6699 514.6 43.5227 514.864 43.2604C515.128 42.9982 515.278 42.6421 515.281 42.2699V39.2699C515.281 38.8959 515.132 38.5373 514.868 38.2728C514.603 38.0084 514.245 37.8599 513.871 37.8599C513.498 37.8625 513.142 38.0122 512.88 38.2764C512.618 38.5405 512.471 38.8976 512.471 39.2699V42.2699C512.471 42.6412 512.618 42.9973 512.881 43.2598C513.143 43.5224 513.499 43.6699 513.871 43.6699Z" fill="#E6E6E6"/>
<path d="M195.05 43.6699C195.423 43.6699 195.78 43.5227 196.044 43.2604C196.308 42.9982 196.458 42.6421 196.46 42.2699V39.2699C196.46 38.8959 196.312 38.5373 196.047 38.2728C195.783 38.0084 195.424 37.8599 195.05 37.8599C194.678 37.8625 194.322 38.0122 194.06 38.2764C193.798 38.5405 193.65 38.8976 193.65 39.2699V42.2699C193.65 42.6412 193.798 42.9973 194.06 43.2598C194.323 43.5224 194.679 43.6699 195.05 43.6699Z" fill="#E6E6E6"/>
<path opacity="0.6" d="M179.671 73.2798L508.711 73.2798V37.8398L179.671 37.8398V73.2798Z" fill="#E0E0E0"/>
<path d="M295.76 297.7C299.31 296.5 301.88 293.08 299.63 289.57C295.9 283.77 305.23 282.57 302.63 272.84C298.94 259.14 287.47 271.01 284.63 257.84C282.56 248.27 266.49 242 265.86 254.6C265.17 268.39 258.26 259.38 256.72 274.72C255.66 285.32 270.72 286.86 266.25 290.18C262.96 292.6 261.01 296.82 265.6 299.71C271.86 303.64 265.95 306.71 270.21 309.45C274.47 312.19 275.15 307.82 281.75 309.95C287.65 311.85 292.65 306.02 291.48 302.37C290.35 299 292.2 298.91 295.76 297.7Z" fill="#E6E6E6"/>
<path d="M261.65 304C261.65 304 262.13 348.4 280.74 348.4C299.35 348.4 299.83 304 299.83 304H261.65Z" fill="#F0F0F0"/>
<path d="M243.94 297.7C247.48 296.5 250.06 293.08 247.8 289.57C244.07 283.77 253.41 282.57 250.8 272.84C247.1 259.14 235.63 271.01 232.8 257.84C230.73 248.27 214.66 242 214.03 254.6C213.34 268.39 206.43 259.38 204.89 274.72C203.83 285.32 218.89 286.86 214.42 290.18C211.13 292.6 209.18 296.82 213.78 299.71C220.03 303.64 214.13 306.71 218.38 309.45C222.63 312.19 223.32 307.82 229.92 309.95C235.83 311.85 240.83 306.02 239.65 302.37C238.52 299 240.37 298.91 243.94 297.7Z" fill="#E6E6E6"/>
<path d="M209.82 304C209.82 304 210.31 348.4 228.91 348.4C247.51 348.4 248 304 248 304H209.82Z" fill="#F0F0F0"/>
<path d="M406.649 254.88C409.329 225.21 411.199 177.05 409.749 160.94C409.726 160.668 409.648 160.403 409.519 160.163C409.39 159.922 409.213 159.71 408.999 159.54C408.712 159.314 408.364 159.177 407.999 159.148C407.634 159.118 407.268 159.197 406.948 159.374C406.628 159.551 406.367 159.819 406.198 160.144C406.029 160.469 405.96 160.836 405.999 161.2C406.259 169.2 406.549 189.13 404.999 223.55C404.209 240.68 403.069 252.41 403.849 254.88H406.649Z" fill="#F0F0F0"/>
<path d="M414.91 193.44C421.33 185.44 434.43 179.68 447.78 179.71C453.02 179.71 431.83 189.06 423.02 199.37C416.18 207.37 408.46 220.85 405.84 228.32C407.53 212.59 408.5 201.48 414.91 193.44Z" fill="#F0F0F0"/>
<path d="M401.5 193.36C395.16 184.52 380.5 177.72 364.65 176.95C358.42 176.65 382.11 187.74 390.94 199.11C397.81 207.94 404.85 222.58 406.78 230.6C407.25 214 407.85 202.2 401.5 193.36Z" fill="#F0F0F0"/>
<path d="M414.91 206.35C421.33 198.35 434.43 192.59 447.78 192.62C453.02 192.62 431.83 201.97 423.02 212.28C416.18 220.28 408.46 233.76 405.84 241.28C407.53 225.5 408.5 214.39 414.91 206.35Z" fill="#F0F0F0"/>
<path d="M401.5 207C395.16 198.16 380.5 191.36 364.65 190.59C358.42 190.29 382.11 201.38 390.94 212.75C397.81 221.59 404.85 236.22 406.78 244.24C407.25 227.58 407.85 215.83 401.5 207Z" fill="#F0F0F0"/>
<path d="M413.759 163.07C417.959 157.07 426.949 152.43 436.339 151.8C440.029 151.55 425.489 159.16 419.689 166.8C415.179 172.8 410.269 182.62 408.689 188.01C409.299 176.9 409.549 169 413.759 163.07Z" fill="#F0F0F0"/>
<path d="M405.4 165.59C400.93 159.36 390.6 154.59 379.4 154.03C375.01 153.82 391.7 161.64 397.93 169.65C402.77 175.87 407.73 186.19 409.09 191.84C409.45 180.11 409.88 171.82 405.4 165.59Z" fill="#F0F0F0"/>
<path d="M415.201 170.82C420.631 164.01 431.721 159.17 443.031 159.19C447.471 159.19 429.531 167.11 422.031 175.84C416.231 182.62 409.701 194.03 407.471 200.36C409.001 187 409.771 177.62 415.201 170.82Z" fill="#F0F0F0"/>
<path d="M404.17 174.44C398.79 167 386.38 161.2 373 160.55C367.73 160.29 387.78 169.69 395.26 179.31C401 186.79 407 199.18 408.64 206C409 191.88 409.54 181.93 404.17 174.44Z" fill="#F0F0F0"/>
<path d="M415.56 180.26C421.42 172.92 433.39 167.69 445.56 167.72C450.35 167.72 431 176.26 422.95 185.72C416.7 193.04 409.65 205.34 407.25 212.17C408.82 197.76 409.7 187.6 415.56 180.26Z" fill="#F0F0F0"/>
<path d="M403.32 184.28C397.32 175.97 383.58 169.58 368.67 168.86C362.82 168.57 385.08 179 393.39 189.69C399.85 198 406.47 211.76 408.29 219.3C408.72 203.64 409.29 192.6 403.32 184.28Z" fill="#F0F0F0"/>
<path d="M388.609 249.87L389.609 258.2C389.663 259.1 390.058 259.946 390.714 260.565C391.37 261.184 392.237 261.529 393.139 261.53H417.999C418.901 261.529 419.769 261.184 420.425 260.565C421.081 259.946 421.476 259.1 421.529 258.2L422.529 249.87C422.556 249.39 422.485 248.909 422.32 248.458C422.155 248.006 421.899 247.593 421.569 247.244C421.238 246.894 420.84 246.616 420.398 246.427C419.956 246.237 419.48 246.139 418.999 246.14H392.139C391.658 246.139 391.182 246.237 390.74 246.427C390.299 246.616 389.9 246.894 389.57 247.244C389.239 247.593 388.983 248.006 388.818 248.458C388.653 248.909 388.582 249.39 388.609 249.87Z" fill="#E6E6E6"/>
<path d="M387.129 251.63H423.999C424.26 251.629 424.512 251.533 424.707 251.36C424.902 251.187 425.028 250.949 425.059 250.69L425.939 242.75C425.955 242.601 425.939 242.451 425.892 242.309C425.846 242.167 425.771 242.036 425.671 241.925C425.571 241.814 425.449 241.725 425.313 241.663C425.176 241.602 425.029 241.57 424.879 241.57H386.249C386.1 241.57 385.952 241.602 385.816 241.663C385.68 241.725 385.557 241.814 385.458 241.925C385.358 242.036 385.282 242.167 385.236 242.309C385.19 242.451 385.174 242.601 385.189 242.75L386.069 250.69C386.101 250.949 386.226 251.187 386.421 251.36C386.617 251.533 386.868 251.629 387.129 251.63Z" fill="#F5F5F5"/>
<path d="M331.941 348.4H347.961V261.53H331.941V348.4Z" fill="#E6E6E6"/>
<path d="M336.739 348.4H331.939V331.77H341.769L336.739 348.4Z" fill="#F0F0F0"/>
<path d="M531.509 348.4H547.529V261.53H531.509V348.4Z" fill="#E6E6E6"/>
<path d="M331.941 338.2H535.711V261.53H331.941V338.2Z" fill="#F0F0F0"/>
<path d="M530.899 348.4H535.699V331.77H525.869L530.899 348.4Z" fill="#F0F0F0"/>
<path d="M335.66 297.61H531.98V266.93H335.66V297.61Z" fill="#E6E6E6"/>
<path d="M364.431 276.46H500.001C504.681 276.46 509.161 272.67 512.391 265.99H352.051C355.271 272.67 359.751 276.46 364.431 276.46Z" fill="#F0F0F0"/>
<path d="M335.66 333.24H531.98V302.56H335.66V333.24Z" fill="#E6E6E6"/>
<path d="M364.431 312.09H500.001C504.681 312.09 509.161 308.31 512.391 301.63H352.051C355.271 308.31 359.751 312.09 364.431 312.09Z" fill="#F0F0F0"/>
<path d="M533.24 241.17C533.24 241.17 532.36 261.53 498.78 261.53C465.2 261.53 464.33 241.17 464.33 241.17H533.24Z" fill="#F5F5F5"/>
<path d="M533.24 230.6C533.24 230.6 532.36 251 498.78 251C465.2 251 464.33 230.64 464.33 230.64L533.24 230.6Z" fill="#F5F5F5"/>
<path fill-rule="evenodd" clip-rule="evenodd" d="M162.999 204.707C174.428 204.707 178.585 191.024 185.078 183.515C189.723 178.143 197.652 179.745 199.999 172.224C205.901 153.311 190.105 140 169.499 140C148.893 140 134.999 151.674 131.999 169.224C128.999 186.773 142.393 204.707 162.999 204.707Z" fill="black"/>
<path fill-rule="evenodd" clip-rule="evenodd" d="M175.935 202.244C182.411 206.147 188.774 208.033 191.76 207.263C199.25 205.333 199.938 177.935 194.143 167.134C188.349 156.333 158.558 151.625 157.057 173.025C156.536 180.453 159.654 187.081 164.262 192.49L156 231H180L175.935 202.244Z" fill="#B28B67"/>
<path fill-rule="evenodd" clip-rule="evenodd" d="M158.616 158C140.233 176 158.687 195.132 163.743 195.132C164.069 192.535 165.065 190.009 166.524 187.604C165.749 186.601 165.29 185.353 165.29 184C165.29 180.686 168.046 178 171.446 178C172.508 178 173.507 178.262 174.379 178.724C181.75 172.438 190.993 168.056 195.583 167.195C203.566 165.696 177 140 158.616 158Z" fill="black"/>
<path fill-rule="evenodd" clip-rule="evenodd" d="M148 314L185.631 437.024L203.86 541.648H218.153L198.891 314H148Z" fill="#997659"/>
<path fill-rule="evenodd" clip-rule="evenodd" d="M134.538 314C137.094 381.547 134.086 416.389 133.514 422.526C132.942 428.663 125.109 468.455 106.564 543.708L121.795 538.478C151.103 469.459 161.09 433.589 164.451 424.526C167.812 415.463 176.74 378.621 191.234 314H134.538Z" fill="#B28B67"/>
<path fill-rule="evenodd" clip-rule="evenodd" d="M109.45 537.284C108.378 536.813 107.104 537.29 106.705 538.391C105.977 540.398 105 543.409 105 545.106C105 547.811 105.901 553 105.901 553C109.039 553 162.303 553 162.303 553C162.303 553 164.502 545.732 159.765 545.152C155.028 544.573 151.895 544.106 151.895 544.106L125.68 532.419C125.165 532.189 124.563 532.43 124.348 532.951L122.663 537.039C122.663 537.039 118.278 539.085 115.537 539.085C113.868 539.085 111.246 538.074 109.45 537.284Z" fill="black"/>
<path fill-rule="evenodd" clip-rule="evenodd" d="M203.45 537.284C202.378 536.813 201.104 537.29 200.705 538.391C199.977 540.398 199 543.409 199 545.106C199 547.811 199.901 553 199.901 553C203.039 553 256.303 553 256.303 553C256.303 553 258.502 545.732 253.765 545.152C249.028 544.573 245.895 544.106 245.895 544.106L219.68 532.419C219.165 532.189 218.563 532.43 218.348 532.951L216.663 537.039C216.663 537.039 212.278 539.085 209.537 539.085C207.868 539.085 205.246 538.074 203.45 537.284Z" fill="black"/>
<path fill-rule="evenodd" clip-rule="evenodd" d="M143 314L159 376.68H207.87L200.584 314H143Z" fill="#69A1AC"/>
<path fill-rule="evenodd" clip-rule="evenodd" d="M133.999 314C126.102 337.671 130.999 376.68 130.999 376.68H180.87L194.583 314H133.999Z" fill="#89C5CC"/>
<path fill-rule="evenodd" clip-rule="evenodd" d="M231.546 232.06L199.409 253.517L213.064 265.775L235.618 241.171C248.23 236.469 253.912 233.343 252.662 231.794C251.609 230.488 250.112 230.669 248.733 230.836C247.659 230.966 246.657 231.087 245.992 230.49C244.472 229.126 246.66 223.693 248.956 218.625C251.252 213.557 248.377 214.235 246.773 215.077C241.648 219.244 236.573 224.905 231.546 232.06ZM267.798 254.961L253.684 264.411L255.845 279.198C255.845 279.198 264.84 271.424 272.903 268.391C283.183 264.523 287.249 261.905 291.819 254.898C294.264 251.148 295.979 243.895 293.152 241.832C292.068 241.041 288.503 243.453 284.866 245.914C282.094 247.789 279.28 249.693 277.49 250.229C275.08 250.951 275.086 247.75 275.091 245.192C275.094 243.356 275.097 241.851 274.206 242.365C269.87 242.824 267.798 254.961 267.798 254.961Z" fill="#997659"/>
<path fill-rule="evenodd" clip-rule="evenodd" d="M182.595 250.861C194.414 249.688 209.967 245.796 225.854 233.639L233.768 247.769C223.177 260.3 207.689 271.197 193.38 272.061C182.103 272.742 175.15 259.669 182.595 250.861Z" fill="#2B60A5"/>
<path fill-rule="evenodd" clip-rule="evenodd" d="M159.62 354.505C148.245 354.037 137.792 353.608 131.775 355.354C122.93 333.687 127.393 319.157 131.513 305.743C133.996 297.658 136.354 289.98 135.6 281.389C133.402 256.371 150.113 216.083 153.073 215.821L180.071 213.429C182.65 228.802 189.286 245.107 195.966 261.516C197.525 265.348 199.088 269.186 200.601 273.019C220.616 275.726 262.812 256.391 262.812 256.391C262.812 256.391 275.823 278.131 275.85 287.877C251.663 303.348 230.45 311.169 212.578 313.145C214.087 323.701 213.688 333.908 210.16 343.515C205.434 356.387 180.911 355.379 159.62 354.505Z" fill="#3E89EC"/>
<path fill-rule="evenodd" clip-rule="evenodd" d="M545.086 179.332C538.078 183.46 531.211 185.425 528.003 184.57C519.958 182.429 519.471 153.019 525.811 141.482C532.15 129.944 564.267 125.17 565.684 148.15C566.176 156.127 562.757 163.212 557.745 168.973L566.282 210.378L540.443 210.154L545.086 179.332Z" fill="#B28B67"/>
<path fill-rule="evenodd" clip-rule="evenodd" d="M544.045 150.498C541.839 147.162 539.715 144.613 536.936 143.119C525.575 143.2 524.263 141.158 524.322 134.316C526.168 133.024 532.661 130.876 539.917 130.319C543.624 129.296 548.004 129.533 552.209 131.329C557.406 132.848 561.79 136.059 563.687 142.018C570.632 154.206 565.172 166.785 557.923 171.035C556.023 168.751 554.367 166.54 552.891 164.424C554.102 163.265 554.861 161.64 554.877 159.834C554.908 156.278 552.04 153.37 548.473 153.339C548.21 153.337 547.952 153.35 547.697 153.378C547.498 157.823 546.707 172.86 544.927 178.07C542.827 184.213 530.875 185.622 526.711 185.586C523.115 185.555 523.267 182.161 523.376 179.729C523.392 179.379 523.407 179.048 523.409 178.751C523.414 178.129 524.225 178.138 525.142 178.148C526.331 178.16 527.699 178.175 527.711 176.814C527.723 175.331 525.677 174.175 523.846 173.141C522.703 172.496 521.644 171.898 521.222 171.298C519.888 169.403 519.456 166.859 521.492 166.877C522.605 166.886 524.126 167.539 525.957 168.324C528.72 169.51 532.188 170.998 536.017 171.031C542.344 171.086 544.024 150.749 544.045 150.498Z" fill="black"/>
<path fill-rule="evenodd" clip-rule="evenodd" d="M582.188 300.212L542.748 435.683L524.198 537.397H505.579L524.165 300.212H582.188Z" fill="#997659"/>
<path fill-rule="evenodd" clip-rule="evenodd" d="M599.912 300.212C597.16 370.589 598.245 408.974 598.861 415.368C599.477 421.762 602.974 464.585 626.801 539.543H607.436C575.881 467.633 564.865 424.81 561.246 415.368C557.627 405.925 546.938 367.54 531.333 300.212H599.912Z" fill="#B28B67"/>
<path fill-rule="evenodd" clip-rule="evenodd" d="M583.033 300.212C572.774 346.828 555.031 421.239 529.803 523.445H502.571C500.56 418.54 509.116 349.496 523.934 300.212H583.033Z" fill="#3E89EC"/>
<path fill-rule="evenodd" clip-rule="evenodd" d="M600.047 300.212C597.352 370.589 604.337 439.923 625.973 524.54H596.917C565.305 453.704 542.647 384.712 527.161 300.212H600.047Z" fill="#3E89EC"/>
<path fill-rule="evenodd" clip-rule="evenodd" d="M629.559 553.495L628.555 537.371C628.522 536.834 627.999 536.467 627.474 536.586C618.122 538.719 604.983 534.177 604.983 534.177C591.659 543.585 572.282 547.756 566.246 548.878C565.251 549.062 564.624 550.062 564.901 551.035L566.517 556.715H604.983H627.422L629.559 553.495Z" fill="black"/>
<path fill-rule="evenodd" clip-rule="evenodd" d="M528.354 553.495L527.35 537.371C527.317 536.834 526.794 536.467 526.269 536.586C516.917 538.719 503.778 534.177 503.778 534.177C490.454 543.585 471.077 547.756 465.041 548.878C464.046 549.062 463.419 550.062 463.696 551.035L465.311 556.715H503.778H526.216L528.354 553.495Z" fill="black"/>
<path fill-rule="evenodd" clip-rule="evenodd" d="M458.127 317.552L490.941 290.446L499.615 308.677L466.486 324.702C457.543 336.508 452.449 341.51 451.203 339.707C450.152 338.187 450.815 336.668 451.425 335.268C451.901 334.178 452.344 333.161 451.922 332.273C450.956 330.244 444.519 330.841 438.435 331.668C432.35 332.495 433.973 329.679 435.368 328.254C441.388 324.166 448.975 320.599 458.127 317.552ZM640.517 351.231C636.994 345.046 622.628 283.595 622.628 283.595L600.172 285C600.172 285 624.9 350.721 626.798 354.72C629.264 359.915 626.059 367.86 623.885 373.247C623.549 374.081 623.237 374.853 622.975 375.544C626.507 376.878 628.052 374.925 629.681 372.866C631.52 370.541 633.467 368.08 638.505 370.067C640.451 370.835 642.305 371.769 644.116 372.681C650.373 375.832 656.121 378.727 663.41 373.633C664.566 372.825 665.717 369.972 662.416 367.988C654.19 363.047 642.24 354.254 640.517 351.231Z" fill="#B28B67"/>
<path fill-rule="evenodd" clip-rule="evenodd" d="M553.288 193.389L543.901 192.345C511.158 224.061 500.339 281.937 459.842 314.635L470.752 326.609C543.55 313.259 557.646 242.612 553.288 193.389Z" fill="#455A64"/>
<path fill-rule="evenodd" clip-rule="evenodd" d="M600.63 307.44C600.63 307.44 544.731 310.717 518.393 312.261C514.636 312.482 515.027 307.031 515.41 304.27C519.832 272.403 542.315 237.014 539.686 192.175L563.189 187.077C584.653 217.381 593.709 255.709 600.63 307.44Z" fill="#DDE3E9"/>
<path fill-rule="evenodd" clip-rule="evenodd" d="M592.109 216.034C596.407 215.473 600.197 213.444 602.4 208.871C610.156 192.768 606.521 184.366 597.09 182.087C591.905 180.834 587.175 182.174 581.513 183.778C576.879 185.092 571.62 186.582 564.975 186.971C564.332 187.009 563.748 187.086 563.222 187.2L555.378 188.109C555.378 188.109 529.749 297.947 546.196 333.207L611.196 329.396C615.411 338.028 619.488 345.536 623.25 351.267L640.887 350.233C639.199 288.965 613.212 243.268 592.109 216.034Z" fill="#263238"/>
<path fill-rule="evenodd" clip-rule="evenodd" d="M611.196 329.397C605.666 318.072 599.899 304.812 594.293 291.099C593.415 306.614 591.356 322.267 586.902 330.821L611.196 329.397Z" fill="black" fill-opacity="0.1"/>
</svg>
