<svg width="556" height="556" viewBox="0 0 556 556" fill="none" xmlns="http://www.w3.org/2000/svg">
<path d="M251.134 347.5C251.134 353.654 248.962 358.902 244.618 363.246L192.222 415.643C187.878 419.986 182.539 422.158 176.204 422.158C169.87 422.158 164.53 420.077 160.187 415.914C155.843 411.751 153.671 406.412 153.671 399.896C153.671 393.562 155.843 388.223 160.187 383.879L212.583 331.482C216.927 327.139 222.266 324.967 228.601 324.967C234.935 324.967 240.275 327.139 244.618 331.482C248.962 335.826 251.134 341.165 251.134 347.5ZM195.48 319.266C195.48 325.6 193.308 330.939 188.964 335.283L150.142 373.834C145.798 378.178 140.549 380.35 134.396 380.35C128.061 380.35 122.722 378.268 118.378 374.105C114.034 369.943 111.862 364.604 111.862 358.088C111.862 351.753 114.034 346.414 118.378 342.07L156.929 303.248C158.92 301.257 161.363 299.719 164.259 298.633C167.155 297.547 170.051 296.913 172.946 296.732C179.281 296.732 184.62 298.904 188.964 303.248C193.308 307.592 195.48 312.931 195.48 319.266ZM289.142 393.381C289.142 399.354 286.879 404.602 282.355 409.127L234.03 457.451C229.687 461.795 224.347 463.967 218.013 463.967C211.678 463.967 206.339 461.885 201.995 457.723C197.651 453.56 195.48 448.221 195.48 441.705C195.48 435.37 197.651 430.031 201.995 425.688L250.591 377.363C255.116 372.839 260.364 370.576 266.337 370.576C272.491 370.576 277.83 372.748 282.355 377.092C286.879 381.436 289.142 386.865 289.142 393.381ZM259.821 506.047C253.487 506.047 248.148 503.875 243.804 499.531C239.46 495.188 237.288 489.848 237.288 483.514C237.288 477.179 239.46 471.84 243.804 467.496L280.454 431.117C284.979 426.592 290.318 424.33 296.472 424.33C302.806 424.33 308.146 426.592 312.489 431.117C316.833 435.642 319.005 441.072 319.005 447.406C319.005 450.302 318.372 453.107 317.105 455.822C315.838 458.537 314.209 460.89 312.218 462.881L275.839 499.531C271.495 503.875 266.156 506.047 259.821 506.047ZM521.261 193.025C521.261 208.952 519.179 222.889 515.017 234.834C510.854 246.779 505.243 257.91 498.185 268.227C491.126 278.543 482.982 288.316 473.751 297.547C464.521 306.777 454.747 316.732 444.431 327.41L284.255 166.42L203.624 246.508C198.194 251.576 191.86 254.109 184.62 254.109C177.2 254.109 170.956 251.576 165.888 246.508C160.82 241.44 158.196 235.105 158.015 227.504C158.015 220.083 160.639 213.749 165.888 208.5L282.083 92.8477C295.476 79.6354 310.679 69.5905 327.693 62.7129C344.706 55.8353 362.623 52.306 381.446 52.125C400.812 52.125 419.002 55.8353 436.015 63.2559C453.028 70.6764 467.778 80.8118 480.267 93.6621C492.755 106.512 502.709 121.444 510.13 138.457C517.551 155.47 521.261 173.66 521.261 193.025ZM447.417 357.002C447.417 363.337 445.245 368.676 440.901 373.02C436.558 377.363 431.219 379.535 424.884 379.535C418.73 379.535 413.482 377.363 409.138 373.02L325.792 289.402C324.525 288.135 322.806 287.502 320.634 287.502C318.643 287.502 316.924 288.135 315.476 289.402C314.028 290.669 313.304 292.389 313.304 294.561C313.304 296.37 314.028 297.999 315.476 299.447L406.694 390.666C411.219 395.191 413.482 400.53 413.482 406.684C413.482 413.018 411.31 418.357 406.966 422.701C402.622 427.045 397.193 429.217 390.677 429.217C384.523 429.217 379.275 427.045 374.931 422.701L283.712 331.482C282.445 330.215 280.726 329.582 278.554 329.582C276.563 329.582 274.934 330.215 273.667 331.482C272.4 332.749 271.676 334.469 271.495 336.641C271.495 338.451 272.219 340.079 273.667 341.527L364.886 432.746C369.23 437.09 371.401 442.429 371.401 448.764C371.401 455.098 369.23 460.438 364.886 464.781C360.542 469.125 355.203 471.297 348.868 471.297C344.163 471.297 340.362 470.301 337.466 468.311C334.57 466.32 331.584 463.605 328.507 460.166C330.317 456.365 331.222 451.931 331.222 446.863C331.222 441.977 330.317 437.452 328.507 433.289C326.697 429.126 324.163 425.416 320.905 422.158C317.648 418.9 313.847 416.457 309.503 414.828C305.159 413.199 300.544 412.294 295.657 412.113C299.277 406.503 301.087 400.258 301.087 393.381C301.087 388.494 300.182 383.969 298.372 379.807C296.562 375.644 294.119 371.934 291.042 368.676C287.965 365.418 284.255 362.884 279.911 361.074C275.567 359.264 271.133 358.359 266.609 358.359H264.165C263.441 358.359 262.536 358.54 261.45 358.902C261.993 356.911 262.446 355.011 262.808 353.201C263.17 351.391 263.351 349.4 263.351 347.229C263.351 342.523 262.446 338.089 260.636 333.926C258.826 329.763 256.383 326.053 253.306 322.795C250.229 319.537 246.519 317.003 242.175 315.193C237.831 313.383 233.306 312.479 228.601 312.479C224.8 312.479 221.18 313.112 217.741 314.379C214.303 315.646 210.954 317.365 207.696 319.537C207.696 314.65 206.791 310.126 204.982 305.963C203.172 301.8 200.728 298.09 197.651 294.832C194.575 291.574 190.955 289.04 186.792 287.23C182.629 285.421 178.014 284.516 172.946 284.516C168.422 284.516 163.987 285.33 159.644 286.959C155.3 288.588 151.499 291.122 148.241 294.561L113.763 329.311C102.903 318.27 92.6775 308.044 83.0851 298.633C73.4926 289.221 65.1671 279.267 58.1085 268.77C51.0499 258.272 45.3488 246.87 41.005 234.562C36.6613 222.255 34.5799 207.776 34.7609 191.125C34.7609 171.94 38.4711 153.932 45.8917 137.1C53.3123 120.268 63.4477 105.607 76.298 93.1191C89.1482 80.6309 104.08 70.6764 121.093 63.2559C138.106 55.8353 156.114 52.125 175.118 52.125C192.674 52.125 209.506 55.2018 225.614 61.3555C241.722 67.5091 256.292 76.5586 269.323 88.5039L157.2 199.812C153.581 203.432 150.775 207.595 148.784 212.301C146.793 217.007 145.707 222.074 145.526 227.504C145.526 232.934 146.522 238.001 148.513 242.707C150.504 247.413 153.309 251.485 156.929 254.924C160.549 258.363 164.711 261.168 169.417 263.34C174.123 265.512 179.191 266.598 184.62 266.598C189.869 266.598 194.846 265.602 199.552 263.611C204.258 261.62 208.511 258.815 212.312 255.195L284.255 183.523L440.901 340.984C445.245 345.328 447.417 350.667 447.417 357.002ZM289.142 503.332L319.276 473.197C320.724 476.455 321.448 479.713 321.448 482.971C321.448 489.305 319.276 494.645 314.933 498.988C310.589 503.332 305.25 505.504 298.915 505.504C295.657 505.504 292.4 504.78 289.142 503.332Z" fill="#3E89EC"/>
</svg>
