<svg xmlns="http://www.w3.org/2000/svg" width="64" height="64" id="mission">
  <path fill="#fbfbfb" d="M4.228 49.647a28.026 28.026 0 0 1 28.026-28.026A28.026 28.026 0 0 1 60.28 49.647H32.254z"></path>
  <path fill="#f3f3f5" d="M11.228 49.647a21.026 21.026 0 0 1 21.026-21.026A21.026 21.026 0 0 1 53.28 49.647H32.254z"></path>
  <path fill="#e8e8ec" d="M15.824 49.647a16.43 16.43 0 0 1 16.43-16.43 16.43 16.43 0 0 1 16.43 16.43h-16.43z"></path>
  <path fill="#dfdfe5" d="M20.95 49.647a11.303 11.303 0 0 1 11.304-11.303 11.303 11.303 0 0 1 11.303 11.303H32.254z"></path>
  <path fill="none" stroke="#12141a" stroke-linecap="round" stroke-linejoin="round" d="M8.48 49.11h43.504m2.71 0h2.064m-52.53 0h5.705"></path>
  <path fill="none" stroke="#e6e6e6" stroke-linecap="round" stroke-linejoin="round" d="M21.512 51.177h19.735M24.074 53.2h5.263m2.467 0h7.06m-12.108 2.077h5.116"></path>
  <path fill="#fc0" fill-rule="evenodd" d="M875.416-98.719a.313.313 0 0 0-.308.318c0 .216-.093.315-.308.315-.423-.006-.423.63 0 .625.207 0 .308.057.308.301-.006.423.63.423.625 0 0-.221.104-.301.309-.301.423.006.423-.631 0-.625-.279 0-.309-.16-.309-.315a.313.313 0 0 0-.317-.318zm-13.6 3.257a.43.43 0 0 0-.422.436c0 .297-.127.432-.422.432-.58-.008-.58.866 0 .858.284 0 .422.078.422.414-.008.58.867.58.858 0 0-.305.143-.414.424-.414.58.009.58-.866 0-.858-.382 0-.424-.219-.424-.432a.43.43 0 0 0-.435-.436z" color="#000" font-family="sans-serif" font-weight="400" overflow="visible" style="line-height:normal;text-indent:0;text-align:start;text-decoration-line:none;text-transform:none;block-progression:tb" transform="translate(-844.105 119.402)"></path>
  <path fill="#12141a" fill-rule="evenodd" d="M859.218-87.598a.236.236 0 0 0-.231.239c0 .163-.07.237-.232.237-.319-.005-.319.476 0 .471.156 0 .232.044.232.228-.005.318.475.318.47 0 0-.168.079-.228.233-.228.319.005.319-.475 0-.47-.21 0-.232-.12-.232-.238a.236.236 0 0 0-.24-.24z" color="#000" font-family="sans-serif" font-weight="400" overflow="visible" style="line-height:normal;text-indent:0;text-align:start;text-decoration-line:none;text-transform:none;block-progression:tb" transform="translate(-844.105 119.402)"></path>
  <path fill="#ff8e00" fill-rule="evenodd" d="M861.48-107.588a.313.313 0 0 0-.307.317c0 .217-.093.315-.308.315-.423-.006-.423.632 0 .626.207 0 .308.057.308.301-.006.423.63.423.625 0 0-.222.103-.301.309-.301.422.006.422-.632 0-.626-.28 0-.31-.159-.31-.315a.313.313 0 0 0-.317-.317z" color="#000" font-family="sans-serif" font-weight="400" overflow="visible" style="line-height:normal;text-indent:0;text-align:start;text-decoration-line:none;text-transform:none;block-progression:tb" transform="translate(-844.105 119.402)"></path>
  <path fill="#12141a" fill-rule="evenodd" d="M881.216-108.197a.236.236 0 0 0-.232.239c0 .163-.07.237-.231.237-.319-.005-.319.476 0 .471.156 0 .231.043.231.227-.005.319.476.319.471 0 0-.167.079-.227.233-.227.319.005.319-.475 0-.47-.21 0-.233-.121-.233-.238a.236.236 0 0 0-.239-.24z" color="#000" font-family="sans-serif" font-weight="400" overflow="visible" style="line-height:normal;text-indent:0;text-align:start;text-decoration-line:none;text-transform:none;block-progression:tb" transform="translate(-844.105 119.402)"></path>
  <path fill="#ff8e00" fill-rule="evenodd" d="M890.554-102.013a.313.313 0 0 0-.308.317c0 .217-.092.315-.308.315-.422-.006-.422.631 0 .625.208 0 .308.057.308.302-.006.422.631.422.625 0 0-.222.104-.302.31-.302.422.006.422-.63 0-.625-.28 0-.31-.16-.31-.315a.313.313 0 0 0-.317-.317z" color="#000" font-family="sans-serif" font-weight="400" overflow="visible" style="line-height:normal;text-indent:0;text-align:start;text-decoration-line:none;text-transform:none;block-progression:tb" transform="translate(-844.105 119.402)"></path>
  <path fill="#12141a" fill-rule="evenodd" d="M887.938-94.038a.236.236 0 0 0-.231.239c0 .163-.07.237-.232.237-.319-.005-.319.476 0 .471.156 0 .232.043.232.227-.005.319.475.319.47 0 0-.167.079-.227.233-.227.319.005.319-.475 0-.47-.21 0-.232-.121-.232-.238a.236.236 0 0 0-.24-.24z" color="#000" font-family="sans-serif" font-weight="400" overflow="visible" style="line-height:normal;text-indent:0;text-align:start;text-decoration-line:none;text-transform:none;block-progression:tb" transform="translate(-844.105 119.402)"></path>
  <path fill="#ff8e00" fill-rule="evenodd" d="M887.605-86.201a.43.43 0 0 0-.423.435c0 .298-.127.433-.422.433-.58-.008-.58.866 0 .857.284 0 .422.08.422.414-.008.58.867.58.858 0 0-.304.143-.414.424-.414.58.01.58-.866 0-.857-.382 0-.424-.22-.424-.433a.43.43 0 0 0-.435-.435z" color="#000" font-family="sans-serif" font-weight="400" overflow="visible" style="line-height:normal;text-indent:0;text-align:start;text-decoration-line:none;text-transform:none;block-progression:tb" transform="translate(-844.105 119.402)"></path>
  <path fill="#fc0" fill-rule="evenodd" d="M863.743-102.11a.313.313 0 0 0-.308.318c0 .217-.092.315-.307.315-.423-.006-.423.631 0 .625.207 0 .307.057.307.302-.006.422.631.422.625 0 0-.222.104-.302.31-.302.422.006.422-.631 0-.625-.28 0-.31-.16-.31-.315a.313.313 0 0 0-.317-.317z" color="#000" font-family="sans-serif" font-weight="400" overflow="visible" style="line-height:normal;text-indent:0;text-align:start;text-decoration-line:none;text-transform:none;block-progression:tb" transform="translate(-844.105 119.402)"></path>
  <path fill="#12141a" fill-rule="evenodd" d="M871.416-111.179a.242.242 0 0 0-.238.246c0 .167-.071.243-.237.243-.327-.005-.327.488 0 .483.16 0 .237.044.237.233-.004.327.488.327.484 0 0-.171.08-.233.238-.233.327.005.327-.488 0-.483-.215 0-.238-.123-.238-.243a.242.242 0 0 0-.246-.246z" color="#000" font-family="sans-serif" font-weight="400" overflow="visible" style="line-height:normal;text-indent:0;text-align:start;text-decoration-line:none;text-transform:none;block-progression:tb" transform="translate(-844.105 119.402)"></path>
  <path fill="#0cf" d="M30.322 29.636c-5.523 0-10 4.7-10 10.5 0 1.364.26 2.715.755 3.978 1.539-3.939 5.19-6.511 9.245-6.513 4.057 0 7.709 2.58 9.245 6.521.498-1.265.754-2.619.755-3.986 0-5.8-4.476-10.5-10-10.5z"></path>
  <path fill="#fff" d="M30.54 29.62c.251 0 .505.012.75.031-5.175.4-9.25 4.932-9.25 10.469.001.718.08 1.457.22 2.156-.367.577-.712 1.185-.97 1.844a11.003 11.003 0 0 1-.75-4c0-5.8 4.477-10.5 10-10.5z"></path>
  <path fill="#0055d4" d="M32.04 37.589c3.378 0 6.452 1.815 8.282 4.687-.126.623-.3 1.252-.531 1.844-1.443-3.692-4.753-6.202-8.5-6.5.25-.02.496-.03.75-.03z"></path>
  <path fill="#0055d4" d="M30.322 29.62a9.8 9.8 0 0 0-.75.031c5.176.4 9.25 4.932 9.25 10.469 0 .718-.08 1.457-.219 2.156.367.577.712 1.185.969 1.844.497-1.266.749-2.632.75-4 0-5.8-4.476-10.5-10-10.5z"></path>
  <path fill="#fff" d="M28.822 37.589c-3.377 0-6.45 1.815-8.281 4.687.126.623.3 1.252.531 1.844 1.443-3.692 4.752-6.202 8.5-6.5a9.333 9.333 0 0 0-.75-.03z"></path>
  <path fill="none" stroke="#12141a" stroke-linejoin="round" stroke-miterlimit="100" d="M30.322 29.636c-5.523 0-10 4.7-10 10.5 0 1.364.26 2.715.755 3.978 1.539-3.939 5.19-6.511 9.245-6.513 4.057 0 7.709 2.58 9.245 6.521.498-1.265.754-2.619.755-3.986 0-5.8-4.476-10.5-10-10.5z"></path>
  <path fill="#0cf" d="M30.675 13.118c-4.459 3.93-7.35 9.375-7.353 15.071.012 3.58 1.087 7.256 2.996 10.372 1.29-.528 2.607-.957 4.004-.96 1.405 0 2.797.274 4.093.804 1.903-3.118 2.904-6.637 2.907-10.216-.011-5.698-2.178-11.145-6.647-15.071z"></path>
  <path fill="#00e7ff" d="M30.73 13.118c-2.331 3.68-4.264 9.563-4.264 15.258 0 3.58 2.92 7.07 3.33 10.185.276-.528.558-.957.857-.96.302 0 .6.274.877.804.408-3.118-2.065-6.45-2.064-10.029 0-5.698-.092-11.582 1.263-15.258z"></path>
  <path fill="#fff" d="M30.718 13.12c-5.869 8.539-5.35 16.173-1.896 24.5.276-.17.553-.33.833-.469-3.725-7.62-3.403-16.73 1.167-23.53-.161-.236.067-.275-.104-.5z"></path>
  <path fill="#0055d4" d="M30.822 13.62c4.459 3.93 6.654 8.867 6.656 14.563-.012 3.579-1.09 7.259-3 10.375-.67-1.648-4.656-1.5-6.656-.5 11.508-5.278 8.202-18.877 2.69-24.37.241-.235.053.158.31-.068zM28.978 37.59c.201 0 .396.046.594.062-1.098.091-.168-.23-1.188.188-.08-.133-.14-.273-.218-.407.917-.248-.144.157.812.157z"></path>
  <path fill="#fc0" d="M26.82 24.44a3.644 3.644 0 0 1 3.645-3.638 3.624 3.624 0 0 1 3.623 3.638 3.623 3.623 0 0 1-3.623 3.634 3.643 3.643 0 0 1-3.645-3.634z"></path>
  <path fill="#fff" d="M30.666 13.12c-4.46 3.93-7.342 9.367-7.344 15.063.012 3.579 1.09 7.259 3 10.375.414-.17.829-.33 1.25-.469-1.74-3.015-2.739-6.5-2.75-9.906 0-5.369 1.971-10.698 6-14.563-.242-.235.1-.274-.156-.5z"></path>
  <path fill="#ff8e00" d="M31.324 20.92c1.942.52 3.113 2.508 2.594 4.447-.52 1.937-2.529 3.075-4.47 2.555a3.444 3.444 0 0 1-.73-.293c1.664.068 3.212-1.003 3.66-2.675.449-1.673-.357-3.373-1.833-4.147.264.011.513.04.78.112z"></path>
  <path fill="none" stroke="#12141a" stroke-linecap="round" stroke-linejoin="round" stroke-miterlimit="100" d="M25.082 36.214c.597-.262 1.21-.477 1.831-.645m1.278-.295c.217-.04-.22.029 0 0m1.466-.137c1.991-.1 4 .26 5.864 1.077"></path>
  <path fill="none" stroke="#12141a" stroke-linecap="round" stroke-linejoin="round" stroke-miterlimit="100" d="M23.322 28.189c.012 3.58 1.043 7.179 2.952 10.295 1.29-.528 2.651-.88 4.048-.883 1.405 0 2.797.275 4.093.805 1.903-3.12 2.904-6.638 2.907-10.217-.011-5.698-2.178-11.145-6.647-15.071-3.43 3.024-5.933 6.943-6.906 11.184m-.318 1.683c-.033.167-.063.335-.09.502"></path>
  <path fill="#adb5b9" d="M19.938 47.2c.648-1.498 2.145-2.615 3.744-2.287.237.966.607 1.533 1.02 1.972a3.138 3.138 0 0 1 3.788-4.936l.01 1.662v-5.745c1.02-.384 2.077-.323 3.156 0v7.526l.01-3.552c1.23-.71 2.916-.484 3.92.52a3.138 3.138 0 0 1 0 4.438c.572-.524.67-1.221 1.055-1.916 1.599-.328 3.459.635 4.107 2.133a3.344 3.344 0 0 1 6.126-2.536c.923 1.6.375 3.7-1.224 4.623H8.982c-1.68-2.854-.728-6.938 2.125-8.617A5.995 5.995 0 0 1 19.94 47.2z"></path>
  <path fill="#6c787e" d="M1563.938 1131.831c-.192 0-.377.024-.563.062.163.032.332.085.5.125v7.124c0 .26.24.5.5.5s.496-.24.5-.5v-3.156a2.17 2.17 0 0 1 .156-.062v-3.906c-.377-.09-.735-.177-1.093-.187zm-16.126 2.063c-.135 0-.27.016-.406.03 3.6 1.037 4.966 3.4 5.217 7.067.2 0 .427.337.502.152v-.031c.059-.134.145-.251.219-.375a5.444 5.444 0 0 0-.594-4.125 5.522 5.522 0 0 0-4.938-2.719zm19.407 1.843c-.19 0-.766-.145-.953-.11 2.03.544 2.636 2.623 2.007 4.97.126-.127.63.028.727-.11a.329.329 0 0 1 .094-.313 2.62 2.62 0 0 0 .219-.25c.089-.2.16-.412.219-.625.022-.052.07-.105.094-.156h.094a2.614 2.614 0 0 0-.625-2.688c-.484-.483-1.187-.717-1.876-.718zm-6.998-.072c-.195 0-.404.02-.593.062 1.174.23 1.09.511 1.09 1.635 0 .259.241.5.5.5.26 0 .497-.241.5-.5v-1.344c-.325-.126-1.16-.353-1.497-.353zm17.279 1.385c-.086.01-.164.043-.25.062.774.15 1.477.6 1.906 1.343.766 1.327.31 3.062-.969 3.875h1.157c1.279-.813 1.734-2.548.968-3.875a2.836 2.836 0 0 0-2.812-1.406zm-6.203 1.85c-.166-.01-.644.05-.805.072-.01.019-.37.09-.382.109 1.367.136 3.007 1.152 3.398 1.992.613.431.236-.296.43-.43-.01-.021 0-.042 0-.062-.01-.01.01-.024 0-.031-.565-.835-1.618-1.612-2.641-1.649zm-14.485.274a2.567 2.567 0 0 0-.625.125c.155.6.775 1.392 1.395 1.73.58.208.055-.297.262-.543v-.03a3.46 3.46 0 0 1-.219-.407c-.219-.268-.402-.561-.5-.875-.103-.01-.21-.01-.313 0z" color="#000" font-family="Sans" font-weight="400" overflow="visible" style="line-height:normal;-inkscape-font-specification:Sans;text-indent:0;text-align:start;text-decoration-line:none;text-transform:none;block-progression:tb;marker:none" transform="translate(-1533.178 -1093.742)"></path>
  <path fill="#fff" d="M30.044 37.602a4.04 4.04 0 0 0-1.531.281v3.688c.463.033-.338 2.295.084 2.539 1.091-1.891.959-4.146.959-6.227.255-.096.822-.175 1.081-.218-.194-.025-.401-.06-.594-.062zM13.95 39.665a6.043 6.043 0 0 0-2.844.843c-2.853 1.68-3.804 5.74-2.125 8.594h1.375c-1.68-2.853-.728-6.914 2.125-8.594a5.953 5.953 0 0 1 2.344-.78c-.297-.036-.574-.074-.875-.063zm19.25 1.78c-.052.002-.104.029-.156.032v.375c.288-.167.613-.247.937-.313-.265-.058-.51-.1-.78-.094zm-6.187.095a3.124 3.124 0 0 0-2.313.906c-.69.69-.961 1.631-.875 2.531.395-.096.561 1.632.984 1.72 0-2.752.194-4.058 2.797-5.063a3.099 3.099 0 0 0-.593-.094zm17.474 1.59a3.332 3.332 0 0 0-1.906.438c-.845.488-1.372 1.31-1.562 2.219-.164.62.114.768.203 1.453.29-2.33 1.36-3.672 3.734-4.016-.15-.032-.315-.083-.469-.094zm-21.38 1.754c-.564.01-3.274 1.468-2.891 2.734 1.098-1.113 1.787-1.88 3.64-2.062-.01-.034-.179-.607-.187-.641-.2-.041-.367-.033-.563-.031z"></path>
  <path fill="none" stroke="#12141a" stroke-linecap="round" stroke-linejoin="round" d="M12.24 39.966a5.998 5.998 0 0 1 7.7 7.235h0c.649-1.499 2.145-2.616 3.744-2.288.238.966.608 1.533 1.021 1.972a3.138 3.138 0 0 1 3.788-4.936l.01 1.662v-5.745c1.02-.384 2.077-.323 3.156 0v7.526l.01-3.552c1.23-.71 2.916-.484 3.92.52a3.138 3.138 0 0 1 0 4.438c.572-.524.67-1.221 1.054-1.916 1.6-.328 3.46.635 4.108 2.133h0a3.344 3.344 0 0 1 .29-2.454m1.268-1.306a3.344 3.344 0 0 1 4.568 1.224c.923 1.6.375 3.7-1.224 4.623H8.985c-1.2-2.038-1.058-4.703.16-6.672m1.068-1.255c.125-.143.257-.28.396-.412"></path>
  <path fill="#adb5b9" stroke="#6c787e" stroke-linecap="round" stroke-linejoin="round" d="M11.248 46.238a2.975 2.975 0 0 1 1.438-3.953 2.975 2.975 0 0 1 3.953 1.439"></path>
  <path fill="#adb5b9" stroke="#6c787e" stroke-linecap="round" stroke-linejoin="round" stroke-width="1.304" d="M1546.063 134.469a1.469 1.469 0 0 1 1.468-1.469 1.469 1.469 0 0 1 1.469 1.469" transform="matrix(-.70403 -.31985 -.32829 .68593 1177.682 448.839)"></path>
  <path fill="none" stroke="#6c787e" stroke-linecap="round" stroke-linejoin="round" d="M30.007 43.473v2.828"></path>
  <path fill="#fff" d="M31.415 20.943c-1.942-.52-3.95.617-4.47 2.556-.52 1.937.652 3.927 2.593 4.447.266.071.516.101.78.112-1.476-.773-2.856-2.475-2.408-4.147.579-2.161 2.57-2.743 4.235-2.675a3.473 3.473 0 0 0-.73-.293z"></path>
  <path fill="none" stroke="#12141a" stroke-linecap="round" stroke-linejoin="round" stroke-miterlimit="34.178" stroke-width="1.376" d="M68.863 524.099a4.983 4.983 0 0 1-4.985 4.998c-2.765 0-5.015-2.24-5.015-4.998h0c0-2.76 2.249-5.002 5.015-5.002 1.61 0 3.034.759 3.944 1.937" transform="matrix(.72678 0 0 .72715 -15.96 -356.659)"></path>
</svg>
