<svg width="562" height="562" viewBox="0 0 562 562" fill="none" xmlns="http://www.w3.org/2000/svg">
<path d="M140.499 515.167C127.62 515.167 116.599 510.585 107.435 501.421C98.2713 492.257 93.6816 481.228 93.666 468.333V234.167C93.666 221.288 98.2557 210.266 107.435 201.102C116.614 191.939 127.636 187.349 140.499 187.333H163.916V140.5C163.916 108.107 175.336 80.4988 198.175 57.6754C221.014 34.8519 248.622 23.4324 280.999 23.4168C313.377 23.4012 340.993 34.8207 363.848 57.6754C386.702 80.53 398.114 108.138 398.083 140.5V187.333H421.499C434.379 187.333 445.408 191.923 454.587 201.102C463.766 210.282 468.348 221.303 468.333 234.167V468.333C468.333 481.213 463.751 492.242 454.587 501.421C445.423 510.6 434.394 515.182 421.499 515.167H140.499ZM280.999 398.083C293.879 398.083 304.908 393.502 314.087 384.338C323.266 375.174 327.848 364.145 327.833 351.25C327.817 338.355 323.235 327.334 314.087 318.186C304.939 309.038 293.91 304.448 280.999 304.417C268.089 304.386 257.068 308.975 247.935 318.186C238.803 327.396 234.213 338.418 234.166 351.25C234.119 364.082 238.709 375.112 247.935 384.338C257.161 393.564 268.183 398.146 280.999 398.083ZM210.749 187.333H351.249V140.5C351.249 120.986 344.42 104.399 330.76 90.7397C317.1 77.08 300.513 70.2501 280.999 70.2501C261.485 70.2501 244.899 77.08 231.239 90.7397C217.579 104.399 210.749 120.986 210.749 140.5V187.333Z" fill="#3E89EC"/>
</svg>
