<svg width="883" height="605" viewBox="0 0 883 605" fill="none" xmlns="http://www.w3.org/2000/svg">
<path d="M611 204.92C609.3 201.1 608.92 196.86 607.8 192.84C607.2 190.69 606.19 188.39 604.17 187.43C602.83 186.8 601.24 186.89 599.82 186.43C594.71 184.9 593.32 177.77 588.48 175.55C586.917 174.973 585.275 174.635 583.61 174.55C577.14 173.79 570.44 171.55 566.37 166.46C565.03 164.82 564.02 162.88 562.37 161.54C560.72 160.2 558.13 159.63 556.52 161C557.89 163.73 559.23 166.46 560.52 169.17C561.75 171.63 563 174.17 565.05 175.97C567.1 177.77 570.19 178.76 572.68 177.61C573.437 177.078 574.327 176.766 575.25 176.71C575.917 176.848 576.509 177.23 576.91 177.78C580.44 181.68 579.29 188.16 575.85 192.15C572.41 196.14 567.35 198.15 562.46 200.15C560.71 200.84 558.85 201.55 556.99 201.22C553.6 200.59 551.8 196.9 550.81 193.59C548.6 186.27 547.53 178.31 543 172.14C541.55 170.2 539.74 168.42 538.87 166.14C537.94 163.68 538.16 160.81 536.68 158.65C535.2 156.49 531.9 155.07 531.68 152.34C531.54 150.43 533.13 148.73 534.88 147.91C536.63 147.09 538.6 146.82 540.4 146.08C541.11 145.78 541.9 145.26 541.93 144.5C541.93 143.35 540.35 142.89 539.93 141.82C539.51 140.75 540.72 139.5 541.24 138.32C542.36 135.64 539.57 132.94 536.86 131.84C534.15 130.74 530.93 129.96 529.68 127.33C529.219 126.073 528.924 124.762 528.8 123.43C528.17 120.12 525.74 116.92 522.41 116.37C519.08 115.82 515.33 118.81 515.87 122.14C516.2 123.97 517.57 125.39 518.31 127.14C519.05 128.89 518.85 131.35 517.1 131.89C514.23 132.77 511.47 127.52 509.1 129.32C510.1 132.69 511.04 136.05 512.02 139.44C508.25 141.35 503.74 137.88 502.13 133.94C500.52 130 500.46 125.55 498.55 121.78C496.64 118.01 491.47 115.17 488.19 117.85C488.03 122.71 494.45 124.68 497.29 128.61C499.34 131.46 499.04 136.08 496.01 137.88C492.98 139.68 488.22 136.54 489.37 133.23C489.78 132.08 490.73 131.13 490.84 129.9C490.95 128.37 489.67 127.14 488.49 126.15C486.66 124.6 484.83 123.07 483 121.54C481.88 120.46 480.549 119.623 479.09 119.08C475.32 117.98 471.55 121.08 469.55 124.4C467.55 127.72 466.44 131.76 463.68 134.57C459.68 138.67 452.2 138.92 448.48 134.63C444.76 130.34 446.65 122.3 452.14 120.74C454.22 120.17 456.84 120.22 457.94 118.39C459.85 115.14 454.38 110.99 456.27 107.71C457.72 105.19 461.54 106.34 464.33 105.49C467.12 104.64 468.65 101.86 470.33 99.4896C472.01 97.1196 474.49 94.7096 477.33 95.3396C477.11 93.6696 476.89 91.8696 477.63 90.3396C478.37 88.8096 480.44 87.8296 481.81 88.8096C480.42 91.1096 482.08 94.3096 484.52 95.4496C486.96 96.5896 489.79 96.3296 492.52 96.0296C495.25 95.7296 498.52 94.7196 498.78 92.0296C498.86 91.1496 498.53 90.2196 498.86 89.3996C500.03 86.2096 505.94 90.6096 508.21 88.0396C509.52 86.6996 508.07 84.3196 506.21 83.8796C504.35 83.4396 502.52 84.0996 500.66 84.1596C498.8 84.2196 496.53 83.2596 496.45 81.3996C496.37 79.5396 498.45 78.2496 498.64 76.3996C498.99 73.3396 493.8 72.5496 491.97 75.0296C490.14 77.5096 490.79 80.9396 491.34 83.9696C491.89 86.9996 492.19 90.5796 489.95 92.7196C488.95 94.1596 486.5 93.3996 485.68 91.8696C484.86 90.3396 485.03 88.4796 484.89 86.7596C484.75 85.0396 483.99 83.0396 482.29 82.5796C481.12 82.2496 479.86 82.8196 478.66 82.9896C473.9 83.5596 470.6 77.4096 472.1 72.8796C473.6 68.3496 477.89 65.3896 482.1 63.0596C485.16 61.3696 488.95 59.7796 491.99 61.5096C493.41 62.2996 494.39 63.6596 495.79 64.5096C498.19 65.9396 501.17 65.4196 503.93 65.5096C508.308 65.6334 512.508 67.2654 515.82 70.1296C517.05 71.2496 518.2 73.1296 517.24 74.4496C516.28 75.7696 513.24 76.1696 513.74 77.8396C514.547 78.0575 515.391 78.1025 516.216 77.9715C517.042 77.8405 517.83 77.5366 518.53 77.0796C519.229 76.6226 519.824 76.0228 520.276 75.3197C520.728 74.6166 521.026 73.8259 521.15 72.9996C521.929 73.3648 522.601 73.9248 523.1 74.6256C523.6 75.3263 523.91 76.144 524 76.9996C527.47 73.4696 534.14 73.9996 537 78.0596C537.76 79.1296 538.31 80.4196 539.4 81.1496C540.49 81.8796 542.4 81.5096 542.55 80.2196C542.573 79.8079 542.497 79.3967 542.33 79.0196C541.67 77.1596 540.99 75.3296 540.33 73.4996C542.88 72.1296 545.88 74.2696 547.6 76.5596C554 85.1196 558.6 79.9796 567.6 81.3696C573.7 82.2996 576.38 86.2096 579.82 90.9396C590.37 105.48 604.31 117.39 613.9 132.59C614.9 134.17 615.84 135.79 616.71 137.43C616.55 137.02 616.41 136.61 616.25 136.2C612.501 126.334 607.833 116.843 602.31 107.85C601.14 105.94 599.93 104.06 598.7 102.2C597.94 101.05 597.15 99.8696 596.35 98.7496C595.35 97.2796 594.28 95.8596 593.21 94.4396C592.36 93.2896 591.52 92.1696 590.64 91.0696C590.04 90.3096 589.41 89.5396 588.78 88.7796C588.114 87.8879 587.403 87.0301 586.65 86.2096L584.36 83.5596C584.13 83.2718 583.883 82.998 583.62 82.7396C582.82 81.8096 581.98 80.9096 581.13 80.0096C581.073 79.8963 580.986 79.7999 580.88 79.7296C580.67 79.4896 580.42 79.2396 580.17 78.9896C579.49 78.2296 578.75 77.4896 578.04 76.7496C576.87 75.5496 575.66 74.3496 574.43 73.1996C573.43 72.1996 572.38 71.1996 571.32 70.2796C570.26 69.3596 569.46 68.5796 568.5 67.7596C567.54 66.9396 566.65 66.1496 565.69 65.3596C564.54 64.3596 563.37 63.4196 562.16 62.4596C558.85 59.8096 555.43 57.2896 551.93 54.9396C551.06 54.3396 550.21 53.7696 549.34 53.1896C548.47 52.6096 547.56 52.0496 546.69 51.4996C545.82 50.9496 544.91 50.3796 544.01 49.8596C543.11 49.3396 542.2 48.7696 541.3 48.2496C540.56 47.8096 539.85 47.3996 539.12 47.0196C538.759 46.7891 538.385 46.5788 538 46.3896C536.44 45.5096 534.85 44.6696 533.27 43.8696C532.48 43.4596 531.68 43.0496 530.86 42.6696C529.86 42.1496 528.81 41.6696 527.77 41.1996C527.628 41.1046 527.473 41.0305 527.31 40.9796C526.38 40.5396 525.45 40.0996 524.49 39.6896C523.15 39.1196 521.82 38.5496 520.49 37.9996C518.96 37.3696 517.43 36.7396 515.87 36.1696C514.15 35.5096 512.42 34.8796 510.68 34.3096C508.94 33.7396 507.15 33.1296 505.37 32.5896C503.59 32.0496 501.82 31.5896 500.02 31.0596C496.46 30.0996 492.86 29.2496 489.22 28.5096C489.156 28.4976 489.092 28.4809 489.03 28.4596C487.64 28.1896 486.24 27.9096 484.85 27.6996C484.763 27.6684 484.673 27.6483 484.58 27.6396C483.97 27.5296 483.35 27.4196 482.72 27.3396C480.12 26.8996 477.5 26.5496 474.85 26.2496C474.52 26.1897 474.186 26.153 473.85 26.1396C473.08 26.0296 472.32 25.9696 471.53 25.8896C469.78 25.7296 468.03 25.5896 466.25 25.4796C464.47 25.3696 462.56 25.2596 460.7 25.2096C458.84 25.1596 456.82 25.0996 454.88 25.0996C449.74 25.0996 444.657 25.3263 439.63 25.7796C438.43 25.8596 437.25 25.9696 436.08 26.1096C434.91 26.2496 433.62 26.3796 432.39 26.5496C431.16 26.7196 429.93 26.8796 428.73 27.0696C427.53 27.2596 426.29 27.4496 425.06 27.6696C424.06 27.8296 422.96 28.0196 421.92 28.2396C419.347 28.7263 416.807 29.2729 414.3 29.8796C413.12 30.1496 411.95 30.4596 410.77 30.7796C409.59 31.0996 408.42 31.4096 407.27 31.7796C405.33 32.3296 403.45 32.9296 401.56 33.5296C400.03 34.0496 398.47 34.5296 396.97 35.0896C396.935 35.0781 396.896 35.0781 396.86 35.0896C395.3 35.6396 393.8 36.2096 392.27 36.8096L392.02 36.8996C390.63 37.4396 389.24 38.0196 387.87 38.5896C386.15 39.2996 384.45 40.0696 382.79 40.8296C381.37 41.4896 379.97 42.1396 378.61 42.8296C377.25 43.5196 375.61 44.2996 374.21 45.0696L374.04 45.1496C372.65 45.8896 371.25 46.6496 369.89 47.4396C368.53 48.2296 367 49.0896 365.64 49.9996C364.307 50.7863 363.014 51.5896 361.76 52.4096C361.27 52.7096 360.76 53.0396 360.31 53.4096C358.94 54.2896 357.63 55.1896 356.31 56.1196C354.67 57.2396 353.09 58.4096 351.5 59.5896C350.114 60.6296 348.747 61.6863 347.4 62.7596C339.658 68.8778 332.455 75.6493 325.87 82.9996C323.55 85.5696 321.36 88.1896 319.23 90.8696C317.43 93.1696 315.68 95.4896 314.01 97.8696C312.51 99.9563 311.06 102.083 309.66 104.25C311.06 102.09 312.51 99.9629 314.01 97.8696C314.45 97.8096 314.89 97.7596 315.32 97.7296C317.78 97.5396 320.38 97.6196 322.59 96.5496C324.59 95.5496 326.09 93.7096 327.95 92.3996C332.71 89.0096 340.49 88.3996 341.78 82.6996C342.22 80.7896 341.7 78.6996 342.41 76.8796C343.75 73.4596 348.31 72.9696 351.97 73.0196C353.53 73.0196 355.36 73.2396 356.07 74.6096C356.267 75.1198 356.354 75.6656 356.327 76.2116C356.299 76.7576 356.157 77.2918 355.91 77.7796C353.622 84.2059 349.19 89.6478 343.36 93.1896C338.61 96.0896 332.36 98.3296 331.09 103.74C331.75 105.57 335.09 105.44 335.36 107.35C335.55 108.88 333.58 109.67 332.87 111.04C331.87 113.04 334.21 115.47 336.48 115.36C338.75 115.25 340.63 113.61 342.3 112.08C347.3 107.46 352.49 102.49 354.3 95.9296C355.06 93.2196 355.3 90.0496 357.52 88.2496C360.12 86.1096 364.76 87.5896 365.64 90.8396C367.8 89.6396 371.16 88.7396 372.28 90.9796C372.53 91.8161 372.685 92.6783 372.74 93.5496C373.45 97.0496 378.24 98.6296 378.74 102.16C379.31 106.23 374.09 108.33 370.02 108.96C366.33 109.54 362.64 110.11 358.95 110.71C357.324 110.83 355.751 111.338 354.36 112.19C353.05 113.19 352.23 115.03 352.99 116.48C353.545 117.223 354.19 117.895 354.91 118.48C357.97 121.54 355.45 127.85 351.14 127.99C349.66 127.99 348.21 127.5 346.74 127.44C342.36 127.25 338.89 131.1 336.81 134.96C334.73 138.82 333.18 143.21 329.68 145.83C324.05 150.07 314.35 149.09 311.62 155.59C310.52 158.21 311.1 161.17 311.53 163.98C311.96 166.79 312.16 169.88 310.53 172.21C308.9 174.54 304.71 175 303.53 172.43C303.117 171.259 303.062 169.992 303.37 168.79C304.037 164.75 304.674 160.706 305.28 156.66C305.74 153.66 306.15 150.29 304.38 147.83C301.89 144.39 296.31 144.71 293.09 147.47C289.87 150.23 288.55 154.55 287.65 158.68C286.99 161.74 286.23 166.06 284.53 169.56C283.96 172.95 283.53 176.39 283.14 179.86C282.75 183.33 282.54 186.94 282.4 190.55C282.893 190.137 283.36 189.697 283.8 189.23C285.52 187.46 288.99 179.94 292.1 183.63C292.489 184.112 292.705 184.71 292.716 185.329C292.727 185.949 292.531 186.554 292.16 187.05C291.16 188.28 289.29 188.55 288.55 189.89C287.65 191.48 288.91 193.44 290.38 194.48C291.85 195.52 293.66 196.2 294.7 197.71C296.7 200.58 294.78 204.92 296.7 207.85C298.37 210.36 301.92 210.52 304.96 210.85L305.96 211.02C306.8 205.02 309.62 200.11 317.82 198.25C329.13 195.68 344 205.06 350.37 213.59C357.47 223.12 360.84 236.59 371.71 241.41C379.5 244.82 390.57 243.59 394.37 251.22C397.76 258.05 391.86 265.73 390.95 273.3C390.38 278.3 392.02 283.3 392.4 288.3C392.78 293.3 391.28 299.18 386.72 301.3C384.18 302.45 380.98 302.3 378.93 304.23C375.29 307.67 378.27 314.78 374.64 318.23C373.35 319.43 371.58 319.87 370.02 320.66C361.85 324.79 362.02 336.81 365.86 345.15C366 345.45 366.14 345.72 366.27 346.02C393.044 362.028 423.656 370.481 454.85 370.48C483.098 370.517 510.919 363.589 535.85 350.31C554.817 340.202 571.724 326.636 585.7 310.31C588.6 306.97 591.33 303.5 593.96 299.95C595.3 298.12 596.61 296.29 597.84 294.4C612.776 272.439 622.415 247.314 626 221C626.52 217.12 626.93 213.18 627.2 209.22C625.384 211.122 622.89 212.233 620.26 212.31C616.09 212.22 612.68 208.75 611 204.92Z" fill="#F5F5F5"/>
<path d="M413.629 70.3101C410.209 72.3101 408.389 76.2201 405.749 79.2101C403.109 82.2001 398.379 84.3201 395.259 81.8401C394.55 81.19 393.978 80.4049 393.576 79.5309C393.174 78.6569 392.951 77.7115 392.919 76.7501C392.678 73.9824 393.33 71.2103 394.779 68.8401C396.269 66.4201 398.539 64.5101 399.779 61.9601C401.019 59.4101 400.779 55.6801 398.199 54.4801C396.799 53.8301 395.049 54.0901 393.809 53.1701C391.579 51.5301 393.169 47.6601 395.759 46.6801C398.349 45.7001 401.219 46.4601 403.979 46.6801C413.979 47.3201 421.349 40.7701 428.869 35.3201C434.749 31.0001 447.209 26.0001 453.999 30.3601C456.699 32.0901 457.759 36.5301 455.209 38.4801C454.069 39.3501 452.499 39.5401 451.439 40.4801C450.169 41.6401 449.989 43.5401 449.259 45.1001C447.359 49.1001 441.899 50.6201 440.139 54.7401C439.079 57.2101 439.559 60.2901 437.929 62.4301C436.629 64.1301 434.389 64.7301 432.309 65.2201L419.259 68.3301C417.293 68.6993 415.394 69.367 413.629 70.3101Z" fill="#EBEBEB"/>
<path d="M530.342 282.889C526.012 289.409 525.222 297.569 524.022 305.309C522.822 313.049 520.752 321.309 514.802 326.369C508.852 331.429 497.932 331.169 494.662 324.049C492.882 320.189 493.802 315.629 492.832 311.489C491.572 306.099 487.272 301.939 485.242 296.789C483.502 292.389 483.492 287.539 483.352 282.789C482.582 256.979 476.282 230.039 458.712 211.129C456.562 208.799 454.102 206.539 451.042 205.719C449.208 205.277 447.285 205.373 445.505 205.996C443.724 206.618 442.161 207.741 441.002 209.229C439.592 211.099 438.862 213.479 437.132 215.059C433.382 218.489 426.822 216.059 424.312 211.609C421.802 207.159 422.152 201.759 422.572 196.699L424.132 177.849C424.402 174.559 424.772 171.029 426.932 168.539C430.002 164.989 435.502 164.829 439.252 162.009C444.172 158.329 444.832 151.299 447.932 146.009C451.032 140.719 460.742 138.459 462.182 144.439C472.452 122.439 495.182 155.109 508.642 152.659C512.562 151.939 516.392 150.059 520.342 150.659C527.342 151.659 530.902 159.309 533.282 165.939L545.082 198.939C546.582 203.129 548.522 207.789 552.662 209.389C555.842 210.629 559.542 209.689 562.742 210.849C571.212 213.929 568.462 227.259 561.642 233.159C554.822 239.059 545.262 242.779 542.022 251.159C539.582 257.499 541.522 264.919 538.902 271.159C537.002 275.599 533.002 278.839 530.342 282.889Z" fill="#EBEBEB"/>
<path d="M562.491 290.059C559.711 290.449 556.421 289.059 554.311 290.919C553.071 291.999 552.801 293.769 552.311 295.339C551.696 297.557 550.291 299.474 548.361 300.729C547.392 301.331 546.269 301.64 545.128 301.618C543.988 301.597 542.877 301.247 541.931 300.609C541.033 299.92 540.438 298.909 540.272 297.789C540.106 296.67 540.382 295.529 541.041 294.609C541.807 293.899 542.612 293.231 543.451 292.609C547.141 289.109 544.611 282.609 547.451 278.489C549.111 276.039 551.711 273.559 553.531 271.079C554.931 269.169 555.441 267.659 558.021 267.149C569.241 264.999 574.331 288.399 562.491 290.059Z" fill="#EBEBEB"/>
<g opacity="0.6">
<path d="M358.74 341.219C360.19 342.219 361.66 343.159 363.15 344.089C364.15 344.749 365.23 345.379 366.29 345.999C365.23 345.379 364.19 344.749 363.15 344.089C361.66 343.159 360.19 342.209 358.74 341.219Z" fill="#263238"/>
</g>
<g opacity="0.6">
<path d="M282.36 190.6C282.36 190.93 282.31 191.23 282.31 191.6C282.31 192.6 282.31 193.67 282.25 194.72C282.25 193.67 282.25 192.63 282.31 191.6C282.31 191.23 282.34 190.93 282.36 190.6Z" fill="#263238"/>
</g>
<path d="M306.002 211.05L305.002 210.88C302.002 210.55 298.412 210.39 296.742 207.88C294.802 204.95 296.742 200.61 294.742 197.74C293.742 196.23 291.902 195.58 290.422 194.51C288.942 193.44 287.692 191.51 288.592 189.92C289.332 188.58 291.242 188.31 292.202 187.08C292.573 186.584 292.768 185.979 292.757 185.36C292.747 184.741 292.53 184.143 292.142 183.66C289.032 179.97 285.562 187.49 283.842 189.26C283.402 189.727 282.934 190.168 282.442 190.58C282.442 190.91 282.392 191.21 282.392 191.58C282.392 192.58 282.392 193.65 282.332 194.7C282.272 195.75 282.282 196.77 282.282 197.81C282.282 198.66 282.282 198.62 282.282 199.46C282.282 200.3 282.332 202.03 282.362 202.87C284.223 203.56 286.009 204.438 287.692 205.49C291.052 207.43 294.802 210 295.012 213.88C294.951 214.512 295.076 215.148 295.372 215.71C295.794 216.166 296.365 216.457 296.982 216.53C299.862 217.22 302.803 217.632 305.762 217.76" fill="#EBEBEB"/>
<path d="M305.679 217.739C305.679 221.209 305.979 224.849 305.919 228.289C305.839 233.289 304.199 238.289 304.749 243.189C305.539 250.189 310.399 255.919 314.639 261.549C330.759 283.089 339.639 308.919 349.079 334.219C350.829 335.619 352.609 336.929 354.409 338.219C355.829 339.252 357.266 340.252 358.719 341.219C360.173 342.186 361.643 343.142 363.129 344.089C364.129 344.749 365.209 345.379 366.269 345.999C366.139 345.699 365.999 345.429 365.859 345.129C362.069 336.789 361.859 324.769 370.019 320.639C371.579 319.849 373.349 319.409 374.639 318.209C378.269 314.769 375.289 307.659 378.929 304.209C380.979 302.289 384.179 302.429 386.719 301.279C391.279 299.179 392.719 293.279 392.399 288.279C392.079 283.279 390.399 278.279 390.949 273.279C391.859 265.709 397.759 258.029 394.369 251.199C390.569 243.569 379.499 244.799 371.709 241.389C360.839 236.609 357.469 223.099 350.369 213.569C343.999 205.039 329.129 195.659 317.819 198.229C309.619 200.089 306.819 204.979 305.959 210.999" fill="#EBEBEB"/>
<path d="M293.051 147.499C296.271 144.739 301.851 144.419 304.341 147.859C306.111 150.319 305.701 153.679 305.241 156.689C304.614 160.729 303.977 164.772 303.331 168.819C303.022 170.021 303.078 171.288 303.491 172.459C304.691 175.029 308.901 174.529 310.491 172.239C312.081 169.949 311.941 166.799 311.491 164.009C311.041 161.219 310.491 158.239 311.581 155.619C314.311 149.119 324.011 150.099 329.641 145.859C333.141 143.239 334.701 138.859 336.771 134.989C338.841 131.119 342.321 127.279 346.701 127.469C348.171 127.529 349.621 128.069 351.101 128.019C355.411 127.879 357.931 121.569 354.871 118.509C354.15 117.925 353.505 117.253 352.951 116.509C352.191 115.059 353.011 113.199 354.321 112.219C355.711 111.367 357.285 110.86 358.911 110.739C362.601 110.139 366.291 109.569 369.981 108.989C374.051 108.359 379.271 106.259 378.701 102.189C378.211 98.6588 373.421 97.0788 372.701 93.5788C372.645 92.7075 372.491 91.8453 372.241 91.0088C371.121 88.7688 367.761 89.6688 365.601 90.8688C364.721 87.6188 360.081 86.1388 357.481 88.2788C355.291 90.0788 355.021 93.2788 354.261 95.9588C352.451 102.519 347.261 107.489 342.261 112.109C340.591 113.639 338.711 115.279 336.441 115.389C334.171 115.499 331.791 113.069 332.831 111.069C333.541 109.699 335.511 108.909 335.321 107.379C335.041 105.469 331.711 105.599 331.051 103.769C332.361 98.3588 338.571 96.1188 343.321 93.2188C349.151 89.677 353.583 84.2351 355.871 77.8088C356.118 77.321 356.259 76.7868 356.287 76.2408C356.314 75.6948 356.227 75.149 356.031 74.6388C355.321 73.2688 353.491 73.0488 351.931 73.0488C348.271 73.0488 343.711 73.4888 342.371 76.9088C341.661 78.7388 342.181 80.8188 341.741 82.7288C340.451 88.4088 332.671 89.0388 327.911 92.4288C326.051 93.7388 324.601 95.5688 322.551 96.5788C320.341 97.6488 317.741 97.5788 315.281 97.7588C314.851 97.7588 314.411 97.8388 313.971 97.8988C312.471 99.9855 311.021 102.112 309.621 104.279C308.221 106.449 306.881 108.649 305.621 110.879C299.441 121.444 294.412 132.641 290.621 144.279C289.281 148.359 288.101 152.519 287.081 156.729C286.061 160.939 285.191 165.229 284.471 169.559C286.171 166.059 286.931 161.739 287.591 158.679C288.511 154.579 289.851 150.259 293.051 147.499Z" fill="#EBEBEB"/>
<path d="M627.189 209.16C627.189 209.16 622.839 212.33 620.249 212.28C616.089 212.22 612.679 208.75 611.009 204.92C609.339 201.09 608.929 196.86 607.809 192.84C607.209 190.69 606.199 188.389 604.179 187.429C602.839 186.799 601.249 186.889 599.829 186.429C594.719 184.899 593.329 177.77 588.489 175.55C586.926 174.972 585.284 174.635 583.619 174.55C577.149 173.79 570.449 171.55 566.379 166.46C565.039 164.82 564.029 162.879 562.379 161.539C560.729 160.199 558.139 159.63 556.529 161C557.899 163.73 559.239 166.46 560.529 169.17C561.759 171.63 563.009 174.17 565.059 175.97C567.109 177.77 570.199 178.76 572.689 177.61C573.446 177.078 574.336 176.766 575.259 176.71C575.926 176.848 576.518 177.23 576.919 177.78C580.449 181.68 579.299 188.16 575.859 192.15C572.419 196.14 567.359 198.15 562.469 200.15C560.719 200.84 558.859 201.55 556.999 201.22C553.609 200.59 551.809 196.9 550.819 193.59C548.609 186.27 547.539 178.31 543.009 172.14C541.559 170.2 539.749 168.42 538.879 166.14C537.949 163.68 538.169 160.809 536.689 158.649C535.209 156.489 531.909 155.07 531.689 152.34C531.549 150.43 533.139 148.73 534.889 147.91C536.639 147.09 538.609 146.82 540.409 146.08C541.119 145.78 541.909 145.26 541.939 144.5C541.939 143.35 540.359 142.89 539.939 141.82C539.519 140.75 540.729 139.5 541.249 138.32C542.369 135.64 539.579 132.94 536.869 131.84C534.159 130.74 530.939 129.96 529.689 127.33C529.228 126.073 528.933 124.762 528.809 123.43C528.179 120.12 525.749 116.92 522.419 116.37C519.089 115.82 515.339 118.81 515.879 122.14C516.209 123.97 517.579 125.39 518.319 127.14C519.059 128.89 518.859 131.35 517.109 131.89C514.239 132.77 511.479 127.52 509.109 129.32C510.109 132.69 511.049 136.05 512.029 139.44C508.259 141.35 503.749 137.88 502.139 133.94C500.529 130 500.469 125.55 498.559 121.78C496.649 118.01 491.479 115.17 488.199 117.85C488.039 122.71 494.459 124.68 497.299 128.61C499.349 131.46 499.049 136.08 496.019 137.88C492.989 139.68 488.229 136.539 489.379 133.229C489.789 132.079 490.739 131.129 490.849 129.899C490.959 128.369 489.679 127.14 488.499 126.15C486.669 124.6 484.839 123.07 483.009 121.54C481.889 120.46 480.558 119.623 479.099 119.08C475.329 117.98 471.559 121.08 469.559 124.4C467.559 127.72 466.449 131.76 463.689 134.57C459.689 138.67 452.209 138.92 448.489 134.63C444.769 130.34 446.659 122.3 452.149 120.74C454.229 120.17 456.849 120.22 457.949 118.39C459.859 115.14 454.389 110.99 456.279 107.71C457.729 105.19 461.549 106.34 464.339 105.49C467.129 104.64 468.659 101.86 470.339 99.4895C472.019 97.1195 474.499 94.7095 477.339 95.3395C477.119 93.6695 476.899 91.8695 477.639 90.3395C478.379 88.8095 480.449 87.8295 481.819 88.8095C480.429 91.1095 482.089 94.3095 484.529 95.4495C486.969 96.5895 489.799 96.3295 492.529 96.0295C495.259 95.7295 498.529 94.7195 498.789 92.0295C498.869 91.1495 498.539 90.2195 498.869 89.3995C500.039 86.2095 505.949 90.6095 508.219 88.0395C509.529 86.6995 508.079 84.3195 506.219 83.8795C504.359 83.4395 502.529 84.0995 500.669 84.1595C498.809 84.2195 496.539 83.2595 496.459 81.3995C496.379 79.5395 498.459 78.2495 498.649 76.3995C498.999 73.3395 493.809 72.5495 491.979 75.0295C490.149 77.5095 490.799 80.9395 491.349 83.9695C491.899 86.9995 492.199 90.5795 489.959 92.7195C488.959 94.1595 486.509 93.3995 485.689 91.8695C484.869 90.3395 485.039 88.4795 484.899 86.7595C484.759 85.0395 483.999 83.0395 482.299 82.5795C481.129 82.2495 479.869 82.8195 478.669 82.9895C473.909 83.5595 470.609 77.4095 472.109 72.8795C473.609 68.3495 477.899 65.3895 482.109 63.0595C485.169 61.3695 488.959 59.7795 491.999 61.5095C493.419 62.2995 494.399 63.6595 495.799 64.5095C498.199 65.9395 501.179 65.4195 503.939 65.5095C508.317 65.6333 512.517 67.2653 515.829 70.1295C517.059 71.2495 518.209 73.1295 517.249 74.4495C516.289 75.7695 513.249 76.1695 513.749 77.8395C514.555 78.0558 515.398 78.0995 516.222 77.9677C517.046 77.836 517.834 77.5317 518.532 77.0749C519.23 76.618 519.825 76.0188 520.276 75.3166C520.727 74.6143 521.024 73.8247 521.149 72.9995C521.928 73.3647 522.6 73.9247 523.099 74.6255C523.599 75.3262 523.909 76.1439 523.999 76.9995C527.469 73.4695 534.139 73.9995 536.999 78.0595C537.759 79.1295 538.309 80.4195 539.399 81.1495C540.489 81.8795 542.399 81.5095 542.549 80.2195C542.571 79.8078 542.496 79.3966 542.329 79.0195C541.669 77.1595 540.989 75.3295 540.329 73.4995C542.879 72.1295 545.879 74.2695 547.599 76.5595C553.999 85.1195 558.599 79.9795 567.599 81.3695C573.699 82.2995 576.379 86.2095 579.819 90.9395C590.369 105.48 604.309 117.39 613.899 132.59C614.899 134.17 615.839 135.789 616.709 137.429C617.529 139.619 618.309 141.819 619.029 144.039C619.749 146.259 620.449 148.49 621.089 150.74C622.794 156.305 624.177 161.965 625.229 167.69C625.229 167.69 626.429 177.46 626.719 180.69C626.939 183.13 627.149 185.56 627.289 188.02C627.429 190.48 627.499 192.94 627.509 195.42L627.189 209.16Z" fill="#EBEBEB"/>
<path d="M203.589 167.619C204.259 162.789 197.439 158.809 192.309 158.399C189.869 158.199 187.309 158.579 185.019 157.769C180.019 156.019 178.019 149.539 173.109 147.479C169.449 145.929 165.239 147.309 161.689 149.089C158.139 150.869 154.689 153.089 150.689 153.379C147.239 153.599 143.499 152.319 140.479 153.999C138.239 155.259 137.059 157.849 134.989 159.379C132.919 160.909 130.319 161.189 127.799 161.319C125.279 161.449 122.689 161.489 120.399 162.529C118.109 163.569 116.219 165.999 116.689 168.469L203.589 167.619Z" fill="#F5F5F5"/>
<path d="M305.92 70.7298C306.58 65.8998 299.76 61.9198 294.64 61.5098C292.2 61.3098 289.64 61.6898 287.34 60.8798C282.34 59.1298 280.34 52.6498 275.43 50.5898C271.77 49.0498 267.56 50.4198 264.02 52.1998C260.48 53.9798 256.96 56.1998 253.02 56.4898C249.58 56.7098 245.83 55.4298 242.82 57.1098C240.57 58.3698 239.39 60.9598 237.32 62.4898C235.25 64.0198 232.65 64.2998 230.14 64.4298C227.63 64.5598 225.02 64.5998 222.73 65.6398C220.44 66.6798 218.55 69.1098 219.03 71.5798L305.92 70.7298Z" fill="#EBEBEB"/>
<path d="M788.189 145.36C789.259 137.6 778.309 131.21 770.069 130.55C766.149 130.23 762.069 130.83 758.349 129.55C750.289 126.75 747.069 116.34 739.209 113.02C733.329 110.54 726.559 112.75 720.859 115.61C715.159 118.47 709.529 122.09 703.169 122.5C697.629 122.85 691.609 120.8 686.769 123.5C683.159 125.5 681.269 129.67 677.939 132.13C674.609 134.59 670.429 135.04 666.389 135.26C662.349 135.48 658.169 135.52 654.489 137.2C650.809 138.88 647.769 142.78 648.489 146.75L788.189 145.36Z" fill="#F5F5F5"/>
<path d="M684.71 70.5093C684.771 67.8029 684 65.1431 682.5 62.8893C681.116 60.6245 679.056 58.8511 676.61 57.8193C674.513 56.9876 672.199 56.872 670.029 57.4904C667.859 58.1089 665.954 59.4268 664.61 61.2393C664.07 59.8247 663.223 58.5475 662.13 57.4993C661.11 56.5369 659.905 55.791 658.588 55.3064C657.272 54.8218 655.871 54.6084 654.47 54.6793C651.824 54.9001 649.315 55.9499 647.3 57.6793C645.169 59.3478 643.601 61.6308 642.81 64.2193C641.863 67.5364 642.006 71.0701 643.22 74.2993C644.699 77.6141 646.953 80.5256 649.79 82.7893C654.36 86.6493 660.4 91.5293 660.4 91.5293C660.4 91.5293 666.7 88.2193 672.24 85.9893C675.642 84.7264 678.694 82.6693 681.14 79.9893C683.32 77.2964 684.573 73.9714 684.71 70.5093Z" fill="#EBEBEB"/>
<path d="M232.849 108.569C231.709 106.83 230.066 105.48 228.139 104.699C226.279 103.869 224.205 103.641 222.209 104.049C221.17 104.302 220.192 104.76 219.333 105.397C218.474 106.035 217.752 106.838 217.209 107.759C216.572 108.871 216.209 110.119 216.149 111.399C214.778 110.451 213.14 109.964 211.473 110.009C209.806 110.054 208.197 110.628 206.879 111.649C205.294 112.931 204.153 114.681 203.619 116.649C202.994 118.634 202.994 120.764 203.619 122.749C204.459 125.26 206.082 127.437 208.249 128.959C210.627 130.414 213.319 131.278 216.099 131.479C220.659 131.949 226.609 132.419 226.609 132.419C226.609 132.419 229.169 127.589 231.709 123.769C233.305 121.491 234.334 118.865 234.709 116.109C234.915 113.461 234.263 110.817 232.849 108.569Z" fill="#EBEBEB"/>
<path d="M794.16 474.61C794.16 474.75 640.06 474.87 450.02 474.87C259.98 474.87 105.84 474.75 105.84 474.61C105.84 474.47 259.91 474.35 450.02 474.35C640.13 474.35 794.16 474.46 794.16 474.61Z" fill="#263238"/>
<path d="M470.812 119.206C479.296 117.632 486.872 112.911 492.022 105.987C497.172 99.0637 499.515 90.4498 498.583 81.8715C497.65 73.2932 493.51 65.3843 486.992 59.7294C480.475 54.0746 472.061 51.0916 463.437 51.3783C454.813 51.6649 446.615 55.1999 440.488 61.275C434.36 67.3501 430.754 75.5165 430.393 84.1378C430.032 92.7587 432.942 101.199 438.54 107.765C444.139 114.331 452.012 118.539 460.582 119.546L466.472 128.476L470.812 119.206Z" fill="white"/>
<path d="M470.812 119.207C470.812 119.207 470.732 119.437 470.552 119.847C470.372 120.257 470.092 120.847 469.752 121.657C469.022 123.257 467.962 125.567 466.612 128.547L466.502 128.797L466.342 128.567L460.362 119.657L460.512 119.757C454.622 119.094 449.006 116.912 444.212 113.427C442.83 112.424 441.523 111.321 440.302 110.127C439.046 108.856 437.88 107.5 436.812 106.067C434.513 103.019 432.754 99.5997 431.612 95.9567C428.905 87.4095 429.627 78.1446 433.626 70.1203C437.625 62.0959 444.588 55.941 453.042 52.9566C460.343 50.372 468.305 50.3473 475.622 52.8866C479.087 53.9995 482.34 55.69 485.242 57.8866C488.049 59.9659 490.513 62.4731 492.542 65.3166L493.302 66.3166C493.532 66.6766 493.742 67.0466 493.952 67.4066C494.372 68.1366 494.832 68.8366 495.212 69.5666C496.667 72.4493 497.742 75.508 498.412 78.6666C498.552 79.4366 498.652 80.2166 498.762 80.9766L498.932 82.1066L498.982 83.2466C499.169 86.1632 498.998 89.0917 498.472 91.9667C497.935 94.6037 497.106 97.1727 496.002 99.6267C494.08 103.872 491.341 107.698 487.942 110.887C485.368 113.245 482.447 115.194 479.282 116.667C477.288 117.597 475.204 118.321 473.062 118.827C472.332 118.997 471.772 119.117 471.402 119.167C471.207 119.206 471.01 119.233 470.812 119.247C470.991 119.182 471.175 119.132 471.362 119.097C471.742 119.017 472.312 118.877 473.032 118.687C475.141 118.117 477.193 117.354 479.162 116.407C482.272 114.905 485.137 112.943 487.662 110.587C492.951 105.579 496.536 99.0387 497.912 91.8867C498.414 89.056 498.572 86.1751 498.382 83.3066L498.362 82.2166L498.192 81.1066C498.072 80.3566 497.982 79.5966 497.842 78.8466C497.511 77.321 497.083 75.818 496.562 74.3466C496.022 72.8174 495.377 71.3272 494.632 69.8866C494.252 69.1666 493.802 68.4766 493.392 67.7666C493.172 67.4166 492.972 67.0466 492.742 66.7066L492.002 65.7066C490.001 62.9252 487.578 60.4724 484.822 58.4366C481.984 56.2487 478.795 54.5581 475.392 53.4366C468.231 51.0322 460.467 51.1203 453.362 53.6866C445.091 56.6127 438.277 62.6304 434.35 70.4753C430.422 78.3203 429.689 87.3819 432.302 95.7567C433.409 99.3397 435.124 102.706 437.372 105.707C438.413 107.119 439.552 108.456 440.782 109.707C441.975 110.887 443.252 111.98 444.602 112.977C449.304 116.428 454.813 118.615 460.602 119.327H460.702L460.762 119.407C463.022 122.887 464.992 125.917 466.602 128.407H466.332L469.642 121.527L470.502 119.777C470.593 119.581 470.697 119.39 470.812 119.207Z" fill="#263238"/>
<path d="M478.132 81.8871C477.964 80.1611 477.265 78.5297 476.132 77.2171C475.084 75.8838 473.642 74.9146 472.012 74.4471C470.623 74.0794 469.151 74.1811 467.825 74.7363C466.5 75.2915 465.395 76.2691 464.682 77.5171C464.039 76.2893 463.022 75.298 461.777 74.6868C460.533 74.0755 459.127 73.876 457.762 74.1171C456.099 74.4526 454.585 75.3027 453.432 76.5471C452.202 77.7638 451.381 79.3329 451.082 81.0371C450.727 83.2095 451.077 85.4386 452.082 87.3971C453.271 89.3855 454.916 91.0617 456.882 92.2867C460.072 94.3867 464.272 97.0267 464.272 97.0267C464.272 97.0267 468.022 94.4567 471.362 92.6167C473.426 91.5607 475.205 90.0241 476.552 88.1371C477.739 86.2785 478.293 84.0863 478.132 81.8871Z" fill="#DB4040"/>
<path d="M402.111 138C402.111 138 402.111 138.09 402.111 138.25C402.111 138.41 402.061 138.65 401.981 138.96C401.748 139.856 401.369 140.707 400.861 141.48C400.052 142.706 398.975 143.732 397.711 144.48C396.038 145.487 394.083 145.922 392.141 145.72L392.391 145.44C392.717 146.68 392.541 147.999 391.901 149.11C391.23 150.274 390.395 151.335 389.421 152.26C388.943 152.798 388.41 153.284 387.831 153.71C387.175 154.103 386.434 154.33 385.671 154.37C384.875 154.437 384.075 154.308 383.341 153.994C382.607 153.681 381.962 153.191 381.461 152.57L381.961 152.46C381.697 153.84 381.146 155.149 380.343 156.301C379.54 157.454 378.504 158.425 377.301 159.15C375.977 160.015 374.408 160.426 372.831 160.32C371.349 160.168 369.905 159.762 368.561 159.12L368.931 158.98C368.141 160.558 366.968 161.912 365.521 162.92C364.856 163.428 364.087 163.782 363.269 163.955C362.45 164.128 361.604 164.116 360.791 163.92C359.404 163.534 358.161 162.75 357.214 161.667C356.267 160.583 355.657 159.246 355.461 157.82L355.761 157.98C354.307 158.645 352.667 158.787 351.121 158.38C349.968 158.098 348.899 157.546 348.001 156.77C347.444 156.275 346.974 155.69 346.611 155.04C346.475 154.82 346.374 154.58 346.311 154.33C346.777 155.192 347.401 155.959 348.151 156.59C349.04 157.312 350.083 157.818 351.201 158.07C352.667 158.421 354.209 158.259 355.571 157.61L355.831 157.48V157.77C356.039 159.099 356.627 160.34 357.522 161.343C358.418 162.347 359.584 163.072 360.881 163.43C361.621 163.601 362.391 163.605 363.133 163.441C363.875 163.276 364.572 162.948 365.171 162.48C366.534 161.518 367.637 160.233 368.381 158.74L368.501 158.49L368.741 158.6C370.031 159.206 371.413 159.595 372.831 159.75C374.29 159.839 375.739 159.453 376.961 158.65C378.093 157.963 379.069 157.049 379.828 155.964C380.588 154.879 381.113 153.649 381.371 152.35L381.491 151.72L381.871 152.24C382.317 152.785 382.888 153.213 383.536 153.488C384.184 153.763 384.889 153.877 385.591 153.82C386.267 153.788 386.926 153.593 387.511 153.25C388.055 152.852 388.558 152.4 389.011 151.9C389.952 151.016 390.766 150.007 391.431 148.9C392.023 147.9 392.199 146.708 391.921 145.58L391.831 145.25L392.161 145.3C394.01 145.515 395.88 145.125 397.491 144.19C398.727 143.494 399.793 142.53 400.611 141.37C401.317 140.35 401.825 139.207 402.111 138Z" fill="#455A64"/>
<path d="M607.27 276.811C607.324 276.982 607.351 277.161 607.35 277.341C607.35 277.741 607.42 278.241 607.47 278.851C607.58 280.161 607.69 282.071 607.8 284.421C608.03 289.121 608.21 295.631 608.32 302.811C608.43 309.991 608.54 316.491 608.68 321.201C608.75 323.491 608.8 325.381 608.84 326.771C608.84 327.381 608.84 327.881 608.84 328.281C608.867 328.456 608.867 328.635 608.84 328.811C608.799 328.64 608.776 328.466 608.77 328.291C608.77 327.891 608.69 327.391 608.64 326.781C608.54 325.461 608.43 323.561 608.31 321.211C608.08 316.511 607.9 310.001 607.8 302.821C607.7 295.641 607.57 289.141 607.43 284.431C607.37 282.141 607.31 280.251 607.27 278.861C607.27 278.251 607.27 277.751 607.27 277.351C607.243 277.172 607.243 276.99 607.27 276.811Z" fill="#263238"/>
<path d="M640.38 228.76C640.85 229.44 642.87 228.89 645.26 229.01C647.65 229.13 649.63 229.72 650.14 229.06C650.36 228.74 650.08 228.06 649.24 227.4C648.102 226.584 646.747 226.124 645.348 226.08C643.948 226.035 642.567 226.408 641.38 227.15C640.5 227.77 640.18 228.43 640.38 228.76Z" fill="#263238"/>
<path d="M698.511 263.18C698.571 263.18 698.721 263.36 699.081 263.55C699.33 263.683 699.603 263.765 699.885 263.793C700.166 263.82 700.45 263.792 700.721 263.71C702.091 263.32 703.381 261.28 703.611 259.01C703.725 257.928 703.595 256.834 703.231 255.81C703.14 255.407 702.954 255.032 702.688 254.717C702.421 254.402 702.083 254.156 701.701 254C701.451 253.916 701.181 253.921 700.935 254.014C700.689 254.107 700.482 254.282 700.351 254.51C700.161 254.85 700.221 255.11 700.151 255.13C700.081 255.15 699.891 254.89 700.031 254.38C700.13 254.072 700.326 253.806 700.591 253.62C700.96 253.388 701.403 253.305 701.831 253.39C702.343 253.533 702.81 253.805 703.188 254.18C703.566 254.554 703.842 255.019 703.991 255.53C704.447 256.664 704.619 257.893 704.491 259.11C704.221 261.65 702.731 263.94 700.861 264.33C700.512 264.404 700.151 264.399 699.804 264.314C699.458 264.229 699.135 264.067 698.861 263.84C698.511 263.49 698.461 263.2 698.511 263.18Z" fill="#5B342F"/>
<path fill-rule="evenodd" clip-rule="evenodd" d="M166.181 209.584C173.455 213.971 180.603 216.091 183.958 215.226C192.371 213.056 193.144 182.257 186.635 170.115C180.125 157.974 146.661 152.681 144.974 176.738C144.389 185.087 147.892 192.539 153.068 198.619L143.787 241.909H170.747L166.181 209.584Z" fill="#B28B67"/>
<path fill-rule="evenodd" clip-rule="evenodd" d="M175.986 156.891C172.302 155.767 166.954 155.386 164.705 155.644C165.984 152.576 166.492 149.157 166.078 145.829C165.676 142.595 164.232 139.841 162.896 136.956C162.281 135.625 161.583 134.303 160.543 133.285C159.483 132.249 158.142 131.565 156.735 131.238C155.296 130.904 153.791 130.932 152.349 131.235C151.711 131.369 151.139 131.661 150.514 131.823C149.873 131.989 149.562 131.588 149.098 131.185C147.977 130.214 146.335 129.734 144.917 129.563C143.327 129.37 141.677 129.61 140.16 130.133C138.684 130.643 137.266 131.47 136.199 132.674C135.724 133.211 135.292 133.821 135.012 134.495C134.897 134.771 134.878 134.935 134.602 135.037C134.347 135.13 134.049 135.133 133.786 135.222C131.24 136.085 129.064 138.053 127.879 140.58C127.188 142.054 126.86 144.65 126.95 147.559C127.04 150.468 129.665 158.058 132.12 160.827C134.311 163.298 137.532 164.929 140.641 165.643C138.578 168.003 137.204 170.952 136.188 173.952C135.085 177.21 134.402 180.595 134.15 184.045C133.911 187.322 133.889 190.788 134.656 193.995C135.375 196.994 136.91 199.455 139.475 201.016C140.649 201.731 141.913 202.268 143.184 202.759C144.436 203.243 145.693 203.713 147.005 203.985C149.488 204.498 152.35 204.41 154.262 202.432C154.952 201.719 155.71 200.823 156.213 199.952C156.394 199.639 156.503 199.434 156.283 199.128C156.02 198.761 155.594 198.48 155.256 198.193C153.328 196.557 152.134 194.374 151.833 191.778C151.528 189.145 152.235 185.747 154.793 184.598C157.951 183.179 161.428 184.807 164.235 186.325C165.428 182.112 167.877 178.319 171.717 176.386C175.965 174.248 180.84 173.998 185.206 172.164C186.344 171.686 187.502 171.143 188.34 170.169C188.69 169.762 189.101 169.234 189.24 168.696C189.424 167.989 188.968 167.396 188.616 166.844C186.749 163.921 179.67 158.016 175.986 156.891Z" fill="black"/>
<path fill-rule="evenodd" clip-rule="evenodd" d="M141.54 531.932C189.31 531.932 228.036 494.94 228.036 449.309C228.036 403.678 189.31 366.686 141.54 366.686C93.7689 366.686 55.043 403.678 55.043 449.309C55.043 494.94 93.7689 531.932 141.54 531.932Z" fill="#C5CFD6"/>
<path fill-rule="evenodd" clip-rule="evenodd" d="M276.015 444.902C280.193 459.548 290.602 487.306 304.995 519.184L318.672 515.191C306.707 441.837 296.749 393.272 291.045 378.491C287.276 368.726 258.764 369.87 262.044 389.52C263.419 397.76 268.861 419.826 276.015 444.902ZM219.799 392.947C197.495 397.571 151.25 413.918 138.044 419.142C129.745 422.424 135.095 433.558 142.175 432.584C143.375 432.419 147.617 431.944 153.946 431.235C174.276 428.959 216.142 424.272 247.896 419.699C264.615 417.291 255.621 385.951 238.261 389.268C232.421 390.383 226.209 391.618 219.799 392.947Z" fill="#B28B67"/>
<path fill-rule="evenodd" clip-rule="evenodd" d="M291.919 370.214C289.639 362.767 185.981 336.335 185.981 336.335H177.486V344.256L248.916 380.644C248.821 381.818 248.879 383.059 249.109 384.368C248.594 411.343 260.131 431.495 271.553 451.447C279.023 464.494 286.443 477.456 290.412 492.185L316.655 488.267C315.891 486.31 314.682 477.489 313.029 465.428C308.862 435.016 301.872 384.007 292.066 370.512C292.032 370.465 291.997 370.418 291.962 370.371C291.949 370.319 291.935 370.266 291.919 370.214Z" fill="#263238"/>
<path fill-rule="evenodd" clip-rule="evenodd" d="M183.422 402.254C176.887 400.945 170.868 399.776 165.718 398.872C132.452 393.034 122.752 375.214 128.487 336.335H189.779C199.791 339.213 251.823 361.049 278.82 372.662C296.687 380.349 291.055 408.059 280.936 415.27C280.881 415.713 280.699 416.013 280.375 416.148C242.012 432.059 209.298 430.872 188.291 430.109C179.492 429.79 172.747 429.545 168.501 430.662L161.847 409.66L183.422 402.254Z" fill="#2D3C43"/>
<path fill-rule="evenodd" clip-rule="evenodd" d="M145.043 417.783C145.004 416.613 144.018 415.678 142.853 415.797C140.471 416.041 136.744 416.543 134.965 417.411C132.234 418.744 127.439 422.212 127.439 422.212C128.984 425.383 155.213 479.198 155.213 479.198C155.213 479.198 163.634 477.838 161.886 472.766C160.139 467.695 159.068 464.299 159.068 464.299L157.954 431.926C157.934 431.363 157.454 430.927 156.892 430.962L151.808 431.282C151.808 431.282 147.583 427.86 146.233 425.09C145.377 423.334 145.118 419.993 145.043 417.783Z" fill="black"/>
<path fill-rule="evenodd" clip-rule="evenodd" d="M301.315 511.909C300.245 511.431 298.971 511.909 298.568 513.008C297.743 515.258 296.561 518.83 296.561 520.81C296.561 523.851 297.573 529.684 297.573 529.684C301.098 529.684 360.931 529.684 360.931 529.684C360.931 529.684 363.401 521.514 358.08 520.862C352.759 520.211 349.239 519.686 349.239 519.686L319.676 506.497C319.161 506.267 318.558 506.508 318.344 507.029L316.402 511.742C316.402 511.742 311.476 514.042 308.397 514.042C306.445 514.042 303.332 512.811 301.315 511.909Z" fill="black"/>
<path fill-rule="evenodd" clip-rule="evenodd" d="M272.611 347.166L236.778 320.835L228.857 340.429L264.341 355.154C274.376 366.95 279.988 371.868 281.176 369.907C282.177 368.253 281.394 366.705 280.673 365.279C280.111 364.169 279.587 363.132 279.973 362.177C280.854 359.997 287.596 360.227 293.983 360.718C300.371 361.21 298.51 358.365 296.969 356.961C290.449 353.055 282.329 349.79 272.611 347.166ZM84.6979 393.562C87.9898 386.879 99.2002 321.744 99.2002 321.744L122.675 321.836C122.675 321.836 100.933 392.072 99.2002 396.369C96.9491 401.952 100.773 410.063 103.366 415.563C103.767 416.414 104.138 417.202 104.454 417.909C100.856 419.52 99.1277 417.573 97.3057 415.52C95.2479 413.201 93.0703 410.748 87.9443 413.134C85.9639 414.056 84.0899 415.146 82.259 416.211C75.9347 419.89 70.1248 423.27 62.2213 418.39C60.9683 417.616 59.5952 414.703 62.9127 412.426C71.1779 406.755 83.0886 396.829 84.6979 393.562Z" fill="#B28B67"/>
<path fill-rule="evenodd" clip-rule="evenodd" d="M165.91 223.172L175.624 221.505C211.664 252.66 226.467 312.514 270.644 344.22L260.011 357.41C183.373 347.914 164.377 274.907 165.91 223.172Z" fill="#2B60A5"/>
<path fill-rule="evenodd" clip-rule="evenodd" d="M123.566 345.328C123.566 345.328 181.988 345.328 209.514 345.328C213.442 345.328 212.702 339.653 212.134 336.79C205.582 303.74 180.004 268.114 180.004 221.069L155.213 217.178C134.707 250.181 127.616 290.813 123.566 345.328Z" fill="#DDE3E9"/>
<path fill-rule="evenodd" clip-rule="evenodd" d="M113.903 368.935C110.04 378.218 106.253 386.319 102.683 392.541H84.2507C82.2676 328.375 106.544 279.001 126.86 249.23C122.35 248.908 118.278 247.019 115.704 242.371C106.643 226.01 109.915 217.001 119.599 214.04C124.924 212.412 129.932 213.523 135.927 214.854C140.832 215.942 146.399 217.178 153.34 217.178C153.342 217.178 153.345 217.178 153.347 217.178C154.02 217.178 154.632 217.223 155.188 217.31L163.414 217.779C163.414 217.779 196.815 331.058 181.837 368.935H113.903Z" fill="#3E89EC"/>
<path fill-rule="evenodd" clip-rule="evenodd" d="M113.902 368.935C118.971 356.754 124.168 342.536 129.169 327.853C131.031 344.023 134.131 360.264 139.293 368.935H113.902Z" fill="black" fill-opacity="0.1"/>
<path fill-rule="evenodd" clip-rule="evenodd" d="M698.823 136.65C691.538 141.041 684.38 143.162 681.02 142.296C672.594 140.125 671.82 109.302 678.339 97.1507C684.858 84.9994 718.372 79.7031 720.061 103.779C720.647 112.134 717.139 119.592 711.955 125.676L721.25 169H694.25L698.823 136.65Z" fill="#B28B67"/>
<path fill-rule="evenodd" clip-rule="evenodd" d="M684.423 89.1379C685.042 88.7688 686.335 87.9902 686.991 87.708C687.146 87.6401 688.232 86.8653 688.261 86.8751C689.084 87.1525 691.465 88.1768 691.669 89.0618C691.701 89.1289 691.732 89.1918 691.762 89.2468C692.1 89.8602 692.409 90.4888 692.705 91.1251C693.353 92.5218 693.912 93.9816 694.447 95.4299C695.487 98.2505 696.391 101.137 697.223 104.03C698.069 106.975 698.787 109.954 699.591 112.911C700.748 117.166 702.229 121.317 703.378 125.57C704.112 128.286 704.52 131.034 704.327 133.829C704.326 133.863 704.324 133.896 704.321 133.93C704.32 133.944 704.319 133.958 704.317 133.972C704.285 134.401 704.238 134.832 704.176 135.264C704.121 135.634 704.066 136.004 704.008 136.375C702.959 134.282 702.157 131.976 701.307 129.787C701.224 129.573 701.144 129.357 701.067 129.14C700.793 128.696 700.513 128.256 700.23 127.817C698.447 125.048 696.658 122.29 694.948 119.471C691.873 114.401 688.827 109.224 685.181 104.569C684.105 103.194 683.003 101.841 681.94 100.455C681.335 99.6659 680.746 98.864 680.176 98.0478C679.769 97.4642 677.997 95.4299 678.639 94.2077C678.967 93.5823 682.819 90.0956 684.423 89.1379Z" fill="#2C2C2C"/>
<path fill-rule="evenodd" clip-rule="evenodd" d="M686.796 87.8103C686.195 88.0124 686.487 86.7609 687.07 86.3205C689.768 84.2801 700.086 83.5397 709.065 85.4036C715.079 86.6522 722.075 89.7599 726.879 93.7551C731.21 97.3568 734.188 103.131 735.722 108.709C737.332 114.566 737.576 120.673 736.679 126.679C736.482 127.999 736.058 129.256 735.822 130.547C735.557 132.002 735.42 133.402 734.947 134.817C734.657 135.683 734.164 136.532 733.916 137.403C733.634 138.397 733.806 139.317 734.012 140.328C734.348 141.976 734.764 143.62 735.356 145.194C736.244 147.557 737.322 149.771 737.998 152.223C738.897 155.487 742.659 166.106 739.91 169H687.576C688.894 165.406 692.85 161.175 693.651 157.327C694.122 155.06 694.347 150.11 694.396 149.93C695.575 141.8 697.878 137.918 699.32 136.509C700.763 135.1 702.683 134.667 702.782 133.445C703.192 128.39 701.182 123.547 699.708 118.83C697.951 113.208 696.664 107.446 694.853 101.843C694.051 99.3613 689.919 86.7609 686.796 87.8103Z" fill="#8991DC"/>
<path fill-rule="evenodd" clip-rule="evenodd" d="M707.119 111.785C707.543 103.229 707.119 99.8867 705.145 93.625H706.362C708.286 96.11 709.895 103.711 708.087 111.785H707.119ZM730.967 111.382L730.967 111.382L730.967 111.38C731.179 110.861 731.396 110.33 731.621 109.785L732.395 110.157C729.954 119.084 726.985 125.976 716.79 131.754L715.997 131.199C725.639 124.419 727.706 119.36 730.967 111.382ZM716.511 100.704C716.409 101.478 716.311 102.232 716.215 102.969C714.75 114.279 713.821 121.452 705.651 134.46L706.577 134.743C715.532 122.679 716.952 112.833 717.375 100.773L716.511 100.704ZM725.331 137.365L726.123 138.328C722.155 139.159 719.458 142.077 716.365 145.422C713.093 148.961 709.379 152.979 703.251 155.508L702.113 154.818C708.802 151.341 711.913 147.884 714.63 144.866C717.443 141.742 719.833 139.088 725.331 137.365Z" fill="black" fill-opacity="0.2"/>
<path fill-rule="evenodd" clip-rule="evenodd" d="M739.213 264L696.941 402.467L676.463 520.223H660.407L682.045 264H739.213Z" fill="#997659"/>
<path fill-rule="evenodd" clip-rule="evenodd" d="M754.336 264C751.464 340.026 754.843 379.241 755.486 386.148C756.129 393.055 764.928 437.842 785.76 522.542L768.651 516.655C735.729 438.973 724.51 398.6 720.734 388.399C716.958 378.199 706.929 336.732 690.647 264H754.336Z" fill="#B28B67"/>
<path fill-rule="evenodd" clip-rule="evenodd" d="M782.762 515.203C783.832 514.725 785.107 515.202 785.51 516.303C786.335 518.556 787.518 522.132 787.518 524.115C787.518 527.159 786.505 533 786.505 533C782.98 533 723.147 533 723.147 533C723.147 533 720.677 524.819 725.998 524.167C731.319 523.515 734.839 522.989 734.839 522.989L764.402 509.784C764.917 509.554 765.52 509.795 765.735 510.316L767.676 515.035C767.676 515.035 772.602 517.338 775.681 517.338C777.633 517.338 780.744 516.106 782.762 515.203Z" fill="black"/>
<path fill-rule="evenodd" clip-rule="evenodd" d="M677.168 515.203C678.238 514.725 679.513 515.202 679.916 516.303C680.741 518.556 681.924 522.132 681.924 524.115C681.924 527.159 680.911 533 680.911 533C677.387 533 617.553 533 617.553 533C617.553 533 615.084 524.819 620.405 524.167C625.726 523.515 629.245 522.989 629.245 522.989L658.808 509.784C659.323 509.554 659.926 509.795 660.141 510.316L662.082 515.035C662.082 515.035 667.008 517.338 670.088 517.338C672.039 517.338 675.151 516.106 677.168 515.203Z" fill="black"/>
<path fill-rule="evenodd" clip-rule="evenodd" d="M744.83 264L726.857 334.547H671.959L680.145 264H744.83Z" fill="#69A1AC"/>
<path fill-rule="evenodd" clip-rule="evenodd" d="M754.941 264C763.811 290.642 758.311 334.547 758.311 334.547H702.29L686.885 264H754.941Z" fill="#89C5CC"/>
<path fill-rule="evenodd" clip-rule="evenodd" d="M816.068 299.484C811.874 293.331 783.605 210.535 783.605 210.535L759.223 214.055C759.223 214.055 799.76 300.272 802.076 304.282C805.085 309.491 802.42 318.048 800.614 323.851C800.334 324.748 800.075 325.58 799.861 326.323C803.653 327.415 805.096 325.248 806.618 322.963C808.336 320.383 810.154 317.652 815.57 319.299C817.662 319.935 819.672 320.752 821.636 321.55C828.42 324.308 834.651 326.841 841.811 320.912C842.946 319.972 843.903 316.899 840.296 315.109C831.311 310.651 818.119 302.491 816.068 299.484ZM605.952 295.205L633.192 260.038L646.218 276.669L616.115 300.594C609.705 314.69 605.658 320.96 603.974 319.404C602.554 318.092 602.881 316.39 603.183 314.822C603.417 313.601 603.636 312.46 603.001 311.65C601.552 309.8 595.126 311.879 589.111 314.113C583.097 316.347 584.105 313.102 585.201 311.329C590.402 305.78 597.319 300.405 605.952 295.205Z" fill="#B28B67"/>
<path fill-rule="evenodd" clip-rule="evenodd" d="M699.56 151.904L689.695 151.608C682.045 207.289 609.204 254.748 607.231 275.438C606.507 283.026 612.321 285.993 609.902 288.613L623.709 296.003C625.482 293.235 630.642 297.117 639.648 292.629C648.653 288.141 708.471 215.309 699.56 151.904Z" fill="#2B60A5"/>
<path fill-rule="evenodd" clip-rule="evenodd" d="M715.613 138.212C717.774 137.753 719.898 139.133 720.358 141.294L721.832 148.225C741.919 159.604 792.701 194.904 815.298 270.729C817.672 278.694 816.06 283.366 814.772 287.098C813.891 289.652 813.162 291.766 813.963 294.194L798.211 301.012C797.952 299.172 795.69 298.063 792.772 296.632C788.528 294.551 782.897 291.79 780.02 285.112C777.293 278.782 773.499 270.931 769.061 262.227C770.466 274.383 769.73 285.847 766.013 295.779C756.741 320.557 680.912 305.469 670.059 283.046C664.269 271.08 668.508 259.755 674.114 244.778C681.231 225.765 690.552 200.867 684.357 161.3L681.842 149.475C681.383 147.315 682.762 145.191 684.923 144.732L715.613 138.212Z" fill="#3E89EC"/>
<path fill-rule="evenodd" clip-rule="evenodd" d="M458.935 184.244C465.411 188.147 471.774 190.033 474.76 189.263C482.25 187.333 482.938 159.935 477.143 149.134C471.349 138.333 441.558 133.625 440.057 155.025C439.536 162.453 442.654 169.081 447.262 174.49L439 213H463L458.935 184.244Z" fill="#B28B67"/>
<path fill-rule="evenodd" clip-rule="evenodd" d="M460.135 157.389C462.211 154.298 464.204 151.94 466.797 150.571C477.348 150.738 478.583 148.846 478.583 142.471C476.879 141.252 470.866 139.198 464.132 138.621C460.697 137.638 456.627 137.823 452.707 139.462C447.868 140.835 443.77 143.792 441.96 149.328C435.412 160.629 440.382 172.393 447.08 176.411C448.863 174.299 450.419 172.252 451.807 170.292C450.692 169.203 450 167.682 450 166C450 162.686 452.686 160 456 160C456.243 160 456.484 160.015 456.72 160.043C456.869 164.186 457.482 178.203 459.094 183.072C460.995 188.812 472.083 190.221 475.951 190.221C479.291 190.221 479.178 187.058 479.096 184.791C479.084 184.464 479.073 184.157 479.073 183.879C479.073 183.3 478.32 183.302 477.469 183.303C476.364 183.306 475.094 183.308 475.094 182.04C475.094 180.658 477.004 179.598 478.713 178.649C479.779 178.057 480.767 177.509 481.165 176.953C482.418 175.198 482.841 172.831 480.949 172.831C479.916 172.831 478.497 173.427 476.791 174.144C474.215 175.227 470.982 176.585 467.426 176.585C461.55 176.585 460.152 157.626 460.135 157.389Z" fill="black"/>
<path fill-rule="evenodd" clip-rule="evenodd" d="M431 296L467.255 423.227L493.707 517H513L484.891 296H431Z" fill="#455A64"/>
<path fill-rule="evenodd" clip-rule="evenodd" d="M421.305 296C420.467 361.574 417.607 397.34 416.727 403.298C415.846 409.256 402.533 447.156 376.787 517H396.773C429.55 449.997 447.846 412.096 451.663 403.298C455.48 394.5 467.259 358.734 485.001 296H421.305Z" fill="#263238"/>
<path fill-rule="evenodd" clip-rule="evenodd" d="M375 535L376 514L397 514C411.936 524.5 436 531 436 531V535H398L385 533V535H375Z" fill="black"/>
<path fill-rule="evenodd" clip-rule="evenodd" d="M491 535L492 514L513 514C527.936 524.5 552 531 552 531V535H514L501 533V535H491Z" fill="black"/>
<path fill-rule="evenodd" clip-rule="evenodd" d="M547.679 302.635L515.781 279.211L508.729 296.642L540.317 309.741C549.25 320.235 554.246 324.61 555.303 322.865C556.195 321.394 555.498 320.017 554.856 318.748C554.356 317.76 553.889 316.838 554.233 315.989C555.017 314.049 561.018 314.254 566.705 314.691C572.391 315.128 570.734 312.598 569.363 311.348C563.558 307.874 556.33 304.97 547.679 302.635ZM380.397 343.908C383.328 337.963 393.307 280.02 393.307 280.02L414.205 280.102C414.205 280.102 394.85 342.583 393.307 346.406C391.303 351.372 394.707 358.587 397.015 363.48C397.373 364.237 397.703 364.938 397.984 365.567C394.781 367 393.243 365.268 391.621 363.442C389.789 361.379 387.85 359.196 383.287 361.319C381.524 362.14 379.856 363.109 378.226 364.057C372.596 367.329 367.424 370.336 360.388 365.994C359.273 365.306 358.051 362.715 361.004 360.69C368.362 355.644 378.965 346.815 380.397 343.908Z" fill="#B28B67"/>
<path fill-rule="evenodd" clip-rule="evenodd" d="M452.694 192.332L461.341 190.849C493.425 218.564 506.602 271.809 545.929 300.015L536.463 311.748C468.239 303.301 451.329 238.355 452.694 192.332Z" fill="#2B60A5"/>
<path fill-rule="evenodd" clip-rule="evenodd" d="M415 301C415 301 467.008 301 491.511 301C495.008 301 494.349 295.952 493.843 293.404C488.011 264.004 465.241 232.312 465.241 190.461L443.172 187C424.917 216.358 418.605 252.505 415 301Z" fill="#DDE3E9"/>
<path fill-rule="evenodd" clip-rule="evenodd" d="M406.397 322C402.958 330.259 399.586 337.465 396.409 343H380C378.235 285.919 399.845 241.997 417.931 215.513C413.916 215.226 410.291 213.546 408 209.411C399.933 194.856 402.847 186.842 411.467 184.208C416.207 182.76 420.666 183.749 426.002 184.932C430.369 185.9 435.325 186.999 441.504 187C441.506 187 441.508 187 441.51 187C442.109 187 442.654 187.04 443.148 187.117L450.472 187.535C450.472 187.535 480.205 288.305 466.872 322H406.397Z" fill="#3E89EC"/>
<path fill-rule="evenodd" clip-rule="evenodd" d="M406.396 322C410.908 311.164 415.535 298.517 419.987 285.455C421.644 299.839 424.404 314.287 429 322H406.396Z" fill="black" fill-opacity="0.1"/>
</svg>
