<svg width="750" height="500" viewBox="0 0 750 500" fill="none" xmlns="http://www.w3.org/2000/svg">
<g clip-path="url(#clip0_235_2260)">
<path d="M676 431.43C712.22 402.43 733.07 358.31 733.71 311.9C734.12 282.64 732.02 245.9 722.19 214.44C689.77 110.71 598.19 54.4399 531.19 42.4399C464.19 30.4399 395.19 52.4399 343.19 87.4399C291.19 122.44 296.19 116.44 207.19 103.44C118.19 90.4399 45.1901 128.44 21.1901 198.44C-2.80993 268.44 70.1901 308.11 78.1901 344.78C86.1901 381.45 72.1901 446.44 211.19 462.44C350.19 478.44 392.19 400.44 461.19 422.44C516.71 440.15 599.43 492.82 676 431.43Z" fill="#3E89EC"/>
<path opacity="0.7" d="M675.631 431.292C711.851 402.292 732.701 358.172 733.341 311.762C733.751 282.502 731.651 245.762 721.821 214.302C689.401 110.572 597.821 54.3025 530.821 42.3025C463.821 30.3025 394.821 52.3025 342.821 87.3025C290.821 122.302 295.821 116.302 206.821 103.302C117.821 90.3025 44.8209 128.302 20.8209 198.302C-3.17907 268.302 69.8209 307.972 77.8209 344.642C85.8209 381.312 71.8209 446.302 210.821 462.302C349.821 478.302 391.821 400.302 460.821 422.302C516.341 440.012 599.061 492.682 675.631 431.292Z" fill="white"/>
<path d="M120.14 78.06C118.73 76.6 116.28 75.25 112.03 75.14C102.48 74.91 105.03 81.67 102.48 83.3C99.9301 84.93 99.2201 82.37 96.6501 84C94.0801 85.63 95.2501 88.89 93.1601 89.36C91.0701 89.83 88.2701 87.26 85.7001 88.89C83.1301 90.52 83.1401 91.89 81.9701 91.89C80.8001 91.89 78.4801 90.96 77.0801 91.89C75.6801 92.82 74.0801 93.99 74.0801 93.99H99.0801" stroke="#263238" stroke-linecap="round" stroke-linejoin="round"/>
<path d="M122.769 82.2299L122.049 81.8999C121.937 81.029 121.644 80.191 121.189 79.4399" stroke="#263238" stroke-linecap="round" stroke-linejoin="round"/>
<path d="M102.27 94.0001H133C133 94.0001 133.7 91.9001 131.14 90.5001C128.58 89.1001 127.41 90.2701 126.48 89.1001C125.55 87.9301 128.33 85.5501 123.99 82.8701" stroke="#263238" stroke-linecap="round" stroke-linejoin="round"/>
<path d="M408.65 153.11C407.23 151.64 404.78 150.29 400.53 150.19C390.98 149.96 393.53 156.71 390.98 158.34C388.43 159.97 387.72 157.41 385.16 159.04C382.6 160.67 383.76 163.94 381.66 164.4C379.56 164.86 376.77 162.3 374.21 163.94C371.65 165.58 371.64 166.94 370.48 166.94C369.32 166.94 366.98 166.01 365.59 166.94C364.2 167.87 362.59 169.04 362.59 169.04H387.59" stroke="#263238" stroke-linecap="round" stroke-linejoin="round"/>
<path d="M411.279 157.28L410.549 156.95C410.439 156.079 410.146 155.24 409.689 154.49" stroke="#263238" stroke-linecap="round" stroke-linejoin="round"/>
<path d="M390.779 169.06H421.499C421.499 169.06 422.199 166.96 419.639 165.57C417.079 164.18 415.909 165.33 414.979 164.17C414.049 163.01 416.829 160.62 412.489 157.94" stroke="#263238" stroke-linecap="round" stroke-linejoin="round"/>
<path d="M612.259 49.45C609.719 46.81 605.259 44.38 597.639 44.19C580.419 43.77 584.999 56 580.419 58.89C575.839 61.78 574.539 57.21 569.919 60.15C565.299 63.09 567.399 68.97 563.629 69.81C559.859 70.65 554.809 66 550.189 69C545.569 72 545.569 74.46 543.469 74.46C541.369 74.46 537.169 72.78 534.649 74.46C532.129 76.14 529.189 78.24 529.189 78.24H574.279" stroke="#263238" stroke-linecap="round" stroke-linejoin="round"/>
<path d="M617 57C616.59 56.8 616.16 56.6 615.7 56.4C615.497 54.8317 614.969 53.323 614.15 51.97" stroke="#263238" stroke-linecap="round" stroke-linejoin="round"/>
<path d="M580.051 78.2102H635.431C635.431 78.2102 636.691 74.4302 632.071 71.9102C627.451 69.3902 625.361 71.4902 623.681 69.3902C622.181 67.5202 627.011 62.9902 619.191 58.1602" stroke="#263238" stroke-linecap="round" stroke-linejoin="round"/>
<path d="M278.129 94.06H339.049C339.049 94.06 341.129 87.83 333.509 83.68C325.889 79.53 322.439 82.99 319.669 79.53C316.899 76.07 327.289 67.07 306.529 58.08C306.529 58.08 305.139 38.7 276.769 38.01C264.529 37.71 258.989 41.28 256.029 45.82" stroke="#263238" stroke-linecap="round" stroke-linejoin="round"/>
<path d="M259.541 94.0601H269.681" stroke="#263238" stroke-linecap="round" stroke-linejoin="round"/>
<path d="M252.34 55.3801C251.47 58.3301 250.53 60.8801 248.4 62.2301C240.79 67.0701 238.72 59.4601 231.1 64.3101C223.48 69.1601 227 78.8401 220.73 80.2201C214.46 81.6001 206.19 74.0001 198.58 78.8401C190.97 83.6801 190.97 87.8401 187.51 87.8401C184.05 87.8401 177.13 85.0801 172.98 87.8401C168.83 90.6001 163.98 94.0701 163.98 94.0701H241.79" stroke="#263238" stroke-linecap="round" stroke-linejoin="round"/>
<path d="M658.359 266.99L694.03 194.95L704.74 200.25L702.19 160.44L668.99 182.55L679.7 187.85L644.02 259.89" stroke="#263238" stroke-linecap="round" stroke-linejoin="round"/>
<path d="M640.96 157.59L663.44 112.19L670.19 115.53L668.59 90.4399L647.66 104.37L654.41 107.71L631.93 153.12" stroke="#263238" stroke-linecap="round" stroke-linejoin="round"/>
<path d="M410.83 79.5002C415.654 68.4269 424.647 59.7007 435.861 55.2127C447.075 50.7247 459.605 50.8366 470.737 55.5241C481.869 60.2115 490.705 69.0969 495.33 80.2546C499.955 91.4122 499.998 103.943 495.447 115.132C490.897 126.32 482.121 135.265 471.021 140.027C459.921 144.789 447.391 144.985 436.148 140.573C424.904 136.16 415.853 127.494 410.954 116.454C406.056 105.413 405.706 92.8871 409.98 81.5902" stroke="#263238" stroke-miterlimit="10"/>
<path d="M410.309 79.3101C415.187 68.1041 424.285 59.2721 435.631 54.7285C446.976 50.1848 459.655 50.2958 470.92 55.0372C482.184 59.7787 491.126 68.7685 495.807 80.0581C500.488 91.3477 500.531 104.027 495.927 115.348C491.323 126.67 482.442 135.72 471.21 140.538C459.978 145.356 447.3 145.553 435.924 141.086C424.548 136.62 415.39 127.85 410.436 116.677C405.482 105.504 405.131 92.8297 409.459 81.4001" stroke="#263238" stroke-width="0.5" stroke-miterlimit="10"/>
<path d="M422.45 83.8901C426.146 75.7227 432.905 69.3351 441.267 66.1046C449.63 62.8742 458.927 63.0596 467.154 66.621C475.382 70.1825 481.88 76.8345 485.248 85.1429C488.615 93.4512 488.583 102.75 485.158 111.035C481.732 119.32 475.188 125.927 466.936 129.431C458.684 132.935 449.386 133.056 441.046 129.767C432.706 126.479 425.992 120.044 422.353 111.851C418.713 103.658 418.439 94.3632 421.59 85.9701" stroke="#263238" stroke-miterlimit="10"/>
<path d="M421.93 83.69C425.44 75.9631 431.684 69.8072 439.46 66.4066C447.236 63.0059 455.995 62.6007 464.051 65.2688C472.108 67.937 478.893 73.49 483.102 80.8597C487.311 88.2295 488.647 96.8953 486.851 105.19C485.056 113.485 480.257 120.823 473.377 125.793C466.497 130.762 458.023 133.013 449.584 132.11C441.145 131.208 433.338 127.217 427.664 120.905C421.99 114.594 418.851 106.407 418.85 97.92C418.842 93.7684 419.594 89.6505 421.07 85.77" stroke="#263238" stroke-width="0.5" stroke-miterlimit="10"/>
<path d="M437.27 89.53C439.446 85.4415 443.127 82.3602 447.534 80.9379C451.942 79.5157 456.73 79.8643 460.885 81.9099C465.04 83.9555 468.236 87.5375 469.797 91.898C471.358 96.2584 471.16 101.055 469.247 105.273C467.334 109.49 463.854 112.798 459.545 114.495C455.236 116.193 450.436 116.147 446.16 114.368C441.884 112.589 438.468 109.216 436.635 104.963C434.803 100.709 434.697 95.9099 436.34 91.58V91.4899" stroke="#263238" stroke-miterlimit="10"/>
<path d="M436.549 89.7101L436.759 89.2901C438.871 85.2653 442.384 82.1531 446.634 80.5415C450.884 78.9298 455.577 78.9302 459.827 80.5426C464.077 82.1549 467.589 85.2676 469.7 89.2928C471.812 93.318 472.376 97.977 471.287 102.39C470.198 106.803 467.53 110.664 463.789 113.245C460.047 115.825 455.49 116.946 450.978 116.396C446.466 115.846 442.311 113.663 439.299 110.259C436.287 106.855 434.626 102.466 434.629 97.9201C434.625 95.6753 435.032 93.4487 435.829 91.3501" stroke="#263238" stroke-width="0.5" stroke-miterlimit="10"/>
<path d="M437.569 89.5902H437.419L437.289 89.5402L436.769 89.3402L422.459 83.9402L421.939 83.7402L410.839 79.5502L410.319 79.3602L392.439 72.6102L393.319 66.0102C393.336 65.8893 393.313 65.7663 393.253 65.6598C393.194 65.5533 393.101 65.4691 392.989 65.4202L378.839 59.0002C378.739 58.9561 378.627 58.9421 378.519 58.9599C378.41 58.9777 378.309 59.0266 378.228 59.1006C378.146 59.1746 378.088 59.2706 378.06 59.377C378.032 59.4834 378.035 59.5956 378.069 59.7002L380.939 68.2002L378.829 67.4002C378.689 67.3379 378.537 67.3049 378.384 67.3032C378.23 67.3015 378.078 67.3311 377.936 67.3903C377.794 67.4495 377.666 67.537 377.559 67.6474C377.452 67.7578 377.369 67.8888 377.315 68.0325C377.26 68.1762 377.236 68.3294 377.242 68.4829C377.249 68.6364 377.287 68.7869 377.354 68.9252C377.421 69.0635 377.515 69.1867 377.631 69.2873C377.748 69.3879 377.883 69.4637 378.029 69.5102L380.229 70.3402L373.629 75.4102C373.541 75.4777 373.475 75.5698 373.44 75.6748C373.404 75.7798 373.401 75.8931 373.429 76.0002C373.456 76.1066 373.515 76.2026 373.597 76.2756C373.679 76.3487 373.781 76.3956 373.889 76.4102L389.739 78.8502H389.819C389.934 78.8502 390.045 78.8159 390.14 78.7517C390.234 78.6875 390.307 78.5964 390.349 78.4902L391.839 74.7102L409.459 81.3602L409.979 81.5502L421.069 85.7302L421.589 85.9302L435.839 91.3102L436.359 91.5002L436.779 91.6602" stroke="#263238" stroke-miterlimit="10"/>
<path d="M437.268 89.53H437.418H437.568L447.758 93.38L448.878 90.02C448.952 89.7966 449.094 89.602 449.284 89.4638C449.474 89.3256 449.703 89.2508 449.938 89.25C450.177 89.2544 450.408 89.3341 450.598 89.4779C450.789 89.6216 450.929 89.8218 450.998 90.05L452.998 96.67C453.075 96.9248 453.059 97.1982 452.955 97.4429C452.851 97.6876 452.665 97.8882 452.428 98.01L447.328 100.55C447.173 100.629 447.002 100.67 446.828 100.67C446.557 100.672 446.295 100.576 446.088 100.4C445.922 100.252 445.803 100.059 445.744 99.8439C445.685 99.6292 445.69 99.402 445.758 99.19L446.998 95.58L436.778 91.7C436.634 91.647 436.504 91.5614 436.398 91.45" stroke="#263238" stroke-miterlimit="10"/>
<path d="M152.38 208.46L161.38 210.46L163.46 201.34L154.83 199.34C154.83 199.09 154.83 198.83 154.83 198.57C154.835 195.8 154.277 193.058 153.19 190.51L160.19 184.93L154.36 177.62L147.7 183C145.351 180.963 142.572 179.486 139.57 178.68V170H130.22V178.38C127.134 178.98 124.229 180.283 121.73 182.19L114.96 176.79L109.13 184.1L115.74 189.37C114.339 192.141 113.587 195.195 113.54 198.3L104.93 200.3L107.01 209.42L115.5 207.48C116.787 210.218 118.658 212.641 120.98 214.58L116.98 222.79L125.41 226.85L129.3 218.77C132.173 219.478 135.166 219.55 138.07 218.98L142.07 227.35L150.5 223.29L146.58 215.15C148.972 213.364 150.951 211.082 152.38 208.46ZM125 198.65C125 196.834 125.538 195.06 126.547 193.55C127.556 192.04 128.989 190.864 130.667 190.169C132.344 189.474 134.19 189.292 135.971 189.646C137.751 190.001 139.387 190.875 140.671 192.159C141.955 193.443 142.829 195.078 143.183 196.859C143.538 198.64 143.356 200.486 142.661 202.163C141.966 203.84 140.789 205.274 139.28 206.283C137.77 207.292 135.995 207.83 134.18 207.83C132.974 207.83 131.78 207.593 130.667 207.131C129.553 206.67 128.541 205.994 127.688 205.141C126.836 204.289 126.16 203.277 125.698 202.163C125.237 201.049 125 199.856 125 198.65Z" stroke="#263238" stroke-linecap="round" stroke-linejoin="round"/>
<path d="M698.13 301.6L704.22 302.99L705.63 296.81L699.78 295.47C699.78 295.3 699.78 295.12 699.78 294.95C699.784 293.071 699.41 291.211 698.68 289.48L703.42 285.7L699.42 280.7L695 284.36C693.41 282.98 691.525 281.981 689.49 281.44V275.53H683.1V281.2C681.011 281.612 679.043 282.498 677.35 283.79L672.76 280.13L668.76 285.13L673.24 288.7C672.296 290.562 671.786 292.613 671.75 294.7L666 296L667.41 302.18L673.17 300.87C674.043 302.724 675.309 304.365 676.88 305.68L674.2 311.24L679.91 313.99L682.55 308.51C683.623 308.779 684.724 308.917 685.83 308.92C686.723 308.915 687.613 308.828 688.49 308.66L691.22 314.33L696.94 311.58L694.28 306.07C695.862 304.866 697.174 303.343 698.13 301.6ZM679.57 295C679.57 293.77 679.935 292.567 680.618 291.544C681.302 290.521 682.273 289.724 683.41 289.254C684.546 288.783 685.797 288.66 687.003 288.9C688.21 289.14 689.318 289.732 690.188 290.602C691.058 291.472 691.651 292.58 691.891 293.787C692.131 294.993 692.007 296.244 691.537 297.38C691.066 298.517 690.269 299.488 689.246 300.172C688.223 300.855 687.02 301.22 685.79 301.22C684.14 301.22 682.558 300.565 681.392 299.398C680.225 298.232 679.57 296.65 679.57 295Z" stroke="#263238" stroke-linecap="round" stroke-linejoin="round"/>
<path d="M169.611 163.64L176.991 165.32L178.691 157.84L171.611 156.23C171.611 156.02 171.611 155.81 171.611 155.6C171.624 153.334 171.179 151.089 170.301 149L176.051 144.42L171.271 138.42L165.771 142.8C163.843 141.132 161.562 139.922 159.101 139.26V132.11H151.431V139C148.887 139.491 146.492 140.562 144.431 142.13L138.871 137.7L134.091 143.7L139.511 148.02C138.365 150.293 137.749 152.795 137.711 155.34L130.641 156.96L132.351 164.44L139.351 162.85C140.405 165.094 141.937 167.081 143.841 168.67L140.591 175.4L147.511 178.73L150.701 172.1C152.009 172.423 153.352 172.588 154.701 172.59C155.781 172.588 156.859 172.485 157.921 172.28L161.221 179.14L168.141 175.81L164.921 169.14C166.864 167.669 168.465 165.792 169.611 163.64ZM147.161 155.64C147.159 154.15 147.599 152.694 148.425 151.454C149.251 150.214 150.426 149.248 151.802 148.676C153.178 148.105 154.692 147.954 156.154 148.244C157.615 148.533 158.958 149.249 160.012 150.302C161.066 151.355 161.784 152.696 162.075 154.157C162.367 155.618 162.218 157.133 161.648 158.509C161.079 159.886 160.114 161.063 158.875 161.89C157.637 162.718 156.18 163.16 154.691 163.16C153.699 163.16 152.718 162.964 151.802 162.584C150.887 162.204 150.055 161.646 149.355 160.944C148.656 160.242 148.102 159.408 147.725 158.491C147.349 157.574 147.157 156.591 147.161 155.6V155.64Z" stroke="#263238" stroke-linecap="round" stroke-linejoin="round"/>
<path d="M92.0019 370.9C92.0019 370.9 92.8719 367.75 92.8919 367.55C93.2319 365.16 92.4719 360.36 90.0419 359.18C89.6323 358.997 89.1886 358.902 88.7398 358.901C88.291 358.9 87.8471 358.994 87.4369 359.176C87.0266 359.358 86.6593 359.624 86.3587 359.957C86.058 360.291 85.8309 360.683 85.6919 361.11C85.0419 362.9 85.8719 365.11 86.8419 366.6C88.0019 368.38 92.0019 370.9 92.0019 370.9Z" fill="#263238"/>
<path d="M44.141 369.86C46.081 370.71 50.811 370.6 50.821 370.6C50.831 370.6 49.821 367.5 49.711 367.31C48.711 365.14 45.381 361.55 42.711 361.91C42.2688 361.982 41.8468 362.147 41.4725 362.393C41.0981 362.639 40.7798 362.962 40.5383 363.339C40.2968 363.716 40.1375 364.14 40.0707 364.583C40.004 365.026 40.0313 365.478 40.151 365.91C40.591 367.76 42.491 369.14 44.141 369.86Z" fill="#263238"/>
<path d="M45.7803 383.58C47.7803 383.87 52.0103 382.65 52.3503 382.58C53.0417 384.999 53.8971 387.368 54.9103 389.67C55.4903 391.02 56.1203 392.35 56.7603 393.67C56.3803 393.1 56.0303 392.6 55.9703 392.53C54.4003 390.71 50.2803 388.12 47.8003 389.17C47.3925 389.357 47.0286 389.627 46.7321 389.964C46.4356 390.301 46.2132 390.696 46.0793 391.124C45.9454 391.552 45.903 392.003 45.9549 392.449C46.0067 392.895 46.1516 393.324 46.3803 393.71C47.3003 395.38 49.5003 396.2 51.2803 396.46C53.0603 396.72 56.7103 395.75 57.6603 395.46C57.9203 395.97 58.1603 396.46 58.4203 396.99C59.6403 399.43 60.8803 401.86 62.0103 404.27C62.4103 405.12 62.7703 405.98 63.1403 406.83C62.8003 406.33 62.5003 405.91 62.4503 405.83C60.8803 404.01 56.7603 401.41 54.2803 402.47C53.8739 402.657 53.5112 402.927 53.2157 403.263C52.9202 403.599 52.6984 403.993 52.5646 404.42C52.4308 404.847 52.388 405.297 52.4389 405.741C52.4898 406.186 52.6334 406.615 52.8603 407C53.7803 408.66 55.9803 409.49 57.7603 409.75C59.5403 410.01 62.8303 409.13 63.9703 408.82C64.3203 409.7 64.6703 410.59 64.9703 411.46C65.1603 412.06 65.3803 412.63 65.5403 413.24C65.7003 413.85 65.8803 414.44 66.0403 415.03C66.3203 416.19 66.6103 417.37 66.8503 418.51C67.0303 419.29 67.1803 420.04 67.3303 420.8C66.9403 419.95 66.1503 418.3 66.0703 418.17C64.7803 416.17 61.0703 412.94 58.4903 413.6C58.0593 413.723 57.6591 413.935 57.3157 414.223C56.9723 414.511 56.6934 414.868 56.4972 415.271C56.3009 415.674 56.1918 416.113 56.1768 416.561C56.1618 417.009 56.2414 417.455 56.4103 417.87C57.0603 419.66 59.1103 420.81 60.8303 421.34C62.7203 421.92 66.9203 421.39 67.4403 421.34C67.6903 422.59 67.9203 423.81 68.1303 424.97C68.5503 427.38 68.8803 429.56 69.1303 431.42H70.8903C70.5903 429.49 70.2003 427.21 69.7003 424.67C69.4503 423.4 69.1503 422.04 68.8403 420.67C70.1036 420.164 71.3358 419.583 72.5303 418.93C73.9103 420.43 77.4503 422.18 77.9103 422.4C77.4303 423.58 76.9103 424.73 76.4803 425.81C75.5603 427.92 74.6803 429.81 73.9003 431.43H75.8003C76.4703 429.95 77.2002 428.27 77.9502 426.43C78.4402 425.23 78.9502 423.93 79.4502 422.6C79.9602 422.71 84.1103 423.55 86.0503 423.11C87.8003 422.72 89.9303 421.73 90.7203 419.99C90.9182 419.592 91.0307 419.156 91.0503 418.712C91.07 418.267 90.9965 417.824 90.8345 417.409C90.6725 416.995 90.4257 416.619 90.1098 416.306C89.7939 415.992 89.4159 415.749 89.0003 415.59C86.4503 414.73 82.5403 417.59 81.1103 419.59C81.0303 419.71 80.2502 421.05 79.7702 421.9C79.9802 421.36 80.1802 420.83 80.3802 420.27C80.7902 419.15 81.1703 418.03 81.5703 416.83L82.1103 415.04C82.3003 414.45 82.4202 413.8 82.5902 413.17C82.9402 411.71 83.2203 410.17 83.4703 408.7C84.4703 409.05 87.9203 410.27 89.7303 410.14C91.5403 410.01 93.7302 409.35 94.8102 407.76C95.0683 407.393 95.2461 406.976 95.3321 406.536C95.4182 406.096 95.4104 405.643 95.3095 405.206C95.2085 404.769 95.0166 404.359 94.7462 404.001C94.4758 403.643 94.133 403.346 93.7402 403.13C91.3402 401.89 87.0402 404.13 85.3402 405.87C85.2302 405.98 84.1402 407.33 83.5602 408.09C83.7002 407.18 83.8503 406.27 83.9603 405.34C84.2903 402.67 84.5502 399.95 84.8102 397.24C84.8902 396.41 84.9803 395.58 85.0703 394.76C85.4103 394.89 89.5203 396.41 91.5403 396.27C93.3403 396.15 95.5902 395.49 96.6302 393.89C96.8879 393.523 97.0651 393.105 97.1504 392.665C97.2357 392.224 97.2271 391.771 97.1252 391.334C97.0233 390.897 96.8303 390.486 96.5589 390.129C96.2875 389.772 95.9438 389.476 95.5503 389.26C93.1603 388.02 88.8603 390.26 87.1503 392C87.0203 392.13 85.4603 394.09 85.0803 394.6C85.2803 392.78 85.4903 390.97 85.7603 389.19C86.1132 386.764 86.6175 384.363 87.2702 382C87.4302 382.06 91.7103 383.68 93.7803 383.53C95.5703 383.41 97.7803 382.75 98.8603 381.15C99.1183 380.783 99.2961 380.366 99.3821 379.926C99.4682 379.486 99.4604 379.033 99.3595 378.596C99.2585 378.159 99.0666 377.749 98.7962 377.391C98.5258 377.033 98.183 376.736 97.7903 376.52C95.3903 375.28 91.1003 377.52 89.3903 379.26C89.2803 379.38 88.0803 380.86 87.5303 381.58L87.4003 381.51C88.137 379.176 89.0843 376.913 90.2303 374.75C90.8403 373.55 91.4903 372.43 92.1503 371.36C92.9203 371.75 96.4403 373.46 98.3203 373.53C100.2 373.6 102.42 373.2 103.63 371.72C103.927 371.384 104.149 370.988 104.283 370.56C104.416 370.132 104.458 369.68 104.405 369.235C104.352 368.79 104.206 368.36 103.976 367.975C103.746 367.59 103.437 367.258 103.07 367C100.83 365.51 96.3002 367.31 94.4202 368.81C94.3202 368.89 93.4203 369.81 92.6903 370.53C92.9903 370.05 93.3003 369.53 93.6003 369.1C94.7303 367.4 95.8703 365.92 96.8903 364.61C97.4703 363.87 98.0103 363.21 98.5303 362.61C99.5303 362.61 103.3 362.48 104.96 361.7C106.62 360.92 108.46 359.5 108.85 357.64C108.958 357.205 108.973 356.752 108.895 356.311C108.816 355.869 108.645 355.45 108.393 355.079C108.141 354.708 107.814 354.395 107.432 354.159C107.051 353.923 106.625 353.77 106.18 353.71C103.5 353.42 100.31 357.1 99.3303 359.3C99.2403 359.49 98.2603 362.62 98.3303 362.62H98.3903C97.8803 363.2 97.3402 363.82 96.7702 364.52C95.7702 365.81 94.5502 367.27 93.3802 368.96C92.0927 370.753 90.9171 372.623 89.8603 374.56C88.6641 376.725 87.6602 378.99 86.8603 381.33C86.8603 381.33 86.8603 381.33 86.8603 381.41C86.8603 380.62 86.8603 378.41 86.8603 378.24C86.5603 375.85 84.5503 371.42 81.8603 370.93C81.4175 370.859 80.9648 370.883 80.5318 370.999C80.0989 371.115 79.6954 371.322 79.3479 371.605C79.0003 371.889 78.7167 372.242 78.5154 372.643C78.3142 373.044 78.2 373.482 78.1803 373.93C78.0203 375.83 79.4002 377.73 80.7402 378.93C82.2502 380.28 86.4502 381.59 86.7402 381.69C85.9996 384.086 85.4184 386.528 85.0003 389C84.7503 390.44 84.5302 391.91 84.3402 393.37C84.3402 392.69 84.3402 392.08 84.3402 391.99C84.0302 389.61 82.0302 385.17 79.3402 384.68C78.8978 384.611 78.4457 384.635 78.0133 384.752C77.581 384.869 77.1782 385.076 76.831 385.359C76.4839 385.642 76.2002 385.995 75.9985 386.395C75.7968 386.795 75.6815 387.233 75.6603 387.68C75.5103 389.58 76.8803 391.48 78.2203 392.68C79.5603 393.88 83.1502 395.08 84.0902 395.39L83.8802 397.08C83.5602 399.79 83.2502 402.49 82.8802 405.13C82.7402 406.06 82.5703 406.97 82.4103 407.89C82.4103 407.28 82.4103 406.77 82.4103 406.69C82.1003 404.3 80.1003 399.87 77.4103 399.38C76.9675 399.309 76.5148 399.333 76.0818 399.449C75.6489 399.565 75.2454 399.772 74.8979 400.055C74.5503 400.339 74.2667 400.692 74.0654 401.093C73.8642 401.494 73.75 401.932 73.7303 402.38C73.5703 404.28 74.9503 406.18 76.2903 407.38C77.6303 408.58 80.8702 409.66 81.9902 410.03C81.7902 410.96 81.6003 411.89 81.3703 412.78C81.1903 413.39 81.0703 413.98 80.8603 414.58L80.2903 416.36C79.8803 417.47 79.4703 418.62 79.0503 419.7C78.7603 420.45 78.4703 421.16 78.1803 421.88C78.3303 420.95 78.5803 419.13 78.5803 418.98C78.5475 416.871 77.976 414.806 76.9202 412.98C76.9401 412.744 76.9401 412.506 76.9202 412.27C76.8649 411.826 76.7165 411.398 76.4847 411.014C76.2529 410.631 75.943 410.3 75.575 410.045C75.2071 409.789 74.7894 409.614 74.3493 409.53C73.9091 409.447 73.4562 409.457 73.0202 409.56C70.4102 410.26 68.7603 414.84 68.6303 417.24C68.6303 417.38 68.7203 418.93 68.8003 419.91C68.6603 419.34 68.5403 418.79 68.4003 418.21C68.1303 417.05 67.8203 415.91 67.5003 414.68L66.9603 412.9C66.7903 412.3 66.5303 411.68 66.3303 411.07C65.8103 409.66 65.2203 408.26 64.5903 406.86C65.5903 406.62 69.1703 405.71 70.5903 404.6C72.0102 403.49 73.5303 401.72 73.5103 399.81C73.5225 399.357 73.4381 398.907 73.2625 398.489C73.087 398.071 72.8244 397.695 72.4923 397.387C72.1602 397.078 71.7662 396.844 71.3364 396.7C70.9067 396.555 70.4512 396.504 70.0003 396.55C67.3103 396.84 65.0003 401.12 64.5003 403.48C64.5003 403.62 64.3103 405.36 64.2403 406.31C63.8603 405.47 63.4803 404.63 63.0603 403.8C61.8603 401.38 60.5803 398.97 59.3003 396.57C58.9103 395.83 58.5303 395.09 58.1503 394.35C58.5103 394.27 62.7703 393.28 64.3803 392.05C65.8103 390.95 67.3203 389.16 67.3103 387.26C67.3222 386.809 67.2382 386.36 67.0639 385.944C66.8895 385.527 66.6288 385.153 66.2989 384.845C65.969 384.537 65.5775 384.302 65.1502 384.156C64.723 384.011 64.2696 383.958 63.8203 384C61.1403 384.29 58.8203 388.56 58.3203 390.92C58.3203 391.1 58.0603 393.59 58.0403 394.23C57.1903 392.6 56.3603 390.97 55.6103 389.34C54.5956 387.125 53.7238 384.847 53.0003 382.52C53.1703 382.52 57.6303 381.52 59.2703 380.21C60.7003 379.11 62.2103 377.32 62.2003 375.42C62.213 374.972 62.1311 374.526 61.9597 374.111C61.7884 373.697 61.5316 373.323 61.206 373.014C60.8804 372.706 60.4934 372.469 60.0703 372.32C59.6471 372.171 59.1973 372.113 58.7503 372.15C56.0703 372.44 53.7503 376.71 53.2603 379.07C53.2603 379.23 53.0503 381.13 52.9903 382.07H52.8403C52.1656 379.713 51.7037 377.3 51.4603 374.86C51.3103 373.52 51.2403 372.23 51.2103 370.98C52.0603 370.87 55.9303 370.36 57.5403 369.39C59.1503 368.42 60.7803 366.84 60.9803 364.94C61.0408 364.497 61.0073 364.045 60.8819 363.615C60.7565 363.186 60.542 362.787 60.2525 362.446C59.9629 362.104 59.6047 361.827 59.2011 361.634C58.7976 361.44 58.3578 361.333 57.9103 361.32C55.2103 361.32 52.4303 365.32 51.6803 367.59C51.6803 367.72 51.3703 369.03 51.1903 369.99C51.1903 369.42 51.1903 368.84 51.1903 368.29C51.1903 366.29 51.3303 364.39 51.4503 362.73C51.5303 361.79 51.6303 360.94 51.7203 360.15C52.5003 359.62 55.6203 357.41 56.5803 355.84C57.5403 354.27 58.2803 352.08 57.5803 350.31C57.431 349.888 57.1943 349.502 56.8854 349.177C56.5766 348.853 56.2027 348.597 55.7883 348.427C55.3738 348.257 54.9281 348.177 54.4804 348.191C54.0327 348.205 53.593 348.314 53.1903 348.51C50.7903 349.75 50.1903 354.57 50.5603 356.95C50.5603 357.15 51.5003 360.3 51.5603 360.28C51.4503 361.04 51.3503 361.86 51.2503 362.76C51.0903 364.41 50.9203 366.28 50.8703 368.33C50.787 370.535 50.8404 372.742 51.0303 374.94C51.2138 377.409 51.6222 379.856 52.2503 382.25V382.33C51.8203 381.66 50.5703 379.84 50.4603 379.71C48.8903 377.89 44.7703 375.29 42.2903 376.35C41.8828 376.536 41.519 376.805 41.2226 377.141C40.9262 377.477 40.7038 377.871 40.5699 378.298C40.4359 378.726 40.3935 379.176 40.4452 379.621C40.497 380.066 40.6418 380.495 40.8703 380.88C41.8003 382.49 44.0003 383.32 45.7803 383.58Z" fill="#263238"/>
<path opacity="0.3" d="M44.141 369.86C46.081 370.71 50.811 370.6 50.821 370.6C50.831 370.6 49.821 367.5 49.711 367.31C48.711 365.14 45.381 361.55 42.711 361.91C42.2688 361.982 41.8468 362.147 41.4725 362.393C41.0981 362.639 40.7798 362.962 40.5383 363.339C40.2968 363.716 40.1375 364.14 40.0707 364.583C40.004 365.026 40.0313 365.478 40.151 365.91C40.591 367.76 42.491 369.14 44.141 369.86Z" fill="#263238"/>
<path opacity="0.3" d="M92.0019 370.9C92.0019 370.9 92.8719 367.75 92.8919 367.55C93.2319 365.16 92.4719 360.36 90.0419 359.18C89.6323 358.997 89.1886 358.902 88.7398 358.901C88.291 358.9 87.8471 358.994 87.4369 359.176C87.0266 359.358 86.6593 359.624 86.3587 359.957C86.058 360.291 85.8309 360.683 85.6919 361.11C85.0419 362.9 85.8719 365.11 86.8419 366.6C88.0019 368.38 92.0019 370.9 92.0019 370.9Z" fill="#263238"/>
<path opacity="0.3" d="M45.7803 383.58C47.7803 383.87 52.0103 382.65 52.3503 382.58C53.0417 384.999 53.8971 387.368 54.9103 389.67C55.4903 391.02 56.1203 392.35 56.7603 393.67C56.3803 393.1 56.0303 392.6 55.9703 392.53C54.4003 390.71 50.2803 388.12 47.8003 389.17C47.3925 389.357 47.0286 389.627 46.7321 389.964C46.4356 390.301 46.2132 390.696 46.0793 391.124C45.9454 391.552 45.903 392.003 45.9549 392.449C46.0067 392.895 46.1516 393.324 46.3803 393.71C47.3003 395.38 49.5003 396.2 51.2803 396.46C53.0603 396.72 56.7103 395.75 57.6603 395.46C57.9203 395.97 58.1603 396.46 58.4203 396.99C59.6403 399.43 60.8803 401.86 62.0103 404.27C62.4103 405.12 62.7703 405.98 63.1403 406.83C62.8003 406.33 62.5003 405.91 62.4503 405.83C60.8803 404.01 56.7603 401.41 54.2803 402.47C53.8739 402.657 53.5112 402.927 53.2157 403.263C52.9202 403.599 52.6984 403.993 52.5646 404.42C52.4308 404.847 52.388 405.297 52.4389 405.741C52.4898 406.186 52.6334 406.615 52.8603 407C53.7803 408.66 55.9803 409.49 57.7603 409.75C59.5403 410.01 62.8303 409.13 63.9703 408.82C64.3203 409.7 64.6703 410.59 64.9703 411.46C65.1603 412.06 65.3803 412.63 65.5403 413.24C65.7003 413.85 65.8803 414.44 66.0403 415.03C66.3203 416.19 66.6103 417.37 66.8503 418.51C67.0303 419.29 67.1803 420.04 67.3303 420.8C66.9403 419.95 66.1503 418.3 66.0703 418.17C64.7803 416.17 61.0703 412.94 58.4903 413.6C58.0593 413.723 57.6591 413.935 57.3157 414.223C56.9723 414.511 56.6934 414.868 56.4972 415.271C56.3009 415.674 56.1918 416.113 56.1768 416.561C56.1618 417.009 56.2414 417.455 56.4103 417.87C57.0603 419.66 59.1103 420.81 60.8303 421.34C62.7203 421.92 66.9203 421.39 67.4403 421.34C67.6903 422.59 67.9203 423.81 68.1303 424.97C68.5503 427.38 68.8803 429.56 69.1303 431.42H70.8903C70.5903 429.49 70.2003 427.21 69.7003 424.67C69.4503 423.4 69.1503 422.04 68.8403 420.67C70.1036 420.164 71.3358 419.583 72.5303 418.93C73.9103 420.43 77.4503 422.18 77.9103 422.4C77.4303 423.58 76.9103 424.73 76.4803 425.81C75.5603 427.92 74.6803 429.81 73.9003 431.43H75.8003C76.4703 429.95 77.2002 428.27 77.9502 426.43C78.4402 425.23 78.9502 423.93 79.4502 422.6C79.9602 422.71 84.1103 423.55 86.0503 423.11C87.8003 422.72 89.9303 421.73 90.7203 419.99C90.9182 419.592 91.0307 419.156 91.0503 418.712C91.07 418.267 90.9965 417.824 90.8345 417.409C90.6725 416.995 90.4257 416.619 90.1098 416.306C89.7939 415.992 89.4159 415.749 89.0003 415.59C86.4503 414.73 82.5403 417.59 81.1103 419.59C81.0303 419.71 80.2502 421.05 79.7702 421.9C79.9802 421.36 80.1802 420.83 80.3802 420.27C80.7902 419.15 81.1703 418.03 81.5703 416.83L82.1103 415.04C82.3003 414.45 82.4202 413.8 82.5902 413.17C82.9402 411.71 83.2203 410.17 83.4703 408.7C84.4703 409.05 87.9203 410.27 89.7303 410.14C91.5403 410.01 93.7302 409.35 94.8102 407.76C95.0683 407.393 95.2461 406.976 95.3321 406.536C95.4182 406.096 95.4104 405.643 95.3095 405.206C95.2085 404.769 95.0166 404.359 94.7462 404.001C94.4758 403.643 94.133 403.346 93.7402 403.13C91.3402 401.89 87.0402 404.13 85.3402 405.87C85.2302 405.98 84.1402 407.33 83.5602 408.09C83.7002 407.18 83.8503 406.27 83.9603 405.34C84.2903 402.67 84.5502 399.95 84.8102 397.24C84.8902 396.41 84.9803 395.58 85.0703 394.76C85.4103 394.89 89.5203 396.41 91.5403 396.27C93.3403 396.15 95.5902 395.49 96.6302 393.89C96.8879 393.523 97.0651 393.105 97.1504 392.665C97.2357 392.224 97.2271 391.771 97.1252 391.334C97.0233 390.897 96.8303 390.486 96.5589 390.129C96.2875 389.772 95.9438 389.476 95.5503 389.26C93.1603 388.02 88.8603 390.26 87.1503 392C87.0203 392.13 85.4603 394.09 85.0803 394.6C85.2803 392.78 85.4903 390.97 85.7603 389.19C86.1132 386.764 86.6175 384.363 87.2702 382C87.4302 382.06 91.7103 383.68 93.7803 383.53C95.5703 383.41 97.7803 382.75 98.8603 381.15C99.1183 380.783 99.2961 380.366 99.3821 379.926C99.4682 379.486 99.4604 379.033 99.3595 378.596C99.2585 378.159 99.0666 377.749 98.7962 377.391C98.5258 377.033 98.183 376.736 97.7903 376.52C95.3903 375.28 91.1003 377.52 89.3903 379.26C89.2803 379.38 88.0803 380.86 87.5303 381.58L87.4003 381.51C88.137 379.176 89.0843 376.913 90.2303 374.75C90.8403 373.55 91.4903 372.43 92.1503 371.36C92.9203 371.75 96.4403 373.46 98.3203 373.53C100.2 373.6 102.42 373.2 103.63 371.72C103.927 371.384 104.149 370.988 104.283 370.56C104.416 370.132 104.458 369.68 104.405 369.235C104.352 368.79 104.206 368.36 103.976 367.975C103.746 367.59 103.437 367.258 103.07 367C100.83 365.51 96.3002 367.31 94.4202 368.81C94.3202 368.89 93.4203 369.81 92.6903 370.53C92.9903 370.05 93.3003 369.53 93.6003 369.1C94.7303 367.4 95.8703 365.92 96.8903 364.61C97.4703 363.87 98.0103 363.21 98.5303 362.61C99.5303 362.61 103.3 362.48 104.96 361.7C106.62 360.92 108.46 359.5 108.85 357.64C108.958 357.205 108.973 356.752 108.895 356.311C108.816 355.869 108.645 355.45 108.393 355.079C108.141 354.708 107.814 354.395 107.432 354.159C107.051 353.923 106.625 353.77 106.18 353.71C103.5 353.42 100.31 357.1 99.3303 359.3C99.2403 359.49 98.2603 362.62 98.3303 362.62H98.3903C97.8803 363.2 97.3402 363.82 96.7702 364.52C95.7702 365.81 94.5502 367.27 93.3802 368.96C92.0927 370.753 90.9171 372.623 89.8603 374.56C88.6641 376.725 87.6602 378.99 86.8603 381.33C86.8603 381.33 86.8603 381.33 86.8603 381.41C86.8603 380.62 86.8603 378.41 86.8603 378.24C86.5603 375.85 84.5503 371.42 81.8603 370.93C81.4175 370.859 80.9648 370.883 80.5318 370.999C80.0989 371.115 79.6954 371.322 79.3479 371.605C79.0003 371.889 78.7167 372.242 78.5154 372.643C78.3142 373.044 78.2 373.482 78.1803 373.93C78.0203 375.83 79.4002 377.73 80.7402 378.93C82.2502 380.28 86.4502 381.59 86.7402 381.69C85.9996 384.086 85.4184 386.528 85.0003 389C84.7503 390.44 84.5302 391.91 84.3402 393.37C84.3402 392.69 84.3402 392.08 84.3402 391.99C84.0302 389.61 82.0302 385.17 79.3402 384.68C78.8978 384.611 78.4457 384.635 78.0133 384.752C77.581 384.869 77.1782 385.076 76.831 385.359C76.4839 385.642 76.2002 385.995 75.9985 386.395C75.7968 386.795 75.6815 387.233 75.6603 387.68C75.5103 389.58 76.8803 391.48 78.2203 392.68C79.5603 393.88 83.1502 395.08 84.0902 395.39L83.8802 397.08C83.5602 399.79 83.2502 402.49 82.8802 405.13C82.7402 406.06 82.5703 406.97 82.4103 407.89C82.4103 407.28 82.4103 406.77 82.4103 406.69C82.1003 404.3 80.1003 399.87 77.4103 399.38C76.9675 399.309 76.5148 399.333 76.0818 399.449C75.6489 399.565 75.2454 399.772 74.8979 400.055C74.5503 400.339 74.2667 400.692 74.0654 401.093C73.8642 401.494 73.75 401.932 73.7303 402.38C73.5703 404.28 74.9503 406.18 76.2903 407.38C77.6303 408.58 80.8702 409.66 81.9902 410.03C81.7902 410.96 81.6003 411.89 81.3703 412.78C81.1903 413.39 81.0703 413.98 80.8603 414.58L80.2903 416.36C79.8803 417.47 79.4703 418.62 79.0503 419.7C78.7603 420.45 78.4703 421.16 78.1803 421.88C78.3303 420.95 78.5803 419.13 78.5803 418.98C78.5475 416.871 77.976 414.806 76.9202 412.98C76.9401 412.744 76.9401 412.506 76.9202 412.27C76.8649 411.826 76.7165 411.398 76.4847 411.014C76.2529 410.631 75.943 410.3 75.575 410.045C75.2071 409.789 74.7894 409.614 74.3493 409.53C73.9091 409.447 73.4562 409.457 73.0202 409.56C70.4102 410.26 68.7603 414.84 68.6303 417.24C68.6303 417.38 68.7203 418.93 68.8003 419.91C68.6603 419.34 68.5403 418.79 68.4003 418.21C68.1303 417.05 67.8203 415.91 67.5003 414.68L66.9603 412.9C66.7903 412.3 66.5303 411.68 66.3303 411.07C65.8103 409.66 65.2203 408.26 64.5903 406.86C65.5903 406.62 69.1703 405.71 70.5903 404.6C72.0102 403.49 73.5303 401.72 73.5103 399.81C73.5225 399.357 73.4381 398.907 73.2625 398.489C73.087 398.071 72.8244 397.695 72.4923 397.387C72.1602 397.078 71.7662 396.844 71.3364 396.7C70.9067 396.555 70.4512 396.504 70.0003 396.55C67.3103 396.84 65.0003 401.12 64.5003 403.48C64.5003 403.62 64.3103 405.36 64.2403 406.31C63.8603 405.47 63.4803 404.63 63.0603 403.8C61.8603 401.38 60.5803 398.97 59.3003 396.57C58.9103 395.83 58.5303 395.09 58.1503 394.35C58.5103 394.27 62.7703 393.28 64.3803 392.05C65.8103 390.95 67.3203 389.16 67.3103 387.26C67.3222 386.809 67.2382 386.36 67.0639 385.944C66.8895 385.527 66.6288 385.153 66.2989 384.845C65.969 384.537 65.5775 384.302 65.1502 384.156C64.723 384.011 64.2696 383.958 63.8203 384C61.1403 384.29 58.8203 388.56 58.3203 390.92C58.3203 391.1 58.0603 393.59 58.0403 394.23C57.1903 392.6 56.3603 390.97 55.6103 389.34C54.5956 387.125 53.7238 384.847 53.0003 382.52C53.1703 382.52 57.6303 381.52 59.2703 380.21C60.7003 379.11 62.2103 377.32 62.2003 375.42C62.213 374.972 62.1311 374.526 61.9597 374.111C61.7884 373.697 61.5316 373.323 61.206 373.014C60.8804 372.706 60.4934 372.469 60.0703 372.32C59.6471 372.171 59.1973 372.113 58.7503 372.15C56.0703 372.44 53.7503 376.71 53.2603 379.07C53.2603 379.23 53.0503 381.13 52.9903 382.07H52.8403C52.1656 379.713 51.7037 377.3 51.4603 374.86C51.3103 373.52 51.2403 372.23 51.2103 370.98C52.0603 370.87 55.9303 370.36 57.5403 369.39C59.1503 368.42 60.7803 366.84 60.9803 364.94C61.0408 364.497 61.0073 364.045 60.8819 363.615C60.7565 363.186 60.542 362.787 60.2525 362.446C59.9629 362.104 59.6047 361.827 59.2011 361.634C58.7976 361.44 58.3578 361.333 57.9103 361.32C55.2103 361.32 52.4303 365.32 51.6803 367.59C51.6803 367.72 51.3703 369.03 51.1903 369.99C51.1903 369.42 51.1903 368.84 51.1903 368.29C51.1903 366.29 51.3303 364.39 51.4503 362.73C51.5303 361.79 51.6303 360.94 51.7203 360.15C52.5003 359.62 55.6203 357.41 56.5803 355.84C57.5403 354.27 58.2803 352.08 57.5803 350.31C57.431 349.888 57.1943 349.502 56.8854 349.177C56.5766 348.853 56.2027 348.597 55.7883 348.427C55.3738 348.257 54.9281 348.177 54.4804 348.191C54.0327 348.205 53.593 348.314 53.1903 348.51C50.7903 349.75 50.1903 354.57 50.5603 356.95C50.5603 357.15 51.5003 360.3 51.5603 360.28C51.4503 361.04 51.3503 361.86 51.2503 362.76C51.0903 364.41 50.9203 366.28 50.8703 368.33C50.787 370.535 50.8404 372.742 51.0303 374.94C51.2138 377.409 51.6222 379.856 52.2503 382.25V382.33C51.8203 381.66 50.5703 379.84 50.4603 379.71C48.8903 377.89 44.7703 375.29 42.2903 376.35C41.8828 376.536 41.519 376.805 41.2226 377.141C40.9262 377.477 40.7038 377.871 40.5699 378.298C40.4359 378.726 40.3935 379.176 40.4452 379.621C40.497 380.066 40.6418 380.495 40.8703 380.88C41.8003 382.49 44.0003 383.32 45.7803 383.58Z" fill="#263238"/>
<path d="M699.32 370.9C699.32 370.9 700.18 367.75 700.21 367.55C700.54 365.16 699.78 360.36 697.35 359.18C696.941 358.997 696.497 358.902 696.048 358.901C695.599 358.9 695.156 358.994 694.745 359.176C694.335 359.358 693.968 359.624 693.667 359.957C693.366 360.291 693.139 360.683 693 361.11C692.35 362.9 693.18 365.11 694.16 366.6C695.3 368.38 699.31 370.9 699.32 370.9Z" fill="#263238"/>
<path d="M651.41 369.86C653.35 370.71 658.081 370.6 658.091 370.6C658.101 370.6 657.09 367.5 656.98 367.31C655.98 365.14 652.66 361.55 649.98 361.91C649.538 361.982 649.116 362.147 648.742 362.393C648.368 362.639 648.049 362.962 647.808 363.339C647.566 363.716 647.407 364.14 647.34 364.583C647.274 365.026 647.301 365.478 647.42 365.91C647.86 367.76 649.76 369.14 651.41 369.86Z" fill="#263238"/>
<path d="M653.051 383.58C655.051 383.87 659.281 382.65 659.621 382.58C660.317 384.997 661.173 387.366 662.181 389.67C662.761 391.02 663.391 392.35 664.041 393.67L663.251 392.53C661.671 390.71 657.551 388.12 655.071 389.17C654.665 389.358 654.302 389.629 654.006 389.966C653.711 390.303 653.489 390.698 653.355 391.125C653.221 391.553 653.179 392.004 653.23 392.449C653.281 392.894 653.424 393.324 653.652 393.71C654.572 395.38 656.771 396.2 658.551 396.46C660.331 396.72 663.981 395.75 664.941 395.46L665.691 396.99C666.911 399.43 668.152 401.86 669.282 404.27C669.682 405.12 670.051 405.98 670.411 406.83C670.071 406.33 669.781 405.91 669.731 405.83C668.151 404.01 664.031 401.41 661.551 402.47C661.144 402.657 660.78 402.928 660.483 403.264C660.187 403.601 659.964 403.996 659.831 404.424C659.697 404.852 659.654 405.304 659.706 405.749C659.758 406.195 659.903 406.624 660.131 407.01C661.051 408.67 663.252 409.5 665.032 409.76C666.812 410.02 670.111 409.14 671.241 408.83C671.591 409.71 671.941 410.6 672.241 411.47C672.431 412.07 672.661 412.64 672.811 413.25C672.961 413.86 673.151 414.45 673.311 415.04C673.591 416.2 673.881 417.38 674.121 418.52C674.301 419.3 674.451 420.05 674.601 420.81C674.221 419.96 673.422 418.31 673.342 418.18C672.062 416.18 668.341 412.95 665.761 413.61C665.331 413.733 664.93 413.945 664.587 414.233C664.244 414.521 663.965 414.878 663.768 415.281C663.572 415.684 663.463 416.123 663.448 416.571C663.433 417.019 663.513 417.465 663.681 417.88C664.331 419.67 666.381 420.82 668.101 421.35C669.991 421.93 674.192 421.4 674.712 421.35C674.962 422.6 675.202 423.82 675.402 424.98C675.822 427.39 676.152 429.57 676.402 431.43H678.161C677.861 429.5 677.471 427.22 676.971 424.68C676.721 423.41 676.431 422.05 676.111 420.68C677.375 420.174 678.607 419.593 679.801 418.94C681.181 420.44 684.721 422.19 685.181 422.41C684.701 423.59 684.181 424.74 683.751 425.82C682.831 427.93 681.961 429.82 681.171 431.44H683.082C683.742 429.96 684.471 428.28 685.221 426.44C685.721 425.24 686.221 423.94 686.721 422.61C687.231 422.72 691.381 423.56 693.321 423.12C695.081 422.73 697.201 421.74 697.991 420C698.19 419.598 698.302 419.159 698.319 418.711C698.336 418.263 698.259 417.816 698.092 417.4C697.924 416.984 697.672 416.607 697.349 416.296C697.027 415.984 696.643 415.743 696.221 415.59C693.671 414.73 689.762 417.59 688.332 419.59C688.252 419.71 687.471 421.05 686.991 421.9C687.201 421.36 687.401 420.83 687.601 420.27C688.011 419.15 688.391 418.03 688.791 416.83L689.332 415.04C689.522 414.45 689.651 413.8 689.811 413.17C690.161 411.71 690.441 410.17 690.691 408.7C691.691 409.05 695.151 410.27 696.951 410.14C698.751 410.01 700.952 409.35 702.032 407.76C702.29 407.393 702.467 406.976 702.553 406.536C702.639 406.096 702.632 405.643 702.531 405.206C702.43 404.769 702.238 404.359 701.967 404.001C701.697 403.643 701.354 403.347 700.962 403.13C698.562 401.89 694.261 404.13 692.561 405.87C692.451 405.98 691.362 407.33 690.782 408.09C690.922 407.18 691.071 406.27 691.181 405.34C691.521 402.67 691.772 399.95 692.032 397.24C692.112 396.41 692.201 395.58 692.291 394.76C692.641 394.89 696.741 396.41 698.761 396.27C700.561 396.15 702.761 395.49 703.851 393.89C704.108 393.523 704.284 393.106 704.37 392.666C704.455 392.226 704.447 391.774 704.346 391.337C704.245 390.901 704.054 390.49 703.784 390.133C703.515 389.775 703.173 389.478 702.782 389.26C700.382 388.02 696.081 390.26 694.371 392C694.241 392.13 692.681 394.09 692.311 394.6C692.501 392.78 692.711 390.97 692.991 389.19C693.355 386.783 693.873 384.401 694.541 382.06C694.701 382.12 698.981 383.74 701.051 383.59C702.851 383.47 705.101 382.81 706.141 381.21C706.398 380.842 706.574 380.425 706.658 379.985C706.742 379.544 706.733 379.091 706.632 378.655C706.53 378.218 706.337 377.808 706.067 377.451C705.796 377.093 705.454 376.797 705.061 376.58C702.671 375.34 698.371 377.58 696.661 379.32C696.551 379.44 695.351 380.92 694.801 381.64L694.671 381.57C695.408 379.236 696.356 376.973 697.501 374.81C698.111 373.61 698.761 372.49 699.421 371.42C700.191 371.81 703.712 373.52 705.592 373.59C707.472 373.66 709.702 373.26 710.902 371.78C711.199 371.444 711.422 371.05 711.556 370.622C711.69 370.194 711.733 369.743 711.681 369.297C711.629 368.852 711.484 368.423 711.255 368.037C711.026 367.652 710.718 367.319 710.351 367.06C708.101 365.57 703.581 367.37 701.691 368.87C701.591 368.95 700.642 369.87 699.962 370.59C700.262 370.11 700.571 369.59 700.871 369.16C702.001 367.46 703.141 365.98 704.161 364.67C704.741 363.93 705.291 363.27 705.801 362.67C706.801 362.67 710.571 362.54 712.241 361.76C713.911 360.98 715.731 359.56 716.121 357.7C716.229 357.265 716.245 356.812 716.166 356.371C716.087 355.93 715.916 355.51 715.664 355.139C715.412 354.768 715.085 354.455 714.704 354.219C714.322 353.983 713.896 353.83 713.451 353.77C710.771 353.48 707.581 357.16 706.601 359.36C706.521 359.55 705.531 362.68 705.601 362.68H705.661C705.151 363.26 704.661 363.88 704.041 364.58C703.041 365.87 701.822 367.33 700.652 369.02C699.367 370.815 698.192 372.685 697.131 374.62C695.935 376.785 694.931 379.05 694.131 381.39C694.131 381.39 694.131 381.39 694.131 381.47C694.131 380.68 694.131 378.47 694.131 378.3C693.821 375.91 691.811 371.48 689.131 370.99C688.689 370.919 688.236 370.943 687.803 371.059C687.37 371.175 686.967 371.382 686.619 371.665C686.272 371.949 685.988 372.302 685.787 372.703C685.585 373.104 685.471 373.542 685.451 373.99C685.291 375.89 686.671 377.79 688.011 378.99C689.521 380.34 693.731 381.65 694.011 381.75C693.255 384.15 692.664 386.599 692.241 389.08C691.981 390.52 691.761 391.99 691.571 393.45C691.571 392.77 691.571 392.16 691.571 392.07C691.261 389.69 689.261 385.25 686.571 384.76C686.128 384.691 685.676 384.716 685.243 384.833C684.81 384.949 684.407 385.156 684.059 385.439C683.711 385.722 683.426 386.075 683.223 386.474C683.021 386.874 682.904 387.312 682.881 387.76C682.731 389.66 684.101 391.56 685.451 392.76C686.801 393.96 690.371 395.16 691.311 395.47L691.101 397.16C690.781 399.87 690.471 402.57 690.101 405.21C689.961 406.14 689.801 407.05 689.631 407.97C689.631 407.36 689.631 406.85 689.631 406.77C689.321 404.38 687.321 399.95 684.631 399.46C684.189 399.389 683.736 399.413 683.303 399.529C682.87 399.645 682.467 399.852 682.119 400.135C681.772 400.419 681.488 400.772 681.287 401.173C681.085 401.574 680.971 402.012 680.951 402.46C680.801 404.36 682.171 406.26 683.511 407.46C684.851 408.66 688.092 409.74 689.212 410.11C689.012 411.04 688.822 411.97 688.592 412.86C688.412 413.47 688.292 414.06 688.082 414.66L687.511 416.44C687.101 417.55 686.692 418.7 686.272 419.78C685.982 420.53 685.691 421.24 685.411 421.96C685.551 421.03 685.801 419.21 685.801 419.06C685.769 416.951 685.197 414.886 684.141 413.06C684.161 412.824 684.161 412.586 684.141 412.35C684.085 411.905 683.935 411.477 683.702 411.094C683.47 410.71 683.159 410.38 682.79 410.124C682.421 409.869 682.003 409.694 681.562 409.61C681.121 409.527 680.668 409.537 680.231 409.64C677.621 410.34 675.971 414.92 675.851 417.32C675.851 417.46 675.931 419.01 676.011 419.99C675.881 419.42 675.751 418.87 675.611 418.29C675.341 417.13 675.032 415.99 674.712 414.76L674.171 412.98C674.001 412.38 673.751 411.76 673.541 411.15C673.021 409.74 672.431 408.34 671.801 406.94C672.801 406.7 676.381 405.79 677.801 404.68C679.221 403.57 680.741 401.8 680.731 399.89C680.743 399.442 680.66 398.997 680.488 398.583C680.316 398.169 680.059 397.796 679.734 397.488C679.409 397.18 679.022 396.943 678.6 396.794C678.177 396.644 677.728 396.585 677.282 396.62C674.602 396.91 672.282 401.19 671.782 403.55C671.782 403.69 671.592 405.43 671.522 406.38C671.142 405.54 670.761 404.7 670.351 403.87C669.151 401.45 667.862 399.04 666.582 396.64C666.192 395.9 665.811 395.16 665.431 394.42C665.791 394.34 670.061 393.35 671.661 392.12C673.091 391.02 674.602 389.23 674.592 387.33C674.604 386.882 674.522 386.436 674.351 386.021C674.18 385.607 673.923 385.233 673.597 384.924C673.272 384.616 672.885 384.379 672.462 384.23C672.038 384.081 671.589 384.023 671.141 384.06C668.461 384.35 666.141 388.62 665.641 390.98C665.641 391.16 665.381 393.65 665.361 394.29C664.511 392.66 663.691 391.03 662.941 389.4C661.913 387.191 661.031 384.916 660.301 382.59C660.471 382.59 664.931 381.59 666.571 380.28C668.001 379.18 669.571 377.39 669.501 375.49C669.514 375.042 669.432 374.596 669.261 374.181C669.09 373.767 668.833 373.393 668.507 373.084C668.182 372.776 667.795 372.539 667.372 372.39C666.948 372.241 666.499 372.183 666.051 372.22C663.371 372.51 661.051 376.78 660.561 379.14C660.561 379.3 660.351 381.2 660.291 382.14H660.141C659.467 379.783 659.005 377.37 658.761 374.93C658.611 373.59 658.551 372.3 658.511 371.05C659.361 370.94 663.242 370.43 664.842 369.46C666.442 368.49 668.082 366.91 668.282 365.01C668.342 364.567 668.309 364.115 668.183 363.685C668.058 363.256 667.843 362.857 667.554 362.516C667.264 362.174 666.906 361.898 666.502 361.704C666.099 361.51 665.659 361.403 665.212 361.39C662.512 361.39 659.731 365.39 658.991 367.66C658.991 367.79 658.681 369.1 658.491 370.06C658.491 369.49 658.491 368.91 658.491 368.36C658.491 366.36 658.621 364.46 658.751 362.8C658.831 361.86 658.921 361.01 659.011 360.22C659.791 359.69 662.911 357.48 663.871 355.91C664.831 354.34 665.581 352.15 664.871 350.38C664.721 349.958 664.483 349.571 664.174 349.247C663.864 348.922 663.489 348.667 663.074 348.497C662.659 348.327 662.212 348.247 661.764 348.261C661.315 348.275 660.875 348.384 660.471 348.58C658.071 349.82 657.472 354.64 657.842 357.02C657.842 357.22 658.782 360.37 658.842 360.35C658.732 361.11 658.632 361.93 658.532 362.83C658.372 364.48 658.202 366.35 658.152 368.4C658.078 370.605 658.132 372.812 658.311 375.01C658.505 377.478 658.913 379.924 659.532 382.32V382.4C659.112 381.73 657.861 379.91 657.741 379.78C656.171 377.96 652.051 375.36 649.571 376.42C649.164 376.606 648.8 376.875 648.504 377.211C648.207 377.547 647.985 377.941 647.851 378.368C647.717 378.796 647.675 379.247 647.726 379.691C647.778 380.136 647.923 380.565 648.152 380.95C649.072 382.49 651.271 383.32 653.051 383.58Z" fill="#263238"/>
<path opacity="0.3" d="M651.41 369.86C653.35 370.71 658.081 370.6 658.091 370.6C658.101 370.6 657.09 367.5 656.98 367.31C655.98 365.14 652.66 361.55 649.98 361.91C649.538 361.982 649.116 362.147 648.742 362.393C648.368 362.639 648.049 362.962 647.808 363.339C647.566 363.716 647.407 364.14 647.34 364.583C647.274 365.026 647.301 365.478 647.42 365.91C647.86 367.76 649.76 369.14 651.41 369.86Z" fill="#263238"/>
<path opacity="0.3" d="M699.32 370.9C699.32 370.9 700.18 367.75 700.21 367.55C700.54 365.16 699.78 360.36 697.35 359.18C696.941 358.997 696.497 358.902 696.048 358.901C695.599 358.9 695.156 358.994 694.745 359.176C694.335 359.358 693.968 359.624 693.667 359.957C693.366 360.291 693.139 360.683 693 361.11C692.35 362.9 693.18 365.11 694.16 366.6C695.3 368.38 699.31 370.9 699.32 370.9Z" fill="#263238"/>
<path opacity="0.3" d="M653.051 383.58C655.051 383.87 659.281 382.65 659.621 382.58C660.317 384.997 661.173 387.366 662.181 389.67C662.761 391.02 663.391 392.35 664.041 393.67L663.251 392.53C661.671 390.71 657.551 388.12 655.071 389.17C654.665 389.358 654.302 389.629 654.006 389.966C653.711 390.303 653.489 390.698 653.355 391.125C653.221 391.553 653.179 392.004 653.23 392.449C653.281 392.894 653.424 393.324 653.652 393.71C654.572 395.38 656.771 396.2 658.551 396.46C660.331 396.72 663.981 395.75 664.941 395.46L665.691 396.99C666.911 399.43 668.152 401.86 669.282 404.27C669.682 405.12 670.051 405.98 670.411 406.83C670.071 406.33 669.781 405.91 669.731 405.83C668.151 404.01 664.031 401.41 661.551 402.47C661.144 402.657 660.78 402.928 660.483 403.264C660.187 403.601 659.964 403.996 659.831 404.424C659.697 404.852 659.654 405.304 659.706 405.749C659.758 406.195 659.903 406.624 660.131 407.01C661.051 408.67 663.252 409.5 665.032 409.76C666.812 410.02 670.111 409.14 671.241 408.83C671.591 409.71 671.941 410.6 672.241 411.47C672.431 412.07 672.661 412.64 672.811 413.25C672.961 413.86 673.151 414.45 673.311 415.04C673.591 416.2 673.881 417.38 674.121 418.52C674.301 419.3 674.451 420.05 674.601 420.81C674.221 419.96 673.422 418.31 673.342 418.18C672.062 416.18 668.341 412.95 665.761 413.61C665.331 413.733 664.93 413.945 664.587 414.233C664.244 414.521 663.965 414.878 663.768 415.281C663.572 415.684 663.463 416.123 663.448 416.571C663.433 417.019 663.513 417.465 663.681 417.88C664.331 419.67 666.381 420.82 668.101 421.35C669.991 421.93 674.192 421.4 674.712 421.35C674.962 422.6 675.202 423.82 675.402 424.98C675.822 427.39 676.152 429.57 676.402 431.43H678.161C677.861 429.5 677.471 427.22 676.971 424.68C676.721 423.41 676.431 422.05 676.111 420.68C677.375 420.174 678.607 419.593 679.801 418.94C681.181 420.44 684.721 422.19 685.181 422.41C684.701 423.59 684.181 424.74 683.751 425.82C682.831 427.93 681.961 429.82 681.171 431.44H683.082C683.742 429.96 684.471 428.28 685.221 426.44C685.721 425.24 686.221 423.94 686.721 422.61C687.231 422.72 691.381 423.56 693.321 423.12C695.081 422.73 697.201 421.74 697.991 420C698.19 419.598 698.302 419.159 698.319 418.711C698.336 418.263 698.259 417.816 698.092 417.4C697.924 416.984 697.672 416.607 697.349 416.296C697.027 415.984 696.643 415.743 696.221 415.59C693.671 414.73 689.762 417.59 688.332 419.59C688.252 419.71 687.471 421.05 686.991 421.9C687.201 421.36 687.401 420.83 687.601 420.27C688.011 419.15 688.391 418.03 688.791 416.83L689.332 415.04C689.522 414.45 689.651 413.8 689.811 413.17C690.161 411.71 690.441 410.17 690.691 408.7C691.691 409.05 695.151 410.27 696.951 410.14C698.751 410.01 700.952 409.35 702.032 407.76C702.29 407.393 702.467 406.976 702.553 406.536C702.639 406.096 702.632 405.643 702.531 405.206C702.43 404.769 702.238 404.359 701.967 404.001C701.697 403.643 701.354 403.347 700.962 403.13C698.562 401.89 694.261 404.13 692.561 405.87C692.451 405.98 691.362 407.33 690.782 408.09C690.922 407.18 691.071 406.27 691.181 405.34C691.521 402.67 691.772 399.95 692.032 397.24C692.112 396.41 692.201 395.58 692.291 394.76C692.641 394.89 696.741 396.41 698.761 396.27C700.561 396.15 702.761 395.49 703.851 393.89C704.108 393.523 704.284 393.106 704.37 392.666C704.455 392.226 704.447 391.774 704.346 391.337C704.245 390.901 704.054 390.49 703.784 390.133C703.515 389.775 703.173 389.478 702.782 389.26C700.382 388.02 696.081 390.26 694.371 392C694.241 392.13 692.681 394.09 692.311 394.6C692.501 392.78 692.711 390.97 692.991 389.19C693.355 386.783 693.873 384.401 694.541 382.06C694.701 382.12 698.981 383.74 701.051 383.59C702.851 383.47 705.101 382.81 706.141 381.21C706.398 380.842 706.574 380.425 706.658 379.985C706.742 379.544 706.733 379.091 706.632 378.655C706.53 378.218 706.337 377.808 706.067 377.451C705.796 377.093 705.454 376.797 705.061 376.58C702.671 375.34 698.371 377.58 696.661 379.32C696.551 379.44 695.351 380.92 694.801 381.64L694.671 381.57C695.408 379.236 696.356 376.973 697.501 374.81C698.111 373.61 698.761 372.49 699.421 371.42C700.191 371.81 703.712 373.52 705.592 373.59C707.472 373.66 709.702 373.26 710.902 371.78C711.199 371.444 711.422 371.05 711.556 370.622C711.69 370.194 711.733 369.743 711.681 369.297C711.629 368.852 711.484 368.423 711.255 368.037C711.026 367.652 710.718 367.319 710.351 367.06C708.101 365.57 703.581 367.37 701.691 368.87C701.591 368.95 700.642 369.87 699.962 370.59C700.262 370.11 700.571 369.59 700.871 369.16C702.001 367.46 703.141 365.98 704.161 364.67C704.741 363.93 705.291 363.27 705.801 362.67C706.801 362.67 710.571 362.54 712.241 361.76C713.911 360.98 715.731 359.56 716.121 357.7C716.229 357.265 716.245 356.812 716.166 356.371C716.087 355.93 715.916 355.51 715.664 355.139C715.412 354.768 715.085 354.455 714.704 354.219C714.322 353.983 713.896 353.83 713.451 353.77C710.771 353.48 707.581 357.16 706.601 359.36C706.521 359.55 705.531 362.68 705.601 362.68H705.661C705.151 363.26 704.661 363.88 704.041 364.58C703.041 365.87 701.822 367.33 700.652 369.02C699.367 370.815 698.192 372.685 697.131 374.62C695.935 376.785 694.931 379.05 694.131 381.39C694.131 381.39 694.131 381.39 694.131 381.47C694.131 380.68 694.131 378.47 694.131 378.3C693.821 375.91 691.811 371.48 689.131 370.99C688.689 370.919 688.236 370.943 687.803 371.059C687.37 371.175 686.967 371.382 686.619 371.665C686.272 371.949 685.988 372.302 685.787 372.703C685.585 373.104 685.471 373.542 685.451 373.99C685.291 375.89 686.671 377.79 688.011 378.99C689.521 380.34 693.731 381.65 694.011 381.75C693.255 384.15 692.664 386.599 692.241 389.08C691.981 390.52 691.761 391.99 691.571 393.45C691.571 392.77 691.571 392.16 691.571 392.07C691.261 389.69 689.261 385.25 686.571 384.76C686.128 384.691 685.676 384.716 685.243 384.833C684.81 384.949 684.407 385.156 684.059 385.439C683.711 385.722 683.426 386.075 683.223 386.474C683.021 386.874 682.904 387.312 682.881 387.76C682.731 389.66 684.101 391.56 685.451 392.76C686.801 393.96 690.371 395.16 691.311 395.47L691.101 397.16C690.781 399.87 690.471 402.57 690.101 405.21C689.961 406.14 689.801 407.05 689.631 407.97C689.631 407.36 689.631 406.85 689.631 406.77C689.321 404.38 687.321 399.95 684.631 399.46C684.189 399.389 683.736 399.413 683.303 399.529C682.87 399.645 682.467 399.852 682.119 400.135C681.772 400.419 681.488 400.772 681.287 401.173C681.085 401.574 680.971 402.012 680.951 402.46C680.801 404.36 682.171 406.26 683.511 407.46C684.851 408.66 688.092 409.74 689.212 410.11C689.012 411.04 688.822 411.97 688.592 412.86C688.412 413.47 688.292 414.06 688.082 414.66L687.511 416.44C687.101 417.55 686.692 418.7 686.272 419.78C685.982 420.53 685.691 421.24 685.411 421.96C685.551 421.03 685.801 419.21 685.801 419.06C685.769 416.951 685.197 414.886 684.141 413.06C684.161 412.824 684.161 412.586 684.141 412.35C684.085 411.905 683.935 411.477 683.702 411.094C683.47 410.71 683.159 410.38 682.79 410.124C682.421 409.869 682.003 409.694 681.562 409.61C681.121 409.527 680.668 409.537 680.231 409.64C677.621 410.34 675.971 414.92 675.851 417.32C675.851 417.46 675.931 419.01 676.011 419.99C675.881 419.42 675.751 418.87 675.611 418.29C675.341 417.13 675.032 415.99 674.712 414.76L674.171 412.98C674.001 412.38 673.751 411.76 673.541 411.15C673.021 409.74 672.431 408.34 671.801 406.94C672.801 406.7 676.381 405.79 677.801 404.68C679.221 403.57 680.741 401.8 680.731 399.89C680.743 399.442 680.66 398.997 680.488 398.583C680.316 398.169 680.059 397.796 679.734 397.488C679.409 397.18 679.022 396.943 678.6 396.794C678.177 396.644 677.728 396.585 677.282 396.62C674.602 396.91 672.282 401.19 671.782 403.55C671.782 403.69 671.592 405.43 671.522 406.38C671.142 405.54 670.761 404.7 670.351 403.87C669.151 401.45 667.862 399.04 666.582 396.64C666.192 395.9 665.811 395.16 665.431 394.42C665.791 394.34 670.061 393.35 671.661 392.12C673.091 391.02 674.602 389.23 674.592 387.33C674.604 386.882 674.522 386.436 674.351 386.021C674.18 385.607 673.923 385.233 673.597 384.924C673.272 384.616 672.885 384.379 672.462 384.23C672.038 384.081 671.589 384.023 671.141 384.06C668.461 384.35 666.141 388.62 665.641 390.98C665.641 391.16 665.381 393.65 665.361 394.29C664.511 392.66 663.691 391.03 662.941 389.4C661.913 387.191 661.031 384.916 660.301 382.59C660.471 382.59 664.931 381.59 666.571 380.28C668.001 379.18 669.571 377.39 669.501 375.49C669.514 375.042 669.432 374.596 669.261 374.181C669.09 373.767 668.833 373.393 668.507 373.084C668.182 372.776 667.795 372.539 667.372 372.39C666.948 372.241 666.499 372.183 666.051 372.22C663.371 372.51 661.051 376.78 660.561 379.14C660.561 379.3 660.351 381.2 660.291 382.14H660.141C659.467 379.783 659.005 377.37 658.761 374.93C658.611 373.59 658.551 372.3 658.511 371.05C659.361 370.94 663.242 370.43 664.842 369.46C666.442 368.49 668.082 366.91 668.282 365.01C668.342 364.567 668.309 364.115 668.183 363.685C668.058 363.256 667.843 362.857 667.554 362.516C667.264 362.174 666.906 361.898 666.502 361.704C666.099 361.51 665.659 361.403 665.212 361.39C662.512 361.39 659.731 365.39 658.991 367.66C658.991 367.79 658.681 369.1 658.491 370.06C658.491 369.49 658.491 368.91 658.491 368.36C658.491 366.36 658.621 364.46 658.751 362.8C658.831 361.86 658.921 361.01 659.011 360.22C659.791 359.69 662.911 357.48 663.871 355.91C664.831 354.34 665.581 352.15 664.871 350.38C664.721 349.958 664.483 349.571 664.174 349.247C663.864 348.922 663.489 348.667 663.074 348.497C662.659 348.327 662.212 348.247 661.764 348.261C661.315 348.275 660.875 348.384 660.471 348.58C658.071 349.82 657.472 354.64 657.842 357.02C657.842 357.22 658.782 360.37 658.842 360.35C658.732 361.11 658.632 361.93 658.532 362.83C658.372 364.48 658.202 366.35 658.152 368.4C658.078 370.605 658.132 372.812 658.311 375.01C658.505 377.478 658.913 379.924 659.532 382.32V382.4C659.112 381.73 657.861 379.91 657.741 379.78C656.171 377.96 652.051 375.36 649.571 376.42C649.164 376.606 648.8 376.875 648.504 377.211C648.207 377.547 647.985 377.941 647.851 378.368C647.717 378.796 647.675 379.247 647.726 379.691C647.778 380.136 647.923 380.565 648.152 380.95C649.072 382.49 651.271 383.32 653.051 383.58Z" fill="#263238"/>
<path d="M599.86 137L597.19 85.4199L552.85 109.51L553.85 113.51L570.62 122.07L491.71 276.72L241.27 344.82L68.1405 226.66C66.6062 225.612 64.7186 225.217 62.8929 225.561C61.0673 225.905 59.4531 226.961 58.4055 228.495C57.3579 230.029 56.9627 231.917 57.3068 233.742C57.6509 235.568 58.7062 237.182 60.2405 238.23L236 358.2C237.178 359.005 238.574 359.43 240 359.42C240.619 359.421 241.235 359.337 241.83 359.17L498.38 289.42C499.322 289.164 500.2 288.715 500.958 288.1C501.716 287.485 502.336 286.719 502.78 285.85L583.1 128.47L599.86 137Z" fill="#263238" stroke="#263238" stroke-linecap="round" stroke-linejoin="round"/>
<path d="M598.86 133L596.19 81.4199L552.85 109.51L569.62 118.07L490.71 272.72L240.27 340.82L67.1405 222.66C65.6062 221.612 63.7186 221.217 61.8929 221.561C60.0673 221.905 58.4531 222.961 57.4055 224.495C56.3579 226.029 55.9627 227.917 56.3068 229.742C56.6509 231.568 57.7062 233.182 59.2405 234.23L235 354.2C236.178 355.005 237.574 355.43 239 355.42C239.619 355.421 240.235 355.337 240.83 355.17L497.38 285.42C498.322 285.164 499.2 284.715 499.958 284.1C500.716 283.485 501.336 282.719 501.78 281.85L582.1 124.47L598.86 133Z" fill="#3E89EC" stroke="#263238" stroke-linecap="round" stroke-linejoin="round"/>
<path d="M533.189 431.44H714.189" stroke="#263238" stroke-linecap="round" stroke-linejoin="round"/>
<path d="M511.189 431.44H524.189" stroke="#263238" stroke-linecap="round" stroke-linejoin="round"/>
<path d="M184.189 431.44H500.189" stroke="#263238" stroke-linecap="round" stroke-linejoin="round"/>
<path d="M33.1895 431.44H175.189" stroke="#263238" stroke-linecap="round" stroke-linejoin="round"/>
<path fill-rule="evenodd" clip-rule="evenodd" d="M103.544 263.078C107.995 264.967 112.195 265.592 114.019 264.839C118.595 262.952 116.598 245.578 111.966 239.268C107.334 232.959 88.0334 232.638 88.9823 246.295C89.3117 251.035 91.8773 254.946 95.2785 257.954L93.4618 283.025L108.674 280.887L103.544 263.078Z" fill="#B28B67"/>
<path fill-rule="evenodd" clip-rule="evenodd" d="M104.915 232.679C102.747 232.339 99.6999 232.549 98.4509 232.872C98.9306 231.046 98.9471 229.084 98.4505 227.246C97.968 225.46 96.9356 224.026 95.954 222.51C95.5015 221.811 95.0034 221.123 94.3361 220.633C93.6563 220.135 92.8454 219.856 92.026 219.784C91.1874 219.711 90.3404 219.846 89.5509 220.131C89.2017 220.257 88.9019 220.466 88.5618 220.607C88.2135 220.751 88.0065 220.55 87.7123 220.36C87.0035 219.903 86.0388 219.764 85.2255 219.78C84.3131 219.798 83.401 220.063 82.5866 220.478C81.7939 220.881 81.059 221.458 80.552 222.22C80.3263 222.559 80.1311 222.937 80.0262 223.338C79.9831 223.502 79.9854 223.596 79.8377 223.675C79.7012 223.748 79.5331 223.773 79.3917 223.844C78.0237 224.531 76.9512 225.81 76.4823 227.324C76.2087 228.208 76.229 229.693 76.5094 231.321C76.7899 232.949 78.8706 237.008 80.4746 238.37C81.9064 239.585 83.8527 240.247 85.6631 240.401C84.6854 241.892 84.1434 243.659 83.8072 245.425C83.4422 247.344 83.3244 249.302 83.4546 251.261C83.5784 253.122 83.8397 255.072 84.5263 256.814C85.1685 258.443 86.2295 259.705 87.7997 260.379C88.5189 260.688 89.2743 260.889 90.0303 261.065C90.7753 261.237 91.5214 261.402 92.2831 261.451C93.7249 261.542 95.3324 261.266 96.2555 260.002C96.5881 259.547 96.9452 258.983 97.1601 258.453C97.2374 258.263 97.2828 258.139 97.1346 257.984C96.9571 257.799 96.6947 257.675 96.4812 257.54C95.264 256.774 94.418 255.641 94.0432 254.206C93.6629 252.75 93.7932 250.783 95.1458 249.935C96.8155 248.887 98.9064 249.526 100.61 250.157C100.95 247.694 102.032 245.367 104.046 243.976C106.275 242.438 109.005 241.911 111.324 240.533C111.928 240.174 112.539 239.777 112.934 239.163C113.1 238.907 113.29 238.577 113.326 238.264C113.374 237.852 113.07 237.554 112.828 237.272C111.543 235.777 107.082 233.019 104.915 232.679Z" fill="black"/>
<path fill-rule="evenodd" clip-rule="evenodd" d="M99.207 333.297L146.768 412.57L182.424 479.59H190.105L130.361 333.297L99.207 333.297Z" fill="#997659"/>
<path fill-rule="evenodd" clip-rule="evenodd" d="M179.66 475.85C178.888 475.517 177.973 475.858 177.689 476.65C177.231 477.926 176.656 479.735 176.656 480.773C176.656 482.499 177.233 485.811 177.233 485.811C179.242 485.811 213.334 485.811 213.334 485.811C213.334 485.811 214.741 481.173 211.709 480.803C208.677 480.433 206.672 480.135 206.672 480.135L189.966 472.71C189.596 472.546 189.164 472.719 189.009 473.092L187.962 475.626C187.962 475.626 185.155 476.931 183.4 476.931C182.379 476.931 180.801 476.342 179.66 475.85Z" fill="black"/>
<path fill-rule="evenodd" clip-rule="evenodd" d="M172.522 468.858L187.333 464.391C187.333 464.391 177.599 435.38 163.473 400.54C149.347 365.7 133.131 333.297 133.131 333.297H91.2988C91.2988 333.297 109.328 374.285 129.524 407.783C149.721 441.281 172.522 468.858 172.522 468.858Z" fill="#29363C"/>
<path fill-rule="evenodd" clip-rule="evenodd" d="M96.0811 333.297C91.5923 361.154 82.9345 396.745 82.1175 397.843C81.5728 398.575 61.9633 405.127 23.2891 417.497L24.9481 424.249C71.067 417.615 95.3678 412.468 97.8503 408.808C101.574 403.318 120.168 359.947 127.369 333.297H96.0811Z" fill="#B28B67"/>
<path fill-rule="evenodd" clip-rule="evenodd" d="M36.8848 411.66L39.8069 422.535C74.3012 425.551 95.4366 423.372 103.213 415.997C110.99 408.621 119.853 381.055 129.802 333.297H89.9129C83.6092 372.404 80.0851 392.779 79.3404 394.42C78.5958 396.062 64.4439 401.809 36.8848 411.66Z" fill="#455A64"/>
<path fill-rule="evenodd" clip-rule="evenodd" d="M26.1549 416.476C26.3505 415.656 25.8529 414.811 25.0213 414.67C23.6809 414.442 21.7969 414.192 20.7722 414.372C19.0672 414.672 15.8963 415.813 15.8963 415.813C16.2451 417.785 22.1651 451.259 22.1651 451.259C22.1651 451.259 26.9909 451.835 26.8297 448.794C26.6686 445.753 26.6147 443.732 26.6147 443.732L31.0471 426.044C31.1457 425.651 30.8993 425.254 30.5028 425.167L27.8203 424.579C27.8203 424.579 26.0433 422.05 25.7386 420.327C25.5618 419.327 25.8673 417.681 26.1549 416.476Z" fill="black"/>
<path fill-rule="evenodd" clip-rule="evenodd" d="M144.203 277.038L123.891 292.143L133.237 299.695L147.172 282.855C155.268 279.358 158.881 277.124 158.012 276.154C157.279 275.335 156.305 275.504 155.409 275.66C154.71 275.781 154.059 275.894 153.603 275.526C152.563 274.686 153.813 271.061 155.146 267.671C156.479 264.282 154.62 264.822 153.598 265.426C150.385 268.322 147.253 272.192 144.203 277.038ZM168.692 290.785L159.772 297.436L161.681 307.028C161.681 307.028 167.307 301.644 172.481 299.391C179.079 296.517 181.652 294.669 184.408 289.936C185.882 287.403 186.762 282.605 184.843 281.352C184.107 280.871 181.855 282.567 179.558 284.298C177.806 285.617 176.029 286.956 174.875 287.367C173.322 287.92 173.219 285.827 173.137 284.155C173.077 282.955 173.029 281.972 172.463 282.338C169.641 282.783 168.692 290.785 168.692 290.785Z" fill="#997659"/>
<path fill-rule="evenodd" clip-rule="evenodd" d="M112.803 290.973C120.498 289.808 130.545 286.742 140.535 278.262L146.186 287.23C139.675 295.776 129.905 303.419 120.57 304.466C113.213 305.29 108.226 296.98 112.803 290.973Z" fill="#3E89EC"/>
<path fill-rule="evenodd" clip-rule="evenodd" d="M108.15 266.84C108.15 266.839 108.15 266.839 108.15 266.839L92.8663 268.987C92.8663 268.987 92.8663 268.987 92.8663 268.988L92.3131 269.065C90.3846 269.336 80.7979 296.229 83.073 312.506C83.8542 318.095 82.5679 323.193 81.2135 328.56C78.9664 337.466 76.5323 347.112 83.0447 360.975C86.9238 359.632 93.7782 359.561 101.238 359.483C115.199 359.339 131.28 359.172 133.942 350.6C135.929 344.203 135.848 337.518 134.508 330.67C146.137 328.777 159.756 322.952 175.066 312.027C174.722 305.658 165.481 291.888 165.481 291.888C165.481 291.888 138.515 305.944 125.328 304.849C124.209 302.394 123.059 299.939 121.91 297.487C116.99 286.987 112.102 276.554 109.9 266.594L108.15 266.84Z" fill="#276BC5"/>
<path fill-rule="evenodd" clip-rule="evenodd" d="M291.741 262.921C287.931 265.899 284.035 267.589 282.078 267.335C277.17 266.696 274.601 249.397 277.443 242.103C280.284 234.81 298.844 229.505 301.462 242.942C302.37 247.606 300.905 252.047 298.398 255.832L306.642 279.58L291.395 281.452L291.741 262.921Z" fill="#B28B67"/>
<path fill-rule="evenodd" clip-rule="evenodd" d="M285.165 233.152C287.135 232.576 292.518 231.686 293.515 231.564C294.153 231.485 294.862 231.546 295.168 230.916C295.419 230.4 295.206 229.605 295.23 229.039C295.258 228.382 295.332 227.727 295.408 227.073C295.625 225.214 296.077 223.415 296.806 221.689C298.174 218.449 300.431 215.766 303.479 213.992C306.845 212.033 310.823 211.191 314.682 211.031C318.812 210.859 322.68 211.75 326.696 212.543C330.524 213.298 334.436 213.3 338.212 212.238C342.017 211.168 344.689 208.713 347.716 206.323C350.814 203.876 354.477 202.075 358.472 201.895C362.202 201.727 365.794 202.83 369.099 204.487C372.191 206.037 374.83 208.034 376.557 211.09C378.414 214.376 378.88 218.177 376.9 221.527C374.03 226.382 367.832 228.307 362.544 228.841C359.486 229.149 356.422 228.962 353.418 228.306C349.412 227.43 345.813 225.555 341.992 224.144C340.2 223.482 338.369 222.982 336.479 222.693C334.645 222.411 332.87 222.396 331.396 223.661C329.837 224.999 328.452 226.296 326.596 227.241C324.816 228.149 322.888 228.77 320.901 228.999C317.034 229.443 313.079 228.711 309.228 228.368C306.088 228.088 302.735 227.837 299.693 228.85C298.424 229.273 296.589 230.049 296.285 231.455C304.372 231.913 308.678 241.288 307.326 248.723C306.597 252.736 299.915 258.144 296.852 256.457C294.912 255.388 295.786 253.565 296.35 252.364C297.428 250.062 297.55 247.261 294.886 246.079C292.588 245.058 290.711 248.382 290.668 248.383C290.074 248.409 284.638 246.167 280.621 242.414C277.191 243.043 276.388 240.835 276.985 238.876C277.582 236.917 282.445 233.947 285.165 233.152Z" fill="black"/>
<path fill-rule="evenodd" clip-rule="evenodd" d="M324.66 333.297C323.506 349.001 249.157 395.237 248.723 396.534C248.434 397.399 271.865 451.211 271.865 451.211L265.366 453.729C265.366 453.729 229.426 396.738 231.272 390.665C233.915 381.971 288.959 333.464 288.959 333.464L324.66 333.297Z" fill="#B28B67"/>
<path fill-rule="evenodd" clip-rule="evenodd" d="M270.154 443.109L259.543 446.96C237.168 421.79 228.398 401.023 229.997 390.442C231.596 379.86 287.485 333.336 287.485 333.336L325.421 333.336C324.126 369.704 255.214 396.673 254.292 398.222C253.37 399.772 262.441 414.951 270.154 443.109Z" fill="#455A64"/>
<path fill-rule="evenodd" clip-rule="evenodd" d="M272.22 450.025C272.832 449.449 273.809 449.458 274.347 450.105C275.216 451.148 276.376 452.652 276.732 453.627C277.324 455.249 277.918 458.558 277.918 458.558C276.031 459.243 243.995 470.868 243.995 470.868C243.995 470.868 241.082 466.989 243.804 465.608C246.526 464.226 248.308 463.263 248.308 463.263L261.459 450.589C261.75 450.308 262.216 450.323 262.489 450.622L264.343 452.645C264.343 452.645 267.428 452.915 269.077 452.316C270.036 451.968 271.317 450.877 272.22 450.025Z" fill="black"/>
<path fill-rule="evenodd" clip-rule="evenodd" d="M316.11 333.297L349.231 412.571L381.783 479.59H374.103L290.077 333.297H316.11Z" fill="#997659"/>
<path fill-rule="evenodd" clip-rule="evenodd" d="M380.313 475.85C381.085 475.517 381.999 475.859 382.283 476.65C382.742 477.927 383.316 479.735 383.316 480.774C383.316 482.5 382.74 485.811 382.74 485.811C380.731 485.811 346.639 485.811 346.639 485.811C346.639 485.811 345.232 481.173 348.264 480.803C351.295 480.433 353.301 480.135 353.301 480.135L370.007 472.71C370.376 472.546 370.809 472.719 370.963 473.093L372.011 475.626C372.011 475.626 374.818 476.931 376.572 476.931C377.593 476.931 379.172 476.342 380.313 475.85Z" fill="black"/>
<path fill-rule="evenodd" clip-rule="evenodd" d="M378.844 465.667L361.778 468.858C348.583 449.517 293.362 370.214 287.308 333.297H325.299C345.518 359.984 366.266 446.007 378.844 465.667Z" fill="#37474F"/>
<path fill-rule="evenodd" clip-rule="evenodd" d="M233.347 314.106L257.604 321.359L251.406 331.649L232.548 320.588C223.743 320.068 219.583 319.204 220.068 317.995C220.477 316.975 221.449 316.801 222.345 316.641C223.043 316.516 223.694 316.399 223.996 315.898C224.685 314.753 222.271 311.774 219.858 309.044C217.445 306.315 219.377 306.187 220.543 306.406C224.554 308.028 228.822 310.595 233.347 314.106ZM338.308 316.882L351.01 312.708C362.688 334.824 369.512 346.892 371.484 348.91C372.93 350.39 381.127 353.653 386.601 355.261C388.798 355.907 388.566 357.72 388.023 358.357C384.598 362.379 380.857 361.576 376.784 360.702C375.605 360.449 374.398 360.19 373.163 360.041C369.967 359.653 369.218 361.36 368.511 362.972C367.884 364.4 367.29 365.754 365.058 365.517C365.104 365.08 365.167 364.59 365.235 364.06C365.674 360.637 366.32 355.589 364.12 352.972C362.991 351.629 354.387 339.599 338.308 316.882Z" fill="#B28B67"/>
<path fill-rule="evenodd" clip-rule="evenodd" d="M296.646 270.091L291.037 269.826C280.493 282.867 279.024 311.268 271.502 315.927C264.39 320.332 253.289 318.277 240.028 315.291L237.201 324.434C250.272 335.467 276.153 342.966 285.383 335.737C300.14 324.181 299.608 289.44 296.646 270.091Z" fill="#377AD2"/>
<path fill-rule="evenodd" clip-rule="evenodd" d="M329.043 335.978C329.043 335.978 296.004 340.035 280.436 341.946C278.215 342.219 278.241 338.97 278.364 337.317C279.783 318.241 291.784 296.391 288.529 269.884L302.28 265.97C316.16 283.142 322.982 305.543 329.043 335.978Z" fill="#DDE3E9"/>
<path fill-rule="evenodd" clip-rule="evenodd" d="M297.723 353.326L341.477 347.953C339.506 337.628 335.935 326.891 331.577 316.53C343.674 333.133 353.578 344.94 361.289 351.95L371.233 348.709C359.688 308.936 337.005 281.319 303.185 265.86L303.025 265.879C303.025 265.879 303.025 265.879 303.025 265.879L297.634 266.541C297.634 266.541 286.632 333.024 297.723 353.326Z" fill="#3E89EC"/>
<path fill-rule="evenodd" clip-rule="evenodd" d="M663.157 238.479C657.733 238.866 653.041 237.997 651.379 236.528C647.21 232.846 655.714 215.065 662.954 210.036C670.194 205.007 690.82 211.717 684.795 225.92C682.703 230.85 678.54 234.079 673.821 236.04L666.542 263.414L651.164 255.578L663.157 238.479Z" fill="#B28B67"/>
<path fill-rule="evenodd" clip-rule="evenodd" d="M661.029 196.97C661.918 196.013 663.263 195.491 664.562 195.795C664.877 195.869 665.181 195.988 665.463 196.146C665.564 196.203 665.578 196.248 665.663 196.2C665.726 196.165 665.794 196.034 665.84 195.979C665.986 195.807 666.142 195.642 666.309 195.49C666.877 194.971 667.573 194.609 668.306 194.38C669.678 193.95 671.23 193.962 672.571 194.505C673.306 194.802 673.946 195.272 674.494 195.84C674.778 196.133 675.036 196.451 675.278 196.78C675.351 196.878 675.546 197.281 675.653 197.315C675.77 197.353 676.125 197.195 676.248 197.172C677.764 196.891 679.278 197.248 680.631 197.95C682.158 198.742 683.595 199.571 684.397 201.157C684.567 201.492 684.714 201.84 684.843 202.193C684.912 202.379 684.973 202.568 685.026 202.758C685.059 202.873 685.088 202.989 685.114 203.106C685.157 203.303 685.115 203.34 685.325 203.324C686.131 203.264 686.933 203.452 687.606 203.906C688.006 204.176 688.355 204.516 688.663 204.885C688.768 205.01 688.962 205.397 689.104 205.473C689.245 205.547 689.659 205.491 689.832 205.511C690.77 205.622 691.657 205.984 692.417 206.541C693.202 207.115 693.868 207.885 694.353 208.726C694.586 209.13 694.762 209.537 694.834 209.998C694.866 210.198 694.882 210.4 694.933 210.596C694.963 210.711 695.06 210.863 695.047 210.982C695.055 210.911 696.201 211.029 696.303 211.052C696.849 211.171 697.326 211.447 697.719 211.842C698.457 212.586 698.886 213.629 699.171 214.619C699.317 215.128 699.405 215.653 699.437 216.18C699.453 216.433 699.456 216.686 699.448 216.94C699.444 217.062 699.411 217.202 699.427 217.322C699.448 217.477 699.5 217.506 699.617 217.629C700.213 218.253 700.655 219.021 700.863 219.859C701.073 220.707 701.034 221.6 700.784 222.433C700.769 222.483 700.679 222.671 700.693 222.709C700.712 222.761 700.866 222.82 700.918 222.855C701.098 222.975 701.27 223.105 701.435 223.245C701.739 223.502 702.013 223.794 702.251 224.113C703.178 225.358 703.479 226.959 703.253 228.473C703.017 230.063 702.216 231.614 700.994 232.669C700.796 232.839 700.585 232.995 700.362 233.13C700.224 233.213 700.2 233.201 700.184 233.353C700.167 233.522 700.196 233.711 700.19 233.882C700.172 234.441 700.076 234.995 699.92 235.532C699.664 236.412 699.311 237.293 698.748 238.025C698.487 238.364 698.177 238.669 697.821 238.908C697.639 239.03 697.445 239.135 697.243 239.22C697.138 239.265 697.031 239.304 696.923 239.338C696.861 239.357 696.788 239.365 696.73 239.392C696.588 239.459 696.616 239.359 696.577 239.544C696.524 239.802 696.55 240.098 696.524 240.363C696.497 240.635 696.459 240.907 696.414 241.177C696.322 241.724 696.203 242.268 696.033 242.797C695.706 243.811 695.171 244.797 694.289 245.431C693.911 245.703 693.475 245.887 693.017 245.97C692.793 246.011 692.564 246.027 692.336 246.021C692.219 246.018 692.089 245.975 691.999 246.045C691.903 246.119 691.873 246.349 691.832 246.467C691.483 247.49 691.041 248.526 690.281 249.316C689.582 250.044 688.62 250.511 687.617 250.634C685.672 250.872 683.748 249.822 682.625 248.266C682.332 247.86 682.09 247.418 681.911 246.951C680.49 247.656 678.774 246.737 677.707 245.786C676.378 244.601 675.69 242.907 675.695 241.143C674.123 241.83 672.282 240.409 672.262 238.785C672.258 238.388 672.336 237.993 672.466 237.619C672.534 237.422 672.645 237.244 672.719 237.052C672.813 236.808 672.773 236.503 672.798 236.232C672.848 235.706 672.97 235.199 673.206 234.724C673.329 234.477 673.483 234.252 673.631 234.02C673.764 233.811 673.807 233.574 673.883 233.339C674.244 233.605 674.777 233.743 675.206 233.818C675.627 233.891 676.118 233.77 676.512 233.631C677.428 233.31 678.21 232.675 678.875 231.986C680.334 230.474 681.205 228.211 679.904 226.31C679.298 225.424 676.783 224.144 675.668 223.861C674.496 223.564 672.123 225.276 671.953 225.464C671.848 225.58 671.781 225.757 671.611 225.783C671.238 225.842 670.964 225.27 670.849 224.999C670.651 224.53 670.602 224.015 670.589 223.512C670.56 222.416 670.652 221.304 670.866 220.228C671.03 219.399 671.28 218.585 671.372 217.743C671.463 216.905 671.363 216.063 670.913 215.332C670.423 214.537 669.725 213.894 669.083 213.224C668.448 212.561 667.856 211.844 667.548 210.966C667.48 210.774 667.421 210.575 667.39 210.372C667.366 210.213 667.397 209.947 667.307 209.808C667.168 209.591 666.725 209.744 666.499 209.765C665.379 209.872 664.291 210.261 663.304 210.79C662.323 211.316 661.459 211.863 660.619 212.579C659.995 213.111 659.38 213.886 658.606 214.187C658.26 214.322 656.55 213.639 656.13 213.154C655.711 212.668 655.403 211.807 655.404 211.366C655.404 210.914 655.562 210.498 655.84 210.145C656.003 209.937 656.207 209.768 656.373 209.567C656.513 209.399 656.644 209.238 656.826 209.111C657.171 208.87 657.592 208.785 658.006 208.87C657.806 208.33 657.705 207.755 657.726 207.18C657.747 206.582 657.856 205.897 658.072 205.34C658.248 204.887 658.543 204.475 658.967 204.225C659.412 203.963 659.98 203.933 660.482 203.884C660.134 203.136 659.919 202.332 659.822 201.515C659.634 199.925 659.906 198.18 661.029 196.97Z" fill="black"/>
<path fill-rule="evenodd" clip-rule="evenodd" d="M652.465 318.74L617.167 408.08L593.492 483.61H584.144L620.337 318.74L652.465 318.74Z" fill="#997659"/>
<path fill-rule="evenodd" clip-rule="evenodd" d="M659.574 318.74C659.95 350.135 665.431 392.403 666.307 394.36C667.183 396.317 726.773 444.133 726.773 444.133L720.335 451.023C720.335 451.023 650.023 410.027 646.769 404.559C643.516 399.091 632.923 348.775 624.418 318.74H659.574Z" fill="#B28B67"/>
<path fill-rule="evenodd" clip-rule="evenodd" d="M725.737 442.843C725.973 442.035 726.824 441.554 727.615 441.843C729.058 442.37 731.168 443.223 732.103 444.007C733.593 445.258 736.035 448.153 736.035 448.153C734.585 449.882 709.962 479.226 709.962 479.226C709.962 479.226 704.942 477.077 706.812 474.2C708.683 471.322 709.874 469.38 709.874 469.38L715.554 449.536C715.665 449.146 716.076 448.925 716.463 449.048L719.493 450.009C719.493 450.009 722.648 448.539 723.915 447.029C724.687 446.109 725.342 444.198 725.737 442.843Z" fill="black"/>
<path fill-rule="evenodd" clip-rule="evenodd" d="M595.327 479.319C596.098 478.98 597.014 479.324 597.301 480.115C597.825 481.559 598.527 483.724 598.527 484.944C598.527 486.89 597.879 490.622 597.879 490.622C595.623 490.622 557.317 490.622 557.317 490.622C557.317 490.622 555.736 485.395 559.142 484.978C562.549 484.561 564.802 484.225 564.802 484.225L583.655 475.821C584.025 475.656 584.458 475.829 584.613 476.203L585.825 479.143C585.825 479.143 588.978 480.614 590.95 480.614C592.15 480.614 594.036 479.888 595.327 479.319Z" fill="black"/>
<path fill-rule="evenodd" clip-rule="evenodd" d="M628.732 475.83L584.284 471.007L617.225 318.74H657.035L628.732 475.83Z" fill="#37474F"/>
<path fill-rule="evenodd" clip-rule="evenodd" d="M717.58 433.017L688.425 467.526C688.425 467.526 642.362 417.218 634.716 401.873C627.069 386.529 620.968 318.74 620.968 318.74H665.787C665.787 318.74 669.12 378.378 670.28 381.153C671.44 383.928 717.58 433.017 717.58 433.017Z" fill="#455A64"/>
<path fill-rule="evenodd" clip-rule="evenodd" d="M579.344 272.815L601.86 290.223L591.207 298.553L575.891 279.313C566.865 275.217 562.851 272.631 563.847 271.554C564.687 270.646 565.777 270.855 566.782 271.047C567.564 271.197 568.294 271.337 568.813 270.931C569.998 270.004 568.667 265.896 567.238 262.052C565.808 258.207 567.886 258.851 569.022 259.551C572.574 262.875 576.015 267.296 579.344 272.815ZM688.314 318.04L703.32 318.768C706.645 346.747 708.934 362.195 710.188 365.114C711.107 367.254 718.388 373.991 723.481 377.89C725.525 379.454 724.55 381.268 723.724 381.721C718.509 384.572 714.909 382.219 710.99 379.658C709.855 378.917 708.694 378.158 707.459 377.502C704.262 375.807 702.789 377.3 701.396 378.712C700.163 379.962 698.993 381.147 696.748 379.998C696.973 379.557 697.236 379.066 697.521 378.536C699.362 375.111 702.077 370.06 700.825 366.42C700.183 364.552 696.012 348.425 688.314 318.04Z" fill="#B28B67"/>
<path fill-rule="evenodd" clip-rule="evenodd" d="M663.495 252.014L657.719 249.474C641.398 258.947 628.398 288.239 618.628 290.109C609.392 291.878 598.578 285.241 585.873 276.754L579.219 285.236C588.477 302.113 612.597 320.435 625.195 316.549C645.335 310.337 658.795 273.568 663.495 252.014Z" fill="#C7C7C7"/>
<path fill-rule="evenodd" clip-rule="evenodd" d="M670.893 334.401C670.893 334.401 634.601 325.353 617.502 321.09C615.063 320.481 616.401 317.073 617.197 315.384C626.382 295.882 647.784 277.729 655.066 248.525L671.068 249.95C678.698 273.612 676.814 299.934 670.893 334.401Z" fill="#3E89EC"/>
<path fill-rule="evenodd" clip-rule="evenodd" d="M631.044 340.03L679.103 352.013C681.202 340.355 681.789 327.618 681.398 314.96C687.387 337.305 693.011 353.72 698.271 364.204L710.008 364.802C713.946 318.298 701.298 280.096 672.063 250.198L671.887 250.154C671.887 250.154 671.887 250.154 671.887 250.154L665.965 248.677C665.965 248.677 627.602 314.198 631.044 340.03Z" fill="#C7C7C7"/>
<path fill-rule="evenodd" clip-rule="evenodd" d="M436.676 265.884C441.23 268.64 445.705 269.971 447.806 269.428C453.073 268.065 453.557 248.72 449.482 241.094C445.406 233.467 424.453 230.143 423.397 245.253C423.031 250.498 425.224 255.178 428.465 258.997L422.654 286.188H439.534L436.676 265.884Z" fill="#B28B67"/>
<path fill-rule="evenodd" clip-rule="evenodd" d="M427.165 262.399C425.047 252.937 419.011 246.486 419.933 242.257C420.855 238.028 424.847 236.997 424.847 236.997C424.847 236.997 426.911 228.613 438.164 229.865C449.416 231.117 456.284 235.808 453.318 246.131C450.592 246.131 447.301 245.141 442.749 246.837C440.583 247.644 439.651 251.843 439.651 251.843H437.594C437.594 251.843 434.6 246.86 431.69 248.181C428.779 249.502 430.366 254.597 430.366 254.597L429.353 262.399H427.165Z" fill="black"/>
<path fill-rule="evenodd" clip-rule="evenodd" d="M392.145 374.447H446.48L453.6 462H372.717L392.145 374.447Z" fill="#C5CFD6"/>
<path fill-rule="evenodd" clip-rule="evenodd" d="M392.145 374.447H408.856L418.858 462H372.717L392.145 374.447Z" fill="black" fill-opacity="0.1"/>
<path fill-rule="evenodd" clip-rule="evenodd" d="M476.336 391.793C470.23 404.793 460.689 436.35 460.689 436.35L468.789 440.065C468.789 440.065 489.342 406.892 501.903 384.215C501.317 389.321 500.721 395.068 500.169 401.11C498.86 415.423 500.168 446.344 500.872 455.277C501.315 460.89 508.913 459.714 509.622 455.262C509.742 454.508 510.232 451.861 510.962 447.911C514.544 428.542 523.92 377.849 523.936 365.437C523.943 360.442 514.223 355.955 508.43 359.448C504.45 355.185 496.919 352.728 492.592 359.769C489.842 364.246 483.306 376.954 476.336 391.793Z" fill="#B28B67"/>
<path fill-rule="evenodd" clip-rule="evenodd" d="M461.266 424.667L489.067 358.551C495.727 347.796 514.4 360.74 512.129 366.978C506.973 381.14 480.748 426.989 479.212 431.208L461.266 424.667Z" fill="#232B30"/>
<path fill-rule="evenodd" clip-rule="evenodd" d="M462.621 433.542C461.647 432.339 459.88 432.027 458.734 433.063C457.779 433.926 456.778 434.929 456.342 435.687C455.391 437.341 454.115 440.833 454.115 440.833C456.026 441.941 488.47 460.745 488.47 460.745C488.47 460.745 492.365 457.076 489.683 455.05C487.002 453.023 485.258 451.632 485.258 451.632L473.772 435.745C473.336 435.142 472.489 435.018 471.902 435.473L469.938 436.99C469.938 436.99 466.548 436.693 464.878 435.726C464.161 435.31 463.333 434.421 462.621 433.542Z" fill="#2E2924"/>
<path fill-rule="evenodd" clip-rule="evenodd" d="M502.285 451.419C500.84 450.865 499.15 451.482 498.674 452.954C498.277 454.182 497.91 455.551 497.91 456.426C497.91 458.336 498.544 462 498.544 462C500.751 462 538.213 462 538.213 462C538.213 462 539.76 456.868 536.428 456.459C533.097 456.05 530.893 455.72 530.893 455.72L513.036 447.728C512.357 447.424 511.56 447.742 511.277 448.431L510.333 450.73C510.333 450.73 507.249 452.175 505.321 452.175C504.495 452.175 503.338 451.822 502.285 451.419Z" fill="#2E2924"/>
<path fill-rule="evenodd" clip-rule="evenodd" d="M525.88 370.516C525.88 389.275 517.006 433.03 517.001 437.161L497.908 437.175C497.908 437.175 502.1 378.611 500.881 377.98C499.662 377.349 450.908 382.867 436.287 382.867C415.202 382.867 406.479 369.519 405.771 344.792H447.54C456.044 345.706 500.404 354.688 516.879 357.776C523.931 359.097 525.88 365.349 525.88 370.516Z" fill="#2D3C43"/>
<path fill-rule="evenodd" clip-rule="evenodd" d="M503.788 264.273L477.129 272.307L483.935 283.69L504.663 271.444C514.339 270.866 518.911 269.908 518.378 268.57C517.929 267.442 516.861 267.25 515.877 267.073C515.11 266.935 514.395 266.807 514.063 266.252C513.306 264.985 515.96 261.688 518.613 258.667C521.265 255.647 519.143 255.506 517.861 255.748C513.452 257.545 508.761 260.387 503.788 264.273ZM497.209 336.031L474.774 319.492L469.814 331.799L492.031 341.048C498.314 348.457 501.828 351.546 502.572 350.314C503.199 349.276 502.708 348.303 502.257 347.408C501.905 346.71 501.577 346.059 501.819 345.459C502.37 344.09 506.591 344.234 510.591 344.543C514.59 344.852 513.425 343.065 512.46 342.183C508.378 339.73 503.294 337.679 497.209 336.031Z" fill="#B28B67"/>
<path fill-rule="evenodd" clip-rule="evenodd" d="M439.927 274.952C452.144 297.821 469.811 315.352 495.423 333.577L485.726 344.554C457.128 333.885 442.036 327.448 434.624 305.841C432.764 300.418 431.464 283.131 430.348 274.035L439.927 274.952Z" fill="#3E89EC"/>
<path fill-rule="evenodd" clip-rule="evenodd" d="M405.771 351.146H459.928C459.928 351.146 441.527 294.807 441.128 273.811C441.115 273.098 439.802 271.84 439.221 272.005C432.85 273.811 425.586 270.654 425.586 270.654C412.747 291.383 408.307 316.905 405.771 351.146Z" fill="#F2F2F2"/>
<path fill-rule="evenodd" clip-rule="evenodd" d="M439.171 302.28C447.629 338.704 447.239 368.52 428.565 368.52H399.689C395.103 337.579 407.156 294.677 418.331 273.038C418.758 272.212 419.666 270.654 421.806 270.654H430.197C430.2 270.666 430.204 270.677 430.208 270.688C432.733 270.709 435.514 270.801 438.525 270.902C454.028 271.418 475.643 272.139 499.965 264.3L502.833 278.685C480.879 292.859 458.65 303.84 439.171 302.28Z" fill="#276BC5"/>
</g>
<defs>
<clipPath id="clip0_235_2260">
<rect width="750" height="500" fill="white"/>
</clipPath>
</defs>
</svg>
