<svg width="1119" height="547" viewBox="0 0 1119 547" fill="none" xmlns="http://www.w3.org/2000/svg">
<path d="M514.291 441.42V465.62H549.681H588.711V441.42H514.291Z" fill="#F5F5F5"/>
<path d="M511.17 434.66V441.42H591.31V434.66H549.68H511.17Z" fill="#E0E0E0"/>
<path d="M551.242 465.62H588.712V441.42H591.312V434.66H549.682V440.8L551.242 465.62Z" fill="#E0E0E0"/>
<path d="M539.791 445.32H524.701V448.96H539.791V445.32Z" fill="#E0E0E0"/>
<path d="M542.14 453.52H522.76V461.21H542.14V453.52Z" fill="white"/>
<path d="M521.131 410.48V434.68H556.521H595.551V410.48H521.131Z" fill="#F5F5F5"/>
<path d="M518.01 403.71V410.48H598.15V403.71H556.52H518.01Z" fill="#E0E0E0"/>
<path d="M558.081 434.68H595.551V410.48H598.151V403.71H556.521V409.85L558.081 434.68Z" fill="#E0E0E0"/>
<path d="M546.631 414.38H531.541V418.02H546.631V414.38Z" fill="#E0E0E0"/>
<path d="M548.982 422.58H529.602V430.27H548.982V422.58Z" fill="white"/>
<path d="M269.261 292.84C269.261 292.84 265.361 295.78 265.361 299.68V319.6H294.421V298.79C294.421 298.79 294.011 293.68 290.601 292.79L269.261 292.84Z" fill="#F5F5F5"/>
<path d="M267.571 318.52C267.312 316.49 267.168 314.447 267.141 312.4C267.174 311.389 267.518 310.412 268.126 309.603C268.735 308.794 269.578 308.192 270.541 307.88C272.071 307.46 273.681 308.02 275.241 308.28C277.803 308.702 280.433 308.31 282.761 307.16C284.761 306.16 286.521 304.66 288.701 304.46C290.131 304.33 291.781 305 292.171 306.38C292.313 307.039 292.313 307.721 292.171 308.38C291.701 311.45 292.301 315.27 292.301 318.22C284.171 318.59 275.741 318.33 267.601 318.5" fill="#E0E0E0"/>
<path d="M263.521 322.42L267.901 319.6H294.421L298.671 322.42H263.521Z" fill="#E0E0E0"/>
<path d="M262.701 257.61V287.27H298.701V322.42H263.521V330.85H324.161V257.61C324.162 256.781 324 255.959 323.684 255.192C323.367 254.426 322.903 253.729 322.317 253.142C321.73 252.555 321.034 252.089 320.268 251.771C319.502 251.454 318.681 251.29 317.851 251.29H269.001C267.328 251.295 265.726 251.964 264.545 253.148C263.364 254.333 262.701 255.937 262.701 257.61Z" fill="#F5F5F5"/>
<path d="M324.161 258.28C324.161 258.43 310.401 258.54 293.431 258.54C276.461 258.54 262.701 258.43 262.701 258.28C262.701 258.13 276.461 258 293.431 258C310.401 258 324.161 258.14 324.161 258.28Z" fill="#E0E0E0"/>
<path d="M307.1 330.85C306.96 330.85 306.84 313.08 306.84 291.17C306.84 269.26 306.96 251.5 307.1 251.5C307.24 251.5 307.36 269.26 307.36 291.17C307.36 313.08 307.25 330.85 307.1 330.85Z" fill="#E0E0E0"/>
<path d="M259.44 310L259.08 301C258.949 298.406 259.649 295.838 261.08 293.67C261.623 292.733 262.393 291.948 263.319 291.387C264.246 290.826 265.298 290.507 266.38 290.46H290.6V292.83H266.78C266.78 292.83 262.49 293.28 261.93 299.15C261.589 302.752 261.589 306.378 261.93 309.98L259.44 310Z" fill="#E0E0E0"/>
<path d="M292.13 445.85H281.49V465.03H292.13V445.85Z" fill="#E0E0E0"/>
<path d="M339.15 445.85H328.51V465.03H339.15V445.85Z" fill="#E0E0E0"/>
<path d="M346.241 330.85H258.111V445.85H346.241V330.85Z" fill="#E0E0E0"/>
<path d="M327.811 330.85H241.971V445.85H327.811V330.85Z" fill="#F5F5F5"/>
<path d="M260.201 445.85H249.561V465.03H260.201V445.85Z" fill="#F5F5F5"/>
<path d="M321.38 445.85H310.74V465.03H321.38V445.85Z" fill="#F5F5F5"/>
<path d="M321 432.71C321 432.71 321 432.53 321 432.2V430.73C321 429.43 321 427.54 321 425.09C321 420.2 321 413.09 320.93 404.32L321.05 404.44L247.38 404.49L247.55 404.32V432.71L247.38 432.54L300.15 432.62L315.5 432.67H319.61H315.54L300.23 432.72L247.34 432.79H247.17V404.15H247.34L321.01 404.2H321.13V404.32C321.13 413.15 321.13 420.26 321.07 425.17C321.07 427.6 321.07 429.49 321.07 430.78V432.22C321 432.55 321 432.71 321 432.71Z" fill="#E0E0E0"/>
<path d="M286.371 418.51C286.312 418.34 286.265 418.167 286.232 417.99C286.15 417.708 286.012 417.445 285.825 417.219C285.638 416.992 285.407 416.807 285.145 416.673C284.884 416.54 284.597 416.462 284.304 416.444C284.011 416.427 283.717 416.469 283.441 416.57C283.049 416.722 282.71 416.987 282.469 417.333C282.229 417.679 282.097 418.089 282.091 418.51C282.094 418.896 282.203 419.273 282.406 419.601C282.61 419.928 282.9 420.193 283.245 420.366C283.589 420.539 283.975 420.613 284.359 420.58C284.743 420.547 285.111 420.409 285.421 420.18C285.812 419.902 286.097 419.5 286.232 419.04C286.268 418.861 286.315 418.684 286.371 418.51C286.425 418.693 286.425 418.887 286.371 419.07C286.267 419.587 285.983 420.051 285.571 420.38C285.26 420.626 284.891 420.789 284.499 420.853C284.107 420.918 283.706 420.883 283.331 420.75C283.005 420.638 282.707 420.456 282.458 420.217C282.209 419.978 282.016 419.687 281.891 419.366C281.766 419.044 281.713 418.699 281.735 418.354C281.758 418.01 281.855 417.675 282.021 417.372C282.186 417.069 282.416 416.806 282.693 416.601C282.971 416.396 283.29 416.254 283.628 416.186C283.966 416.117 284.316 416.123 284.651 416.203C284.987 416.283 285.301 416.436 285.571 416.65C285.981 416.977 286.264 417.437 286.371 417.95C286.425 418.133 286.425 418.327 286.371 418.51Z" fill="#E0E0E0"/>
<path d="M321 398.71C321 398.71 321 398.54 321 398.2V396.73C321 395.44 321 393.54 321 391.1C321 386.21 321 379.1 320.93 370.32L321.05 370.44L247.38 370.5L247.55 370.32V398.71L247.38 398.55L300.15 398.62L315.5 398.67H319.61H315.54L300.23 398.72L247.34 398.8H247.17V370.15H247.34L321.01 370.2H321.13V370.32C321.13 379.15 321.13 386.26 321.07 391.17C321.07 393.6 321.07 395.49 321.07 396.78V398.23C321 398.55 321 398.71 321 398.71Z" fill="#E0E0E0"/>
<path d="M286.372 384.52C286.315 384.347 286.268 384.17 286.232 383.99C286.098 383.53 285.812 383.128 285.422 382.85C285.183 382.676 284.911 382.554 284.622 382.493C284.333 382.432 284.035 382.434 283.746 382.497C283.458 382.561 283.186 382.685 282.95 382.861C282.713 383.038 282.517 383.262 282.373 383.521C282.23 383.779 282.144 384.065 282.12 384.359C282.096 384.653 282.135 384.949 282.234 385.227C282.333 385.505 282.49 385.759 282.695 385.972C282.9 386.184 283.147 386.351 283.422 386.46C283.701 386.564 283.999 386.607 284.297 386.589C284.595 386.57 284.885 386.489 285.15 386.352C285.414 386.214 285.647 386.023 285.833 385.79C286.02 385.558 286.155 385.289 286.232 385C286.269 384.825 286.315 384.651 286.372 384.48C286.425 384.663 286.425 384.858 286.372 385.04C286.264 385.553 285.981 386.013 285.572 386.34C285.261 386.588 284.892 386.753 284.501 386.819C284.109 386.886 283.707 386.852 283.332 386.72C282.87 386.555 282.471 386.251 282.189 385.85C281.907 385.449 281.756 384.971 281.756 384.48C281.756 383.99 281.907 383.512 282.189 383.111C282.471 382.71 282.87 382.406 283.332 382.24C283.706 382.108 284.108 382.072 284.499 382.137C284.891 382.202 285.26 382.364 285.572 382.61C285.982 382.941 286.264 383.404 286.372 383.92C286.433 384.116 286.433 384.325 286.372 384.52Z" fill="#E0E0E0"/>
<path d="M321.001 365.17C321.001 365.17 321.001 365 321.001 364.67V363.2C321.001 361.9 321.001 360.01 321.001 357.56C321.001 352.67 321.001 345.56 320.931 336.79L321.051 336.91H247.381L247.551 336.74V365.12L247.381 364.96L300.151 365.04H315.501H319.611H321.001H320.651H319.651H315.581H300.271L247.381 365.12H247.211V336.61H247.381L321.051 336.67H321.171V336.79C321.171 345.62 321.171 352.72 321.111 357.63C321.111 360.07 321.111 361.95 321.111 363.24V364.69C321.001 365 321.001 365.17 321.001 365.17Z" fill="#E0E0E0"/>
<path d="M286.37 351C286.313 350.827 286.266 350.65 286.23 350.47C286.096 350.01 285.81 349.608 285.42 349.33C285.11 349.101 284.743 348.961 284.359 348.928C283.975 348.895 283.59 348.969 283.245 349.142C282.901 349.315 282.611 349.581 282.409 349.909C282.207 350.237 282.1 350.615 282.1 351C282.1 351.386 282.207 351.764 282.409 352.092C282.611 352.42 282.901 352.685 283.245 352.859C283.59 353.032 283.975 353.106 284.359 353.073C284.743 353.039 285.11 352.9 285.42 352.67C285.81 352.392 286.096 351.991 286.23 351.53C286.266 351.351 286.313 351.174 286.37 351C286.423 351.183 286.423 351.378 286.37 351.56C286.26 352.076 285.978 352.538 285.57 352.87C285.258 353.116 284.889 353.279 284.498 353.344C284.106 353.409 283.704 353.373 283.33 353.24C283.007 353.126 282.712 352.943 282.467 352.703C282.222 352.464 282.031 352.174 281.909 351.854C281.786 351.534 281.734 351.191 281.757 350.849C281.78 350.507 281.877 350.174 282.041 349.873C282.205 349.572 282.432 349.31 282.707 349.105C282.983 348.9 283.299 348.758 283.634 348.687C283.97 348.617 284.317 348.62 284.651 348.696C284.985 348.773 285.298 348.921 285.57 349.13C285.978 349.463 286.26 349.925 286.37 350.44C286.423 350.623 286.423 350.818 286.37 351Z" fill="#E0E0E0"/>
<path d="M323.28 330.85C323.28 330.99 309.92 331.11 293.43 331.11C276.94 331.11 263.58 330.99 263.58 330.85C263.58 330.71 276.94 330.59 293.43 330.59C309.92 330.59 323.28 330.7 323.28 330.85Z" fill="#E0E0E0"/>
<path d="M652.32 158.33H574.82V227.67H652.32V158.33Z" fill="#FAFAFA"/>
<path d="M652.321 227.67C652.321 227.67 652.321 227.23 652.321 226.38C652.321 225.53 652.321 224.29 652.321 222.67C652.321 219.41 652.321 214.67 652.321 208.59C652.321 196.48 652.261 179.17 652.231 158.33L652.401 158.51H574.911L575.121 158.3C575.121 183.53 575.121 207.3 575.121 227.64L574.941 227.46L631.001 227.55H646.811H650.991H646.841H631.071L574.901 227.64H574.721V227.46C574.721 207.09 574.721 183.35 574.721 158.12V157.92H574.941H652.431H652.611V158.09C652.611 178.97 652.541 196.32 652.521 208.46C652.521 214.51 652.521 219.25 652.471 222.46C652.471 224.07 652.471 225.3 652.471 226.14C652.471 226.98 652.321 227.67 652.321 227.67Z" fill="#E0E0E0"/>
<path d="M604.54 170.65C604.54 170.77 600.46 170.86 595.43 170.86C590.4 170.86 586.32 170.77 586.32 170.65C586.32 170.53 590.39 170.45 595.43 170.45C600.47 170.45 604.54 170.54 604.54 170.65Z" fill="#E0E0E0"/>
<path d="M637.381 175.86C637.381 175.97 626.171 176.07 612.381 176.07C598.591 176.07 587.381 175.97 587.381 175.86C587.381 175.75 598.581 175.65 612.381 175.65C626.181 175.65 637.381 175.74 637.381 175.86Z" fill="#E0E0E0"/>
<path d="M589.721 184.68H586.451V187.95H589.721V184.68Z" fill="#E0E0E0"/>
<path d="M597.76 184.68H594.49V187.95H597.76V184.68Z" fill="#E0E0E0"/>
<path d="M605.94 184.53H602.67V187.8H605.94V184.53Z" fill="#E0E0E0"/>
<path d="M613.831 184.68H610.561V187.95H613.831V184.68Z" fill="#E0E0E0"/>
<path d="M621.872 184.68H618.602V187.95H621.872V184.68Z" fill="#E0E0E0"/>
<path d="M629.911 184.68H626.641V187.95H629.911V184.68Z" fill="#E0E0E0"/>
<path d="M637.94 184.68H634.67V187.95H637.94V184.68Z" fill="#EBEBEB"/>
<path d="M589.721 191.62H586.451V194.89H589.721V191.62Z" fill="#EBEBEB"/>
<path d="M597.76 191.62H594.49V194.89H597.76V191.62Z" fill="#E0E0E0"/>
<path d="M605.792 191.62H602.521V194.89H605.792V191.62Z" fill="#EBEBEB"/>
<path d="M613.831 191.62H610.561V194.89H613.831V191.62Z" fill="#E0E0E0"/>
<path d="M621.872 191.62H618.602V194.89H621.872V191.62Z" fill="#E0E0E0"/>
<path d="M630.051 191.47H626.781V194.74H630.051V191.47Z" fill="#E0E0E0"/>
<path d="M637.94 191.62H634.67V194.89H637.94V191.62Z" fill="#E0E0E0"/>
<path d="M589.721 198.56H586.451V201.83H589.721V198.56Z" fill="#E0E0E0"/>
<path d="M597.911 198.41H594.641V201.68H597.911V198.41Z" fill="#E0E0E0"/>
<path d="M605.792 198.56H602.521V201.83H605.792V198.56Z" fill="#E0E0E0"/>
<path d="M613.831 198.56H610.561V201.83H613.831V198.56Z" fill="#EBEBEB"/>
<path d="M621.872 198.56H618.602V201.83H621.872V198.56Z" fill="#E0E0E0"/>
<path d="M629.911 198.56H626.641V201.83H629.911V198.56Z" fill="#E0E0E0"/>
<path d="M637.94 198.56H634.67V201.83H637.94V198.56Z" fill="#E0E0E0"/>
<path d="M589.721 205.5H586.451V208.77H589.721V205.5Z" fill="#E0E0E0"/>
<path d="M597.76 205.5H594.49V208.77H597.76V205.5Z" fill="#E0E0E0"/>
<path d="M605.792 205.5H602.521V208.77H605.792V205.5Z" fill="#E0E0E0"/>
<path d="M613.981 205.35H610.711V208.62H613.981V205.35Z" fill="#E0E0E0"/>
<path d="M621.872 205.5H618.602V208.77H621.872V205.5Z" fill="#E0E0E0"/>
<path d="M629.911 205.5H626.641V208.77H629.911V205.5Z" fill="#EBEBEB"/>
<path d="M637.94 205.5H634.67V208.77H637.94V205.5Z" fill="#E0E0E0"/>
<path d="M589.721 212.44H586.451V215.71H589.721V212.44Z" fill="#E0E0E0"/>
<path d="M597.76 212.44H594.49V215.71H597.76V212.44Z" fill="#EBEBEB"/>
<path d="M605.792 212.44H602.521V215.71H605.792V212.44Z" fill="#E0E0E0"/>
<path d="M613.831 212.44H610.561V215.71H613.831V212.44Z" fill="#E0E0E0"/>
<path d="M621.872 212.44H618.602V215.71H621.872V212.44Z" fill="#E0E0E0"/>
<path d="M630.051 212.3H626.781V215.57H630.051V212.3Z" fill="#E0E0E0"/>
<path d="M637.94 212.44H634.67V215.71H637.94V212.44Z" fill="#E0E0E0"/>
<path d="M881.071 210.52C881.071 210.52 881.071 209.76 881.071 208.32C881.071 206.88 881.071 204.73 881.071 201.94C881.071 196.34 881.071 188.15 881.071 177.71C881.071 156.84 881.001 126.96 880.951 90.9303L881.171 91.1403H730.871L731.131 90.8802C731.131 134.05 731.131 174.88 731.131 210.47L730.901 210.24L839.481 210.35L870.241 210.42H878.391H880.491H878.411H870.311L839.601 210.48L730.871 210.59H730.641V210.36C730.641 174.75 730.641 133.94 730.641 90.7702V90.5103H730.911H881.211H881.431V90.7303C881.431 126.82 881.341 156.73 881.321 177.64C881.321 188.07 881.321 196.24 881.261 201.82C881.261 204.6 881.261 206.72 881.261 208.16C881.261 209.6 881.071 210.52 881.071 210.52Z" fill="#E0E0E0"/>
<path d="M755.631 113.09H750.191V173.79H755.631V113.09Z" fill="#E0E0E0"/>
<path d="M766.122 133.71H760.682V173.79H766.122V133.71Z" fill="#EBEBEB"/>
<path d="M776.622 120.64H771.182V174.1H776.622V120.64Z" fill="#E0E0E0"/>
<path d="M787.11 115.44H781.67V173.8H787.11V115.44Z" fill="#EBEBEB"/>
<path d="M797.6 134.94H792.16V173.79H797.6V134.94Z" fill="#E0E0E0"/>
<path d="M808.1 142.56H802.66V173.79H808.1V142.56Z" fill="#EBEBEB"/>
<path d="M818.59 119.32H813.15V173.79H818.59V119.32Z" fill="#E0E0E0"/>
<path d="M829.081 129.14H823.641V173.79H829.081V129.14Z" fill="#EBEBEB"/>
<path d="M839.581 121.29H834.141V173.79H839.581V121.29Z" fill="#E0E0E0"/>
<path d="M850.071 138.03H844.631V173.79H850.071V138.03Z" fill="#EBEBEB"/>
<path d="M860.561 131.22H855.121V173.79H860.561V131.22Z" fill="#E0E0E0"/>
<path d="M862.781 178C862.781 178.12 836.991 178.22 805.201 178.22C773.411 178.22 747.621 178.12 747.621 178C747.621 177.88 773.391 177.78 805.201 177.78C837.011 177.78 862.781 177.9 862.781 178Z" fill="#E0E0E0"/>
<path d="M757.941 182.8C755.262 183.094 752.56 183.094 749.881 182.8C752.559 182.494 755.263 182.494 757.941 182.8Z" fill="#E0E0E0"/>
<path d="M771.322 183C768.115 183.294 764.888 183.294 761.682 183C764.888 182.707 768.115 182.707 771.322 183Z" fill="#E0E0E0"/>
<path d="M782.73 183C779.523 183.294 776.296 183.294 773.09 183C776.296 182.707 779.523 182.707 782.73 183Z" fill="#E0E0E0"/>
<path d="M794.152 183C790.945 183.294 787.718 183.294 784.512 183C787.718 182.707 790.945 182.707 794.152 183Z" fill="#E0E0E0"/>
<path d="M805.56 183C802.353 183.294 799.127 183.294 795.92 183C799.127 182.707 802.353 182.707 805.56 183Z" fill="#E0E0E0"/>
<path d="M817.001 183C813.795 183.294 810.568 183.294 807.361 183C810.568 182.707 813.795 182.707 817.001 183Z" fill="#E0E0E0"/>
<path d="M828.38 183C825.174 183.294 821.947 183.294 818.74 183C821.947 182.707 825.174 182.707 828.38 183Z" fill="#E0E0E0"/>
<path d="M839.79 183C836.584 183.294 833.357 183.294 830.15 183C833.357 182.707 836.584 182.707 839.79 183Z" fill="#E0E0E0"/>
<path d="M851.201 183C847.994 183.294 844.767 183.294 841.561 183C844.767 182.707 847.994 182.707 851.201 183Z" fill="#E0E0E0"/>
<path d="M862.62 183C859.414 183.294 856.187 183.294 852.98 183C856.187 182.707 859.414 182.707 862.62 183Z" fill="#E0E0E0"/>
<path d="M885.341 90.2202H725.951V94.7102H885.341V90.2202Z" fill="#EBEBEB"/>
<path d="M592.191 215.87L591.141 212.2L593.251 212.3L593.441 215.69L592.191 215.87Z" fill="#E0E0E0"/>
<path d="M589.13 215.76L586.73 228.79L580.66 246.01L614.87 241.08L601.06 226.05L595.3 214.88L589.13 215.76Z" fill="#E0E0E0"/>
<path d="M521.841 307.18C521.841 307 521.841 306.82 521.841 306.64C521.797 305.187 522.045 303.74 522.571 302.384C523.096 301.029 523.889 299.792 524.901 298.749C525.913 297.705 527.125 296.876 528.464 296.309C529.803 295.743 531.242 295.451 532.696 295.451C534.15 295.451 535.589 295.743 536.928 296.309C538.267 296.876 539.478 297.705 540.491 298.749C541.503 299.792 542.296 301.029 542.821 302.384C543.347 303.74 543.595 305.187 543.551 306.64C543.551 306.82 543.551 307 543.551 307.18H521.841Z" fill="#E0E0E0"/>
<path d="M532.672 296.21C532.578 296.209 532.487 296.177 532.413 296.119C532.339 296.062 532.286 295.981 532.262 295.89L517.872 241.06C517.857 241.005 517.854 240.948 517.861 240.891C517.869 240.835 517.888 240.78 517.917 240.731C517.946 240.682 517.984 240.639 518.029 240.604C518.075 240.57 518.126 240.545 518.182 240.53C518.237 240.516 518.294 240.512 518.351 240.52C518.407 240.528 518.462 240.547 518.511 240.576C518.56 240.604 518.603 240.642 518.638 240.688C518.672 240.733 518.697 240.785 518.712 240.84L533.092 295.67C533.119 295.782 533.102 295.899 533.044 295.998C532.986 296.097 532.892 296.17 532.782 296.2L532.672 296.21Z" fill="#E0E0E0"/>
<path d="M528.871 297.57C528.777 297.569 528.686 297.537 528.612 297.479C528.538 297.421 528.485 297.341 528.461 297.25L514.071 242.42C514.056 242.365 514.053 242.308 514.061 242.251C514.068 242.195 514.087 242.14 514.116 242.091C514.145 242.042 514.183 241.999 514.228 241.964C514.274 241.93 514.326 241.905 514.381 241.89C514.436 241.876 514.493 241.872 514.55 241.88C514.606 241.888 514.661 241.907 514.71 241.935C514.759 241.964 514.802 242.002 514.837 242.048C514.871 242.093 514.896 242.145 514.911 242.2L529.291 297C529.318 297.111 529.301 297.229 529.244 297.328C529.186 297.427 529.091 297.5 528.981 297.53L528.871 297.57Z" fill="#E0E0E0"/>
<path d="M513.4 241.49C513.398 242.029 513.556 242.556 513.854 243.004C514.152 243.453 514.576 243.803 515.073 244.01C515.569 244.218 516.117 244.273 516.645 244.169C517.173 244.065 517.659 243.807 518.04 243.427C518.422 243.047 518.682 242.563 518.787 242.035C518.893 241.507 518.84 240.959 518.634 240.462C518.429 239.964 518.08 239.539 517.633 239.239C517.185 238.94 516.659 238.78 516.12 238.78C515.401 238.78 514.71 239.065 514.201 239.573C513.691 240.081 513.403 240.771 513.4 241.49Z" fill="#E0E0E0"/>
<path d="M516.361 241.85L515.871 241.14L566.851 205.97L596.681 222.93L596.251 223.68L566.901 206.99L516.361 241.85Z" fill="#E0E0E0"/>
<path d="M568.792 208.266L518.592 243.026L519.081 243.733L569.281 208.973L568.792 208.266Z" fill="#E0E0E0"/>
<path d="M565.25 207.84C565.252 208.322 565.397 208.793 565.666 209.193C565.935 209.593 566.317 209.904 566.763 210.087C567.209 210.27 567.699 210.317 568.172 210.222C568.645 210.127 569.079 209.894 569.419 209.552C569.759 209.21 569.991 208.776 570.084 208.302C570.177 207.829 570.128 207.339 569.943 206.894C569.758 206.449 569.446 206.068 569.045 205.801C568.644 205.533 568.172 205.39 567.69 205.39C567.369 205.39 567.051 205.454 566.754 205.577C566.457 205.7 566.188 205.881 565.961 206.108C565.734 206.336 565.555 206.606 565.433 206.903C565.311 207.201 565.249 207.519 565.25 207.84Z" fill="#E0E0E0"/>
<path d="M592.621 79.2202L548.941 93.8902H647.631L606.621 79.2202H592.621Z" fill="#E0E0E0"/>
<path d="M604.881 92.8901C604.718 93.7426 604.608 94.6042 604.551 95.4701C604.46 97.8371 605.024 100.183 606.181 102.25C606.861 103.58 607.741 104.99 608.431 106.65C609.187 108.443 609.389 110.421 609.011 112.33C608.59 114.44 607.512 116.361 605.931 117.82C604.202 119.376 601.957 120.235 599.631 120.23C597.312 120.271 595.051 119.5 593.241 118.05C591.697 116.718 590.598 114.945 590.09 112.97C589.583 110.995 589.691 108.912 590.401 107C591.084 105.485 591.968 104.069 593.031 102.79C593.875 101.745 594.593 100.603 595.171 99.3901C595.584 98.4695 595.818 97.4785 595.861 96.4701C595.865 95.605 595.662 94.7514 595.271 93.9801C595.421 94.1532 595.542 94.3489 595.631 94.5601C595.901 95.1613 596.048 95.811 596.061 96.4701C596.053 97.5011 595.842 98.5205 595.441 99.4701C594.881 100.723 594.169 101.901 593.321 102.98C592.304 104.246 591.46 105.642 590.811 107.13C590.14 108.959 590.045 110.949 590.538 112.833C591.031 114.717 592.09 116.405 593.571 117.67C595.288 119.043 597.432 119.772 599.631 119.73C601.842 119.747 603.98 118.942 605.631 117.47C607.153 116.087 608.202 114.261 608.631 112.25C609.004 110.433 608.826 108.546 608.121 106.83C607.471 105.21 606.611 103.83 605.941 102.44C604.782 100.298 604.262 97.8688 604.441 95.4401C604.486 94.7888 604.59 94.1429 604.751 93.5101C604.768 93.2989 604.812 93.0907 604.881 92.8901Z" fill="#E0E0E0"/>
<path d="M601.271 93.8203C601.218 94.4385 601.128 95.053 601.001 95.6603C600.751 97.3176 600.584 98.9864 600.501 100.66C600.384 103.139 600.495 105.622 600.831 108.08C600.886 108.389 601.024 108.676 601.231 108.91C601.324 109.017 601.443 109.098 601.576 109.145C601.709 109.193 601.852 109.205 601.991 109.18C602.531 109.07 602.821 108.25 602.711 107.6C602.598 106.873 602.231 106.209 601.675 105.726C601.119 105.243 600.41 104.972 599.674 104.962C598.938 104.951 598.222 105.201 597.652 105.667C597.082 106.134 596.696 106.786 596.561 107.51C596.496 107.826 596.542 108.155 596.691 108.441C596.841 108.728 597.085 108.953 597.381 109.08C597.677 109.14 597.985 109.09 598.246 108.939C598.508 108.788 598.705 108.546 598.801 108.26C599.024 107.617 599.135 106.941 599.131 106.26C599.181 105.6 599.211 104.96 599.221 104.33C599.23 103.175 599.18 102.02 599.071 100.87C598.919 99.1847 598.638 97.5132 598.231 95.8703C597.951 94.7203 597.761 94.0803 597.801 94.0703C597.881 94.2094 597.945 94.357 597.991 94.5103C598.111 94.8003 598.261 95.2403 598.431 95.8203C598.907 97.4553 599.242 99.1281 599.431 100.82C599.562 101.986 599.632 103.157 599.641 104.33C599.641 104.957 599.621 105.607 599.581 106.28C599.582 106.998 599.464 107.711 599.231 108.39C599.077 108.767 598.812 109.088 598.471 109.31C598.289 109.436 598.081 109.517 597.862 109.548C597.644 109.579 597.421 109.56 597.211 109.49C596.804 109.329 596.465 109.032 596.252 108.649C596.039 108.266 595.964 107.822 596.041 107.39C596.186 106.538 596.63 105.766 597.294 105.212C597.957 104.658 598.796 104.359 599.66 104.369C600.525 104.379 601.357 104.696 602.008 105.265C602.659 105.833 603.085 106.615 603.211 107.47C603.27 107.894 603.215 108.325 603.051 108.72C602.971 108.94 602.838 109.136 602.664 109.292C602.489 109.447 602.279 109.556 602.051 109.61C601.829 109.651 601.6 109.633 601.386 109.56C601.173 109.486 600.982 109.359 600.831 109.19C600.563 108.888 600.383 108.518 600.311 108.12C599.985 105.621 599.908 103.095 600.081 100.58C600.196 98.9009 600.42 97.2307 600.751 95.5803C600.881 94.9903 600.981 94.5803 601.071 94.2403C601.116 94.091 601.184 93.9494 601.271 93.8203Z" fill="#E0E0E0"/>
<path d="M599.631 4.2002C599.67 4.45165 599.686 4.7059 599.681 4.9602C599.681 5.5002 599.681 6.2202 599.731 7.1202C599.731 9.0502 599.731 11.7502 599.811 15.0602C599.811 21.8202 599.861 31.0602 599.891 41.2702C599.921 51.4802 599.831 60.7202 599.811 67.4802C599.811 70.7902 599.751 73.4802 599.731 75.4802C599.731 76.3702 599.731 77.0902 599.681 77.6302C599.686 77.8845 599.67 78.1387 599.631 78.3902C599.587 78.1395 599.57 77.8846 599.581 77.6302C599.581 77.0902 599.581 76.3702 599.531 75.4802C599.531 73.5402 599.531 70.8402 599.441 67.4802C599.441 60.7202 599.441 51.4802 599.371 41.2702C599.301 31.0602 599.421 21.8202 599.441 15.0602C599.441 11.7502 599.511 9.0602 599.531 7.1202C599.531 6.2202 599.531 5.5002 599.581 4.9602C599.57 4.70579 599.587 4.4509 599.631 4.2002Z" fill="#E0E0E0"/>
<path d="M592.621 79.2203L595.321 67.0903H604.321L606.621 79.2203H592.621Z" fill="#E0E0E0"/>
<path d="M447.371 76.3501H442.461V181.89H447.371V76.3501Z" fill="#E0E0E0"/>
<path d="M441.64 77.1704H371.32C371.281 77.1704 371.25 77.2017 371.25 77.2404V181.97C371.25 182.009 371.281 182.04 371.32 182.04H441.64C441.679 182.04 441.71 182.009 441.71 181.97V77.2404C441.71 77.2017 441.679 77.1704 441.64 77.1704Z" fill="#F5F5F5"/>
<path d="M442.461 182.85H370.461C370.442 182.85 370.424 182.843 370.411 182.83C370.398 182.816 370.391 182.799 370.391 182.78V76.4201C370.391 76.4015 370.398 76.3837 370.411 76.3706C370.424 76.3575 370.442 76.3501 370.461 76.3501H442.461C442.478 76.3522 442.495 76.3603 442.508 76.373C442.52 76.3857 442.529 76.4023 442.531 76.4201V182.78C442.529 182.798 442.52 182.815 442.508 182.827C442.495 182.84 442.478 182.848 442.461 182.85ZM372.141 181.22H440.821C440.839 181.22 440.857 181.213 440.87 181.2C440.883 181.186 440.891 181.169 440.891 181.15V78.0601C440.891 78.0405 440.884 78.0215 440.871 78.0068C440.858 77.992 440.84 77.9826 440.821 77.9801H372.141C372.121 77.9826 372.103 77.992 372.09 78.0068C372.078 78.0215 372.07 78.0405 372.071 78.0601V181.15C372.071 181.169 372.078 181.186 372.091 181.2C372.104 181.213 372.122 181.22 372.141 181.22Z" fill="#EBEBEB"/>
<path d="M434.672 83.6401H378.422C378.383 83.6401 378.352 83.6715 378.352 83.7101V175.43C378.352 175.469 378.383 175.5 378.422 175.5H434.672C434.71 175.5 434.742 175.469 434.742 175.43V83.7101C434.742 83.6715 434.71 83.6401 434.672 83.6401Z" fill="#FAFAFA"/>
<path d="M422.25 109.68H390.71C390.677 109.68 390.65 109.707 390.65 109.74V146.73C390.65 146.763 390.677 146.79 390.71 146.79H422.25C422.284 146.79 422.31 146.763 422.31 146.73V109.74C422.31 109.707 422.284 109.68 422.25 109.68Z" fill="#EBEBEB"/>
<path d="M419.811 142.25C419.811 142.37 418.281 143.05 415.311 142.71C413.487 142.476 411.751 141.788 410.261 140.71C408.238 139.201 406.839 137.002 406.331 134.53C406.038 132.984 406.162 131.387 406.689 129.904C407.216 128.421 408.128 127.105 409.331 126.09C410.011 125.52 410.782 125.067 411.611 124.75C412.522 124.419 413.499 124.309 414.461 124.43C415.518 124.53 416.517 124.965 417.311 125.67C417.756 126.089 418.091 126.611 418.286 127.19C418.482 127.769 418.531 128.387 418.431 128.99C418.211 130.076 417.667 131.07 416.871 131.84C416.162 132.535 415.357 133.124 414.481 133.59C412.733 134.559 410.787 135.117 408.791 135.22C406.681 135.337 404.582 134.859 402.731 133.84C400.813 132.777 399.256 131.165 398.261 129.21C397.234 127.214 396.95 124.917 397.461 122.73C397.968 120.616 399.173 118.735 400.881 117.39C401.735 116.735 402.706 116.246 403.741 115.95C404.793 115.672 405.894 115.638 406.961 115.85C408.091 116.065 409.121 116.645 409.891 117.5C410.61 118.373 411.003 119.469 411.001 120.6C411.011 121.65 410.746 122.685 410.231 123.6C409.766 124.426 409.157 125.161 408.431 125.77C407.119 126.874 405.589 127.689 403.941 128.16C402.409 128.605 400.802 128.728 399.221 128.52C397.748 128.321 396.341 127.784 395.111 126.95C394.053 126.252 393.155 125.336 392.479 124.263C391.803 123.191 391.364 121.986 391.191 120.73C390.984 118.836 391.506 116.934 392.651 115.41C393.33 114.461 394.257 113.717 395.331 113.26C396.071 112.98 396.501 112.99 396.511 113.06C396.521 113.13 396.181 113.32 395.581 113.72C394.726 114.306 394.012 115.075 393.491 115.97C392.668 117.335 392.363 118.949 392.631 120.52C392.844 121.532 393.263 122.489 393.864 123.33C394.465 124.172 395.233 124.88 396.121 125.41C397.2 126.038 398.403 126.423 399.646 126.541C400.889 126.658 402.143 126.504 403.321 126.09C404.647 125.68 405.873 124.999 406.921 124.09C407.432 123.687 407.848 123.176 408.139 122.593C408.429 122.011 408.587 121.371 408.601 120.72C408.594 120.125 408.37 119.553 407.97 119.113C407.57 118.672 407.022 118.394 406.431 118.33C405.743 118.205 405.035 118.236 404.361 118.42C403.636 118.621 402.957 118.961 402.361 119.42C401.123 120.415 400.254 121.795 399.891 123.34C399.528 124.933 399.744 126.603 400.501 128.05C401.263 129.538 402.445 130.769 403.901 131.59C405.333 132.381 406.957 132.759 408.591 132.68C410.203 132.612 411.779 132.182 413.201 131.42C413.872 131.076 414.492 130.638 415.041 130.12C415.494 129.716 415.817 129.187 415.971 128.6C416.019 128.382 416.01 128.155 415.946 127.942C415.881 127.728 415.762 127.535 415.601 127.38C415.173 127.003 414.638 126.769 414.071 126.71C413.471 126.613 412.856 126.664 412.281 126.86C411.676 127.072 411.109 127.379 410.601 127.77C409.618 128.556 408.865 129.592 408.421 130.77C408.006 131.87 407.882 133.058 408.061 134.22C408.395 136.303 409.458 138.199 411.061 139.57C412.324 140.612 413.808 141.35 415.401 141.73C418.181 142.33 419.791 142 419.811 142.25Z" fill="#E0E0E0"/>
<path d="M948.18 465C948.18 465.14 788.57 465.26 591.72 465.26C394.87 465.26 235.23 465.17 235.23 465C235.23 464.83 394.81 464.74 591.72 464.74C788.63 464.74 948.18 464.89 948.18 465Z" fill="#263238"/>
<path d="M786.501 307.35H707.641V304.41H783.571C784.349 304.413 785.094 304.724 785.643 305.275C786.192 305.826 786.501 306.572 786.501 307.35Z" fill="#455A64"/>
<path d="M764.721 261.02H710.981C709.136 261.02 707.641 262.515 707.641 264.36V303.38C707.641 305.225 709.136 306.72 710.981 306.72H764.721C766.565 306.72 768.061 305.225 768.061 303.38V264.36C768.061 262.515 766.565 261.02 764.721 261.02Z" fill="#455A64"/>
<path d="M765.54 263.2H710.16V303.9H765.54V263.2Z" fill="#FAFAFA"/>
<path d="M765.53 303.9V303.15C765.53 302.65 765.53 301.92 765.53 300.97C765.53 299.07 765.53 296.28 765.53 292.72C765.53 285.61 765.53 275.44 765.53 263.2L765.59 263.25H710.22L710.3 263.18C710.3 277.96 710.3 291.88 710.3 303.88L710.23 303.82H750.28H761.61H750.33H710.23H710.16V303.76C710.16 291.76 710.16 277.84 710.16 263.06V262.99H765.6V263.05C765.6 275.31 765.6 285.49 765.6 292.61C765.6 296.16 765.6 298.94 765.6 300.84C765.6 301.79 765.6 302.52 765.6 303.01C765.6 303.5 765.53 303.9 765.53 303.9Z" fill="#263238"/>
<path d="M757.25 274.15H756.5H754.34H746.34H719.04L719.11 274.08V292.87L719.04 292.8H746.15L719 293H718.93V274.08H719H746.3H754.3H757.21L757.25 274.15Z" fill="#E0E0E0"/>
<path d="M757.25 277.31C757.25 277.31 748.68 277.38 738.12 277.38C727.56 277.38 719 277.38 719 277.31C719 277.24 727.56 277.25 738.12 277.25C748.68 277.25 757.25 277.28 757.25 277.31Z" fill="#E0E0E0"/>
<path d="M757 279.83C757 279.83 748.44 279.9 737.88 279.9C727.32 279.9 718.75 279.9 718.75 279.83C718.75 279.76 727.31 279.77 737.88 279.77C748.45 279.77 757 279.8 757 279.83Z" fill="#E0E0E0"/>
<path d="M757.25 282.49C757.25 282.49 748.68 282.56 738.12 282.56C727.56 282.56 719 282.56 719 282.49C719 282.42 727.56 282.42 738.12 282.42C748.68 282.42 757.25 282.45 757.25 282.49Z" fill="#E0E0E0"/>
<path d="M757.25 285.08C757.25 285.08 748.68 285.15 738.12 285.15C727.56 285.15 719 285.15 719 285.08C719 285.01 727.56 285.01 738.12 285.01C748.68 285.01 757.25 285 757.25 285.08Z" fill="#E0E0E0"/>
<path d="M757.25 287.67C757.25 287.67 748.68 287.74 738.12 287.74C727.56 287.74 719 287.74 719 287.67C719 287.6 727.56 287.6 738.12 287.6C748.68 287.6 757.25 287.63 757.25 287.67Z" fill="#E0E0E0"/>
<path d="M719 290.26C719 290.26 727.56 290.19 738.12 290.19C748.68 290.19 757.25 290.19 757.25 290.26C757.25 290.33 748.69 290.32 738.12 290.32C727.55 290.32 719 290.29 719 290.26Z" fill="#E0E0E0"/>
<path d="M726.57 293.23C726.57 293.23 726.51 288.96 726.51 283.69C726.51 278.42 726.51 274.15 726.57 274.15C726.63 274.15 726.64 278.42 726.64 283.69C726.64 288.96 726.61 293.23 726.57 293.23Z" fill="#E0E0E0"/>
<path d="M734.24 293.23C734.24 293.23 734.17 288.96 734.17 283.69C734.17 278.42 734.17 274.15 734.24 274.15C734.31 274.15 734.31 278.42 734.31 283.69C734.31 288.96 734.28 293.23 734.24 293.23Z" fill="#E0E0E0"/>
<path d="M741.91 293.23C741.91 293.23 741.84 288.96 741.84 283.69C741.84 278.42 741.84 274.15 741.91 274.15C741.98 274.15 741.98 278.42 741.98 283.69C741.98 288.96 742 293.23 741.91 293.23Z" fill="#E0E0E0"/>
<path d="M749.58 293.23C749.58 293.23 749.51 288.96 749.51 283.69C749.51 278.42 749.51 274.15 749.58 274.15C749.65 274.15 749.65 278.42 749.65 283.69C749.65 288.96 749.62 293.23 749.58 293.23Z" fill="#E0E0E0"/>
<path d="M757.25 293.23C757.25 293.23 757.18 288.96 757.18 283.69C757.18 278.42 757.18 274.15 757.25 274.15C757.32 274.15 757.32 278.42 757.32 283.69C757.32 288.96 757.29 293.23 757.25 293.23Z" fill="#E0E0E0"/>
<path d="M757.25 277.31C757.159 277.395 757.062 277.472 756.96 277.54L756.1 278.15L752.89 280.36C750.16 282.24 746.33 284.84 741.99 287.78H741.93H741.87L738.61 286.69L734.2 285.2H734.32L726.63 290.35L721.08 292.27L719.56 292.78L719.16 292.91H719.02C719.06 292.884 719.104 292.864 719.15 292.85L719.54 292.69L721.04 292.13L726.56 290.13L734.22 284.93H734.27H734.33L738.75 286.42L742 287.52H741.89C746.24 284.58 750.08 282.01 752.84 280.18L756.1 278.03L756.98 277.46C757.066 277.404 757.156 277.354 757.25 277.31Z" fill="#3E89EC"/>
<path d="M726.57 290.73C726.829 290.73 727.04 290.52 727.04 290.26C727.04 290 726.829 289.79 726.57 289.79C726.31 289.79 726.1 290 726.1 290.26C726.1 290.52 726.31 290.73 726.57 290.73Z" fill="#3E89EC"/>
<path d="M734.24 285.55C734.499 285.55 734.71 285.339 734.71 285.08C734.71 284.82 734.499 284.61 734.24 284.61C733.98 284.61 733.77 284.82 733.77 285.08C733.77 285.339 733.98 285.55 734.24 285.55Z" fill="#3E89EC"/>
<path d="M741.909 288.09C742.169 288.09 742.379 287.879 742.379 287.62C742.379 287.36 742.169 287.15 741.909 287.15C741.65 287.15 741.439 287.36 741.439 287.62C741.439 287.879 741.65 288.09 741.909 288.09Z" fill="#3E89EC"/>
<path d="M749.659 282.98C749.919 282.98 750.129 282.77 750.129 282.51C750.129 282.25 749.919 282.04 749.659 282.04C749.4 282.04 749.189 282.25 749.189 282.51C749.189 282.77 749.4 282.98 749.659 282.98Z" fill="#3E89EC"/>
<path d="M757.251 290.26L757.101 290.18L756.691 289.92L755.141 288.92L749.521 285.22H749.641L742.001 290.36L741.901 290.43L741.821 290.33L737.821 284.9C736.571 283.2 735.341 281.55 734.191 279.98H734.391L726.691 287.72L720.991 289.57L719.431 290.06L719.021 290.18H718.881C718.881 290.18 718.881 290.18 719.011 290.12L719.411 289.97L720.951 289.43L726.621 287.49L734.271 279.7L734.381 279.59L734.471 279.71L738.111 284.63C739.521 286.52 740.871 288.36 742.111 290.07H741.931L749.611 284.96H749.671H749.731L755.301 288.74L756.821 289.79L757.211 290.07L757.251 290.26Z" fill="#455A64"/>
<path d="M734.24 280.37C734.499 280.37 734.71 280.16 734.71 279.9C734.71 279.641 734.499 279.43 734.24 279.43C733.98 279.43 733.77 279.641 733.77 279.9C733.77 280.16 733.98 280.37 734.24 280.37Z" fill="#455A64"/>
<path d="M726.57 288.14C726.829 288.14 727.04 287.93 727.04 287.67C727.04 287.411 726.829 287.2 726.57 287.2C726.31 287.2 726.1 287.411 726.1 287.67C726.1 287.93 726.31 288.14 726.57 288.14Z" fill="#455A64"/>
<path d="M741.909 290.73C742.169 290.73 742.379 290.52 742.379 290.26C742.379 290 742.169 289.79 741.909 289.79C741.65 289.79 741.439 290 741.439 290.26C741.439 290.52 741.65 290.73 741.909 290.73Z" fill="#455A64"/>
<path d="M749.579 286.02C749.839 286.02 750.049 285.81 750.049 285.55C750.049 285.291 749.839 285.08 749.579 285.08C749.32 285.08 749.109 285.291 749.109 285.55C749.109 285.81 749.32 286.02 749.579 286.02Z" fill="#455A64"/>
<path d="M723.371 295.08C723.13 295.149 722.879 295.173 722.631 295.15C722.382 295.173 722.131 295.149 721.891 295.08C722.132 295.017 722.382 294.993 722.631 295.01C722.879 294.992 723.129 295.016 723.371 295.08Z" fill="#E0E0E0"/>
<path d="M731.21 295.08C730.722 295.173 730.219 295.173 729.73 295.08C730.219 294.987 730.722 294.987 731.21 295.08Z" fill="#E0E0E0"/>
<path d="M739.05 295.08C738.561 295.173 738.059 295.173 737.57 295.08C738.059 294.987 738.561 294.987 739.05 295.08Z" fill="#E0E0E0"/>
<path d="M746.89 295.08C746.65 295.149 746.399 295.173 746.15 295.15C745.901 295.173 745.65 295.149 745.41 295.08C745.651 295.016 745.901 294.992 746.15 295.01C746.399 294.993 746.649 295.017 746.89 295.08Z" fill="#E0E0E0"/>
<path d="M754.72 295.08C754.48 295.15 754.229 295.173 753.98 295.15C753.734 295.173 753.487 295.15 753.25 295.08C753.494 295.011 753.747 294.984 754 295C754.243 294.988 754.486 295.015 754.72 295.08Z" fill="#E0E0E0"/>
<path d="M717.92 292.84C717.726 292.897 717.522 292.918 717.32 292.9C717.122 292.918 716.921 292.898 716.73 292.84C716.919 292.77 717.121 292.746 717.32 292.77C717.523 292.747 717.728 292.771 717.92 292.84Z" fill="#E0E0E0"/>
<path d="M717.92 289.83C717.726 289.887 717.522 289.907 717.32 289.89C717.122 289.908 716.921 289.887 716.73 289.83C716.919 289.76 717.121 289.736 717.32 289.76C717.523 289.737 717.728 289.761 717.92 289.83Z" fill="#E0E0E0"/>
<path d="M717.92 286.82C717.726 286.877 717.522 286.898 717.32 286.88C717.122 286.898 716.921 286.878 716.73 286.82C716.919 286.75 717.121 286.726 717.32 286.75C717.523 286.727 717.728 286.751 717.92 286.82Z" fill="#E0E0E0"/>
<path d="M717.92 283.81C717.726 283.867 717.522 283.888 717.32 283.87C717.122 283.888 716.921 283.868 716.73 283.81C716.919 283.741 717.121 283.717 717.32 283.74C717.523 283.717 717.728 283.741 717.92 283.81Z" fill="#E0E0E0"/>
<path d="M717.92 280.8C717.726 280.857 717.522 280.877 717.32 280.86C717.122 280.878 716.921 280.858 716.73 280.8C716.919 280.73 717.121 280.706 717.32 280.73C717.523 280.707 717.728 280.731 717.92 280.8Z" fill="#E0E0E0"/>
<path d="M717.92 277.79C717.726 277.847 717.522 277.868 717.32 277.85C717.122 277.868 716.921 277.848 716.73 277.79C716.919 277.721 717.121 277.697 717.32 277.72C717.523 277.697 717.728 277.721 717.92 277.79Z" fill="#E0E0E0"/>
<path d="M717.92 274.78C717.726 274.837 717.522 274.857 717.32 274.84C717.122 274.858 716.921 274.838 716.73 274.78C716.919 274.71 717.121 274.686 717.32 274.71C717.523 274.687 717.728 274.711 717.92 274.78Z" fill="#E0E0E0"/>
<path d="M729.791 267.64H718.801V268.42H729.791V267.64Z" fill="#3E89EC"/>
<path d="M749.411 269.92C749.411 269.92 742.541 269.99 734.071 269.99C725.601 269.99 718.721 269.99 718.721 269.92C718.721 269.85 725.591 269.85 734.071 269.85C742.551 269.85 749.411 269.88 749.411 269.92Z" fill="#263238"/>
<path d="M738.2 298.84C738.2 298.84 734.01 298.91 728.84 298.91C723.67 298.91 719.49 298.91 719.49 298.84C719.49 298.77 723.67 298.77 728.84 298.77C734.01 298.77 738.2 298.8 738.2 298.84Z" fill="#263238"/>
<path d="M724 300.25C723.336 300.321 722.667 300.344 722 300.32C721.333 300.345 720.664 300.321 720 300.25C720.665 300.192 721.333 300.172 722 300.19C722.667 300.172 723.335 300.192 724 300.25Z" fill="#263238"/>
<path d="M755.159 298.59C755.159 298.59 752.159 298.66 748.509 298.66C744.859 298.66 741.859 298.66 741.859 298.59C741.859 298.52 744.859 298.52 748.509 298.52C752.159 298.52 755.159 298.55 755.159 298.59Z" fill="#263238"/>
<path d="M747.93 299.51C746.544 299.59 745.155 299.59 743.77 299.51C745.155 299.417 746.544 299.417 747.93 299.51Z" fill="#263238"/>
<path d="M421.051 465.03L437.571 318.89L451.591 323.83L428.691 465.03H421.051Z" fill="#263238"/>
<path d="M836.75 307.18H414V325.67H836.75V307.18Z" fill="#455A64"/>
<path d="M503.56 307.46C503.517 307.529 503.471 307.596 503.42 307.66L502.98 308.21C502.363 308.884 501.644 309.458 500.85 309.91C499.586 310.614 498.203 311.078 496.77 311.28C494.883 311.553 492.974 311.637 491.07 311.53C488.772 311.411 486.484 311.147 484.22 310.74C481.639 310.264 479.03 309.953 476.41 309.81C470.87 309.61 464.85 311.06 458.83 313.22C452.81 315.38 447.16 317.83 441.77 319.32C439.225 320.053 436.622 320.568 433.99 320.86C431.693 321.106 429.377 321.106 427.08 320.86C423.743 320.543 420.512 319.52 417.6 317.86C416.537 317.253 415.553 316.518 414.67 315.67C414.67 315.67 414.75 315.67 414.88 315.8L415.44 316.22C416.159 316.758 416.914 317.245 417.7 317.68C420.609 319.27 423.817 320.237 427.12 320.52C429.392 320.747 431.682 320.73 433.95 320.47C436.552 320.161 439.125 319.636 441.64 318.9C446.99 317.39 452.64 314.9 458.64 312.77C464.64 310.64 470.77 309.15 476.4 309.37C479.042 309.532 481.671 309.866 484.27 310.37C486.518 310.787 488.788 311.067 491.07 311.21C492.951 311.341 494.84 311.284 496.71 311.04C498.105 310.857 499.459 310.434 500.71 309.79C501.786 309.181 502.749 308.393 503.56 307.46Z" fill="#263238"/>
<path d="M457.31 307.74C456.91 308.134 456.482 308.498 456.03 308.83C454.813 309.756 453.525 310.585 452.18 311.31C450.169 312.378 448.054 313.239 445.87 313.88C443.185 314.639 440.418 315.072 437.63 315.17C432.546 315.373 427.489 314.344 422.89 312.17C421.483 311.51 420.263 310.51 419.34 309.26C419.098 308.913 418.899 308.536 418.75 308.14C418.67 307.87 418.63 307.73 418.65 307.72C418.895 308.215 419.179 308.69 419.5 309.14C420.46 310.305 421.679 311.23 423.06 311.84C427.629 313.888 432.606 314.863 437.61 314.69C442.62 314.539 447.535 313.279 452 311C453.349 310.313 454.652 309.538 455.9 308.68C456.343 308.328 456.814 308.014 457.31 307.74Z" fill="#263238"/>
<path d="M556.509 319.45L557.159 319.69C557.795 319.913 558.447 320.087 559.109 320.21C561.636 320.657 564.24 320.249 566.509 319.05V319.29C563.855 317.25 560.674 316.008 557.339 315.71C553.121 315.296 548.892 316.394 545.409 318.81C544.953 319.072 544.619 319.503 544.479 320.01C544.479 320.264 544.554 320.512 544.694 320.724C544.835 320.936 545.035 321.101 545.269 321.2C545.782 321.479 546.335 321.675 546.909 321.78L548.709 322.19C551.129 322.73 553.629 323.26 556.219 323.64C558.864 324.059 561.542 324.24 564.219 324.18C565.593 324.144 566.963 324.013 568.319 323.79C568.999 323.67 569.679 323.54 570.319 323.36C571.005 323.214 571.675 322.999 572.319 322.72C573.312 322.324 574.191 321.688 574.879 320.87C575.2 320.48 575.414 320.013 575.5 319.515C575.586 319.017 575.541 318.505 575.369 318.03C574.96 317.088 574.259 316.302 573.369 315.79C572.482 315.244 571.544 314.785 570.569 314.42C566.79 313.002 562.811 312.185 558.779 312C551.968 311.622 545.154 312.681 538.779 315.11C534.47 316.731 530.411 318.95 526.719 321.7C525.429 322.7 524.429 323.48 523.799 324.06L523.049 324.7L522.789 324.9C522.789 324.9 522.859 324.81 523.019 324.66L523.729 323.99C524.339 323.38 525.319 322.56 526.589 321.54C535.811 314.476 547.249 310.931 558.849 311.54C562.919 311.722 566.935 312.546 570.749 313.98C571.761 314.355 572.732 314.831 573.649 315.4C574.638 315.969 575.417 316.842 575.869 317.89C576.069 318.449 576.122 319.05 576.022 319.635C575.922 320.22 575.673 320.769 575.299 321.23C574.558 322.114 573.61 322.801 572.539 323.23C571.876 323.52 571.186 323.745 570.479 323.9C569.789 324.08 569.099 324.21 568.399 324.33C567.02 324.562 565.627 324.696 564.229 324.73C561.528 324.788 558.827 324.6 556.159 324.17C553.559 323.78 551.049 323.24 548.629 322.69L546.829 322.27C546.206 322.156 545.605 321.944 545.049 321.64C544.76 321.477 544.508 321.255 544.309 320.99C544.102 320.7 544.006 320.345 544.039 319.99C544.11 319.673 544.246 319.374 544.439 319.112C544.632 318.85 544.877 318.632 545.159 318.47C548.735 316.009 553.072 314.906 557.389 315.36C560.788 315.687 564.023 316.981 566.709 319.09L566.879 319.23L566.689 319.33C564.362 320.529 561.696 320.903 559.129 320.39C558.21 320.224 557.324 319.906 556.509 319.45Z" fill="#263238"/>
<path d="M610.91 307.94C611.105 308.221 611.244 308.537 611.32 308.87C611.603 309.764 611.698 310.707 611.6 311.64C611.184 314.718 609.735 317.563 607.49 319.71C606.344 320.952 605.051 322.05 603.64 322.98C602.48 323.725 601.234 324.33 599.93 324.78C599.052 325.072 598.153 325.296 597.24 325.45C596.912 325.519 596.576 325.55 596.24 325.54C596.24 325.44 597.66 325.24 599.81 324.43C601.068 323.947 602.269 323.326 603.39 322.58C604.749 321.645 606.001 320.562 607.12 319.35C609.292 317.276 610.74 314.559 611.25 311.6C611.36 310.369 611.245 309.129 610.91 307.94Z" fill="#263238"/>
<path d="M686.821 324.7C686.213 324.032 685.565 323.401 684.881 322.81C682.987 321.235 680.704 320.198 678.271 319.81C676.609 319.568 674.917 319.616 673.271 319.95C671.338 320.4 669.353 320.585 667.371 320.5C665.201 320.3 663.251 318.99 661.491 317.61C659.74 316.114 657.744 314.93 655.591 314.11C651.346 312.693 646.767 312.623 642.481 313.91C638.987 314.971 635.705 316.633 632.781 318.82C630.8 320.29 628.922 321.893 627.161 323.62L625.731 325.04C625.569 325.212 625.395 325.373 625.211 325.52C625.335 325.32 625.482 325.135 625.651 324.97C625.951 324.62 626.411 324.11 627.021 323.48C628.735 321.687 630.587 320.032 632.561 318.53C635.496 316.267 638.811 314.547 642.351 313.45C646.732 312.103 651.425 312.162 655.771 313.62C657.963 314.462 659.992 315.677 661.771 317.21C663.531 318.58 665.361 319.82 667.391 320.02C669.331 320.114 671.275 319.949 673.171 319.53C674.873 319.202 676.619 319.172 678.331 319.44C680.809 319.867 683.121 320.971 685.011 322.63C685.718 323.222 686.328 323.92 686.821 324.7Z" fill="#263238"/>
<path d="M754.6 307.36C754.471 307.587 754.317 307.798 754.14 307.99C753.686 308.588 753.202 309.162 752.69 309.71C750.833 311.75 748.765 313.587 746.52 315.19C743.211 317.602 739.617 319.598 735.82 321.13C733.582 322.054 731.27 322.789 728.91 323.33C726.381 323.947 723.792 324.283 721.19 324.33C716.153 324.31 711.17 323.29 706.53 321.33C702.744 319.781 699.166 317.766 695.88 315.33C693.658 313.694 691.605 311.842 689.75 309.8C689.07 309.1 688.63 308.48 688.3 308.09C688.132 307.891 687.978 307.681 687.84 307.46C688.037 307.632 688.221 307.819 688.39 308.02C688.74 308.39 689.2 309.02 689.9 309.67C691.8 311.643 693.875 313.441 696.1 315.04C699.384 317.428 702.947 319.406 706.71 320.93C711.291 322.865 716.207 323.884 721.18 323.93C723.749 323.877 726.304 323.541 728.8 322.93C731.134 322.398 733.421 321.679 735.64 320.78C739.416 319.286 742.999 317.342 746.31 314.99C748.556 313.422 750.646 311.64 752.55 309.67C753.25 309 753.7 308.39 754.06 308.02C754.219 307.784 754.4 307.563 754.6 307.36Z" fill="#263238"/>
<path d="M744.919 307.18C744.919 307.18 744.799 307.3 744.559 307.47C744.319 307.64 743.949 307.91 743.459 308.22C742.093 309.092 740.681 309.89 739.229 310.61C737.075 311.695 734.838 312.608 732.539 313.34C729.719 314.266 726.777 314.768 723.809 314.83C718.414 314.702 713.117 313.362 708.309 310.91C706.854 310.189 705.45 309.367 704.109 308.45C703.629 308.13 703.289 307.85 703.049 307.66C702.919 307.577 702.801 307.476 702.699 307.36C703.224 307.636 703.732 307.943 704.219 308.28C705.594 309.122 707.013 309.889 708.469 310.58C713.258 312.902 718.489 314.174 723.809 314.31C726.726 314.248 729.619 313.767 732.399 312.88C734.683 312.178 736.913 311.309 739.069 310.28C740.909 309.41 742.369 308.62 743.359 308.04C743.859 307.719 744.38 307.431 744.919 307.18Z" fill="#263238"/>
<path d="M787.901 309.08H787.411L786.001 309L785.001 308.93H783.811C782.961 308.93 781.981 308.93 780.911 308.93L779.231 309.03L777.421 309.24C776.161 309.35 774.841 309.64 773.421 309.88C770.411 310.528 767.455 311.408 764.581 312.51C761.725 313.663 758.958 315.023 756.301 316.58C755.111 317.36 753.941 318.03 752.941 318.8L751.451 319.87L750.191 321C749.341 321.65 748.641 322.32 748.011 322.9L747.121 323.7L746.431 324.41L745.431 325.41C745.321 325.531 745.197 325.639 745.061 325.73C745.061 325.73 745.151 325.58 745.351 325.34L746.261 324.34L746.931 323.58L747.781 322.75C748.401 322.15 749.091 321.45 749.941 320.75L751.241 319.66C751.711 319.3 752.241 318.94 752.721 318.56C753.721 317.77 754.891 317.07 756.081 316.28C758.746 314.68 761.535 313.296 764.421 312.14C767.321 311.026 770.308 310.15 773.351 309.52C774.771 309.29 776.101 309.01 777.351 308.92L779.181 308.73L780.881 308.68C781.853 308.624 782.828 308.624 783.801 308.68L785.001 308.73L786.001 308.85L787.381 309.04C787.555 309.019 787.732 309.032 787.901 309.08Z" fill="#263238"/>
<path d="M805.999 305.45C805.999 305.45 805.999 305.58 805.999 305.8C805.99 306.135 805.96 306.469 805.909 306.8C805.732 308.022 805.396 309.216 804.909 310.35C803.231 314.082 800.485 317.235 797.019 319.41C793.565 321.529 789.818 323.129 785.899 324.16C784.409 324.58 783.199 324.88 782.359 325.08C781.927 325.201 781.485 325.284 781.039 325.33C781.442 325.137 781.865 324.986 782.299 324.88L785.789 323.8C789.647 322.699 793.34 321.084 796.769 319C799.219 317.571 801.319 315.612 802.915 313.268C804.512 310.924 805.566 308.253 805.999 305.45Z" fill="#263238"/>
<path d="M694.421 324.33C693.731 323.337 692.951 322.41 692.091 321.56C689.652 319.343 686.738 317.714 683.571 316.8C681.393 316.148 679.17 315.657 676.921 315.33C674.501 314.95 671.921 314.64 669.151 314.17C666.294 313.654 663.474 312.95 660.711 312.06C657.778 311.078 654.767 310.349 651.711 309.88C645.752 309.274 639.734 310.103 634.161 312.3C631.721 313.223 629.34 314.295 627.031 315.51C624.841 316.63 622.841 317.73 621.031 318.76C617.391 320.82 614.491 322.57 612.501 323.76L610.201 325.17L609.601 325.53C609.461 325.61 609.391 325.65 609.381 325.64C609.437 325.581 609.501 325.531 609.571 325.49L610.141 325.08C610.651 324.73 611.401 324.23 612.391 323.59C614.391 322.32 617.221 320.52 620.841 318.41C622.661 317.36 624.651 316.24 626.841 315.1C629.159 313.856 631.554 312.76 634.011 311.82C639.647 309.569 645.744 308.718 651.781 309.34C654.868 309.813 657.909 310.549 660.871 311.54C663.611 312.432 666.407 313.143 669.241 313.67C671.961 314.15 674.571 314.47 677.001 314.88C679.267 315.221 681.504 315.735 683.691 316.42C686.898 317.384 689.829 319.098 692.241 321.42C693.126 322.26 693.863 323.244 694.421 324.33Z" fill="#263238"/>
<path d="M599.199 307.46C599.232 307.854 599.212 308.251 599.139 308.64C598.982 309.708 598.704 310.755 598.309 311.76C597.028 315.121 594.763 318.017 591.809 320.07C588.793 321.937 585.559 323.424 582.179 324.5C580.889 324.93 579.839 325.24 579.109 325.43C578.733 325.553 578.344 325.633 577.949 325.67C578.299 325.483 578.667 325.336 579.049 325.23L582.049 324.16C585.355 322.987 588.528 321.472 591.519 319.64C594.375 317.632 596.607 314.859 597.959 311.64C598.49 310.284 598.905 308.886 599.199 307.46Z" fill="#263238"/>
<path d="M501.061 325.67C501.36 325.304 501.695 324.969 502.061 324.67C502.741 324.05 503.771 323.21 505.061 322.21C508.476 319.614 512.079 317.274 515.841 315.21C520.231 312.79 524.341 310.86 527.321 309.5C528.811 308.81 530.021 308.27 530.861 307.91C531.285 307.694 531.731 307.523 532.191 307.4C531.801 307.67 531.386 307.901 530.951 308.09L527.471 309.83C524.541 311.28 520.471 313.26 516.091 315.67C512.353 317.708 508.743 319.973 505.281 322.45C503.951 323.45 502.891 324.21 502.181 324.78C501.835 325.11 501.46 325.408 501.061 325.67Z" fill="#263238"/>
<path d="M521 308.21C521 308.27 520 308.09 518.27 308.21C515.804 308.463 513.411 309.19 511.22 310.35C507.996 312.138 504.928 314.196 502.05 316.5C500.301 317.822 498.459 319.019 496.54 320.08C494.443 321.174 492.229 322.026 489.94 322.62C485.511 323.659 480.98 324.203 476.43 324.24C472.25 324.36 468.5 324.24 465.35 324.41C462.867 324.485 460.391 324.726 457.94 325.13C457.08 325.29 456.41 325.42 455.94 325.53C455.712 325.595 455.477 325.639 455.24 325.66C455.453 325.555 455.678 325.478 455.91 325.43C456.35 325.29 457.02 325.13 457.91 324.93C460.364 324.442 462.851 324.145 465.35 324.04C468.51 323.86 472.27 323.91 476.43 323.76C480.94 323.695 485.429 323.141 489.82 322.11C492.07 321.53 494.247 320.698 496.31 319.63C498.212 318.583 500.039 317.407 501.78 316.11C504.669 313.808 507.754 311.763 511 310C513.243 308.859 515.691 308.179 518.2 308C518.868 307.968 519.537 307.991 520.2 308.07C520.472 308.084 520.74 308.131 521 308.21Z" fill="#263238"/>
<path d="M784.631 307.11C784.631 307.25 766.961 307.37 745.181 307.37C723.401 307.37 705.711 307.25 705.711 307.11C705.711 306.97 723.381 306.85 745.181 306.85C766.981 306.85 784.631 307 784.631 307.11Z" fill="#263238"/>
<path d="M619.361 298.88H562.391V307.39H619.361V298.88Z" fill="#263238"/>
<path d="M577.451 300.85H562.391V305.43H577.451V300.85Z" fill="#E0E0E0"/>
<path d="M624.441 290.37H567.471V298.88H624.441V290.37Z" fill="#3E89EC"/>
<path d="M624.451 292.41H585.811V296.67H624.451V292.41Z" fill="#E0E0E0"/>
<path d="M558.969 290.36H615.939V281.85H558.969V290.36Z" fill="#263238"/>
<path d="M600.879 288.4H615.939V283.82H600.879V288.4Z" fill="#E0E0E0"/>
<path d="M925.289 416.67H867.439V424.62H925.289V416.67Z" fill="#263238"/>
<path d="M925.4 424.72H867.34V416.57H925.4V424.72ZM867.54 424.52H925.2V416.77H867.54V424.52Z" fill="#263238"/>
<path d="M872.809 421.97L881.129 463.06H911.949L919.999 424.62L872.809 421.97Z" fill="#263238"/>
<path d="M872.809 459.17L877.249 465.28H914.699L919.999 459.17H872.809Z" fill="#263238"/>
<path d="M894.2 423.17C894.08 423.17 893.94 404.17 893.87 380.67C893.8 357.17 893.87 338.16 893.96 338.16C894.05 338.16 894.22 357.16 894.28 380.67C894.34 404.18 894.31 423.17 894.2 423.17Z" fill="#263238"/>
<path d="M907.09 375.54C907.049 375.694 906.995 375.844 906.93 375.99C906.79 376.31 906.62 376.72 906.41 377.22L906.04 378.1L905.65 379.18C905.51 379.57 905.36 379.99 905.2 380.42C905.04 380.85 904.93 381.34 904.78 381.84C904.09 384.163 903.549 386.528 903.16 388.92C902.709 391.856 902.408 394.813 902.26 397.78C902.049 403.178 902.202 408.583 902.72 413.96C902.91 416.03 903.09 417.69 903.23 418.85L903.38 420.18C903.398 420.333 903.398 420.487 903.38 420.64C903.328 420.495 903.295 420.344 903.28 420.19C903.22 419.84 903.14 419.4 903.05 418.87C902.87 417.72 902.63 416.06 902.41 413.99C901.804 408.603 901.61 403.177 901.83 397.76C901.978 394.779 902.288 391.808 902.76 388.86C903.173 386.454 903.748 384.079 904.48 381.75C904.64 381.26 904.77 380.75 904.94 380.34L905.42 379.1L905.83 378.03L906.25 377.15C906.49 376.66 906.68 376.26 906.84 375.95C906.902 375.802 906.987 375.663 907.09 375.54Z" fill="#263238"/>
<path d="M905.609 360.15C905.561 360.365 905.498 360.576 905.419 360.78L904.819 362.55L904.379 363.82C904.229 364.3 904.079 364.82 903.909 365.36C903.569 366.46 903.179 367.71 902.829 369.12C902.649 369.82 902.449 370.56 902.249 371.32C902.049 372.08 901.899 372.9 901.709 373.73C901.309 375.38 901.009 377.18 900.639 379.06C899.999 382.84 899.439 387.06 899.049 391.43C898.659 395.8 898.529 400.06 898.469 403.89C898.409 407.72 898.469 411.18 898.669 414.08C898.719 415.53 898.809 416.84 898.889 417.99C898.969 419.14 899.029 420.13 899.099 420.94C899.169 421.75 899.209 422.34 899.239 422.8C899.263 423.02 899.263 423.241 899.239 423.46C899.189 423.247 899.155 423.029 899.139 422.81C899.079 422.35 899.009 421.73 898.919 420.95C898.829 420.17 898.729 419.16 898.639 418.01C898.549 416.86 898.429 415.55 898.359 414.09C898.159 411.19 898.079 407.73 898.069 403.89C898.059 400.05 898.259 395.82 898.619 391.39C898.979 386.96 899.619 382.78 900.249 379C900.629 377.11 900.939 375.31 901.359 373.65C901.549 372.82 901.739 372.02 901.919 371.24C902.099 370.46 902.339 369.74 902.529 369.04C902.899 367.64 903.309 366.39 903.669 365.29C903.849 364.74 904.019 364.23 904.169 363.76C904.319 363.29 904.499 362.88 904.649 362.49L905.319 360.75C905.39 360.539 905.488 360.338 905.609 360.15Z" fill="#263238"/>
<path d="M890.54 426.54C890.528 426.467 890.528 426.393 890.54 426.32C890.54 426.147 890.52 425.927 890.48 425.66C890.48 425.06 890.38 424.21 890.31 423.14C890.17 420.92 889.97 417.76 889.73 413.87C889.23 406.04 888.5 395.23 887.19 383.34C886.51 377.4 885.73 371.75 884.92 366.63C884.49 364.08 884.1 361.63 883.65 359.38C883.2 357.13 882.81 355.01 882.41 353.09C882.01 351.17 881.6 349.45 881.26 347.93C880.92 346.41 880.6 345.11 880.33 344.04C880.06 342.97 879.87 342.18 879.73 341.59L879.58 340.95C879.567 340.877 879.567 340.803 879.58 340.73C879.608 340.799 879.631 340.869 879.65 340.94L879.84 341.57C880 342.16 880.23 342.97 880.52 344C880.81 345.03 881.16 346.36 881.52 347.88C881.88 349.4 882.33 351.11 882.73 353.03C883.13 354.95 883.61 357.03 884.03 359.32C884.45 361.61 884.89 364.01 885.34 366.57C886.17 371.69 886.96 377.34 887.63 383.3C888.95 395.2 889.63 406.02 890.06 413.85C890.27 417.77 890.42 420.94 890.51 423.13C890.51 424.21 890.58 425.05 890.6 425.66C890.6 425.93 890.6 426.14 890.6 426.31C890.592 426.389 890.571 426.467 890.54 426.54Z" fill="#263238"/>
<path d="M893.73 347.3C893.47 344.61 890.73 342.57 888.04 342.55C886.685 342.612 885.361 342.98 884.168 343.626C882.975 344.272 881.943 345.179 881.15 346.28C879.592 348.506 878.469 351.007 877.84 353.65C875.878 359.982 875.198 366.642 875.84 373.24C876.497 379.877 879.372 386.098 884 390.9C884.76 391.65 885.76 392.41 886.81 392.18C887.373 392.009 887.883 391.696 888.29 391.27C892.9 387.047 896.554 381.888 899.009 376.138C901.463 370.388 902.66 364.181 902.52 357.93C902.596 355.421 901.976 352.939 900.73 350.76C899.35 348.68 896.13 346.47 893.78 347.3" fill="#3E89EC"/>
<path d="M873.51 325.71C872.23 328.01 870.956 330.31 869.69 332.61C869.6 332.78 869.48 332.96 869.3 332.97C869.12 332.98 868.95 332.8 868.84 332.63L858.76 317.15L861.08 315.84L873.51 325.71Z" fill="#3E89EC"/>
<g opacity="0.2">
<path d="M873.51 325.71C872.23 328.01 870.956 330.31 869.69 332.61C869.6 332.78 869.48 332.96 869.3 332.97C869.12 332.98 868.95 332.8 868.84 332.63L858.76 317.15L861.08 315.84L873.51 325.71Z" fill="black"/>
</g>
<path d="M894 338.15L859.6 317.86C859.222 317.694 858.922 317.39 858.76 317.01C858.741 316.747 858.787 316.483 858.895 316.242C859.004 316.001 859.17 315.791 859.38 315.63C861.744 313.175 864.61 311.26 867.782 310.014C870.954 308.768 874.357 308.221 877.76 308.41C881.162 308.655 884.453 309.724 887.349 311.525C890.244 313.327 892.658 315.807 894.38 318.75C897.7 324.68 897.81 332.52 894 338.15Z" fill="#3E89EC"/>
<path d="M864.52 311.38C864.666 311.341 864.818 311.321 864.969 311.32C865.269 311.32 865.7 311.25 866.27 311.26C867.868 311.239 869.465 311.366 871.039 311.64C876.286 312.526 881.172 314.884 885.13 318.44C889.052 322.032 891.887 326.655 893.31 331.78C893.736 333.324 894.02 334.904 894.159 336.5C894.219 337.06 894.209 337.5 894.229 337.79C894.251 337.943 894.251 338.097 894.229 338.25C894.229 338.25 894.16 337.63 894.02 336.51C893.174 329.691 889.935 323.393 884.88 318.74C879.735 314.192 873.154 311.601 866.289 311.42C865.699 311.437 865.108 311.424 864.52 311.38Z" fill="#263238"/>
<path d="M889.3 324.15C888.75 324.475 888.167 324.74 887.56 324.94C886.47 325.37 884.94 325.94 883.22 326.46C881.5 326.98 879.94 327.46 878.8 327.72C878.188 327.909 877.558 328.029 876.92 328.08C877.496 327.805 878.099 327.591 878.72 327.44L883.1 326.07L887.47 324.66C888.059 324.423 888.673 324.252 889.3 324.15Z" fill="#263238"/>
<path d="M883.889 309.6C884.359 312.137 884.423 314.733 884.079 317.29C883.911 316.014 883.844 314.727 883.879 313.44C883.777 312.162 883.78 310.878 883.889 309.6Z" fill="#263238"/>
<path d="M859.26 317.47C860.07 317.114 860.905 316.819 861.76 316.59C863.32 316.11 865.5 315.5 867.93 314.92C870.36 314.34 872.57 313.92 874.18 313.6C875.041 313.405 875.918 313.288 876.8 313.25C875.961 313.517 875.106 313.731 874.24 313.89C872.64 314.24 870.44 314.73 868.02 315.32C865.6 315.91 863.42 316.46 861.84 316.87C860.996 317.134 860.134 317.335 859.26 317.47Z" fill="#263238"/>
<path d="M878.1 340.92C875.1 338.68 872.01 338.24 868.3 338.38C864.585 338.63 860.95 339.57 857.58 341.15C851.78 343.69 846.33 347.44 842.86 352.74C839.39 358.04 838.19 365.05 840.79 370.83C840.989 371.432 841.406 371.939 841.96 372.25C842.603 372.434 843.292 372.381 843.9 372.1C850.5 369.95 857.14 367.78 863.21 364.41C869.28 361.04 874.79 356.35 878.05 350.23C878.885 348.783 879.416 347.18 879.61 345.52C879.7 344.69 879.612 343.85 879.352 343.057C879.091 342.263 878.664 341.535 878.1 340.92Z" fill="#3E89EC"/>
<path d="M878.16 340.23C878.006 340.309 877.846 340.372 877.68 340.42L876.3 340.9L875.3 341.23L874.13 341.68C873.3 342.02 872.33 342.36 871.31 342.85L869.69 343.59C869.13 343.85 868.57 344.17 867.97 344.47C866.78 345.06 865.57 345.81 864.28 346.57C861.534 348.3 858.923 350.236 856.47 352.36C854.052 354.523 851.8 356.863 849.73 359.36C848.81 360.54 847.91 361.65 847.18 362.76C846.8 363.31 846.41 363.82 846.09 364.35C845.77 364.88 845.45 365.35 845.15 365.86C844.53 366.81 844.07 367.72 843.63 368.51C843.41 368.91 843.2 369.27 843.03 369.61C842.86 369.95 842.71 370.27 842.57 370.56L841.92 371.87C841.85 372.027 841.766 372.178 841.67 372.32C841.714 372.155 841.774 371.994 841.85 371.84C841.99 371.49 842.19 371.04 842.42 370.49C842.55 370.2 842.7 369.87 842.85 369.49C843 369.11 843.22 368.77 843.42 368.37C843.85 367.57 844.29 366.64 844.9 365.68L845.82 364.15C846.14 363.61 846.52 363.09 846.89 362.53C847.62 361.41 848.52 360.29 849.43 359.09C851.498 356.557 853.761 354.189 856.2 352.01C858.668 349.87 861.303 347.931 864.08 346.21C865.38 345.45 866.61 344.71 867.82 344.13C868.42 343.83 868.98 343.52 869.55 343.26L871.19 342.55C872.19 342.07 873.19 341.75 874.05 341.43C874.48 341.28 874.87 341.12 875.24 341L876.24 340.7L877.65 340.3C877.815 340.251 877.987 340.227 878.16 340.23Z" fill="#263238"/>
<path d="M855.049 352.74C852.693 353.645 850.29 354.42 847.849 355.06C845.449 355.832 843.009 356.473 840.539 356.98C842.893 356.082 845.293 355.307 847.729 354.66C850.132 353.886 852.576 353.245 855.049 352.74Z" fill="#263238"/>
<path d="M854.749 368.62C854.62 367.881 854.567 367.13 854.589 366.38C854.589 364.99 854.589 363.08 854.589 360.96C854.589 358.84 854.759 356.96 854.869 355.55C854.891 354.799 854.988 354.052 855.159 353.32C855.222 354.069 855.222 354.822 855.159 355.57C855.159 357.09 855.059 358.93 854.999 360.97C854.939 363.01 854.899 364.86 854.859 366.38C854.892 367.129 854.855 367.879 854.749 368.62Z" fill="#263238"/>
<path d="M868.35 361.69C868.24 361.69 867.88 357.8 867.54 352.99C867.2 348.18 867.03 344.28 867.15 344.27C867.27 344.26 867.62 348.15 867.96 352.97C868.3 357.79 868.47 361.68 868.35 361.69Z" fill="#263238"/>
<path d="M851.42 343.89C852.187 343.801 852.959 343.778 853.73 343.82C855.15 343.82 857.11 343.87 859.28 343.95C861.45 344.03 863.41 344.11 864.83 344.19C865.602 344.191 866.372 344.264 867.13 344.41C866.364 344.505 865.59 344.529 864.82 344.48C863.4 344.48 861.44 344.43 859.27 344.36C857.1 344.29 855.13 344.2 853.71 344.11C852.941 344.11 852.174 344.037 851.42 343.89Z" fill="#263238"/>
<path d="M885.419 392.75C885.404 392.594 885.404 392.437 885.419 392.28C885.419 391.934 885.399 391.484 885.359 390.93C885.359 389.75 885.299 388.05 885.359 385.93C885.419 383.81 885.539 381.33 885.789 378.56C886.039 375.79 886.439 372.77 886.999 369.61C887.559 366.45 888.249 363.47 888.999 360.78C889.749 358.09 890.449 355.7 891.139 353.71C891.829 351.72 892.429 350.14 892.879 349.05L893.399 347.81C893.457 347.662 893.527 347.518 893.609 347.38C893.582 347.538 893.539 347.692 893.479 347.84C893.359 348.17 893.209 348.59 893.029 349.11C892.619 350.21 892.029 351.81 891.419 353.81C890.809 355.81 890.059 358.19 889.359 360.87C888.659 363.55 888.009 366.53 887.439 369.68C886.869 372.83 886.439 375.85 886.209 378.6C885.979 381.35 885.769 383.85 885.699 385.94C885.629 388.03 885.579 389.73 885.579 390.94C885.579 391.49 885.579 391.94 885.579 392.29C885.55 392.451 885.496 392.606 885.419 392.75Z" fill="#263238"/>
<path d="M887.239 369.28C886.839 369.832 886.379 370.339 885.869 370.79C884.979 371.67 883.709 372.87 882.269 374.13C880.829 375.39 879.479 376.49 878.489 377.26C877.971 377.705 877.408 378.093 876.809 378.42C877.257 377.899 877.756 377.423 878.299 377L881.999 373.79L885.669 370.54C886.151 370.072 886.677 369.65 887.239 369.28Z" fill="#263238"/>
<path d="M898.13 378.05C897.59 377.422 897.098 376.754 896.66 376.05C895.72 374.68 894.56 372.97 893.26 371.05C891.96 369.13 890.75 367.49 889.79 366.14C889.277 365.481 888.813 364.786 888.4 364.06C888.99 364.658 889.526 365.307 890 366C891 367.21 892.23 368.92 893.57 370.85C894.91 372.78 896.07 374.57 896.88 375.85C897.357 376.548 897.775 377.283 898.13 378.05Z" fill="#263238"/>
<path d="M892.42 350.47C892.48 350.57 888.87 353 884.34 355.91C879.81 358.82 876.11 361.09 876.04 361C875.97 360.91 879.6 358.47 884.12 355.56C888.64 352.65 892.36 350.37 892.42 350.47Z" fill="#263238"/>
<path d="M902.619 361.48C900.705 359.894 898.879 358.205 897.149 356.42C895.324 354.734 893.595 352.948 891.969 351.07C893.883 352.656 895.709 354.346 897.439 356.13C899.263 357.816 900.993 359.602 902.619 361.48Z" fill="#263238"/>
<path d="M905.18 361.26L908.29 361C910.493 360.817 912.631 360.162 914.56 359.08C915.5 358.527 916.475 358.036 917.48 357.61C921.32 356.07 925.6 356.35 929.73 356.14C936.495 355.791 943.122 354.091 949.22 351.14C949.577 350.975 949.875 350.702 950.07 350.36C950.71 349.2 949.53 348.17 948.51 347.54C943.28 344.32 937.95 341.05 932.02 339.45C926.09 337.85 919.36 338.12 914.29 341.61C908.35 345.7 906.19 354.09 905.18 361.24" fill="#3E89EC"/>
<path d="M950.14 350C949.958 349.941 949.783 349.86 949.62 349.76L948.14 348.99C946.87 348.32 945.03 347.33 942.71 346.21C940.007 344.895 937.192 343.821 934.3 343C930.758 341.984 927.049 341.685 923.39 342.12C919.727 342.529 916.268 344.015 913.45 346.39C911.248 348.437 909.486 350.911 908.27 353.66C907.424 355.507 906.673 357.397 906.02 359.32L905.47 360.88C905.417 361.068 905.344 361.249 905.25 361.42C905.284 361.231 905.331 361.044 905.39 360.86C905.51 360.45 905.67 359.93 905.87 359.27C906.46 357.305 907.171 355.378 908 353.5C909.196 350.69 910.963 348.16 913.19 346.07C916.054 343.624 919.587 342.095 923.33 341.68C927.041 341.241 930.803 341.554 934.39 342.6C937.301 343.455 940.126 344.576 942.83 345.95C945.14 347.1 946.96 348.13 948.21 348.85C948.81 349.19 949.28 349.47 949.65 349.69C949.823 349.777 949.987 349.881 950.14 350Z" fill="#263238"/>
<path d="M942.69 354C942.62 354.09 938.56 351.47 933.62 348.13C928.68 344.79 924.72 342.02 924.78 341.92C924.84 341.82 928.9 344.46 933.85 347.79C938.8 351.12 942.75 353.91 942.69 354Z" fill="#263238"/>
<path d="M938.789 341.55C937.773 341.931 936.703 342.143 935.619 342.18C934.544 342.349 933.448 342.332 932.379 342.13C933.435 341.928 934.505 341.808 935.579 341.77C936.64 341.601 937.714 341.527 938.789 341.55Z" fill="#263238"/>
<path d="M920.58 338.28C919.827 340.12 918.817 341.844 917.58 343.4C917.899 342.457 918.346 341.561 918.91 340.74C919.355 339.85 919.916 339.022 920.58 338.28Z" fill="#263238"/>
<path d="M924.22 356.4C923.518 356.118 922.848 355.763 922.22 355.34C921.05 354.63 919.47 353.59 917.77 352.34C916.07 351.09 914.58 349.94 913.51 349.09C912.907 348.663 912.345 348.181 911.83 347.65C912.487 347.994 913.11 348.399 913.69 348.86L918.01 352C919.7 353.23 921.25 354.3 922.38 355.08C923.029 355.468 923.644 355.91 924.22 356.4Z" fill="#263238"/>
<path d="M909.76 374.45C906.76 373.66 903.26 376.54 902.65 379.55C902.04 382.56 903.17 385.62 904.49 388.38C907.309 394.57 911.494 400.04 916.73 404.38C922.016 408.728 928.617 411.16 935.46 411.28C934.21 405.46 935.79 399.39 935.09 393.48C934.474 388.276 932.111 383.435 928.387 379.748C924.664 376.061 919.8 373.745 914.59 373.18C912.7 372.98 910.51 372.68 909.76 374.43" fill="#3E89EC"/>
<path d="M935.459 411.3C935.313 411.248 935.172 411.181 935.039 411.1C934.646 410.889 934.274 410.642 933.929 410.36C932.687 409.279 931.688 407.946 930.999 406.45C930.529 405.53 929.999 404.54 929.489 403.45L927.899 399.93C927.308 398.638 926.64 397.383 925.899 396.17C925.096 394.879 924.193 393.651 923.199 392.5C921.199 390.12 918.999 388.06 917.109 386.09C915.405 384.37 913.852 382.507 912.469 380.52C911.543 379.172 910.781 377.719 910.199 376.19C910.009 375.64 909.879 375.19 909.809 374.92C909.752 374.777 909.722 374.624 909.719 374.47C909.719 374.47 909.919 375.07 910.349 376.13C910.984 377.62 911.775 379.037 912.709 380.36C914.116 382.309 915.681 384.138 917.389 385.83C919.279 387.78 921.469 389.83 923.519 392.24C924.524 393.405 925.434 394.649 926.239 395.96C926.986 397.186 927.654 398.459 928.239 399.77L929.799 403.31C930.299 404.41 930.799 405.41 931.259 406.31C931.909 407.793 932.851 409.129 934.029 410.24C934.899 411 935.479 411.26 935.459 411.3Z" fill="#263238"/>
<path d="M920.139 406.47C920.156 405.795 920.25 405.124 920.419 404.47C920.649 403.25 921.029 401.58 921.539 399.75C922.049 397.92 922.599 396.3 923.039 395.14C923.239 394.499 923.511 393.881 923.849 393.3C923.739 393.963 923.562 394.614 923.319 395.24C922.949 396.42 922.449 398.05 921.939 399.87C921.429 401.69 920.999 403.34 920.699 404.54C920.575 405.2 920.388 405.847 920.139 406.47Z" fill="#263238"/>
<path d="M934.899 392.19C934.188 392.097 933.489 391.937 932.809 391.71C931.529 391.38 929.809 390.92 927.809 390.48C925.809 390.04 924.059 389.7 922.809 389.48C922.099 389.393 921.399 389.239 920.719 389.02C921.433 389.004 922.146 389.061 922.849 389.19C924.159 389.37 925.969 389.67 927.939 390.11C929.909 390.55 931.669 391.06 932.939 391.46C933.614 391.64 934.271 391.884 934.899 392.19Z" fill="#263238"/>
<path d="M909.15 396.34C909.186 395.561 909.297 394.788 909.48 394.03C909.74 392.62 910.15 390.68 910.7 388.55C911.25 386.42 911.85 384.55 912.31 383.17C912.521 382.42 912.806 381.693 913.16 381C913.028 381.767 912.838 382.522 912.59 383.26C912.2 384.64 911.66 386.54 911.1 388.66C910.54 390.78 910.1 392.66 909.76 394.09C909.624 394.857 909.42 395.609 909.15 396.34Z" fill="#263238"/>
<path d="M928.099 379.75C925.339 379.673 922.586 379.452 919.849 379.09C915.299 378.6 911.619 378.09 911.629 378.01C914.392 378.089 917.149 378.312 919.889 378.68C924.439 379.16 928.109 379.64 928.099 379.75Z" fill="#263238"/>
<path d="M925.389 424.58C925.389 424.7 912.389 424.79 896.389 424.79C880.389 424.79 867.389 424.7 867.389 424.58C867.389 424.46 880.389 424.38 896.389 424.38C912.389 424.38 925.389 424.47 925.389 424.58Z" fill="#455A64"/>
<path d="M916.35 441.31C916.35 441.42 907.6 441.51 896.8 441.51C886 441.51 877.24 441.42 877.24 441.31C877.24 441.2 886 441.1 896.8 441.1C907.6 441.1 916.35 441.19 916.35 441.31Z" fill="#455A64"/>
<path d="M916.69 443.7C916.69 443.81 907.94 443.91 897.14 443.91C886.34 443.91 877.58 443.81 877.58 443.7C877.58 443.59 886.34 443.49 897.14 443.49C907.94 443.49 916.69 443.59 916.69 443.7Z" fill="#455A64"/>
<path d="M916.69 439.34C916.69 439.45 907.64 439.54 896.47 439.54C885.3 439.54 876.24 439.45 876.24 439.34C876.24 439.23 885.24 439.13 896.47 439.13C907.7 439.13 916.69 439.22 916.69 439.34Z" fill="#455A64"/>
<path fill-rule="evenodd" clip-rule="evenodd" d="M418.23 69.4725C406.761 72.5457 399.954 84.335 403.028 95.8045L409.812 121.124C412.816 132.337 424.152 139.094 435.375 136.518C435.379 136.53 435.383 136.542 435.387 136.555L465.734 128.423C469.2 122.588 457.124 95.1152 449.893 82.4099C446.506 71.4123 434.992 64.9811 423.784 67.9843L418.23 69.4725Z" fill="#3B3B3D"/>
<path fill-rule="evenodd" clip-rule="evenodd" d="M434.967 119.002C442.836 121.264 450.022 121.45 452.932 119.808C460.228 115.692 453.28 86.8789 444.193 77.2209C435.106 67.5629 402.615 70.9979 407.034 93.7738C408.568 101.679 413.687 107.728 420.022 112.086L422.155 154.63L447.269 147.901L434.967 119.002Z" fill="#B28B67"/>
<path fill-rule="evenodd" clip-rule="evenodd" d="M403.746 94.7948C404.282 93.8796 404.801 92.9942 405.334 92.1833L405.083 91.3803C405.083 91.3803 408.649 73.1599 420.766 69.913C432.873 66.669 438.207 71.2616 442.742 75.1656L442.754 75.1761C442.614 81.4633 438.115 85.1973 433.028 89.4202C430.838 91.238 428.539 93.1464 426.431 95.3881C425.226 94.8506 423.835 94.7076 422.46 95.076C419.282 95.9277 417.394 99.1904 418.244 102.363C419.095 105.536 422.361 107.418 425.539 106.567C425.627 106.543 425.713 106.518 425.799 106.491C430.281 118.588 433.614 132.882 431.067 137.169L400.721 145.301C395.801 130.425 398.561 125.066 401.382 119.589C404.036 114.437 406.744 109.18 403.157 95.7949C403.357 95.459 403.553 95.125 403.746 94.7948Z" fill="#3B3B3D"/>
<path fill-rule="evenodd" clip-rule="evenodd" d="M394.525 347.377C394.525 347.377 433.508 358.261 461.792 358.261C490.075 358.261 514.334 341.499 514.334 341.499C514.334 341.499 476.185 330.327 451.5 330.327C426.815 330.327 394.525 347.377 394.525 347.377Z" fill="#ABABAB"/>
<path fill-rule="evenodd" clip-rule="evenodd" d="M484.289 368.72C484.038 368.344 483.827 367.935 483.659 367.492C480.185 358.321 424.543 259.387 419 241.299H481.645C485.86 255.052 504.829 341.355 507.499 358.573C515.922 385.734 533.265 473.697 535.479 479.791C537.808 486.202 524.703 492.88 521.211 484.999C515.655 472.459 502.415 437.761 496.52 416.574C490.994 396.712 486.494 378.843 484.289 368.72Z" fill="#997659"/>
<path fill-rule="evenodd" clip-rule="evenodd" d="M433.038 380.799C407.599 387.217 314.55 398.821 308.165 400.64C301.596 402.513 295.837 388.997 303.956 386.069C316.875 381.41 352.472 370.647 374.055 366.254C391.415 362.721 407.256 359.838 417.892 358.15C416.991 328.327 412.872 256.757 415.572 241.299H471.001C468.412 256.122 446.528 364.279 442.461 375.105C441.17 378.97 437.319 380.678 433.038 380.799V380.799Z" fill="#B28B67"/>
<path fill-rule="evenodd" clip-rule="evenodd" d="M306.3 385.043C306.583 383.906 305.892 382.733 304.738 382.528C302.461 382.124 298.934 381.615 297.076 381.942C294.191 382.45 288.824 384.384 288.824 384.384C289.414 387.726 299.434 444.453 299.434 444.453C299.434 444.453 307.602 445.429 307.329 440.276C307.056 435.122 306.965 431.698 306.965 431.698L314.522 401.503C314.659 400.956 314.317 400.404 313.766 400.283L309.006 399.238C309.006 399.238 305.998 394.952 305.482 392.033C305.16 390.206 305.786 387.107 306.3 385.043Z" fill="#1A1A1A"/>
<path fill-rule="evenodd" clip-rule="evenodd" d="M520.072 482.696C519.003 482.221 517.73 482.696 517.328 483.795C516.533 485.963 515.418 489.344 515.418 491.228C515.418 494.153 516.394 499.765 516.394 499.765C519.794 499.765 577.496 499.765 577.496 499.765C577.496 499.765 579.878 491.905 574.747 491.278C569.615 490.651 566.221 490.146 566.221 490.146L537.742 477.472C537.228 477.244 536.626 477.484 536.411 478.004L534.553 482.504C534.553 482.504 529.803 484.716 526.833 484.716C524.972 484.716 522.019 483.56 520.072 482.696Z" fill="#1A1A1A"/>
<path fill-rule="evenodd" clip-rule="evenodd" d="M415.749 241.299C415.749 241.299 452.388 230.835 485.083 241.299C492.666 275.838 511.092 289.547 514.333 342.5C477.499 360.77 431.999 329.47 394.083 347.287C383.249 322.366 398.416 262.349 415.749 241.299Z" fill="#314149"/>
<path fill-rule="evenodd" clip-rule="evenodd" d="M507.025 143.302L473.564 170.078L489.823 182.319L512.394 152.981C525.881 146.581 531.86 142.586 530.331 140.993C529.042 139.65 527.406 139.994 525.899 140.31C524.725 140.556 523.629 140.785 522.837 140.189C521.028 138.827 522.926 132.615 524.979 126.796C527.033 120.977 523.92 122.001 522.228 123.084C516.964 128.177 511.896 134.917 507.025 143.302ZM549.267 165.146L534.574 176.934L538.373 193.066C538.373 193.066 547.57 183.618 556.189 179.497C567.178 174.243 571.421 170.962 575.801 162.783C578.145 158.407 579.347 150.229 576.028 148.22C574.754 147.449 571.046 150.454 567.262 153.52C564.378 155.857 561.45 158.229 559.523 158.993C556.929 160.02 556.631 156.483 556.392 153.655C556.22 151.627 556.08 149.964 555.144 150.617C550.397 151.538 549.267 165.146 549.267 165.146Z" fill="#997659"/>
<path fill-rule="evenodd" clip-rule="evenodd" d="M454.735 168.748C467.682 166.324 484.496 160.54 500.889 145.591L510.982 160.448C500.476 175.304 484.403 188.822 468.675 191.143C456.28 192.972 447.35 179.191 454.735 168.748Z" fill="#5156B9"/>
<path fill-rule="evenodd" clip-rule="evenodd" d="M439.244 285.458C426.631 286.027 415.04 286.55 408.558 289.054C396.718 265.958 400.262 249.477 403.534 234.263C405.506 225.093 407.379 216.384 405.725 206.964C400.909 179.531 415.527 133.421 418.773 132.849L419.705 132.684L445.43 128.148L448.376 127.629C452.692 144.369 461.581 161.751 470.527 179.244C472.616 183.329 474.709 187.421 476.747 191.512C499.12 192.593 543.898 167.201 543.898 167.201C543.898 167.201 560.349 189.98 561.31 200.746C536.061 220.148 513.369 230.815 493.81 234.704C496.485 246.223 497.018 257.539 494.037 268.491C490.044 283.165 462.852 284.392 439.244 285.458Z" fill="#3E89EC"/>
<path fill-rule="evenodd" clip-rule="evenodd" d="M155.935 123.244C162.411 127.147 168.774 129.033 171.76 128.263C179.25 126.333 179.938 98.9351 174.143 88.1339C168.349 77.3328 138.558 72.625 137.057 94.0255C136.536 101.453 139.654 108.081 144.262 113.49L136 152H160L155.935 123.244Z" fill="#B28B67"/>
<path fill-rule="evenodd" clip-rule="evenodd" d="M157.135 96.3891C159.211 93.298 161.204 90.9403 163.797 89.5711C174.348 89.7378 175.583 87.8463 175.583 81.4711C173.879 80.2516 167.866 78.1983 161.132 77.6207C157.697 76.6377 153.627 76.8225 149.707 78.4623C144.868 79.8354 140.77 82.7924 138.96 88.3284C132.412 99.6291 137.382 111.393 144.08 115.411C145.863 113.299 147.419 111.252 148.807 109.292C147.692 108.203 147 106.682 147 105C147 101.686 149.686 99.0001 153 99.0001C153.243 99.0001 153.484 99.0146 153.72 99.0429C153.869 103.186 154.482 117.203 156.094 122.072C157.995 127.812 169.083 129.221 172.951 129.221C176.291 129.221 176.178 126.058 176.096 123.791C176.084 123.464 176.073 123.157 176.073 122.879C176.073 122.3 175.32 122.302 174.469 122.303C173.364 122.306 172.094 122.308 172.094 121.04C172.094 119.658 174.004 118.598 175.713 117.649C176.779 117.057 177.767 116.509 178.165 115.953C179.418 114.198 179.841 111.831 177.949 111.831C176.916 111.831 175.497 112.427 173.791 113.144C171.215 114.227 167.982 115.585 164.426 115.585C158.55 115.585 157.152 96.6263 157.135 96.3891Z" fill="#040506"/>
<path fill-rule="evenodd" clip-rule="evenodd" d="M128 235L164.255 362.227L190.707 456H210L181.891 235H128Z" fill="#2D3C43"/>
<path fill-rule="evenodd" clip-rule="evenodd" d="M118.305 235C117.467 300.574 114.607 336.34 113.727 342.298C112.846 348.256 99.5329 386.156 73.7871 456H93.7734C126.55 388.997 144.846 351.096 148.663 342.298C152.48 333.5 164.259 297.734 182.001 235H118.305Z" fill="#263238"/>
<path fill-rule="evenodd" clip-rule="evenodd" d="M72 474L73 453L94 453C108.936 463.5 133 470 133 470V474H95L82 472V474H72Z" fill="#2D3C43"/>
<path fill-rule="evenodd" clip-rule="evenodd" d="M188 474L189 453L210 453C224.936 463.5 249 470 249 470V474H211L198 472V474H188Z" fill="#2D3C43"/>
<path fill-rule="evenodd" clip-rule="evenodd" d="M50.3648 271.284C54.0942 265.805 75.6676 207.536 75.6676 207.536L93.3793 210.108C93.3793 210.108 64.8613 271.983 62.8016 275.554C60.126 280.193 62.4926 287.812 64.0974 292.978C64.3457 293.777 64.5757 294.518 64.766 295.18C61.395 296.153 60.1126 294.224 58.7606 292.189C57.2336 289.892 55.6178 287.461 50.8035 288.928C48.9435 289.495 47.1565 290.223 45.4107 290.934C39.38 293.391 33.84 295.649 27.4769 290.37C26.4681 289.534 25.6183 286.797 28.8247 285.203C36.813 281.231 48.5416 273.963 50.3648 271.284ZM242.546 244.202L212.359 218.61L204.109 235.507L234.706 250.777C242.886 261.869 247.564 266.581 248.74 264.914C249.732 263.509 249.133 262.087 248.581 260.777C248.152 259.756 247.75 258.804 248.152 257.98C249.07 256.1 255.042 256.723 260.684 257.556C266.327 258.388 264.85 255.749 263.569 254.407C258.021 250.536 251.013 247.134 242.546 244.202Z" fill="#B28B67"/>
<path fill-rule="evenodd" clip-rule="evenodd" d="M149.695 135.332L160.67 131.703C175.558 168.893 197.761 204.876 234.857 235.27L225.684 251.097C193.081 231.892 162.219 216.973 149.695 188.155C145.492 178.483 149.352 146.897 149.695 135.332Z" fill="#3E89EC"/>
<path fill-rule="evenodd" clip-rule="evenodd" d="M112 240C112 240 159.157 245 186.236 240C188.473 239.587 188.826 235.842 187.788 233.301C171.636 193.724 160.56 159.192 160.56 131.703C156.115 133.944 145 132.374 145 132.374C125.086 160.703 115.933 193.206 112 240Z" fill="#323337"/>
<path fill-rule="evenodd" clip-rule="evenodd" d="M139.294 130C139.808 129.654 140.079 129.481 140.079 129.481L140.05 130H148.349C148.766 132.453 149.377 141.543 150.267 154.798C153.504 202.965 160.436 306.127 175.191 345.606H73.3857C75.5337 300.722 92.082 247.047 109.225 201.47C96.5748 214.056 81.8016 235.153 69.8622 270.273L50.793 265.378C70.2263 181.638 127.162 138.452 138.21 130.744C138.318 130.495 138.425 130.247 138.532 130H139.294Z" fill="#3E89EC"/>
<path fill-rule="evenodd" clip-rule="evenodd" d="M963.065 196.244C956.589 200.147 950.226 202.033 947.24 201.263C939.75 199.333 939.062 171.935 944.857 161.134C950.651 150.333 980.442 145.625 981.943 167.025C982.464 174.453 979.346 181.081 974.738 186.49L983 225H959L963.065 196.244Z" fill="#B28B67"/>
<path fill-rule="evenodd" clip-rule="evenodd" d="M934.224 146.16C934.721 144.413 936.058 142.918 937.86 142.474C938.296 142.366 938.748 142.323 939.197 142.341C939.358 142.347 939.404 142.394 939.479 142.281C939.535 142.198 939.536 141.993 939.559 141.895C939.631 141.59 939.72 141.288 939.831 140.994C940.208 139.992 940.841 139.105 941.605 138.357C943.033 136.959 944.963 135.994 946.968 135.82C948.066 135.724 949.155 135.903 950.193 136.26C950.73 136.444 951.251 136.675 951.758 136.929C951.911 137.006 952.406 137.381 952.559 137.356C952.729 137.33 953.069 136.909 953.207 136.803C954.908 135.498 957.009 134.985 959.128 135C961.52 135.018 963.823 135.138 965.818 136.596C966.241 136.904 966.643 137.242 967.026 137.598C967.228 137.786 967.423 137.98 967.609 138.183C967.722 138.305 967.831 138.43 967.936 138.558C968.115 138.776 968.086 138.847 968.337 138.695C969.297 138.112 970.409 137.839 971.53 137.977C972.195 138.059 972.843 138.258 973.458 138.521C973.667 138.611 974.151 138.968 974.374 138.971C974.596 138.975 975.073 138.644 975.301 138.56C976.533 138.105 977.86 137.993 979.154 138.203C980.489 138.42 981.8 138.952 982.931 139.688C983.475 140.043 983.95 140.435 984.331 140.961C984.496 141.188 984.644 141.429 984.831 141.64C984.94 141.763 985.156 141.89 985.215 142.046C985.18 141.952 986.675 141.376 986.816 141.339C987.568 141.143 988.333 141.183 989.069 141.425C990.453 141.88 991.643 142.902 992.621 143.949C993.123 144.487 993.563 145.081 993.936 145.715C994.115 146.018 994.279 146.33 994.428 146.649C994.501 146.803 994.549 146.996 994.644 147.135C994.768 147.315 994.85 147.318 995.073 147.396C996.206 147.793 997.238 148.465 998.025 149.372C998.82 150.29 999.336 151.421 999.552 152.612C999.565 152.682 999.573 152.972 999.614 153.01C999.67 153.063 999.898 153.04 999.984 153.05C1000.28 153.085 1000.58 153.137 1000.87 153.206C1001.41 153.333 1001.93 153.521 1002.43 153.767C1004.36 154.724 1005.75 156.517 1006.42 158.536C1007.13 160.655 1007.12 163.082 1006.27 165.161C1006.14 165.496 1005.97 165.822 1005.78 166.131C1005.66 166.32 1005.63 166.32 1005.7 166.519C1005.79 166.74 1005.94 166.954 1006.04 167.17C1006.37 167.875 1006.6 168.622 1006.75 169.385C1006.99 170.637 1007.11 171.952 1006.87 173.214C1006.76 173.799 1006.57 174.372 1006.28 174.893C1006.13 175.159 1005.96 175.412 1005.76 175.645C1005.66 175.766 1005.55 175.882 1005.44 175.993C1005.37 176.056 1005.29 176.111 1005.24 176.182C1005.1 176.355 1005.07 176.213 1005.14 176.466C1005.24 176.82 1005.46 177.169 1005.59 177.514C1005.73 177.869 1005.86 178.229 1005.97 178.592C1006.2 179.328 1006.4 180.077 1006.52 180.84C1006.76 182.303 1006.71 183.862 1006.02 185.205C1005.73 185.779 1005.3 186.283 1004.79 186.675C1004.54 186.867 1004.26 187.032 1003.98 187.168C1003.83 187.238 1003.64 187.268 1003.57 187.41C1003.5 187.563 1003.61 187.867 1003.63 188.038C1003.85 189.526 1003.95 191.089 1003.51 192.547C1003.1 193.891 1002.21 195.077 1001.04 195.862C998.781 197.385 995.735 197.299 993.361 196.08C992.742 195.762 992.163 195.367 991.647 194.902C990.331 196.672 987.625 196.616 985.703 196.112C983.308 195.483 981.386 193.818 980.279 191.63C978.765 193.473 975.588 192.875 974.538 190.876C974.281 190.386 974.129 189.847 974.054 189.301C974.014 189.014 974.039 188.725 974.01 188.44C973.972 188.077 973.73 187.725 973.59 187.374C973.319 186.691 973.151 185.985 973.143 185.249C973.14 184.864 973.188 184.489 973.225 184.108C973.258 183.764 973.163 183.444 973.108 183.105C973.723 183.206 974.471 183.041 975.05 182.863C975.617 182.688 976.149 182.228 976.55 181.807C977.481 180.831 978.049 179.551 978.438 178.278C979.292 175.483 978.942 172.129 976.13 170.595C974.82 169.88 970.897 169.883 969.337 170.236C967.696 170.607 965.837 174.226 965.745 174.567C965.689 174.777 965.717 175.038 965.524 175.178C965.099 175.486 964.398 174.951 964.084 174.687C963.543 174.231 963.157 173.624 962.823 173.009C962.095 171.67 961.508 170.233 961.093 168.766C960.773 167.636 960.569 166.47 960.151 165.368C959.735 164.271 959.08 163.291 958.06 162.67C956.952 161.994 955.681 161.638 954.464 161.214C953.257 160.793 952.071 160.279 951.136 159.386C950.93 159.189 950.731 158.981 950.565 158.75C950.435 158.567 950.305 158.218 950.106 158.102C949.797 157.922 949.345 158.39 949.077 158.56C947.757 159.399 946.655 160.568 945.767 161.846C944.883 163.117 944.158 164.339 943.569 165.758C943.132 166.811 942.859 168.159 942.091 169.021C941.748 169.406 939.197 169.639 938.371 169.303C937.545 168.967 936.619 168.094 936.342 167.547C936.058 166.987 935.99 166.371 936.111 165.758C936.183 165.398 936.328 165.061 936.408 164.707C936.475 164.409 936.536 164.128 936.681 163.855C936.955 163.339 937.424 162.967 937.99 162.812C937.401 162.269 936.914 161.62 936.576 160.895C936.226 160.141 935.928 159.224 935.844 158.396C935.776 157.724 935.881 157.028 936.249 156.45C936.635 155.844 937.319 155.449 937.911 155.071C937.007 154.364 936.233 153.504 935.598 152.552C934.361 150.701 933.596 148.368 934.224 146.16Z" fill="#020304"/>
<path fill-rule="evenodd" clip-rule="evenodd" d="M1050 350C1058.84 350 1066 357.163 1066 366V458C1066 466.837 1058.84 474 1050 474H935C926.163 474 919 466.837 919 458V366C919 357.163 926.163 350 935 350H1050ZM1034 378C1036.21 378 1038 379.791 1038 382V442C1038 444.209 1036.21 446 1034 446H951C948.791 446 947 444.209 947 442V382C947 379.791 948.791 378 951 378H1034Z" fill="#C5CFD6"/>
<path fill-rule="evenodd" clip-rule="evenodd" d="M873.289 404.58C869.569 417.608 860.303 442.302 847.49 470.66L835.315 467.108C845.967 401.853 854.832 358.651 859.909 345.502C863.264 336.814 888.646 337.832 885.726 355.313C884.502 362.643 879.657 382.273 873.289 404.58ZM923.332 358.361C943.188 362.475 984.356 377.017 996.111 381.664C1003.5 384.584 998.737 394.488 992.434 393.622C991.366 393.475 987.59 393.052 981.956 392.422C963.858 390.397 926.588 386.228 898.321 382.16C883.437 380.018 891.444 352.138 906.898 355.088C912.097 356.081 917.627 357.179 923.332 358.361Z" fill="#B28B67"/>
<path fill-rule="evenodd" clip-rule="evenodd" d="M859.131 338.138C861.161 331.514 953.438 308 953.438 308H961V315.047L897.413 347.416C897.497 348.461 897.446 349.565 897.241 350.729C897.7 374.726 887.429 392.653 877.261 410.402C870.611 422.008 864.006 433.539 860.472 446.641L837.111 443.156C837.791 441.416 838.867 433.568 840.339 422.839C844.048 395.785 850.271 350.409 859 338.403C859.03 338.361 859.061 338.32 859.093 338.278C859.104 338.231 859.117 338.185 859.131 338.138Z" fill="#263238"/>
<path fill-rule="evenodd" clip-rule="evenodd" d="M955.717 366.64C961.535 365.476 966.893 364.436 971.477 363.632C1001.09 358.438 1009.73 342.586 1004.62 308H950.058C941.145 310.56 894.826 329.985 870.793 340.316C854.887 347.154 859.901 371.804 868.909 378.219C868.958 378.613 869.12 378.88 869.409 379C903.56 393.154 932.682 392.098 951.383 391.42C959.216 391.136 965.22 390.918 969 391.912L974.923 373.228L955.717 366.64Z" fill="#2D3C43"/>
<path fill-rule="evenodd" clip-rule="evenodd" d="M989.873 380.695C989.919 379.525 990.906 378.59 992.071 378.713C994.194 378.939 997.328 379.381 998.854 380.125C1001.28 381.31 1005.55 384.395 1005.55 384.395C1004.18 387.216 980.829 435.089 980.829 435.089C980.829 435.089 973.332 433.879 974.888 429.367C976.444 424.856 977.397 421.835 977.397 421.835L978.385 393.15C978.405 392.587 978.885 392.151 979.447 392.186L983.86 392.464C983.86 392.464 987.621 389.419 988.823 386.955C989.555 385.455 989.796 382.656 989.873 380.695Z" fill="#050505"/>
<path fill-rule="evenodd" clip-rule="evenodd" d="M850.55 464.284C851.622 463.813 852.896 464.29 853.295 465.391C854.023 467.398 855 470.409 855 472.106C855 474.811 854.099 480 854.099 480C850.961 480 797.697 480 797.697 480C797.697 480 795.498 472.732 800.235 472.152C804.972 471.573 808.105 471.106 808.105 471.106L834.32 459.419C834.835 459.189 835.437 459.43 835.652 459.951L837.337 464.039C837.337 464.039 841.722 466.085 844.463 466.085C846.132 466.085 848.754 465.074 850.55 464.284Z" fill="#050505"/>
<path fill-rule="evenodd" clip-rule="evenodd" d="M874.628 319.758L902.956 292.123L912.365 308.403L882.908 325.77C875.522 337.405 871.184 342.432 869.894 340.852C868.806 339.519 869.305 338.058 869.764 336.713C870.121 335.665 870.455 334.687 869.997 333.894C868.95 332.082 863.036 333.12 857.465 334.344C851.895 335.568 853.184 332.832 854.368 331.404C859.633 327.156 866.386 323.273 874.628 319.758ZM1041.6 359.908C1038.67 353.963 1028.69 296.02 1028.69 296.02L1007.8 296.102C1007.8 296.102 1027.15 358.583 1028.69 362.406C1030.7 367.372 1027.29 374.587 1024.98 379.48C1024.63 380.237 1024.3 380.938 1024.02 381.567C1027.22 383 1028.76 381.268 1030.38 379.442C1032.21 377.379 1034.15 375.197 1038.71 377.32C1040.48 378.14 1042.14 379.109 1043.77 380.057C1049.4 383.329 1054.58 386.336 1061.61 381.994C1062.73 381.306 1063.95 378.715 1061 376.69C1053.64 371.645 1043.04 362.815 1041.6 359.908Z" fill="#B28B67"/>
<path fill-rule="evenodd" clip-rule="evenodd" d="M969.306 208.332L960.659 206.849C945.771 244.039 919.779 277.831 882.682 308.225L910.714 342.281C947.807 299.005 970.671 254.355 969.306 208.332Z" fill="#3E89EC"/>
<path fill-rule="evenodd" clip-rule="evenodd" d="M1007 317H930C930 317 956.759 251.938 956.759 206.461L979.986 203C998.24 232.358 1003.4 268.505 1007 317Z" fill="#DDE3E9"/>
<path fill-rule="evenodd" clip-rule="evenodd" d="M1042 350C1033.58 254.996 980.496 203 980.496 203L980.478 203.016C980.475 203.011 980.471 203.005 980.468 203H978.952C976.231 203.094 970.662 203.338 970.662 203.338L965.05 219.377C964.159 248.71 954.649 337.606 954.649 337.606H1005.05C1004.96 341.682 1004.77 345.815 1004.47 350H1042Z" fill="#3E89EC"/>
<path fill-rule="evenodd" clip-rule="evenodd" d="M1005.04 338C1005.44 320.25 1003.87 303.584 1001.24 288.502C999.868 306.399 996.997 327.934 991 338H1005.04Z" fill="black" fill-opacity="0.1"/>
<path fill-rule="evenodd" clip-rule="evenodd" d="M993.889 307L969 295.429V307H993.889Z" fill="white" fill-opacity="0.2"/>
<path fill-rule="evenodd" clip-rule="evenodd" d="M690.999 151.707C702.428 151.707 706.585 138.024 713.078 130.515C717.723 125.143 725.652 126.745 727.999 119.224C733.901 100.311 718.105 87 697.499 87C676.893 87 662.999 98.6743 659.999 116.224C656.999 133.773 670.393 151.707 690.999 151.707Z" fill="#040303"/>
<path fill-rule="evenodd" clip-rule="evenodd" d="M703.935 149.244C710.411 153.147 716.774 155.033 719.76 154.263C727.25 152.333 727.938 124.935 722.143 114.134C716.349 103.333 686.558 98.625 685.057 120.025C684.536 127.453 687.654 134.081 692.262 139.49L684 178H708L703.935 149.244Z" fill="#B28B67"/>
<path fill-rule="evenodd" clip-rule="evenodd" d="M686.616 105C668.233 123 686.687 142.132 691.743 142.132C692.069 139.535 693.065 137.009 694.524 134.604C693.749 133.601 693.29 132.353 693.29 131C693.29 127.686 696.046 125 699.446 125C700.508 125 701.507 125.262 702.379 125.724C709.75 119.438 718.993 115.056 723.583 114.195C731.566 112.696 705 87.0002 686.616 105Z" fill="#040303"/>
<path fill-rule="evenodd" clip-rule="evenodd" d="M676 261L713.631 384.024L731.86 488.648H746.153L726.891 261H676Z" fill="#997659"/>
<path fill-rule="evenodd" clip-rule="evenodd" d="M662.538 261C665.094 328.547 662.086 363.389 661.514 369.526C660.942 375.663 653.109 415.455 634.564 490.708L649.795 485.478C679.103 416.459 689.09 380.589 692.451 371.526C695.812 362.463 704.74 325.621 719.234 261H662.538Z" fill="#B28B67"/>
<path fill-rule="evenodd" clip-rule="evenodd" d="M637.45 484.284C636.378 483.813 635.104 484.29 634.705 485.391C633.977 487.398 633 490.409 633 492.106C633 494.811 633.901 500 633.901 500C637.039 500 690.303 500 690.303 500C690.303 500 692.502 492.732 687.765 492.152C683.028 491.573 679.895 491.106 679.895 491.106L653.68 479.419C653.165 479.189 652.563 479.43 652.348 479.951L650.663 484.039C650.663 484.039 646.278 486.085 643.537 486.085C641.868 486.085 639.246 485.074 637.45 484.284Z" fill="#070707"/>
<path fill-rule="evenodd" clip-rule="evenodd" d="M731.45 484.284C730.378 483.813 729.104 484.29 728.705 485.391C727.977 487.398 727 490.409 727 492.106C727 494.811 727.901 500 727.901 500C731.039 500 784.303 500 784.303 500C784.303 500 786.502 492.732 781.765 492.152C777.028 491.573 773.895 491.106 773.895 491.106L747.68 479.419C747.165 479.189 746.563 479.43 746.348 479.951L744.663 484.039C744.663 484.039 740.278 486.085 737.537 486.085C735.868 486.085 733.246 485.074 731.45 484.284Z" fill="#070707"/>
<path fill-rule="evenodd" clip-rule="evenodd" d="M671 261L687 323.68H735.87L728.584 261H671Z" fill="#69A1AC"/>
<path fill-rule="evenodd" clip-rule="evenodd" d="M661.999 261C654.102 284.671 658.999 323.68 658.999 323.68H708.87L722.583 261H661.999Z" fill="#89C5CC"/>
<path fill-rule="evenodd" clip-rule="evenodd" d="M792.372 272.758L764.044 245.123L754.635 261.403L784.092 278.77C791.478 290.405 795.816 295.432 797.106 293.852C798.194 292.519 797.695 291.058 797.236 289.713C796.879 288.665 796.545 287.687 797.003 286.894C798.05 285.082 803.964 286.12 809.535 287.344C815.105 288.568 813.816 285.832 812.632 284.404C807.367 280.156 800.614 276.273 792.372 272.758ZM625.397 312.908C628.328 306.963 638.307 249.02 638.307 249.02L659.205 249.102C659.205 249.102 639.85 311.583 638.307 315.406C636.303 320.372 639.707 327.587 642.015 332.48C642.373 333.237 642.703 333.938 642.984 334.567C639.781 336 638.243 334.268 636.621 332.442C634.789 330.379 632.85 328.197 628.287 330.32C626.524 331.14 624.856 332.109 623.226 333.057C617.596 336.329 612.424 339.336 605.388 334.994C604.273 334.306 603.051 331.715 606.004 329.69C613.362 324.645 623.965 315.815 625.397 312.908Z" fill="#B28B67"/>
<path fill-rule="evenodd" clip-rule="evenodd" d="M697.694 161.332L706.341 159.849C721.229 197.039 747.221 230.831 784.318 261.225L756.286 295.281C719.193 252.005 696.329 207.355 697.694 161.332Z" fill="#3E89EC"/>
<path fill-rule="evenodd" clip-rule="evenodd" d="M660 270H737C737 270 710.241 204.938 710.241 159.461L687.014 156C668.76 185.358 663.605 221.505 660 270Z" fill="#DDE3E9"/>
<path fill-rule="evenodd" clip-rule="evenodd" d="M625 303C633.421 207.996 686.504 156 686.504 156L686.522 156.016C686.525 156.011 686.529 156.005 686.532 156H688.048C690.769 156.094 696.338 156.338 696.338 156.338L701.95 172.377C702.841 201.71 712.351 290.606 712.351 290.606H661.95C662.036 294.682 662.225 298.815 662.531 303H625Z" fill="#3E89EC"/>
<path fill-rule="evenodd" clip-rule="evenodd" d="M661.959 291C661.557 273.25 663.131 256.584 665.758 241.502C667.132 259.399 670.003 280.934 676 291H661.959Z" fill="black" fill-opacity="0.1"/>
<path fill-rule="evenodd" clip-rule="evenodd" d="M673.111 260L698 248.429V260H673.111Z" fill="white" fill-opacity="0.2"/>
</svg>
