<svg width="726" height="453" viewBox="0 0 726 453" fill="none" xmlns="http://www.w3.org/2000/svg">
<path d="M170.851 22.03H85.3105V111.2H170.851V22.03Z" fill="#E0E0E0"/>
<path d="M165.06 22.03H79.5195V111.2H165.06V22.03Z" fill="#FAFAFA"/>
<path d="M165.08 111.22H79.4902V22H165.08V111.22ZM79.5502 111.16H165V22.05H79.5502V111.16Z" fill="#E0E0E0"/>
<path d="M153.56 34.01H91.0195V99.2H153.56V34.01Z" fill="white"/>
<path d="M91.0003 99.6399C90.5607 100.296 90.0436 100.897 89.4603 101.43C88.4603 102.49 87.0503 103.91 85.4603 105.43C83.8703 106.95 82.4603 108.36 81.3803 109.34C80.8346 109.909 80.2276 110.415 79.5703 110.85C80.0188 110.206 80.5462 109.622 81.1403 109.11C82.1403 108.11 83.5503 106.63 85.1403 105.11C86.7303 103.59 88.1403 102.18 89.2303 101.2C89.7559 100.611 90.3501 100.087 91.0003 99.6399Z" fill="#E0E0E0"/>
<path d="M153.561 99.48C154.217 99.9196 154.818 100.437 155.351 101.02C156.411 102.02 157.831 103.42 159.351 105.02C160.871 106.62 162.291 108.02 163.271 109.1C163.838 109.644 164.342 110.251 164.771 110.91C164.12 110.466 163.52 109.953 162.981 109.38C161.981 108.38 160.501 106.97 158.981 105.38C157.461 103.79 156.041 102.38 155.061 101.29C154.49 100.748 153.987 100.141 153.561 99.48Z" fill="#E0E0E0"/>
<path d="M153.391 34.19C153.831 33.5314 154.348 32.9272 154.931 32.39C155.931 31.34 157.331 29.91 158.931 28.39C160.531 26.87 161.931 25.46 163.011 24.48C163.551 23.9085 164.159 23.4048 164.821 22.98C164.378 23.628 163.865 24.2249 163.291 24.76C162.291 25.82 160.881 27.25 159.291 28.76C157.701 30.27 156.291 31.7 155.201 32.68C154.656 33.25 154.049 33.7565 153.391 34.19Z" fill="#E0E0E0"/>
<path d="M90.8506 34.3499C90.1937 33.9033 89.5898 33.3833 89.0506 32.7999C88.0506 31.7999 86.5706 30.3999 85.0506 28.7999C83.5306 27.1999 82.1206 25.7999 81.1406 24.7099C80.5636 24.1747 80.0593 23.5662 79.6406 22.8999C80.29 23.3446 80.8871 23.8612 81.4206 24.4399C82.4806 25.4399 83.9106 26.8499 85.4206 28.4399C86.9306 30.0299 88.3606 31.4399 89.3406 32.5399C89.9171 33.0782 90.4244 33.6862 90.8506 34.3499Z" fill="#E0E0E0"/>
<path d="M153.39 99.2C153.379 99.0969 153.379 98.993 153.39 98.89C153.39 98.67 153.39 98.37 153.39 97.98C153.39 97.16 153.39 95.98 153.39 94.46C153.39 91.37 153.39 86.88 153.33 81.17C153.33 69.75 153.26 53.49 153.21 34.01L153.45 34.25L90.9998 34.29L91.2798 34.01C91.2798 57.94 91.2798 80.33 91.2798 99.2L91.0398 98.97L136.2 99.09L148.88 99.15H152.24H153.41H153.13H152.29H148.98L136.35 99.21L90.9998 99.44H90.7598V99.2C90.7598 80.33 90.7598 57.94 90.7598 34.01V33.74H90.9998H153.36H153.6V33.98C153.6 53.52 153.51 69.84 153.48 81.3C153.48 86.98 153.48 91.45 153.41 94.53C153.41 96.03 153.41 97.19 153.41 98C153.41 98.38 153.41 98.67 153.41 98.89C153.409 98.9936 153.403 99.0971 153.39 99.2Z" fill="#E0E0E0"/>
<path d="M132.729 56.1699H111.859V77.0399H132.729V56.1699Z" fill="#EBEBEB"/>
<path d="M269.84 434.74C268.54 433.63 265.66 430.12 267.84 426.03C268.66 424.53 270.39 423.79 271.96 423.13C273.575 422.587 275.096 421.798 276.47 420.79C278.91 418.71 279.59 415.26 281.21 412.48C283.08 409.29 286.56 406.91 290.21 407.07C294.42 407.27 297.93 410.7 299.52 414.62C301.11 418.54 301.17 422.89 301.2 427.13C301.2 429.47 301.11 432.13 299.4 433.69C297.69 435.25 295.4 435.16 293.28 435.1L270.28 434.39" fill="#F5F5F5"/>
<path d="M426.791 439.788C425.491 438.678 422.611 435.168 424.791 431.078C425.611 429.578 427.341 428.838 428.911 428.178C430.526 427.635 432.047 426.845 433.421 425.838C435.861 423.758 436.541 420.308 438.161 417.528C440.031 414.338 443.511 411.958 447.161 412.118C451.371 412.318 454.881 415.748 456.471 419.668C458.061 423.588 458.121 427.938 458.151 432.178C458.151 434.518 458.061 437.178 456.351 438.738C454.641 440.298 452.351 440.208 450.231 440.148L427.231 439.438" fill="#F5F5F5"/>
<path d="M177.791 362.788C176.491 361.678 173.611 358.168 175.791 354.078C176.611 352.578 178.341 351.838 179.911 351.178C181.526 350.635 183.047 349.845 184.421 348.838C186.861 346.758 187.541 343.308 189.161 340.528C191.031 337.338 194.511 334.958 198.161 335.118C202.371 335.318 205.881 338.748 207.471 342.668C209.061 346.588 209.121 350.938 209.151 355.178C209.151 357.518 209.061 360.178 207.351 361.738C205.641 363.298 203.351 363.208 201.231 363.148L178.231 362.438" fill="#F5F5F5"/>
<path d="M459.246 409.911C460.392 408.641 463.979 405.859 468.008 408.15C469.485 409.011 470.177 410.761 470.794 412.348C471.292 413.977 472.04 415.52 473.009 416.921C475.022 419.417 478.452 420.191 481.186 421.887C484.324 423.843 486.608 427.387 486.347 431.032C486.032 435.235 482.507 438.649 478.545 440.131C474.583 441.613 470.233 441.554 465.994 441.467C463.655 441.403 460.998 441.24 459.485 439.488C457.973 437.736 458.126 435.449 458.244 433.332L459.584 410.36" fill="#F5F5F5"/>
<path d="M210.246 332.911C211.392 331.641 214.979 328.859 219.008 331.15C220.485 332.011 221.177 333.761 221.794 335.348C222.292 336.977 223.04 338.52 224.009 339.921C226.022 342.417 229.452 343.191 232.186 344.887C235.324 346.843 237.608 350.387 237.347 354.032C237.032 358.235 233.507 361.649 229.545 363.131C225.583 364.613 221.233 364.554 216.994 364.467C214.655 364.403 211.998 364.24 210.485 362.488C208.973 360.736 209.126 358.449 209.244 356.332L210.584 333.36" fill="#F5F5F5"/>
<path d="M695.42 22.95H595.4V188.51H695.42V22.95Z" fill="#E0E0E0"/>
<path d="M692.09 22.95H592.07V188.51H692.09V22.95Z" fill="#EBEBEB"/>
<path d="M687.83 26.3101H596.33V185.15H687.83V26.3101Z" fill="white"/>
<path d="M670.01 46.95H613.75V164.51H670.01V46.95Z" fill="#EBEBEB"/>
<path d="M613.749 122.91C613.619 111.91 623.489 101.2 634.369 99.67C639.549 98.94 645.059 99.97 649.909 97.98C658.559 94.44 661.309 82.98 670.009 79.54L670.409 164.54H613.749V122.91Z" fill="#E0E0E0"/>
<path d="M346.201 252.66H335.051V442.42H346.201V252.66Z" fill="#E0E0E0"/>
<path d="M340.45 412.34L339.3 408.9L313.32 443.6H316.73" fill="#E0E0E0"/>
<path d="M341.961 408.9L367.941 443.6H364.531L340.811 412.34L341.961 408.9Z" fill="#E0E0E0"/>
<path d="M721.001 442.81C721.001 442.96 568.781 443.08 381.061 443.08C193.341 443.08 41.0605 442.96 41.0605 442.81C41.0605 442.66 193.241 442.55 381.061 442.55C568.881 442.55 721.001 442.67 721.001 442.81Z" fill="#263238"/>
<path d="M530.629 32.7002H205.689V258H530.629V32.7002Z" fill="#FAFAFA"/>
<path d="M530.64 258C530.64 256.43 530.55 168.47 530.41 32.7002L530.64 32.8802H205.72L205.98 32.6602C205.98 114.22 205.98 191.19 205.98 257.96L205.75 257.76L530.69 257.96L205.75 258.16H205.51V257.96C205.51 191.19 205.51 114.22 205.51 32.6602V32.4302H205.8H530.72H530.94V32.6202C530.73 168.47 530.64 256.43 530.64 258Z" fill="#263238"/>
<path d="M253.47 239.73C250.052 239.727 246.775 238.369 244.358 235.952C241.942 233.535 240.583 230.258 240.58 226.84V78.4601C240.58 76.7665 240.914 75.0895 241.562 73.525C242.211 71.9604 243.161 70.539 244.359 69.3419C245.557 68.1449 246.979 67.1956 248.544 66.5484C250.109 65.9012 251.786 65.5688 253.48 65.5701H312.67C314.363 65.5714 316.039 65.9061 317.602 66.5551C319.165 67.2041 320.586 68.1547 321.782 69.3525C322.978 70.5504 323.926 71.9721 324.573 73.5365C325.219 75.1009 325.551 76.7773 325.55 78.4701V226.85C325.55 228.543 325.216 230.22 324.568 231.784C323.919 233.348 322.969 234.768 321.771 235.965C320.572 237.161 319.15 238.109 317.585 238.755C316.02 239.401 314.343 239.733 312.65 239.73" fill="#455A64"/>
<path d="M253.529 233.7C251.142 233.7 248.853 232.752 247.165 231.064C245.478 229.376 244.529 227.087 244.529 224.7V79.8701C244.529 77.4832 245.478 75.194 247.165 73.5062C248.853 71.8183 251.142 70.8701 253.529 70.8701H267.609H301.119H312.599C314.986 70.8701 317.275 71.8183 318.963 73.5062C320.651 75.194 321.599 77.4832 321.599 79.8701V224.7C321.599 227.087 320.651 229.376 318.963 231.064C317.275 232.752 314.986 233.7 312.599 233.7" fill="white"/>
<path d="M240.83 86.3601H240.33C239.59 86.3601 238.99 86.96 238.99 87.7001V104.3C238.99 105.04 239.59 105.64 240.33 105.64H240.83C241.57 105.64 242.17 105.04 242.17 104.3V87.7001C242.17 86.96 241.57 86.3601 240.83 86.3601Z" fill="#455A64"/>
<path d="M240.83 109.13H240.33C239.59 109.13 238.99 109.73 238.99 110.47V127.07C238.99 127.81 239.59 128.41 240.33 128.41H240.83C241.57 128.41 242.17 127.81 242.17 127.07V110.47C242.17 109.73 241.57 109.13 240.83 109.13Z" fill="#455A64"/>
<path d="M325.83 102.12H325.33C324.59 102.12 323.99 102.72 323.99 103.46V134.08C323.99 134.82 324.59 135.42 325.33 135.42H325.83C326.57 135.42 327.17 134.82 327.17 134.08V103.46C327.17 102.72 326.57 102.12 325.83 102.12Z" fill="#455A64"/>
<path d="M469.98 86.6602H387.73C384.62 86.6602 382.1 89.1808 382.1 92.2902V93.7402C382.1 96.8495 384.62 99.3702 387.73 99.3702H469.98C473.089 99.3702 475.61 96.8495 475.61 93.7402V92.2902C475.61 89.1808 473.089 86.6602 469.98 86.6602Z" fill="#3E89EC"/>
<path d="M419.88 119.46H363.72C362.168 119.46 360.91 120.718 360.91 122.27V123C360.91 124.552 362.168 125.81 363.72 125.81H419.88C421.432 125.81 422.69 124.552 422.69 123V122.27C422.69 120.718 421.432 119.46 419.88 119.46Z" fill="#E0E0E0"/>
<path d="M493.15 119.46H436.99C435.438 119.46 434.18 120.718 434.18 122.27V123C434.18 124.552 435.438 125.81 436.99 125.81H493.15C494.702 125.81 495.96 124.552 495.96 123V122.27C495.96 120.718 494.702 119.46 493.15 119.46Z" fill="#E0E0E0"/>
<path d="M384.829 211.26H364.759C363.207 211.26 361.949 212.518 361.949 214.07V214.8C361.949 216.352 363.207 217.61 364.759 217.61H384.829C386.381 217.61 387.639 216.352 387.639 214.8V214.07C387.639 212.518 386.381 211.26 384.829 211.26Z" fill="#E0E0E0"/>
<path d="M439.409 209.95H419.339C417.787 209.95 416.529 211.208 416.529 212.76V213.49C416.529 215.042 417.787 216.3 419.339 216.3H439.409C440.961 216.3 442.219 215.042 442.219 213.49V212.76C442.219 211.208 440.961 209.95 439.409 209.95Z" fill="#E0E0E0"/>
<path d="M489.61 210.4H469.54C467.989 210.4 466.73 211.658 466.73 213.21V213.94C466.73 215.492 467.989 216.75 469.54 216.75H489.61C491.162 216.75 492.42 215.492 492.42 213.94V213.21C492.42 211.658 491.162 210.4 489.61 210.4Z" fill="#E0E0E0"/>
<path d="M420.919 147.53H364.759C363.207 147.53 361.949 148.788 361.949 150.34V151.07C361.949 152.622 363.207 153.88 364.759 153.88H420.919C422.471 153.88 423.729 152.622 423.729 151.07V150.34C423.729 148.788 422.471 147.53 420.919 147.53Z" fill="#E0E0E0"/>
<path d="M491.929 133.37H364.349C362.797 133.37 361.539 134.628 361.539 136.18V136.91C361.539 138.462 362.797 139.72 364.349 139.72H491.929C493.481 139.72 494.739 138.462 494.739 136.91V136.18C494.739 134.628 493.481 133.37 491.929 133.37Z" fill="#E0E0E0"/>
<path d="M382.847 196.008C387.933 191.562 388.451 183.836 384.006 178.751C379.56 173.665 371.834 173.147 366.749 177.592C361.663 182.038 361.145 189.764 365.59 194.849C370.036 199.935 377.762 200.453 382.847 196.008Z" fill="#E0E0E0"/>
<path d="M436.354 194.145C441.13 189.369 441.13 181.626 436.354 176.85C431.578 172.074 423.834 172.074 419.058 176.85C414.282 181.626 414.282 189.369 419.058 194.145C423.834 198.922 431.578 198.922 436.354 194.145Z" fill="#E0E0E0"/>
<path d="M492.07 188.756C493.63 182.184 489.567 175.592 482.995 174.032C476.423 172.473 469.831 176.536 468.271 183.108C466.712 189.68 470.775 196.272 477.347 197.831C483.919 199.391 490.511 195.328 492.07 188.756Z" fill="#E0E0E0"/>
<path d="M283.09 141.57L269.52 135.76L269.91 134.85L283.08 140.48L296.24 134.51L296.66 135.42L283.09 141.57Z" fill="white"/>
<path d="M283.58 141.03H282.58V156.93H283.58V141.03Z" fill="white"/>
<path d="M534.19 38.0202H202.14C200.668 38.0202 199.256 37.4355 198.215 36.3946C197.175 35.3538 196.59 33.9421 196.59 32.4702C196.592 31 197.178 29.5909 198.219 28.5522C199.259 27.5135 200.67 26.9302 202.14 26.9302H534.19C534.918 26.9289 535.64 27.0712 536.313 27.349C536.986 27.6268 537.598 28.0347 538.114 28.5493C538.629 29.0638 539.038 29.675 539.317 30.3478C539.596 31.0206 539.74 31.7418 539.74 32.4702C539.741 33.1994 539.598 33.9217 539.32 34.5956C539.042 35.2696 538.633 35.8819 538.117 36.3976C537.602 36.9132 536.989 37.322 536.315 37.6004C535.641 37.8788 534.919 38.0215 534.19 38.0202Z" fill="#263238"/>
<path d="M679.001 116.73L681.371 109.57C678.026 104.565 676.675 98.4904 677.582 92.5397C678.49 86.5891 681.59 81.193 686.274 77.4124C690.958 73.6319 696.887 71.7402 702.895 72.1094C708.903 72.4785 714.556 75.0818 718.742 79.4074C722.928 83.733 725.345 89.468 725.517 95.485C725.689 101.502 723.604 107.366 719.672 111.923C715.74 116.481 710.245 119.403 704.268 120.115C698.291 120.827 692.263 119.277 687.371 115.77L679.001 116.73Z" fill="white"/>
<path d="M679 116.73L679.55 116.66L681.16 116.46L687.37 115.71L687.32 115.83C687.312 115.825 687.305 115.817 687.3 115.808C687.296 115.8 687.293 115.79 687.293 115.78C687.293 115.77 687.296 115.76 687.3 115.752C687.305 115.743 687.312 115.735 687.32 115.73C687.326 115.724 687.333 115.718 687.34 115.715C687.348 115.711 687.356 115.71 687.365 115.71C687.373 115.71 687.382 115.711 687.39 115.715C687.397 115.718 687.404 115.724 687.41 115.73C690.678 118.058 694.477 119.529 698.46 120.01C699.687 120.16 700.924 120.214 702.16 120.17C703.483 120.102 704.8 119.939 706.1 119.68C711.241 118.648 715.9 115.954 719.358 112.012C722.816 108.07 724.881 103.1 725.235 97.8685C725.588 92.6369 724.211 87.4342 721.315 83.0628C718.419 78.6915 714.165 75.3944 709.21 73.68C705.701 72.4745 701.963 72.0846 698.28 72.54C694.806 72.995 691.476 74.2143 688.53 76.11C685.809 77.8525 683.464 80.1201 681.63 82.78C679.973 85.208 678.777 87.9197 678.1 90.78C678.02 91.12 677.95 91.45 677.88 91.78C677.795 92.1083 677.735 92.4426 677.7 92.78C677.63 93.44 677.55 94.09 677.47 94.78C677.399 96.0223 677.399 97.2677 677.47 98.51C677.818 102.485 679.151 106.31 681.35 109.64C681.354 109.649 681.357 109.66 681.357 109.67C681.357 109.68 681.354 109.691 681.35 109.7C680.56 112.01 679.96 113.78 679.55 114.99L679.07 116.37C678.97 116.68 678.91 116.84 678.91 116.84C678.91 116.84 678.91 116.69 679.04 116.39C679.17 116.09 679.29 115.62 679.48 115.02C679.88 113.8 680.48 112.02 681.21 109.66V109.72C678.96 106.384 677.584 102.536 677.21 98.53C677.114 97.279 677.094 96.0234 677.15 94.77C677.22 94.12 677.29 93.46 677.37 92.77C677.397 92.4322 677.453 92.0976 677.54 91.77C677.61 91.43 677.68 91.09 677.76 90.77C678.438 87.888 679.641 85.1557 681.31 82.71C683.164 80.0054 685.545 77.7027 688.31 75.94C691.286 74.0247 694.65 72.795 698.16 72.34C701.892 71.87 705.682 72.2599 709.24 73.48C712.973 74.7735 716.332 76.9644 719.02 79.86C719.375 80.2101 719.709 80.5807 720.02 80.97L720.93 82.11L721.73 83.32C722.011 83.712 722.258 84.1267 722.47 84.56L723.15 85.83C723.38 86.25 723.52 86.71 723.71 87.14C723.9 87.57 724.09 88.02 724.24 88.47C724.39 88.92 724.5 89.37 724.64 89.83C725.647 93.3795 725.815 97.1145 725.13 100.74C724.254 105.485 721.975 109.858 718.588 113.295C715.201 116.732 710.862 119.074 706.13 120.02C704.811 120.281 703.473 120.441 702.13 120.5C696.813 120.657 691.593 119.054 687.28 115.94L687.38 115.84C687.387 115.847 687.392 115.854 687.396 115.863C687.399 115.871 687.401 115.881 687.401 115.89C687.401 115.899 687.399 115.909 687.396 115.917C687.392 115.926 687.387 115.933 687.38 115.94L681.11 116.6L679.51 116.76L679 116.73Z" fill="#263238"/>
<path d="M690.25 96.88L693.6 93.16L700.73 98.88L711.32 86.72L714.78 90.1L700.57 105.73L690.25 96.88Z" fill="#3E89EC"/>
<path d="M538.929 53.3077L538.299 45.5777C533.131 42.1864 529.418 36.9848 527.891 30.9953C526.364 25.0058 527.132 18.6615 530.044 13.2096C532.957 7.75766 537.804 3.59235 543.631 1.53238C549.459 -0.527591 555.847 -0.333221 561.539 2.07727C567.231 4.48776 571.815 8.94004 574.391 14.559C576.967 20.1779 577.348 26.5571 575.459 32.4427C573.57 38.3282 569.548 43.2945 564.184 46.3653C558.819 49.4361 552.5 50.3894 546.469 49.0377L538.929 53.3077Z" fill="white"/>
<path d="M538.929 53.3078L539.429 53.0178L540.869 52.1878L546.449 48.9778V49.1178C546.443 49.1113 546.437 49.1035 546.434 49.0949C546.43 49.0863 546.428 49.0771 546.428 49.0678C546.428 49.0585 546.43 49.0493 546.434 49.0407C546.437 49.0321 546.443 49.0243 546.449 49.0178C546.463 49.0099 546.478 49.0057 546.494 49.0057C546.51 49.0057 546.525 49.0099 546.539 49.0178C550.565 49.9037 554.748 49.7696 558.709 48.6278C559.933 48.2765 561.127 47.8284 562.279 47.2878C563.504 46.6904 564.683 46.0053 565.809 45.2378C570.245 42.1942 573.559 37.7778 575.24 32.6675C576.922 27.5572 576.878 22.036 575.116 16.953C573.354 11.8699 569.971 7.50642 565.487 4.53342C561.003 1.56042 555.667 0.142546 550.299 0.497804C546.49 0.761232 542.793 1.89351 539.489 3.8078C536.388 5.6187 533.73 8.099 531.709 11.0678C528.096 16.3235 526.662 22.7762 527.709 29.0678L527.899 30.0678C527.955 30.4065 528.035 30.7407 528.139 31.0678C528.329 31.7278 528.519 32.3678 528.709 33.0078C529.155 34.2063 529.669 35.3783 530.249 36.5178C532.168 40.1507 534.967 43.2449 538.389 45.5178C538.396 45.5372 538.396 45.5584 538.389 45.5778C538.579 48.0678 538.719 49.9978 538.809 51.3078C538.809 51.9578 538.889 52.4478 538.919 52.7978C538.949 53.1478 538.919 53.3078 538.919 53.3078C538.919 53.3078 538.919 53.1578 538.869 52.8278C538.819 52.4978 538.789 51.9978 538.729 51.3578C538.619 50.0378 538.439 48.1078 538.219 45.5878V45.6478C534.755 43.387 531.915 40.2923 529.959 36.6478C529.361 35.5026 528.836 34.3201 528.389 33.1078C528.189 32.4678 527.999 31.8178 527.799 31.1078C527.694 30.7809 527.614 30.4467 527.559 30.1078C527.489 29.7678 527.429 29.4178 527.359 29.1078C526.263 22.7325 527.698 16.181 531.359 10.8478C533.399 7.83642 536.088 5.32126 539.229 3.48779C542.582 1.51869 546.342 0.345251 550.219 0.0578016C554.269 -0.219704 558.326 0.504988 562.029 2.1678C562.492 2.36159 562.942 2.58196 563.379 2.82781L564.699 3.5378L565.949 4.3678C566.371 4.6258 566.773 4.91669 567.149 5.23779L568.299 6.1778C568.669 6.49315 569.023 6.82691 569.359 7.1778C569.699 7.5278 570.069 7.8578 570.359 8.2278L571.289 9.34779C573.668 12.3036 575.328 15.7713 576.139 19.4778C576.872 22.8374 576.904 26.312 576.233 29.6844C575.562 33.0569 574.202 36.2547 572.239 39.0778C570.52 41.5419 568.365 43.6704 565.879 45.3578C564.744 46.1331 563.551 46.8185 562.309 47.4078C561.144 47.9516 559.937 48.3997 558.699 48.7478C554.701 49.8865 550.48 49.9965 546.428 49.0678L546.479 48.9178C546.486 48.9243 546.491 48.9321 546.495 48.9407C546.498 48.9493 546.5 48.9585 546.5 48.9678C546.5 48.9771 546.498 48.9863 546.495 48.9949C546.491 49.0035 546.486 49.0113 546.479 49.0178L540.819 52.2578L539.379 53.0578L538.929 53.3078Z" fill="#263238"/>
<path d="M545.818 21.3078H549.038C549.036 20.9404 549.107 20.5761 549.248 20.2367C549.388 19.8973 549.596 19.5897 549.858 19.3322C550.12 19.0747 550.432 18.8725 550.774 18.7378C551.116 18.603 551.481 18.5385 551.848 18.5479C552.391 18.5297 552.926 18.6806 553.379 18.9798C553.833 19.279 554.182 19.7116 554.378 20.2178C554.549 20.6401 554.617 21.0968 554.577 21.5505C554.537 22.0042 554.39 22.442 554.148 22.8279C553.598 23.7278 552.408 24.5478 550.228 24.1678V31.4379H553.418V27.1778C554.726 26.793 555.871 25.9899 556.679 24.8916C557.486 23.7934 557.911 22.4607 557.888 21.0978C557.888 16.3778 553.658 15.2878 551.888 15.2878C550.508 15.2878 545.818 15.6178 545.818 21.3078Z" fill="#3E89EC"/>
<path d="M553.5 32.9277H550.26V35.9477H553.5V32.9277Z" fill="#3E89EC"/>
<path d="M72.1998 89.1902L70.2598 82.6802C73.2428 77.8784 74.3216 72.1345 73.2841 66.5777C72.2465 61.0208 69.1677 56.0532 64.653 52.6514C60.1383 49.2496 54.5143 47.6598 48.8868 48.1946C43.2593 48.7294 38.0354 51.3501 34.2423 55.5414C30.4492 59.7327 28.3612 65.1914 28.3889 70.8442C28.4167 76.4969 30.5581 81.9349 34.3922 86.0887C38.2263 90.2426 43.4756 92.8119 49.1081 93.2915C54.7406 93.771 60.3487 92.1261 64.8298 88.6802L72.1998 89.1902Z" fill="#FAFAFA"/>
<path d="M72.1994 89.1902H71.7394L70.3494 89.1102L64.8194 88.8302C64.8057 88.8305 64.792 88.8277 64.7796 88.822C64.7671 88.8163 64.7561 88.8078 64.7474 88.7972C64.7388 88.7866 64.7326 88.7741 64.7295 88.7608C64.7263 88.7474 64.7263 88.7335 64.7294 88.7202L64.8694 88.8602C61.9009 91.1861 58.398 92.733 54.6794 93.3602C52.2726 93.7611 49.8161 93.7611 47.4094 93.3602C44.6788 92.9443 42.0483 92.029 39.6494 90.6602C35.9015 88.5178 32.8388 85.3554 30.8175 81.5408C28.7963 77.7263 27.8996 73.4162 28.2316 69.112C28.5637 64.8078 30.1109 60.6863 32.6933 57.2269C35.2757 53.7675 38.7872 51.1123 42.8194 49.5702C46.1377 48.2886 49.7067 47.789 53.2494 48.1102C59.0942 48.7058 64.4838 51.5337 68.2953 56.0046C72.1067 60.4755 74.0461 66.2447 73.7094 72.1102C73.4884 75.86 72.3297 79.4944 70.3394 82.6802V82.6102C70.9394 84.7202 71.4094 86.3601 71.7394 87.4902C71.8894 88.0201 71.9994 88.4302 72.0894 88.7302C72.1302 88.8649 72.1636 89.0018 72.1894 89.1402L72.0494 88.7001C71.9494 88.4002 71.8194 87.9902 71.6494 87.4501C71.3027 86.3368 70.806 84.7402 70.1594 82.6602C70.1523 82.648 70.1486 82.6342 70.1486 82.6202C70.1486 82.6061 70.1523 82.5923 70.1594 82.5802C72.4743 78.7737 73.6065 74.3654 73.4124 69.9146C73.2184 65.4637 71.7068 61.1707 69.0694 57.5802C67.2675 55.1599 65.0039 53.1206 62.4094 51.5802C59.5926 49.9175 56.4452 48.8934 53.1894 48.5802C49.7327 48.2557 46.2476 48.7243 42.9994 49.9501C37.9844 51.8742 33.8273 55.5355 31.2853 60.2673C28.7432 64.999 27.9852 70.4865 29.1494 75.7302C30.1225 80.112 32.3907 84.1001 35.6595 87.1762C38.9283 90.2524 43.0465 92.2746 47.4794 92.9802C49.8535 93.3701 52.2753 93.3701 54.6494 92.9802C58.3301 92.3817 61.8062 90.884 64.7694 88.6202C64.7881 88.6018 64.8132 88.5916 64.8394 88.5916C64.8655 88.5916 64.8907 88.6018 64.9094 88.6202C64.9241 88.6367 64.9323 88.658 64.9323 88.6802C64.9323 88.7023 64.9241 88.7236 64.9094 88.7402L64.8394 88.5802L70.2894 88.9802L71.7194 89.0902L72.1994 89.1902Z" fill="#3E89EC"/>
<path d="M44.6195 70.83C44.6215 71.2854 44.4883 71.731 44.2368 72.1106C43.9852 72.4901 43.6267 72.7865 43.2066 72.9621C42.7865 73.1377 42.3238 73.1847 41.877 73.0971C41.4302 73.0094 41.0194 72.7912 40.6967 72.4699C40.3741 72.1487 40.154 71.7389 40.0645 71.2924C39.9749 70.846 40.0199 70.383 40.1936 69.9622C40.3674 69.5413 40.6622 69.1815 41.0407 68.9284C41.4191 68.6752 41.8642 68.54 42.3195 68.54C42.9278 68.54 43.5113 68.781 43.9423 69.2102C44.3734 69.6393 44.6169 70.2218 44.6195 70.83Z" fill="#3E89EC"/>
<path d="M53.809 70.8301C53.8109 71.2858 53.6775 71.7319 53.4255 72.1116C53.1735 72.4914 52.8144 72.7877 52.3938 72.963C51.9731 73.1384 51.5098 73.1848 51.0627 73.0963C50.6156 73.0079 50.2049 72.7886 49.8826 72.4664C49.5604 72.1441 49.3411 71.7334 49.2527 71.2863C49.1643 70.8392 49.2107 70.3759 49.386 69.9553C49.5613 69.5346 49.8576 69.1755 50.2374 68.9235C50.6172 68.6715 51.0632 68.5381 51.519 68.5401C52.1263 68.5401 52.7088 68.7813 53.1382 69.2108C53.5677 69.6402 53.809 70.2227 53.809 70.8301Z" fill="#3E89EC"/>
<path d="M62.9999 69.6901C63.3036 70.2205 63.3841 70.8499 63.2237 71.4397C63.0634 72.0295 62.6753 72.5314 62.1449 72.8351C61.6144 73.1388 60.9851 73.2193 60.3953 73.0589C59.8055 72.8986 59.3036 72.5105 58.9999 71.9801C58.8495 71.7174 58.7524 71.4278 58.7139 71.1276C58.6755 70.8274 58.6966 70.5225 58.776 70.2305C58.8554 69.9385 58.9916 69.6649 59.1767 69.4255C59.3618 69.1861 59.5922 68.9854 59.8549 68.8351C60.1175 68.6847 60.4072 68.5876 60.7074 68.5492C61.0076 68.5107 61.3124 68.5318 61.6045 68.6112C61.8965 68.6906 62.17 68.8268 62.4095 69.0119C62.6489 69.197 62.8495 69.4274 62.9999 69.6901Z" fill="#3E89EC"/>
<path fill-rule="evenodd" clip-rule="evenodd" d="M128.699 138.936C138.985 138.936 142.726 126.622 148.57 119.864C152.751 115.029 159.887 116.47 161.999 109.701C167.31 92.68 153.095 80.7 134.549 80.7C116.004 80.7 103.499 91.2068 100.799 107.001C98.099 122.796 110.154 138.936 128.699 138.936Z" fill="black"/>
<path fill-rule="evenodd" clip-rule="evenodd" d="M140.34 136.72C146.168 140.233 151.895 141.93 154.583 141.237C161.323 139.5 161.943 114.842 156.727 105.121C151.512 95.3997 124.701 91.1626 123.35 110.423C122.881 117.108 125.687 123.073 129.834 127.941L122.398 162.6H143.998L140.34 136.72Z" fill="#B28B67"/>
<path fill-rule="evenodd" clip-rule="evenodd" d="M124.756 96.8998C108.211 113.1 124.819 130.318 129.37 130.318C129.664 127.981 130.56 125.708 131.872 123.544C131.175 122.641 130.762 121.517 130.762 120.3C130.762 117.318 133.242 114.9 136.302 114.9C137.258 114.9 138.158 115.136 138.943 115.551C145.576 109.894 153.895 105.95 158.026 105.175C165.21 103.826 141.301 80.6998 124.756 96.8998Z" fill="black"/>
<path fill-rule="evenodd" clip-rule="evenodd" d="M115.199 237.3L149.067 348.022L165.473 442.184H178.337L161.001 237.3H115.199Z" fill="#997659"/>
<path fill-rule="evenodd" clip-rule="evenodd" d="M103.085 237.3C105.385 298.092 102.678 329.45 102.163 334.973C101.648 340.496 94.5983 376.309 77.9082 444.038L91.6155 439.33C117.993 377.213 126.981 344.93 130.006 336.773C133.031 328.617 141.066 295.459 154.111 237.3H103.085Z" fill="#B28B67"/>
<path fill-rule="evenodd" clip-rule="evenodd" d="M80.5047 438.256C79.5401 437.831 78.3939 438.261 78.0346 439.252C77.3793 441.059 76.5 443.768 76.5 445.295C76.5 447.73 77.3111 452.4 77.3111 452.4C80.1352 452.4 128.073 452.4 128.073 452.4C128.073 452.4 130.051 445.859 125.788 445.337C121.525 444.815 118.706 444.395 118.706 444.395L95.112 433.877C94.6489 433.671 94.1067 433.887 93.9135 434.356L92.3969 438.035C92.3969 438.035 88.4504 439.876 85.983 439.876C84.4809 439.876 82.1211 438.967 80.5047 438.256Z" fill="black"/>
<path fill-rule="evenodd" clip-rule="evenodd" d="M165.104 438.256C164.14 437.831 162.994 438.261 162.634 439.252C161.979 441.059 161.1 443.768 161.1 445.295C161.1 447.73 161.911 452.4 161.911 452.4C164.735 452.4 212.672 452.4 212.672 452.4C212.672 452.4 214.651 445.859 210.388 445.337C206.125 444.815 203.305 444.395 203.305 444.395L179.712 433.877C179.248 433.671 178.706 433.887 178.513 434.356L176.997 438.035C176.997 438.035 173.05 439.876 170.583 439.876C169.081 439.876 166.721 438.967 165.104 438.256Z" fill="black"/>
<path fill-rule="evenodd" clip-rule="evenodd" d="M110.699 237.3L125.099 293.712H169.083L162.524 237.3H110.699Z" fill="#69A1AC"/>
<path fill-rule="evenodd" clip-rule="evenodd" d="M102.6 237.3C95.4926 258.604 99.8998 293.712 99.8998 293.712H144.783L157.125 237.3H102.6Z" fill="#89C5CC"/>
<path fill-rule="evenodd" clip-rule="evenodd" d="M219.935 247.882L194.44 223.01L185.972 237.662L212.483 253.293C219.131 263.764 223.035 268.289 224.196 266.866C225.175 265.667 224.726 264.353 224.313 263.142C223.991 262.198 223.691 261.318 224.103 260.604C225.046 258.974 230.368 259.908 235.381 261.01C240.395 262.112 239.235 259.649 238.169 258.364C233.431 254.54 227.353 251.046 219.935 247.882ZM69.6585 284.018C72.2959 278.667 81.2775 226.518 81.2775 226.518L100.085 226.592C100.085 226.592 82.6659 282.824 81.2775 286.265C79.474 290.735 82.5376 297.229 84.6149 301.632C84.9363 302.313 85.234 302.945 85.4865 303.511C82.6041 304.8 81.2195 303.241 79.7597 301.598C78.111 299.741 76.3664 297.777 72.2595 299.688C70.6728 300.426 69.1714 301.299 67.7045 302.151C62.6375 305.097 57.9827 307.802 51.6505 303.895C50.6466 303.276 49.5465 300.943 52.2045 299.121C58.8265 294.58 68.3692 286.633 69.6585 284.018Z" fill="#B28B67"/>
<path fill-rule="evenodd" clip-rule="evenodd" d="M134.725 147.599L142.508 146.264C155.907 179.735 179.299 210.148 212.686 237.502L187.458 268.153C154.074 229.204 133.497 189.019 134.725 147.599Z" fill="#276BC5"/>
<path fill-rule="evenodd" clip-rule="evenodd" d="M100.801 245.4H170.101C170.101 245.4 146.018 186.844 146.018 145.915L125.114 142.8C108.685 169.223 104.045 201.754 100.801 245.4Z" fill="#DDE3E9"/>
<path fill-rule="evenodd" clip-rule="evenodd" d="M69.2988 275.1C76.8776 189.596 124.652 142.8 124.652 142.8L124.669 142.815C124.672 142.81 124.675 142.805 124.678 142.8H126.042C128.491 142.884 133.503 143.104 133.503 143.104L138.554 157.539C139.356 183.939 147.915 263.945 147.915 263.945H102.554C102.631 267.614 102.802 271.334 103.076 275.1H69.2988Z" fill="#3E89EC"/>
<path fill-rule="evenodd" clip-rule="evenodd" d="M102.562 264.3C102.2 248.325 103.617 233.326 105.981 219.752C107.218 235.859 109.802 255.24 115.199 264.3H102.562Z" fill="black" fill-opacity="0.1"/>
<path fill-rule="evenodd" clip-rule="evenodd" d="M112.6 236.4L135 225.986V236.4H112.6Z" fill="white" fill-opacity="0.2"/>
<path fill-rule="evenodd" clip-rule="evenodd" d="M571.76 120.32C566.279 123.968 560.893 125.73 558.365 125.011C552.026 123.207 551.443 97.6016 556.348 87.5074C561.253 77.4131 586.469 73.0134 587.74 93.0133C588.181 99.9547 585.541 106.149 581.641 111.204L588.635 147.194H568.32L571.76 120.32Z" fill="#B28B67"/>
<path fill-rule="evenodd" clip-rule="evenodd" d="M550.606 76.0123C551.129 76.38 551.991 76.5633 553.206 76.5824C554.405 76.6013 555.864 76.4609 557.514 76.2568C558.193 76.1727 558.904 76.0779 559.639 75.9799L559.639 75.9799C562.452 75.6048 565.622 75.1821 568.766 75.1299C572.734 75.0641 576.737 75.5844 580.015 77.5779C583.315 79.5842 585.821 83.0444 586.857 88.7222L586.896 88.938L586.79 89.0572C591.304 99.1849 587.218 109.406 581.793 112.999C580.284 111.026 578.967 109.113 577.792 107.281C578.736 106.263 579.322 104.842 579.322 103.27C579.322 100.173 577.049 97.6622 574.244 97.6622C573.588 97.6622 572.961 97.7994 572.386 98.0493C570.194 94.1658 568.347 91.1387 565.889 89.3622C559.513 90.0611 555.249 88.9373 552.692 86.5751C550.002 84.0904 549.321 80.3504 549.904 76.3152L550.008 75.5922L550.606 76.0123ZM564.607 88.5808C559.032 89.0059 555.437 87.8888 553.301 85.916C551.047 83.834 550.311 80.6972 550.711 77.0795C551.398 77.3579 552.252 77.4648 553.192 77.4796C554.458 77.4995 555.971 77.3518 557.624 77.1473C558.32 77.0612 559.042 76.965 559.785 76.866L559.785 76.866C562.593 76.4917 565.694 76.0783 568.781 76.0271C572.681 75.9624 576.483 76.4802 579.549 78.3446C582.09 79.8896 584.169 82.3856 585.368 86.3482C584.905 85.5851 584.388 84.8261 583.815 84.074C575.012 72.5224 560.118 76.5231 560.118 87.5913C561.86 87.5913 563.321 87.9355 564.607 88.5808Z" fill="black"/>
<path fill-rule="evenodd" clip-rule="evenodd" d="M589.514 228.563L547.968 344.661L520.103 442.811H509.1L551.699 228.563L589.514 228.563Z" fill="#997659"/>
<path fill-rule="evenodd" clip-rule="evenodd" d="M597.879 228.563C598.322 269.361 604.773 324.288 605.804 326.831C606.835 329.374 676.973 391.511 676.973 391.511L669.394 400.465C669.394 400.465 586.638 347.19 582.809 340.085C578.979 332.979 566.511 267.593 556.501 228.563H597.879Z" fill="#B28B67"/>
<path fill-rule="evenodd" clip-rule="evenodd" d="M675.758 389.811C676.032 388.769 677.027 388.157 677.962 388.534C679.66 389.219 682.144 390.328 683.244 391.347C684.998 392.972 687.873 396.735 687.873 396.735C686.165 398.981 657.185 437.114 657.185 437.114C657.185 437.114 651.276 434.321 653.477 430.582C655.679 426.843 657.08 424.319 657.08 424.319L663.769 398.521C663.899 398.018 664.379 397.738 664.836 397.898L668.403 399.147C668.403 399.147 672.115 397.237 673.607 395.274C674.519 394.074 675.294 391.573 675.758 389.811Z" fill="black"/>
<path fill-rule="evenodd" clip-rule="evenodd" d="M522.058 437.334C523.054 436.858 524.272 437.309 524.615 438.359C525.228 440.235 526.029 442.984 526.029 444.545C526.029 447.073 525.266 451.922 525.266 451.922C522.61 451.922 477.525 451.922 477.525 451.922C477.525 451.922 475.664 445.13 479.673 444.588C483.683 444.047 486.335 443.61 486.335 443.61L508.43 432.735C508.906 432.5 509.481 432.728 509.667 433.226L511.078 437.006C511.078 437.006 514.79 438.918 517.11 438.918C518.461 438.918 520.548 438.055 522.058 437.334Z" fill="black"/>
<path fill-rule="evenodd" clip-rule="evenodd" d="M561.579 432.701L509.265 426.433L548.036 228.563H594.893L561.579 432.701Z" fill="#455A64"/>
<path fill-rule="evenodd" clip-rule="evenodd" d="M666.15 377.065L631.835 421.91C631.835 421.91 577.62 356.534 568.619 336.594C559.619 316.655 552.438 228.563 552.438 228.563H605.19C605.19 228.563 609.113 306.062 610.478 309.669C611.844 313.275 666.15 377.065 666.15 377.065Z" fill="#37474F"/>
<path fill-rule="evenodd" clip-rule="evenodd" d="M650.201 272.479C647.628 266.752 634.77 193.043 634.77 193.043L615.54 193.122C615.54 193.122 637.509 271.202 638.864 274.885C640.623 279.669 637.634 286.62 635.607 291.334C635.294 292.063 635.003 292.738 634.757 293.344C637.569 294.725 638.92 293.056 640.345 291.297C641.953 289.31 643.656 287.207 647.663 289.252C649.211 290.042 650.676 290.977 652.108 291.889C657.052 295.042 661.594 297.938 667.773 293.756C668.752 293.093 669.826 290.596 667.232 288.645C660.771 283.785 651.459 275.279 650.201 272.479ZM488.242 243.759L513.12 217.137L521.382 232.82L495.513 249.551C489.027 260.759 485.217 265.603 484.085 264.08C483.129 262.796 483.567 261.389 483.97 260.093C484.284 259.083 484.578 258.141 484.175 257.377C483.256 255.632 478.062 256.631 473.17 257.811C468.278 258.99 469.41 256.354 470.45 254.979C475.073 250.886 481.004 247.146 488.242 243.759Z" fill="#B28B67"/>
<path fill-rule="evenodd" clip-rule="evenodd" d="M576.173 133.202L568.579 131.773C556.616 178.16 495.153 209.779 491.38 227.12C489.996 233.479 494.168 236.694 492.013 238.631L501.884 246.557C503.555 244.418 507.122 248.331 514.571 245.594C522.02 242.856 576.173 188.128 576.173 133.202Z" fill="#276BC5"/>
<path fill-rule="evenodd" clip-rule="evenodd" d="M589.604 123.523C591.581 123.372 593.285 124.853 593.411 126.831L593.788 132.735C608.079 144.799 643.5 180.85 652.73 247.961C653.7 255.01 651.946 258.786 650.545 261.803C649.587 263.867 648.793 265.576 649.149 267.734L636.232 271.646C636.232 270.052 634.603 268.84 632.503 267.275C629.449 265.001 625.396 261.983 623.897 255.967C622.477 250.264 620.397 243.14 617.911 235.216C617.677 245.711 615.863 255.362 611.911 263.356C602.051 283.298 545.073 261.428 539.12 241.084C535.943 230.228 540.451 221.113 546.412 209.059C553.979 193.758 563.889 173.719 563.399 139.365L562.75 129.183C562.624 127.205 564.124 125.478 566.1 125.326L589.604 123.523Z" fill="#3E89EC"/>
<path fill-rule="evenodd" clip-rule="evenodd" d="M283.797 123.786C283.377 124.155 283.033 124.568 283.032 124.705C283.031 124.841 282.642 125.565 282.168 126.313C281.694 127.062 281.306 127.717 281.306 127.77C281.306 127.857 279.857 130.345 279.356 131.118C279.24 131.296 279.053 131.658 278.939 131.921C278.825 132.184 278.356 133.012 277.896 133.76C276.019 136.816 274.828 139.101 274.828 139.647C274.828 140.846 275.364 141.349 279.235 143.772C281.325 145.081 283.21 146.249 283.424 146.368C283.638 146.487 284.439 146.983 285.205 147.472C288.55 149.605 290.528 150.789 291.121 151.015C291.64 151.212 292.219 151.154 294.252 150.701C297.996 149.867 299.063 149.516 299.713 148.904C300.675 147.998 300.694 147.173 299.791 145.499C298.507 143.117 297.483 142.612 295.635 143.45C293.033 144.63 289.788 144.88 287.381 144.089C284.883 143.267 283.515 142.091 282.362 139.77C281.72 138.478 281.662 138.189 281.647 136.201C281.633 134.438 281.722 133.795 282.129 132.721C282.733 131.128 284.098 129.513 285.972 128.173C287.574 127.028 287.785 126.717 287.785 125.494C287.785 124.375 287.513 123.857 286.709 123.441C285.672 122.903 284.664 123.023 283.797 123.786ZM288.972 131.638C287.157 132.44 286.39 135.03 287.222 137.539C287.912 139.619 289.903 140.827 292.194 140.557C293.453 140.408 294.373 139.647 294.692 138.491C294.977 137.457 294.705 136.614 293.326 134.255C291.793 131.633 290.602 130.917 288.972 131.638ZM271.397 145.34C271.05 145.667 270.48 146.471 270.129 147.125C269.778 147.779 269.271 148.684 269.001 149.135C268.732 149.586 268.559 150.003 268.618 150.062C268.676 150.12 269.15 150.029 269.67 149.859C272.344 148.986 275.191 149.01 277.228 149.924C278.471 150.482 280.368 152.402 281.003 153.746C281.924 155.697 282.109 157.082 281.672 158.752C280.7 162.465 278.047 165.384 273.532 167.709C272.423 168.28 271.87 168.432 270.895 168.432C269.434 168.432 269.015 168.116 268.852 166.893C268.696 165.722 269.276 165.054 270.985 164.438C273.718 163.452 276.167 161.52 276.896 159.773C277.617 158.045 276.967 155.84 275.422 154.767C274.273 153.969 272.656 153.863 270.509 154.445C266.593 155.505 265.308 155.92 265.024 156.217C264.48 156.788 255.151 173.157 255.033 173.75C254.883 174.501 255.252 175.166 256.108 175.689C256.764 176.089 257.277 176.109 267.01 176.11C278.285 176.111 278.133 176.128 278.864 174.755C279.069 174.371 279.41 173.569 279.622 172.974C279.834 172.379 280.294 171.211 280.643 170.379C280.992 169.546 282.005 167.015 282.895 164.754C287.388 153.337 287.316 153.578 286.482 152.742C286.24 152.5 285.533 151.989 284.911 151.606C284.288 151.223 283.587 150.793 283.352 150.649C283.118 150.505 282.343 150.051 281.63 149.641C280.917 149.231 278.787 147.961 276.895 146.82C273.033 144.491 272.46 144.337 271.397 145.34ZM301.281 152.528C300.925 152.623 299.176 152.968 297.394 153.294C295.613 153.62 293.523 154.045 292.751 154.238C291.388 154.578 291.332 154.619 290.808 155.684C290.511 156.286 290.151 157.065 290.008 157.414C289.763 158.013 289.147 159.534 284.968 169.869C284.023 172.207 283.25 174.27 283.25 174.454C283.25 174.638 283.484 175.062 283.771 175.396L284.291 176.003L287.891 176.076C291.891 176.157 292.566 176.016 293.097 174.988C293.521 174.166 293.325 173.592 292.291 172.629C291.343 171.746 291.231 171.05 291.851 169.887C292.149 169.327 292.69 168.955 294.446 168.102C295.667 167.51 296.699 167.026 296.741 167.026C296.783 167.026 297.87 166.529 299.157 165.922C300.444 165.315 302.226 164.476 303.117 164.057C304.008 163.639 305.423 162.972 306.262 162.576C307.878 161.814 308.444 161.12 308.168 160.241C307.879 159.322 303.929 152.737 303.542 152.529C303.082 152.282 302.205 152.282 301.281 152.528ZM308.084 166.958C307.745 167.078 306.161 167.808 303.184 169.217C302.211 169.678 301.346 170.054 301.261 170.054C301.177 170.054 300.573 170.307 299.92 170.616C298.55 171.266 298.426 171.109 301.605 172.737C302.852 173.375 304.65 174.301 305.6 174.795C307.92 176 308.818 176.213 310.288 175.908C312.522 175.443 313.914 173.706 313.914 171.383C313.914 169.387 312.917 167.923 311.019 167.128C310.276 166.817 308.734 166.728 308.084 166.958Z" fill="#3E89EC"/>
</svg>
