<svg width="1016" height="282" viewBox="0 0 1016 282" fill="none" xmlns="http://www.w3.org/2000/svg">
<path d="M389.146 93.7988H383.055H377.269H371.483H368.133L364.478 94.0973L361.128 94.6942L360.452 94.7884C358.919 95.0018 357.779 96.3126 357.779 97.8601C357.779 99.573 359.167 100.962 360.88 100.962L373.615 100.962L415.677 101.248C416.664 101.255 417.468 100.456 417.468 99.4693V95.6261C417.468 94.6169 416.65 93.7988 415.641 93.7988H413.204H407.418H401.327H389.146Z" fill="black"/>
<path d="M363.493 181.436C371.359 181.436 376.079 185.418 376.079 192.793C376.079 198.299 371.359 204.199 363.493 204.199H352.873V215.851H345.843V181.436H363.493ZM352.873 198.693H362.51C365.902 198.693 369.048 196.087 369.048 192.94C369.048 189.106 366 187.237 362.51 187.237H352.873V198.693ZM425.627 199.234C427.299 200.069 429.118 201.593 429.118 207.247L429.167 215.851H422.087V207.444C422.087 205.232 420.661 204.15 418.056 204.15L404.29 204.199V215.851H397.21V181.436H416.237C424.103 181.436 428.823 184.386 428.823 190.876C428.823 194.563 427.004 195.989 425.283 196.923C424.005 197.955 421.743 198.545 420.071 198.693V198.791C420.907 198.742 421.841 198.594 422.579 198.594C422.825 198.594 424.545 198.545 425.627 199.234ZM415.45 187.237H404.29V198.25H414.319C418.498 198.25 422.579 196.333 422.579 192.793C422.579 188.565 419.629 187.237 415.45 187.237ZM450.306 215.851V181.436H457.336V215.851H450.306ZM496.625 209.509L506.703 181.436H514.225L501.787 215.851H490.922L478.483 181.436H485.907L496.035 209.509C496.231 209.951 496.28 210.59 496.28 211.131H496.379C496.379 210.59 496.428 209.951 496.625 209.509ZM561.837 215.851H554.069L551.415 208.771H536.862L534.158 215.851H526.537L539.517 181.436H548.858L561.837 215.851ZM550.48 205.969L544.089 188.958L538.779 202.921C540.746 202.921 542.27 202.921 543.499 202.97C544.679 203.019 546.646 203.068 548.268 203.314C549.005 203.511 549.743 204.396 550.48 205.969ZM594.687 189.548V215.851H587.706V187.877H575.12V181.436H607.224V187.877H596.359C595.376 187.877 594.294 187.385 593.556 186.647L593.458 186.746C594.196 187.483 594.687 188.565 594.687 189.548ZM657.661 181.436V187.877H635.39V196.284H656.186V201.79H635.39V209.411H657.661V215.851H628.359V181.436H657.661ZM721.652 209.411H739.794V215.851H712.753V181.436H719.784V207.542C719.784 208.673 719.243 209.902 718.456 210.689L718.505 210.738C719.292 209.951 720.521 209.411 721.652 209.411ZM760.952 215.851V181.436H767.982V215.851H760.952ZM808.303 205.379L819.316 181.387H826.74V215.802L819.709 215.851V198.84C819.709 196.874 820.053 194.317 820.496 192.35H820.397C819.955 194.268 819.218 196.775 818.283 198.545L810.565 215.851H805.255L797.585 198.545C796.651 196.775 795.914 194.268 795.471 192.35H795.373C795.815 194.317 796.159 196.874 796.159 198.84V215.851H789.129V181.436H796.553L807.566 205.379C807.762 205.822 807.861 206.51 807.861 207.051H807.959C807.959 206.51 808.106 205.822 808.303 205.379ZM847.89 215.851V181.436H854.92V215.851H847.89ZM895.635 189.548V215.851H888.653V187.877H876.067V181.436H908.172V187.877H897.306C896.323 187.877 895.241 187.385 894.504 186.647L894.406 186.746C895.143 187.483 895.635 188.565 895.635 189.548ZM958.609 181.436V187.877H936.338V196.284H957.134V201.79H936.338V209.411H958.609V215.851H929.307V181.436H958.609ZM995.691 181.436C1005.33 181.436 1013.19 186.942 1013.19 198.644C1013.19 210.345 1005.33 215.851 995.691 215.851H979.762V181.436H995.691ZM986.792 209.411H996.232C1000.61 209.411 1006.16 206.313 1006.16 198.644C1006.16 191.269 1000.71 187.877 996.232 187.877H984.187C985.711 187.877 986.792 188.172 986.792 189.45V209.411Z" fill="black"/>
<path d="M402.727 123.097V128.584C402.727 135.559 395.659 139 381.523 139H345.253C342.277 139 340.603 137.791 340.603 135.373C340.603 132.955 342.277 131.746 345.253 131.746H381.523C389.149 131.746 392.962 130.63 392.962 128.584V123.376C392.962 121.237 389.149 120.214 381.523 120.214H362.365C348.136 120.214 341.161 116.866 341.161 110.077V105.706C341.161 97.801 348.415 93.802 363.016 93.802H375.757C378.826 93.802 380.5 95.104 380.5 97.522C380.5 99.94 378.733 101.149 375.757 101.149H363.016C354.925 101.149 350.833 102.637 350.833 105.706V109.798C350.833 112.309 354.925 113.611 362.923 113.611H382.081C395.845 113.611 402.727 116.773 402.727 123.097ZM465.349 139H436.426C423.127 139 416.524 134.908 416.524 126.631V121.33C416.524 113.146 423.127 109.054 436.426 109.054H475.951V107.659C475.951 103.288 472.138 101.149 464.512 101.149H451.399C448.33 101.149 446.749 99.94 446.749 97.522C446.749 95.104 448.33 93.802 451.399 93.802H464.512C478.648 93.802 485.623 98.452 485.623 107.659V125.887C485.623 134.629 478.927 139 465.349 139ZM464.791 131.746C472.231 131.746 475.951 129.7 475.951 125.608V115.471H437.17C429.916 115.471 426.289 117.424 426.289 121.144V125.98C426.289 129.793 429.916 131.746 437.17 131.746H464.791ZM564.05 139H506.018C502.67 139 500.903 137.512 500.903 135.001C500.903 133.513 501.74 132.211 503.693 130.909L549.914 101.428H507.692C504.437 101.428 502.763 100.126 502.763 97.615C502.763 95.104 504.53 93.802 507.599 93.802H562.004C565.259 93.802 566.933 95.29 566.933 97.615C566.933 99.196 565.91 100.684 564.329 101.707L517.643 131.467H564.143C567.398 131.467 569.072 132.676 569.072 135.187C569.072 137.698 567.398 139 564.05 139ZM645.126 123.097V128.584C645.126 135.559 638.058 139 623.922 139H587.652C584.676 139 583.002 137.791 583.002 135.373C583.002 132.955 584.676 131.746 587.652 131.746H623.922C631.548 131.746 635.361 130.63 635.361 128.584V123.376C635.361 121.237 631.548 120.214 623.922 120.214H604.764C590.535 120.214 583.56 116.866 583.56 110.077V105.706C583.56 97.801 590.814 93.802 605.415 93.802H618.156C621.225 93.802 622.899 95.104 622.899 97.522C622.899 99.94 621.132 101.149 618.156 101.149H605.415C597.324 101.149 593.232 102.637 593.232 105.706V109.798C593.232 112.309 597.324 113.611 605.322 113.611H624.48C638.244 113.611 645.126 116.773 645.126 123.097ZM742.442 139H713.519C700.22 139 693.617 134.908 693.617 126.631V121.33C693.617 113.146 700.22 109.054 713.519 109.054H753.044V107.659C753.044 103.288 749.231 101.149 741.605 101.149H728.492C725.423 101.149 723.842 99.94 723.842 97.522C723.842 95.104 725.423 93.802 728.492 93.802H741.605C755.741 93.802 762.716 98.452 762.716 107.659V125.887C762.716 134.629 756.02 139 742.442 139ZM741.884 131.746C749.324 131.746 753.044 129.7 753.044 125.608V115.471H714.263C707.009 115.471 703.382 117.424 703.382 121.144V125.98C703.382 129.793 707.009 131.746 714.263 131.746H741.884ZM822.729 139H789.9V151.276C789.9 153.88 788.226 155.182 784.971 155.182C781.716 155.182 780.042 153.88 780.042 151.276V108.589C780.042 98.731 788.04 93.802 804.036 93.802H822.729C838.725 93.802 846.723 98.731 846.723 108.589V124.306C846.723 134.071 838.725 139 822.729 139ZM789.9 108.496V131.467H823.008C832.215 131.467 836.772 129.049 836.772 124.399V108.496C836.772 103.753 832.215 101.428 823.008 101.428H803.664C794.55 101.428 789.9 103.753 789.9 108.496ZM906.738 139H873.909V151.276C873.909 153.88 872.235 155.182 868.98 155.182C865.725 155.182 864.051 153.88 864.051 151.276V108.589C864.051 98.731 872.049 93.802 888.045 93.802H906.738C922.734 93.802 930.732 98.731 930.732 108.589V124.306C930.732 134.071 922.734 139 906.738 139ZM873.909 108.496V131.467H907.017C916.224 131.467 920.781 129.049 920.781 124.399V108.496C920.781 103.753 916.224 101.428 907.017 101.428H887.673C878.559 101.428 873.909 103.753 873.909 108.496ZM1008.04 123.097V128.584C1008.04 135.559 1000.98 139 986.84 139H950.57C947.594 139 945.92 137.791 945.92 135.373C945.92 132.955 947.594 131.746 950.57 131.746H986.84C994.466 131.746 998.279 130.63 998.279 128.584V123.376C998.279 121.237 994.466 120.214 986.84 120.214H967.682C953.453 120.214 946.478 116.866 946.478 110.077V105.706C946.478 97.801 953.732 93.802 968.333 93.802H981.074C984.143 93.802 985.817 95.104 985.817 97.522C985.817 99.94 984.05 101.149 981.074 101.149H968.333C960.242 101.149 956.15 102.637 956.15 105.706V109.798C956.15 112.309 960.242 113.611 968.24 113.611H987.398C1001.16 113.611 1008.04 116.773 1008.04 123.097Z" fill="black"/>
<path fill-rule="evenodd" clip-rule="evenodd" d="M159.563 3.58319C157.237 5.54183 155.329 7.73568 155.321 8.4597C155.316 9.18257 153.162 13.0229 150.535 16.9918C147.91 20.9619 145.761 24.4374 145.761 24.7174C145.761 25.1798 137.732 38.375 134.955 42.4759C134.314 43.4225 133.274 45.3398 132.642 46.7362C132.012 48.1326 129.413 52.5215 126.868 56.4892C116.466 72.701 109.865 84.8246 109.865 87.7172C109.865 94.0807 112.838 96.7462 134.284 109.599C145.865 116.541 156.311 122.737 157.496 123.368C158.681 124 163.122 126.634 167.364 129.224C185.901 140.537 196.86 146.82 200.144 148.017C203.022 149.066 206.228 148.758 217.494 146.355C238.241 141.93 244.149 140.068 247.753 136.82C253.083 132.013 253.189 127.64 248.186 118.758C241.072 106.126 235.395 103.448 225.155 107.892C210.739 114.148 192.759 115.479 179.419 111.279C165.58 106.923 158.001 100.681 151.611 88.3724C148.052 81.52 147.732 79.9825 147.647 69.4401C147.573 60.0864 148.067 56.6751 150.321 50.9816C153.668 42.5286 161.228 33.9632 171.616 26.855C180.491 20.7818 181.658 19.1306 181.658 12.6432C181.658 6.71104 180.154 3.96412 175.699 1.75421C169.951 -1.09596 164.369 -0.463728 159.563 3.58319ZM188.239 45.2331C178.183 49.4889 173.928 63.2257 178.541 76.5391C182.362 87.5692 193.398 93.9797 206.088 92.5432C213.067 91.7538 218.166 87.7183 219.93 81.5889C221.511 76.0996 220.006 71.6282 212.361 59.1145C203.868 45.209 197.268 41.4111 188.239 45.2331ZM90.855 117.918C88.9345 119.653 85.772 123.913 83.8276 127.384C81.8832 130.855 79.0726 135.654 77.5805 138.047C76.0884 140.441 75.1323 142.652 75.4554 142.962C75.7785 143.271 78.4025 142.787 81.2874 141.885C96.0995 137.254 111.876 137.385 123.165 142.233C130.054 145.19 140.563 155.377 144.08 162.506C149.187 172.856 150.211 180.199 147.788 189.06C142.401 208.752 127.702 224.237 102.685 236.57C96.5386 239.6 93.473 240.404 88.0706 240.404C79.9807 240.404 77.6558 238.728 76.7536 232.244C75.8897 226.029 79.1037 222.485 88.5708 219.219C103.718 213.99 117.287 203.74 121.323 194.476C125.317 185.309 121.72 173.61 113.157 167.92C106.788 163.687 97.8333 163.125 85.9336 166.21C64.2353 171.835 57.1147 174.038 55.5448 175.614C52.5259 178.642 0.836108 265.47 0.180399 268.615C-0.650007 272.596 1.3949 276.126 6.14042 278.9C9.77314 281.024 12.6185 281.13 66.5494 281.133C129.019 281.138 128.179 281.231 132.228 273.947C133.362 271.907 135.253 267.656 136.429 264.5C137.605 261.345 140.15 255.149 142.084 250.731C144.018 246.314 149.633 232.889 154.563 220.898C179.462 160.336 179.063 161.614 174.438 157.178C173.099 155.894 169.181 153.183 165.733 151.154C162.284 149.124 158.399 146.84 157.1 146.077C155.799 145.313 151.505 142.908 147.556 140.73C143.607 138.553 131.801 131.82 121.318 125.768C99.9224 113.413 96.7468 112.595 90.855 117.918ZM256.442 156.044C254.468 156.547 244.776 158.376 234.904 160.107C225.033 161.839 213.456 164.091 209.178 165.114C201.624 166.917 201.314 167.136 198.409 172.783C196.764 175.98 194.769 180.11 193.977 181.962C192.618 185.137 189.208 193.205 166.051 248.03C160.815 260.428 156.53 271.371 156.53 272.348C156.53 273.326 156.629 277.13 158.217 278.9L160.093 280.056L162.302 280.564L182.249 280.951C204.412 281.381 208.152 280.634 211.092 275.181C213.442 270.822 212.355 267.777 206.626 262.669C201.374 257.985 200.756 254.294 204.187 248.123C205.841 245.151 208.841 243.178 218.57 238.657C225.332 235.516 231.054 232.946 231.286 232.946C231.517 232.946 237.541 230.312 244.673 227.091C251.804 223.87 261.677 219.419 266.613 217.2C271.548 214.98 279.392 211.445 284.042 209.345C292.995 205.299 296.13 201.622 294.6 196.958C292.999 192.08 271.115 157.153 268.971 156.051C266.42 154.742 261.56 154.74 256.442 156.044ZM294.133 232.588C292.255 233.225 283.48 237.098 266.985 244.571C261.596 247.012 256.802 249.01 256.332 249.01C255.862 249.01 252.517 250.353 248.901 251.992C241.309 255.437 240.621 254.606 258.237 263.239C265.147 266.626 275.108 271.539 280.373 274.158C293.228 280.55 298.203 281.681 306.345 280.06C318.726 277.596 326.44 268.381 326.44 256.057C326.44 245.474 320.917 237.705 310.396 233.489C306.281 231.841 297.735 231.367 294.133 232.588Z" fill="#3E89EC"/>
</svg>
